<mxfile host="app.diagrams.net" modified="2023-01-11T07:22:11.747Z" agent="5.0 (Windows NT 10.0; Win64; x64) AppleWebKit/537.36 (KHTML, like Gecko) Chrome/108.0.0.0 Safari/537.36" etag="Z_P_uJCqNzV2oU5GzmcO" version="20.8.3" type="github">
  <diagram id="F0pwXJES7YNs4vpcy9Ob" name="第 1 页">
    <mxGraphModel dx="1434" dy="764" grid="1" gridSize="10" guides="1" tooltips="1" connect="1" arrows="1" fold="1" page="1" pageScale="1" pageWidth="2000" pageHeight="2000" math="0" shadow="0">
      <root>
        <mxCell id="0" />
        <mxCell id="1" parent="0" />
        <mxCell id="U7bG7EFXdmdKz-S8Kl_f-1" value="" style="shape=image;verticalLabelPosition=bottom;labelBackgroundColor=default;verticalAlign=top;aspect=fixed;imageAspect=0;image=data:image/png,iVBORw0KGgoAAAANSUhEUgAABskAAANJCAYAAAE5LOKVAAAAAXNSR0IArs4c6QAAAARnQU1BAACxjwv8YQUAAAAJcEhZcwAAFxEAABcRAcom8z8AAP+lSURBVHhe7P178D1VeeeLT9XJmUly6pyaVCaVUNb4G/44lfmd+WV++UmNplJfJOELAcvrMWFAlGiM5DqUl6iDIRpH/aqDeE2GTEIdIBMGoxMPRsYIGJHErxoR+MbREQOegNwcIH65iFy+gPvX7+713nn2+rx39+re3av37n6eqlf1bfXqZz3rWetZq7t373/QkywCEF+vZA7r6wTH3xyWY6wrwTEux1jfXB588MGFMz9C9e8RlTYXxeWlXiptLorL99PYVObO9AnVv0dU2lwUl/eG5kyLUP17hMePOuqoEqx/9atfXezfv39x4YUXlvsOHDiwkldfvOENb6htaPfcc0+pgz1naIrLrxvOthOVuTN9QvXvEZvmjDPOKIGDo6GhgV199dWLSy+9dCWvviguX9vQABs/l0NTXH6trVqJypz8+I//+OLOB7/UGZwf56nStUHlyX1Y2vXUYwTb6pptsPmp420YKi8Qqn+PxOlyUly+saHlpri8N7Q+8uszr23WzeYFQvXvkThdTpqGjmNQXH74oWNTQ/vbe78o95Nda2hN5U3B5mf3v+KXXrayncK6vMAHL7tgz746bF4gVP8eidMp/uXr/qwzKj9SXH4bG9paW/2DYjz95hNOOOGbYbOUYvv6sLoiKnNS53jPf8Hzem9on7n+8sWNt3928bsXnCuPg21uaHW62YZ2699dtzjxxBOXwI6nnnZKuW7PWZcXQEO77b5Di0M3X12ed94H3lraD+uqUdu8QKj+PRKnU6gGlIrKjxSX342GBiOjkQFsF43rofJAIX03tBTaNrSmhgvaNjQ4o9pPUvNCB6D2x6Tml8JQeYFQ/XskTqdQDSgVlR/xoWMNcS9sadvQSJs8VZo22LxSyltHk26MNohCz3nOs1f2qzLX5UU+8vGLF39z5+fK9de94ZV7jhObFwjVv0fidArbcI45+4rFqe87uHjX5TcunnHOlYtHjjxR7r/jWw8vLrv29sUnDt21kl7lR4rLb2NDW2urVqIyJ3WOV9cYSNuGhjwxJIIjquNgyIamjrchpaFhiIghHved/KyTy+2m4V58zIKGhganjhGbFwjVv0fidArbcNqi8iPF5Ts1NNj9s6f/QGdUnqS4/LgNLYW2DS2FIRvapuUFNj91vA1D5QVC9e+ROJ1CNSBENSwRwRDlvnzb/YtXXXz9nnQqP9J16KgaGuS2P3nncv3JI48uPvfzP7wnHVB5kuLy2zF0rGPXGpo63oZt1s3mBUL175E4nSJuPJbDDz0m9xOVHyku31tDu/G8F5UN7dtfv365HachKk9SXH6trVqJytyZPqH694hKG6MaUCoqP1JcvreG1gaVJyku7w3N6U6o/j2i0saoBpSKyo9sMnRE5Hrga58vGw7ku088Xm4jqoEb3/OScj/kscPfLNMx2qk8SXF5f9fR6U6o/j2i0uaiuHznhsboRG655JxyCYmPxag8SXH5tbZyceksytlyUVy+t4ZG/uoXnrKMXOtQeZLi8t7QXPoX5WwxcOyuqPxIn3cdCYeTdag8SXH5foaOLi5WlLPFqLlXKio/Uly+94aWgsqTFJeXOrm4bCTK2WJUA0pF5UeKy3dqaENSXN4bmkv/opwtBg0Gr1xhCTnrouuWDQmCJR5YcxuvYz36+JPltsqPTPpdRxcXK8rZYtiouqDyI8Xlt7GhSZ1cXDYS5WwxtuFQ+DIxXrvCy8U33HK43G/TApUfKS4/3YamMnemT6j+PaLSxtiGgwbGBsXGZsWmBSo/MsRdxxRUnqS4vD+wdroTqn+PqLQxceNpg8qPFJffxoa21latRGXuTJ9Q/XtEpY1RDSgVlR8pLt9bQ3vknlvL5b2f+8ieYzEqT1JcfviGhgJsSt95DpmfOt6WPvMbKi8Qqn+PxOkUKv9UVH6kr6HjX//mT5XDVqyzoXFbofIkxeXz/EzmQ196T2eUYVW6NgyZX9/lVWnaMFReIFT/HonT5aS4fC8NrS0qT1Jcfq2tWonKnHhDa8eYDe2SL54r97/+3F8tlzYvEKp/j8TpclJcvteGhmiW8nKxypMUlx+3oaFif+fyNy1+8ZUvlsdBSkN71rNPXubxmreeudx/2st+dmWbNOUHnbA86eSfWXzw0Lv3HI8d0uZVV17oCC7+7DvkcdC2oTFPdQzEeaHRwC4vOOW5i2c/71nlPuiDbZSL+5CGefTd0FBGNfdKReVJ+r7rmDI/AypPUlzeh46p+bHxKWxefZdXpWnDUHmBUP17JE4XgzKqBpSKypMUl++1oaWi8iTF5ffqFL7neH3BZWHXPzjmmGO+P6xKUZmT2PFe8eqXlEt8ZOYtF7x6z/6Y2PGASoceGcv3f/SNMgpZ1uVnz0OPjp78eS989nIfUMMrm1dcXnLB1W8ry4z1dWUFcXnj4y/9tdP27APIuyl6Y5t2Apded165RFmpG/JgBIv1tHmBUP17JE4XgzKqBpSKypMUl+/c0DZB5UmKy+uGFlaTRWVOoIStLMKKJX00NBDnq1iXHxyMerChYb0umgGblypvallBXN74+Nsvfm2ZH4aLHN4xf9XB1OXVFpsXCNW/R+J0MSijakAAH+jZ96ZPymNE5Ukm/a6jypysa2ippDa0NgyZX9/lVWnaMFReIFT/HonTxdQ1tBRUnqS4/DY2tLW2aiUqc+INrR1zbmgUdcyi8iTF5efZ0JzpEqp/j6i0lnUNLRWVJ9nkruMmqDxJcXl/19HpTqj+PaLSWuCYqgGlovIkxeU7NzR1NzEVlScpLr/WVq1EZU5sq+9KnOc1heKbEOenrtmGPvMCfeZn8+qbUP17RKW1QC/VgFJReZLi8vNtaGq8n4pylkuuPXcj4vzUddtg8+q7vCpNG2xefROqf4+otLkY4mcyELVuUXmS4vK7eddRNR7wrNOfuVz/Z//8KYsL//LAynES52evh1vvfL6EdTz/wrMzvtHR9KzKG9q4Da24fO8NLQWVJykuv9ZWrURlTlAAPO/hMx48UMaSz4AAXvvBNp2YD4XxClSbhpZKnB/16IrNiw0Nr4XZNCgTysdncnzVCc/+8GyMZU9paMgb59h9zJf2JTavvgnVv0dU2hiUsysqP1JcvteGRlHHLCpPUlw+T0OzFd8WZVg2mD/8/DtXGtAxx/2LslB2H8C+F5554uK9Hz178e8uOmtPfuq6AA+s4dRt3jTpu7wqTRtsXn1TVr4QlTZGzb1SUfmRvoeO+Aw4XyquQ+VJistvz9ARbzcQvpEB6hoaeOMf/FrZkH79baev7D/zt05ZHrf7QZyf1aMLNq+4vIgwKJN6dcuWk7RtaMgD14gjKLF5rePqq69ePPWpT5XH6qhqf6+otDGqAaWi8iPF5XttaKmoPElx+bW2aiUqc0LHgzOo+Q2xQx44D4dCTQ0t5h993z+U+y1xfrwu4GtceA/TvgvIV5+ATQ9sXnFDI/a9zjqaGhrfVaQ+f/SFf7/Uqek9zL4J1b9HVNoY1YAgXK/76yaVHykuP++G1pW2DS2FOD97PTYmzKHYMXA+iRsiXRtaKk0NrS02r74J1b9HVNoY1YBSUfmR2T6whhLKAVJRhVCNpw1xfuq6bbB59V1elaYNNq++CdW/R1TaGNtwfueKv1mcf9VNK/uI/bAqUfmR4vKdGtqQFJdfa6tWojJ3pk+o/j2i0sbYhoNGBsFf6p504NPL/fiuo01HVH6kuLw3NGdahOrfIyptjGpAqaj8yGx/JuNMl1D9e0SljVENKBWVHykuv40Nba2tWonK3Jk+ofr3iEqbi+Ly3tCcaRGqf4+otLnoe+h41FFHLQ4ePLhcj4+nUFy+n6FjIWWrDZn6+nzWpeDYWBSXl3qptLkoLr/WVi4unUU5W4yae6Wi8iPF5b2hucxDlLPFqAaUisqPTPquo4uLFeVsMaoBETxPU/uJyo8Ul9/GhiZ1cnHZSJSzxagGRPCXuvyfNIXKjxSX94bmMg9RzhajGlAqKj/iD6ydyRGqf4+otDGqAeEP4bHE0BGCdS4tKj9SXH4bG9paW7USlbkzfUL17xGVNiZuPJbLrr197XuOQOVHist7Q3OmRaj+PaLSxqgGlIrKj/jQ0Zkcofr3iEoboxpQKio/Ulx+GxvaWlu1EpW5M31C9e8RlTYXxeXn2dB+7i3/aiPi/PDDSJWuDTY/dbwNNq++81PH2zBUXiRU/x5RaXMx26GjqrQ2xPntUkM7+JUrV7ZvvvMr5fLRI4+U2GNkXV5dGCovEqp/j6i0MajHrqj8SHH5bWxoa23VSlTmRFUauPG2Q4tzP/Taxa+8/7mLu++7c/HAdw7LdHF+MLRKB+C8cG46OK4RpwE2P3WcfOrQny5ef8EZ8hixeTXll0JdXtTnQ9f8QbkNm7HMPH742/cu06u8jjz+WHnLPLYRtl/8jmeW6xCmJzYvEqp/j6i0MWrulYrKjxSX352GdsIJJ9yGf/wE+/fv/0H++yc+TFMmiERlTuIKU6xrECDOr66hpWLzU8fbYPNS+dFpX3ru8WVEO+3AT5bb6Fzo7Ja6vNpSl5e6dh02LxKqf4+otDGqAaWi8iM+dDRA4GjqWEyc37qG9s4/fk25PPzgPXuOxdj81HFEWSzf93//1p5jMTavdfm1oS4vRjI2VttYIFwndXlxRIE81w1jLTYvEqp/j6i0MaoB4dUrgH/8hKg0QOVHistvY0Nba6tWojInqtJQsWhoGMZgG47NhhIT55cjojH6wAnP/9hbFw8+fP/iiSefkGltXjY/lA3lZMOHYyNfrMPBGdEuvuq9K2VXeRHV0DjcU9TlBR0gyBPli4/H2LxIqP49otLGqAaUisqPFJf3htaFOL9dGjqiEaGB8SYI1jlMRkNDw0MDRjqesy6vLgyVFwnVv0dU2pi48fBLWFy/676HF/c88Kj8P2uVH/GhY0fi/HZtjtaWXciLhOrfIyptjG04GC7abTQwNrRnnHPlyjGg8iPF5bexoa21VStRmTvTJ1T/HlFpY+LG0waVHyku7w3NmRah+veIShujGlAqKj8y26Ejhnqb0Hd+oM/8bF5956eOt2UIvUio/j2i0uaiuPw2NrS1tmolKnOixvttiPNDpat0bbD5qeNtsHn1nZ863gbbQNTxNli9SKj+PaLS5qK4vDe0LsT5eUNLJ25ofDzQBasXCdW/R1TaXPhdxwjc2obwmdA64vzqGhqfR9U9WwI2P+7D7XbqglvwWGd+uAXPY3j+xHOAzcvmB6AHH34zDz6o5y3/mHV5WWA7+8oa8lT5qYYGnXC+fdhNnfAKF5Z8gM39wOpFQvXvEZXWAr3U3CsVlScpLr+NDW2trVqJypyworoS5zdURKOTtcXmZfNbh31mpmiTVxNxQ9sEqxcJ1b9HVFqLN7SOojIncYVdeMW7y0j2F1/6eNmrUtY5epyfamgQOjCi0LoXlInNTx0HiBAUbDOSQexbIjYvlR+igxVECfVGCKnLywLBC8Z820SxrqHZCIgoi0iHyIs6QDS30Y5YvUio/j2i0lqGbGg+dAzAOSAcihFUcpPjAdXQOMSh83RpaGhIsYPhNSo7ZMR1sLTDNJuXzS8GAidGHuqNEJKSF3WgqDRgXUOL4RsrzCt3Q+N3HB99/MmV/QDfDjn1fQdX9qk8SXH5bWxoa23VSlTmJK6wtsT5qYbWFpufOt4Gm1ff+anjbUhtaClYvUio/j2i0lrihtYWlScpLu8NrQtxft7Q0tmVhobXrPBO4zFnX1Fu2y8V4zUsrhOVJ5nt0NGZLqH694hKa4kbGr5KjIYWv/O4DpUnKS6/jQ1tra1aicrcmT6h+veISmvxoWNHUZk70ydU/x5RaS1DNjS/69iROD9UkkrXBpufOt4Gm1ff+anjbRgqLxKqf4+otLkoLr+NDW2trVqJypyoSmtDnJ83tHSGyouE6t8jKm0uist7Q7PYB9R8fqOI81MNDYJnZ3hGBcE+fi4hTgtsfvExCvPiA+GUvFR+eN4F3dSzKUVdXsS+s6iePRKVlxVsv+WPfr3UjcJ0KLd91mnzIqH694hKmwsfOkagodF5bQXHxPmphsa3NmxjgPTR0LCvrrHZvFR+aPAAzmzf4uiiG2FDw0PmLg0NtodgG99EgW52H1n3iQUSqn+PqLSWIedoxeW3saGttVUrUZkTW3EEDgexFbnuzfI4v3VDR0QNOB1fmlVpiM1PHadAv3UNgti81uWnSCmv3W/T44M/jDYQviXC42RdXgCdE4TRLD4eY/Miofr3iEpr8YbWUVTmRFUagaAnhROhd1Zp4vzWNTT7xv6mDQ2Oyzzo4Pfcd9dKGmLzWpcfXrdiY/jKrdcll9fuxzmAgn0qDx4D6/IC8atkHMrz1wYxNi8Sqn+PqLSWNg0Nf+EU71N5Eh86diTOb11Da4PNTx1vg82r7/zU8TYMlRcJ1b9HVFqLbWh4WM0H1uq/q9s2tOLy29jQ1tqqlajMiaq0NsT5eUNLZ6i8SKj+PaLSWtpENIXKkxSXn2dDc6ZLqP49otJa4oZ2+KHq/wCwHn/HkfstKk/i7zo6kyNU/x5RaS0e0TqKytyZPqH694hKa/GG1lFU5s70CdW/R1Ray5ANzYeOzuQI1b9HVNpcFJffxoa21latRGXuTJ9Q/XtEpc1FcXlvaM60CNW/R1TaXPjQMeLw4cNyv7M7hOrfIyptLorLb2NDW2urVqIyd6ZPqP49otLmori8NzRnWoTq3yMqbS586OhMjlD9e0SlzUVx+W1saGtt1UpU5s70CdW/R1TaXBSXn25DK4SZIUT6+nzW10nTeUOvK+FxyFjrG0lT5r5eyVTXY+nSMPpcXydMB8m9vrHIUOlMm+c///nXhPpfEZU2J0GNWGTaXAQduovK1Jk+RdVL51FpcxLUiEWmzUXQYSORGTvTBvVeVf+q8PjTnva0xVFHHbVMj1vtXLf7+yaosSL2+NFHH704ePDgyjngnnvu2bOvL4IaG4nM2Jk2TcNFvulz9dVXl0s0siEdmQQ1YlkeRwNnI8cS+lGvCy+8cJmuT4IO3UVlarnzwS9txNB54ucZgOvxMuWYRV2vDTYv5K/SpGL1U8fbYPUCRdU3Ro0xCGrEItPmIuiwkciMiaqwNgydpzreBptX3/l5I2tPUGNFVLqcBDU2EpkxURUGXveGV8r9MW3yTGWovPrOzzayE088cbn+il962XK9jrpGlmp/YvUCm9xdVD/YbIPKkwQ1YpFpcxF0+HvZv3//y48//vjTTjjhhMuK9ZvCvm+UB4WoTC2qwsC/PefV5RKV/bsXnLvnOGmTJ2lyoDZ5NWHz6ju/OJI95znPXhy6+eplI7vx9s+W2x/5+MWLT3/ho4vnv+B5K+nrGhns/7f3frFsvJ+5/vKVRmzXidULFFXfOWqohtMGlScJasQi0+Yi6FAJGlbBY2Yd7Cu4vkygRWZM4spqy9B5quPktvsOyf0Wm1dTfgCNQe0nNq+4kbWlrpG1xeoFUO9V9a9KnE6hGk4bVJ4kqLEiKl1OghobicyYqAqLUT0n6ZIn8kvNUx0niBx1+QCbV1N+Kdi8VCODPohg8f7zPvDWPfubGhk6EZxjy4ioaNMQqxfoa7hY9++d6g/ggcqTBDVikWlzEXToLipTi6ow0NQQSNc86/JOySsVm1ff+dVFsg9edkE55Lv1764rGwsaB4fgJDWSoaFhCFrXqVi9QFH1naNG3GjaovIkQY1YZFrLZ0//gc5YOyuCDhuJzJioCmvD0Hmq422wefWdX10jSyG1kaVg9QKo96r6VyVOp1ANBzBq3fGthxePPv5k+envOA1QeZKgxoqodDGq8dxyyTnlB1lvfM9L5HHijUwwVF5957fNjazPu4snHfh0OTTkNhoZ9oGzLrpuJS1QeZKgRiwyrUU1ntv+5J3lko3s7msuWTlOBm9kKlNn+hRV3zlqxI2mLSpPEtSIRaa1qMaTyuiRzJkmqPeq+ldFpY1RDacNKk8S1FgRlS4GjQWR6rqzfqwcImL721+/vhwyPnnk0XKb++/93EcWj9xza7kOvJE5gzC1n7qwwcSgQWHJhqbI0chcXJainCwnQY1YZFqLajypeCNzySrKyWLglJug8iRBjRVR6WJU40mli04uLp1FOVmMmme1QeVJghqxyLQW1XhS8UbmklWUk8WwseBWvW08eDbGdb4JEv+RIFB5kqBGLDJtLoIOLi79iHKyGDSUJ578btnIjjn7ivIh9Lsuv7FsZFy3jQyySSNT6XIS1HBx6UeUk8WgocRRrA0qTxLUiEWmzUXQwcWlH1FOFhM3GiuXXXv7cj+inE1HVJ4kqBGLTJuLoEN3wfMSlbEzbfp8reoZ51xZNjCs41WqTxy6a7mtUHmSoMaKqHQx6oZGKjlufMiMnWmDeq+qf1VU2hjVcNqg8iRBjVhkWotqPKl4I3MGAfVeVf+qqLQxquG0QeVJghqxyLQW1XhSGbyRNQ0XocAmDJ2nOt4Gm1ff+anjbRlCL7DJcFHl3waVJwlqrIhKF6Maj/2JC95r5CtWMV10aisyY/KhL71nI4bOUx1vg82r7/xQeSpNKrby1fE2WL0A6r2q/lWJ0+UmqBGLTGuxjWZdY4Ko/d7IBEPl1Xd+3sjaE9SIRaa12EaDRoa37xnJIFiH2HRk8EbWNFxUFWZ5ywWvlvtJap4XXP22xevP/dXFL77yxeX2aS/72cX7P/rGcvuSL567klblhXQ89zVvPbM856STf2bxwUPvXlx63XnL/Rd/9h3Lc4DNy+bXFZvXukb27Oc9q1xS33Wsa2Rvv/i1y3WUk/kBlBHLV7z6JUs7YNvqBfq8u9iGLg6t0sWoxpPK4I2sEJkxYeV1Zeg81fE22Lz6zm9dI0tlXSPrgtULoN6r6l+VOJ1CNZ5UOjq0TGtRjSeVVjrh02/hM3DX44Mq+Bwc9h977LFHlwm0yIyJqrBnPfvk5UdvuA+R6AWnPLfsQW3alDwRbbBEfuyJX/prp5WRzaYjKi9cH1EVOmAbvT10YbT4pd84Y5mW1wM2L5sfYeSz5V1XVmDzUo2MkQWRGlBfxbpGBj3seWe98eVL3ZAnltQNdYWl1Qug3qvqX5U4nUI1nlSGamTIdxNUniTo8PeCRnbcccd9b9gsBR88Dat7pM1wkQ0AsFJjR4uHj015WjisszQ5MvehMSEtnQyoc5v0s8cIy4rhq92vhso2L1RefJx5sfF3aWRdsHqBIYaLfEFYvRRMWjt0ISpdToIaG4nMmKgKa8PQearjbbB59Z2famRtGLKRod6r6l+VOJ1CNZ5UujSyQmTaXAQdNhKZMVEV1oah81TH22Dz6ju/OTUyvE4FwTpeq7L7uQ5m2ciahovONJna3UXkuwkqTxLU2Ehkxs60Qb1X1b8qKm2MajypdHRomdai7hqmMnojs629CyrPogvdCJuXumYbbF5956eOt8Xm1yeo96r6V0WljVGNJ5WmMgU1YpFpLarxpNJRp3Rpc3exCyrPS649dy3POv2Zcr/F5mWvxdvVbbB5xfl1weaFylNpUhmykW0yXBySoMaKqHQxccPBNxexxKfg/vo3f2rxhTOPLt9fVJ/sHryRFSIzJqry26DyVA3nhWeeuFz/X/7X7yuX0I37LDYvey00Mr79gFv5eJ6F9fiNEYvNy+ZnH1e0wea1zY0Mti1rPxKVNidBjVhkWkvccNqwFY0MrydhCcel82Hdvs7DZ0h4eAunXvc6D1ANpw02L16/KzYv5ofndSjn71z+pnIdZbHPyGy5617TihsZH4Iz4tKuyB952md8YFsbGfTaBJUnCWrEItNaVOMBiF54j5GRTdFRp3QZe7h4zHH/olz++ttOLyse62f+1imLf/bPn1KuY9+P/NN/sjj/yt9enmPzUtdUD3gR1ew7f8TmtS6/Nti8UHkqDYkbVUxT5W/CWHcXgcqTBDVWRKWLUY0HPPC1z5dguKiOg8EbWSEyY6IqPwZvMaDnj1/tASpPNhbyj77vH5ZLNqwL//LA4r0fPbtseNiO52k2L16nKzYvlR/KBN524W/sOaawedU1Mg5trd1imir/q1/96uKpT31quX711Vcv11NAvVfVvyoqbYxqOG1QeZKgRiwyrUU1nlS2opHxXT0OnawjwFHWvWMIVJ62wSj+8PPvlPuJzUtdE+CVqlgvOHMczWxedfkBO0xch81LNTI0KtgQjayugYGmyt8E1HtV/aui0saohoOvV9l/1Xzvx7+29otWKk8S1IhFprWoxpPK4I1sG+8uYniojhGbl7om546YU3EfGlfTu4br8muDzUs1sjYM2cimNlyErTZB5UmCGhuJzJioym+DylM1nDbYvNQ122Dz6js/VJ5Kk0pT5W8C6r2q/lVRaWPiRnP59Xcs/1Uz5XuMKk8S1IhFps1F0GEjkRk70wb1XlX/qqi0MXGjwdeCIfhXTfveIr7BiK8J27RA5UmCGrHItLkIOnSXpuGiM02mNlwckqDGRiIzdqYN6r2q/lVRaWNUw2mDypMENWKRaXMRdNhIZMbOtEG9V9W/KiptToIasci0uQg6dBcfLs6TTYaLQxLUWBGVLoVLL720XB511FHL9S4ENTYSZlTi6/NZL9gjOD4mQY1YZNpcBB1cXPoR5WQxap7VBpUnCWrEItPmIujg4tKPKCeLUQ2nDSpPEtRYEZUuJ0ENF5d+RDlZjGo4bVB5kqBGLDJtLoIOLi79iHKyGNVwAP7074ZbDstjFpUnCWrEItPmIujg4tKPKCeLUQ2nDSpPEtRYEZUuJ0GNjURm7Ewb1HtV/aui0sbEjYbR69Ct1RLvL1JsOqLyJEGNWGTaXAQdNhKZsTNtHnjggTeH+l8RlTZGNRwLGh3+4lYdAypPEtSIRabNRdChu6hMnelTVL10HpU2RjWcNqg8SVBjRVS6nAQ1NhKZsTNtUO9V9a+KShujGk4bVJ4kqBGLTJuLoMNGIjN2ps0mw8UhCWrEItPmIujQXVSm5Ofe8q82Yug88aNGlSaV+EeRKk0bbF595rdpOYHVCxRVL50nTpeboMaKqHQ5CWpsJDJjoCqrDUPnmauRvfOPX7M490OvLddfeu7xe44Tm1ddfqkwn21rZNBnE1SeJKgRi0ybi6DDRiIzBnFFHf72veXyU4f+tLw9i/Ubbzu0ePTII4vXX3BGiU2fkic47cBPlssHvnN4cfOdXynXcQ2bhti8UGEqDYFed993pzwG4gpXadpg87L5QQ80TiyxffArV5bLP/rzD5RlxjrKC1vyHMB8bDkhL37HM8t1nMM6oe1RXub/jbu/Xi6B1QsMeXexCZUnCWrEItPmIujw94J/1yz4GJb79+9/8759+34IX0QKh/eIypSwgroydJ5NjayJpkaGCMYOAOtYYhuOzMhmsXmp/NrCfNqWkzpbrF6gqHrpE3E6hWo4bVB5kqDGiqh0OQlqbCQyYxBXFIBwHY6mKpSk5kkgcOaLr3rvnl6d2LyGbmTrgH5qv80rJT801g9d8wdluVXkZj6blhNYvQDqvar+VYnTKVTDseBbH3jFSh0DKk8S1IhFps1F0GEjkRkDVVkWSB+NDM6GfOC8Rx5/bPHnN3x0OWyMsXmtcz467Ndu/9KeY5a6RsYhFzoS2+AxVOOxuOw2rzg/AIFuv/L+55adCcqNbVxDNVzmo8oJiffVYfUCPlxMJ+jQXVSmRFVWG4bOc9Mevq6RATYmi21kMTYvlV9bmM+m5QRWL1BUvXSeOJ0ibjT4IhXkMzfeU37gFP+uiSX+O7qPr1WpdDkJamwkMmOgKqsNQ+c5dCNri82rz/y2vZGdf9VNZcPCp+FedfH1ixec95dlIwOHH3psT3qVJwlqxCLT5iLosJHIjJ1p48PFdIIO3UVl6kyfouql86i0MarhtEHlSYIaK6LS5SSosZHIjAGGKZswdJ7qeFv6zM/m1Wd+6lhbrF4A9V5V/6rE6XIT1IhFps1F0GEjkRkDNbZvw9B5wnlUmlRi51Np2mDz6jO/TcsJrF7A311MJ+jQXVSmRFVWG4bO0xtZOlYvUFS9dJ44XW6CGiui0uUkqLGRyIyBqixi34ZYR5s8IXgwi2dGqe8HWufjszYs+doR8gFPPPnEMo29/d7UyJAfnmkxb+zD8yyUXT3Hs3mp/HBt6IPzmx7kA+bDcvJ5HXTiq1rQDa9UsYwkfsxg9QKo96r6VyVOp1DzrFRim8cENWKRaXMRdNhIZMbAVlIXhs5zXQ8fv0O5jqZG1habV5/5rStnG6xeYKy7i7NsZCpToiqLgnX0llxHj2rTgZQ8KWq/euhr82pyPkRGrqs3KlIaGQRRB0J91kUgm9e6/ACiIOS8/3K2PE6YD8tpy8CXjSGwPaKaPY5trgOrFyiqXjpPnE6hGk8qXRqZSpeToMZGIjMGtpIIRO1XpOZ5yZ//zso2r6Gc2eZF50PkwtvsGCbCuex5fMWqayPD0A5LiGr0FpvXuvwsFHUMMB+WU8EhJCU+TqxeAPVeVf+qxOkUttFAsOSf/+HbHvYPAfEfZfY/y7o0skJk2lwEHTYSmTFQldWGofOsc74UUhpZG2xefea3aTmB1Qv4cDGdoEN3UZkSVVltGDpPb2TpWL1AUfXSeeJ0CtV48GoVlni1ituIYsCm69LIVLqcBDU2EpmxM21Q71X1r4pKG2MbDWEjs+DTcHin0e6bZSQrRGbsTBsfLqYTdOguKlNn+hRVL51HpY1RjScVHy5GqLF9G4bOc9O5SlzhKk0bbF595rdpOYHVC6Deq+pflThdboIasci0uQg6bCQyY6Aqqw1D5+mNLB2rF/B3F9MJOnQXlSlRlQUoeDaFV3xUGtAmT4BPD2DJZ1vxA1Vg84qdzz4Qv+6mz5TbEGxD4gfmKY2MD3mtoNyQOK3Na11+BM/fkDcedKvjgPmoRsay8DkZXwyA4BgeVtvPJli9QFH10nnidLkJaqyISpeToMZGIjMGrCAFpa9GBsdgI8O6amDA5lXXyLgN4RsW8fHURmYfSEOwrhqHzWtdfoCijlmYjy2n/fQblugAuC8up314bvUCqPeq+lclTqdQc61UYpvHBDVikWlzEXTYSGTGgBVUR91Lrql5UrgNx7G9sMXmpXp4fv0J61yuI6WRWdChtCkv99PZ+dYJl3xdixK/c8l8VDlxLjolSnw8xuoF/O5iOkGH7qIyJaqyAF5fojPD6Ti8i0nNk1EL+SIvOOHhB+/Zkw7YvJTzATZQOvO616FSGhmcGWWktCkv9/P6EJzLZRwNIWqIp8qJPJHWNnqea9/ZJFYvUFS9dJ44ncI2Gj58TqVLI1PpchLU2EhkxiCuqLYMnee6RpZKSiNrg82rz/w2LSewegHUe1X9qxKnU9hGw0bGh854wwNfqML7ivhaFd9jJF0aWSEybS6CDhuJzBioymrD0Hl6I0vH6gV8uJhO0KG7qEyd6VNUvXQelTYmbjgQvoUP+K1FSPxH7V0amUqXk6DGRiIzdqYN6r2q/lVRaWNso2nLLCNZITJjZ9r4cDGdoEN3UZk606eoeuk8Km2Majyp+HDRmQ2o96r6V0WlzUlQIxaZNhdBh41EZuxMG393MZ2gQ3dRmTrTp6h66TwqbU6CGiui0uUkqLGRyIzXcfjwYbnu7Bao96r6V0WlzUlQIxaZNhdBh41EZuxMGx8uphN06C4qU2f6FFUvnUelzUlQY0VUupwENTYSmbEzbVDvVfWvikqbk6BGLDJtLoIOG4nM2Jk2PlxMJ+iwkSATGBxLX5/XupJN8utjXQn3My0k5/r4olq/4zjTpGjyrToflcdcKIrfxlYyjzmAslcmGF+kgo7jTA+096rZp4nKYy684Q1vSLaVOn8uFMXHjHErRCroOM70eP7zn39NaPdJovKYC0Xx2wR+mcccQNkrE4wsSjnHcaZJ0eRbdTwqj6OOOqoE66effvrijDPOWO7DbGb//v0raez6LlEUv42tZB4s+6WXXrq48MILa+3w1a9+tTx+8OBBeXxbQdkrE4wvUkHHcaYH2nvV7NNE5bGOe+65Z3HgwIEyuAFsq3S7wtC3GZH/1VdfXa7HtkLgs9vbTFH83b/NiE9A3Pngl0aj6RMURJ2bkzo9VfqcKJ2ISp8bpRfYVt9TaXOidLL4bcZ0iuK3CfwyjzmAslcmGFmUcql4MEtjV4PZNtfvtuqm0uZE6WQpmnyrjkflMReK4rexlcxjDqDslQnGF6lgCl06lBNPPHG5/Nt7v1guf/eCc5f721DX2VnUuam84pdeVi6h4+ve8Mo9x1Oo01Olz4nSiaj0Oamzm/K9T3/ho6Ufoc6e85xnr/ga9n3k4xcvnv+C5y3T2+NYXvGXHy7Pu+2+Q/K4ZZ1ucboY5PXByy5Y2Xfr311X+tehm69e/NtzXr047wNvXfodltQZ62gz9twYpZMF7b1q9mmi8uiC+rhnLpQ+KfjbjGkUxa+/zXjCCSdc9tM//dP/32J5eP/+/W8ulvvC8jIcL9Zv2rdv3w8dc8wx3x+2v4ElpEhzfVhNEalgCqpDaQKNFcuTn3XyMphhn+owmqjr7Czq3BQYvLroZqnTU6XPidKJdKlfcOPtn12uowNGXdvjbVB6gTrdcE0EJW6j/rDvM9dfvlKXXOeSgYL619X7ujpVaS3wdQYzXg/BC7ohGENPbGP/qaedUi6hB9LiGLbrUDpZxrrNqIJMLpQ+KRTFbxP4ZR5zAGWvTDCyKOVS6dLZoWESu5+j4TbUBQmLOreJWE+lcyp1eqr0KXSxl0LpRFT6FGwwwzo75bbU2S3F92ydQQ9ug3ib6bHkgKuOdbqptHXYwPk3d36uXKYErXUonSxFk2/V8ag8uqCCDGj7R7BdUPqkUBS/ja1kHnMAZa9MML5IBVNI6VBicCuF6+//vXesHGtLXWdnUec2YfUk6GjiW0Qp1Omp0udE6US61G/fKL1AG90QHBg0WH8YDKA+CdJwJp4STNbVqUqr4GDkL6/7WLmEDghmCKQq0KaidLKgvVfNPk1UHl1QQQYgmB1z9hUr+/BHy1ie+r6Di1ddfH2JPc5tCNLgz5nt8RilTwp+mzGNovj+NuOm1AUJizo3J3V6qvQ5UTqRba7fbdVNpc2J0smyzbcZTzrw6eU6A9o67H80N6H0SaEofpvAL/NoA3zqs6f/wCjUtbUmUPbKBCOLUi6Vbe1QYtS5OanTU6XPidKJqPS5UXqBbfU9lTYnSidL0eRbdTwqjy6oIGM5/6qbFo8ceWK5jXUKZl4IXpjF8bZkPJurQ+mTQlH8NraSebQBPqUCTcyN571o8cg9ty5u+5N3lttY3viel5Tr1531Y+VxrN99zSXLc5pI7UsVKHtlgvFFKujkAU7Ejtmux9tDHVM6Od2hfcdC6WRBe6+afZqoPLqggkwulD4p5L7NiPpTgSYHKb6zjqL4/m1Gx3Hy4m8zplMUv03gl3m0wQYzzKoe+Nrny/W/+oWnhDnqotx+/NvfWnz769eXS2xjZvbkkUeXx3geZ2s4fu/nPrJ47PA3yxkd9sVsGMza2Gk4Uco5jjNNiibfquNReXRBBZlcKH1SKIrfxlYyjzasC2bABiEELgSnv/7Nnyq3EayQFoJjCGIUHj/ywL3l9nefeHyZj2USwawQqaDjONMD7b1q9mmi8pgLfpsxjaL4W3Ob0cXFxUWK6rzmQlH8NoFf5tGGPoLZutuITUxlZubi4uIiRXVeXVC3/3Kh9EmhKP7OBbOueDBzcXGZtKjOqwsqyORC6ZPCGLcZx0TplEJRfL/N6OList2iOq8uMLDgh9H83RiE+59xzpWLy669vfz9GI49+viTy+N2aX9rBvDjav4+Def94V/87fIYUfqkUBS/zYxD5jEHUPbKBC4uLi5bKqrz6gIDC3/sHAczBLizLrqu/DwVgxmPMR2EgQyCJYIZBEucpz5tpfRJoSi+B7MEUPbKBC4uLi5bKqrz6kIcYBT8nBW//oF1zNaw5OetuP9dl99YLlNQ+qTg32ZMoyi+/2jacZy8oL1XzT5NVB5dUEEmhnLfd44sDj/02OLQrYeXwQzgViSW+PQVxR5fh9InhaL4bWwl82gDnluplzNysOEzs1Y+NaRIBR3HmR5o71WzTxOVRxdUkMmF0ieFovhtbCXzaIMHsw0Fn7dRCjqOMz38c1bp+I+m0yiK77cZHcfJC9p71ezTROXRBRVkcqH0SaEofhtbyTza0BTM8INofLYq/mE0Pm2FJb+Wj89Z2X34kj7TrmMSM7NCpIIpwAAf+tJ7RiO1AtS5OVE6EZU+J0onss31u626qbQ5UTpZ0N6rZp8mKo+5UBS/ja1kHm2AT6lAQxigUmiTFtS1tSZQ9soEI8smtxm3tUOJUefmROlEVPqcKJ3INtfvtuqm0uZE6WQZ6zbjLrJNtxkRnCBYx0eDb7nknJV9dknBNv/TDF/Zx3IddW2tiaL4u3+bcdMO5ZIvniv3p5JaAercdVxw9dvK5evP/dXFa9565p7jFnu8rixKJ6LS90GT7kTpRDat302pq9+2uj37ec+S+7uyTjcef/vFr12un/ayny2Xv/jKF+/RA34DcAxwH5YvOOW5K/WIfMD7P/rG5X6kha8yjdLJgvZeNfs0UXm0BbYaE6VTCkXx29hK5tEG6KoCDbCB68nHHi5vH8bB7HM//8PLv33B38bwXIAv59vtmIx2GlSkginAAGxEbWBj/Z3L31Q2SjbitqRWgDrXgg4CnQ86jziYxboh7Ste/ZJyHcdxDtZZJoXSicRpeT3biSFvuw2e9eyTy+UHD717ue+sN758uc70ODfu8CxKJ9K1flkGLi/+7DtWjqdSV79tdbNBhHUd69mGdbqptF3pEoCVTha096rZp4nKoy2wlXqWlYM6H2qiKH4bW8k82gBdVaDJweB22r9//5tPOOGEy8LmPzjmmGO+P6xKKdLuC6vJ4rcZh0fpRFT6nCidyDbX77bqptI2wQEUQXB9ywWvLgckGDydeOKJSziQAmoApXSyjHGbEbZSgSYHdT7UhL/NmEZR/PrbjMcdd9z3xsGsWP9YWP0H1sFB2N1FpIIpwABxY7K8+MxTyiVnCdQV65iVxSNi21At62Y9qRWgzrXwupxlYUQMPS+97rzF81747JW0XVA6kTgtbEI7QS/qBHiLCbMs6kx7xusKnBvvUzqRpvolmCVy9kXdoSuPt61XUle/KbphBmavoWZg1r60HwLJOp3JOt1smt/6wFmLk07+mTIv5I1roS0geNm6gK3W2cLaMQWlkwXtvWr2aaLyaAtspQJNHU88+d3Fqy6+vlzH1z/4BZC21PlQE0Xx29hK5jEHUPbKBOOLVDCFlA5lSFIdVZ2bE6UTUelzonQi21y/26qbSpsTpZMF7b1q9mmi8mgLbKUCTQ7qfKiJovhtbCXzmAMoe2WCkcVvMw6P0omo9DlROpFtrt9t1U2lzYnSybKNtxkfeuTxxQ23HF5+hNiK2m5DnQ814d9mTKMo/jTeZhwbpVeMOi8nSiei0udE6URU+twovYBKm5tt1EvpZEF7r5p9mqg82gK9VKBR4GPD/AYjvoDPDwqrr+HjC/vxvpgUm6yjKH4bW8k85gDKXplgfJEKOo4zPdDeq2afJiqPtrQJZn2zS8EMuqqXM3KQ0U7DySa3GR3H2S38bcZ0/G3GNIri+4+mNyW1Ai659txRUToRVa6cKJ3INtfvrvjetoH2XjX7NFF5zIWi+G1sJfNoA3xKBRrLus9U8UfSXzjz6D3HUtjEn1H2ygTji1QwhV3pUFSAWcezTn9mWTk/+CP/uNw+5rh/sfhn//wp5T5sc8njKSidiCoXwOvu/IqE/WE0XtXGq9742QD34bVu+1MHviYf/9BaoXQi21y/u+J72wb8tyBZVB5zoSh+G1vJPNoAn1KBxoLPUtnAhY8II8D99W/+1HIflvgY8ZNHHl2e18Qm/oyyVyYYWcZ6m7GPzwulVoAKMHW88MwTF2f+1illYMMS+86/8rfLAPbrbzu93IdlfN46lE5ElSuF+Ie2XVE6EVu/+J0UAmhdgEQARr3GaRh4oTPXGYCRHvA3WPa8uvpt63v8YkpfpPretjHGbcZdxW8zplEUfzq3GTFbiDsL/ujUdlBIxx+BxsEM2/E53EbHp35UmloBNrC896NnL9efcvQPL4MVQMDCNtIgcP27i85aHgNPO/b/4ChkCWZtmL3h3Df+wa+tpCdKJxKXqQ19dNBKJ8L6TYV1VBfw2lBXv3W6wZfszJX+SX8C+DEzlhwUWB+zvriOVN/bNoLfJovKowvqeVYulD4pFMVvYyuZRxvgUyrQrAPfYXzs8DeXfw1jhR8YTmUTf0bZKxOML1LBFOo6lBykVoANLAg4/+j7/uHiwr88sNwHGwBuX3Tw7SXcBkiPcxHoENQYBLHO40yLAMd1oHQiqlwx8awFsyR0wgxmvA35ol/4+69FqOCvUDqRrvUL/cA6HdZ9JzKmrn53xfe2jeDryaLy6IIKMrlQ+qRQFL+NrWQebYBPqUDTBQQ3tX8dm/gzyl6ZYGTp6zajHQnzE0HYhw4t5UOz+LwP0ttOm9+nY+eHbR4DqRVgA8sYKJ2ILU9XONu1X2pXn65SKJ2Ird91xM/pFPEt0ZzBzH6uCrMxDgDgSwi4/FwZtrmeMhBI9b1tY6zbjCrI5ELpk4LfZkyjKL6/zbgpqRWgAkwTsAvAOm4jxsfboHQiqlyEt2LR6SJgYYngjuCA503YRhBhMAMIaNiP9ZSApnQi21y/u+J720bw62RReXRBBRkFfjT9yJEnynX1o2h8s/H8q27as78OpU8KRfHb2Erm0Qb4lAo0OdjEn1H2ygTji1QwhV3pUFSAqcM+V8Nzs/iWY1uUTkSVKydKJ7LN9bsrvrdtoL1XzT5NVB5dUEEmF0qfFIrit7GVzGMOoOyVCUaWTW8zjo3SK+aawthjonQiqkw5UToRlT43Si+g0uZG6bXtbONtRny+6su33R9eXVj9/uId33p45VNWmJXha/qXXXt7uX34oceWx9ah9EnBv82YRlH83b/N6DjOboH2XjX7NFF5dEEFmVwofVIoit/GVjKPOYCyVyYYX6SCjuNMD7T3qtmnicqjCyrI5ELpk0JR/Da2knnMAZS9MsHIssltRsdxdgt/mzEdv82YRlF8v83oOE5e0N6rZp8mKo+5UBS/ja1kHnMAZa9MML5IBR3HmR5o71WzTxOVx1woit/GVjKPOYCyVyZwcXFx2VJRnVcX1NuguVD6pOC3GdMoir81txldXFxcpKjOqwvqWVYulD4pFMVvM+OQecwBlL0ygYuLi8uWiuq8uqCCTC6UPikUxfdglgDKXpnAxcXFZUtFdV5dUEGmjmPOvqJc3nDL4fIH1fhhdZwmFaVPCn6bMY2i+H6b0cXFZbtFdV5dUEEmF0qfFIrit5lxyDzmAMpemWB8oTIcifi6r/v6RNe//OUvv7NYJovqvLqgggyJJT6Oz1nhs1ZY50eGKfysVR1KnxSK4oNUkXnMAZS9MsHIopRzHGeaFE2+Vcej8uiCCjIxuKWo9jOY4VYjgxe+z4jluy6/cSWtQumTQhgEJIk6fy4UxfcfTTuOkxe096rZp4nKowsqyORC6ZNCUfw2tpJ5zAGUvTLB+CIVdBxnejzwwAOtRtEqjy6oIJMLpU8KRfE9mCWAslcmGFmUco7jTJOiybfqeFQec8FvM6ZRFH+3bzP+3Fv+1agonWLw6391bk6UXmBs3Zq+jKDOyYnSiaj0OVE6bbOvWdDeq2afJiqPuVAUv42tZB5zAGWvTDC+SAWbUI0pJ0qnGA9m69kkmB38ypXl8lOH/nRx422HSn7l/c8ttyE33/mVZdpv3P31xesvOKNcx/LF73jm8lgdSiei0udE6bQrwWys24y7SFF8D2YJoOyVCUYWpVwKqjERdGxq/zruvu/OPfuaOj2lU0ybDua0Az9ZLq3u6LRtx9wFpRfoq/NTtkthk2CWA6UTUekf+M5huR986Jo/kPu7onRS9dm2HXCQYGlTv0qvmKLJt+p4VB5dUM+ycqH0ScFvM6ZRFL9+gHTCCSf89/3797+5WH4sbH/sxBNPXBAcK/jBcOwypusgUsEmVGOyoBFyRG7B6N1uP/HkE2Xai696b7n96JFHyqU616J0iukSzAB1YTBjJ/PSc49fpklF6QU2CWawF+3owayCfgNgG9QZ9yGYYfbI4wB+Z+sZS26TdbZVOq0LZsgbA7Mjjz+2vM47//g1yzT2GlZn+j/bBvzTtgnli0qvGLT3qtmnicqjCyrI5ELpk0JR/Da2knnMAZS9MsEaQYDCsghY38ASAQzLYv9TC/YxmGEd+yHHH3/808NqG5EKNhE3pNwonWI2CRh9ofQCY+u2aTBDRx13vOhg2YHjGDpxzrDRKTOgsFOvQ+lEVPqcKJ222dcsu/g24743fVLuT0Xpk0JRfA9mCaDslQlGFqVcCqoxKTCifPDh+8uODh0aOj4rOI6RM0bTTbMxi9IppmsHg04XcvjBe5ajaI7aUQY7sm5C6QVSdYNtzv3Qa1f2IUBQuA8Bos3McdNgNjRKJ6LSW3hbkfaJfQy2Qj1SmBbCPOpQOqXUJ+qRgm3oxGAP/7J3LeCD0JHb9tg6lF4xRZNv1fGoPLqggsw68C1GLA8/9Fi5RDA76cCnF48ceWIlXSpKnxT8NmMaRfHn+TYjBJ0JGqe9tYftuuceMUqnmDbBjB2H1QkdDG4z8tkHj+UMZuh87fXQIWI7DnDQkx1jCl2CGYWBHcEey1gXC4UBBAMbdOIQm8aeA5ROJE6bCn0MSwQL0MZmROnUxteGQukVg/ZeNfs0UXl0QQWZXCh9UiiK38ZWMo85gLJXJhhfpIJNqMaUE6VTzDZ3MGPr1iWY5UTpRFT6nCiddiWYbeNtRnyiCp+lwieqHnrk8XLfBz97aznIgeB7jJiZ3XXfw4tT33dwcc8Djy7Ouui65C/pK31SKIrvwSwBlL0ywciilEtBNaacKJ1iPJitx4NZd5ROuxLMiibfquNReXRBBZlcKH1S8NuMaRTF3+3bjI7j7B5o71WzTxOVRxdUkMmF0ieFovhtbCXzmAMoe2WC8UUq6DjO9PBvM6ZTFN+DWQIoe2WCkUUpl4K6zZETpVOM32Zcj99m7I6ynd9mnB5+mzGNovjzfJuxL5ROMR7M1uPBrDsezOZBUfw2tpJ5zAGUvTLB+CIVbEI1ppwonWK6dDB47R3C3yrhNXSud0HpBVJ1s7816pPcwaztp52UTkSlz0lTMIO/xD8MxxdAIPwZA38TiJ8JHP72vct02LbpAH6egZ8Q2H3wS/y04Pf/6zuW+2KdFP5txnSK4nswSwBlr0wwsijlUmADagO/EMEvR9jfdLVF6RTTNZihI2IAw2eP4jRtUHoBpRsCFzo9dl7ch04L+6y94h9I4zy7jXOwjDtVsmkw+9rtXyp/M8Zt6o51qzuW6KD5ZZB1+sQonYhKH8PrwE4E27ALv07CtNATwSH1d45NwWwsYp0URZNv1fGoPNoC26hnWTlo8vM6/DZjGkXx/TbjJiidYra5gxlbt6ZGrs7JidKJqPQ5UbbbtD4R8LHkD+QhHAzEA4B1P/SOdVKgvVfNPk1UHm2BbVSgyUGTn9dRFL+NrWQecwBlr0wwvkgFm1CNyYKRLmYTFMx0MLPgbTvbQLnNBs1ZUR1Kp5iUDgYzBozIIdimDhY7Ymc66MjZTx1KLxDrZjsoXg/7OJuFffg1EtgVxzE7oiAdbkP9+Q0fLY9Ze0KwtDQ18jh9jJ0J0g4UbOP66IxTv/gRo3QiKn0T/PcD6AX7cpbLGVsblO2Ur9H+8cyPdyYA7YO0qFsrTAOduU5UQIt1UoxxmxG2UYEmB01+XkdRfA9mCaDslQlGFqVcCnFDyo3SKUZ1MLlReoGxdWtq5OqcnCidiEqfE2W7bfY1S9HkW3U8Ko+2wDYq0NxwSzWI/MShu5b77vjWw+USX/jAEl/8wJdBANMAbkOQxuZhafLzOvw2YxpF8f024yYonWK2uYMZW7emRq7OyYnSiaj0OVG222Zfs6C9V80+TVQebYFtVKDJQZOf11EUv42tZB5zAGWvTDC+SAWbgJOMidIpRp2XG6UXUGlzo/QiKn1OlE5Epc/NLuik2MbbjPzGIr6Oj+8w2m8u4gv6mHVZwdf08T1He+46Uu2iKIrvwSwBlL0ywciilHMcZ5oUTb5Vx6PyaEtTMBuSTYKZ32ZMoyj+bt9mdBxn90B7r5p9mqg82rKrwawofhtbyTzmAMpemWB8kQo2oe7Z50TpFANHVufmROkFxtatqZGrc3KidCIqfU6UTtvsa5axbjOOidIphaL4HswSQNkrE4wsSrkUVGPKidIpBo6szs2J0guMrVtTI1fn5ETpRFT6nCidttnXLEWTb9XxqDzmgt9mTKMovr/NCPDbGrW/CaVTTNcOhj9W7QOlFxi682sqgwez7iidNqlP9Tsy/A6ubdtQesWgvVfNPk1UHnOhKH4bW8k85gDKXplgfJEKNqEaUx38oS8EHS1/OAqx6VJROsWkdjD2R6zQDdgfBTMwUJoChUXpBZp04zViu8XHoSd++Bt/OaJJx76DGX6wzU4Z+uBHwLArhGmgk7V1HUonotLXwR/hIzjQTna9LUonVZ+wAeyCa7EeYQMI9vGH7rAb0/Fc/Mh7Xd3jB9gqACq9Yvw2YzpF8T2YJYCyVyYYWZRyKcQNKTdKpxg4sjo3J0ov0KRbUzCKafsli6ZGrs7JidKJqPQ5UTql+BrEbnf5+kgdSq+Yosm36nhUHm2BbdTLGTlo8vM6/DZjGkXx53GbESNOLPn5HXzqCLdQ2LCxzs/58JwUlE4xKR0MwWiXnzgCFOiFTgfHIW2DjNILtNENo3TYDXpQRwrTQNp0jk2NXJ2jYP0CfjKKMx7atO/6jdNiBoOZCq6DT0bFPgYonNFQb85+7CyNxyjcT5ROKfVJ+3AJoCvvAlgbYf/Djz603LaztnUovWLQ3qtmnyYqj7bANirQ5KDJz+soit/GVjKPOYCyVyYYX6SCTajGtA50IFawj0uCTqhNh6d0imkTMBAI0IFw2+pig8Qr3nNyL3q20c0KtmlPmwaDBdtJNtHUyNU5ChsUGOgptgPus37jtEq4H0voBvtAaCPUNYX5WCjWJ4jSKaU+aavYThSbllDUsRilV8y2/GiaP3bGj6L5aSr8aPrRx58sy8t0jxx5ovxcFZb4sbT9bBV+OI1j9kfXPEaa/LyOovgezBJA2SsTjCxKuRRUY8qJ0immTcAYCqUXGFu3pkauzsmJ0omo9DlROm2zr1mKJt+q41F5tAW2iYNMLpr8vA6/zZhGUXx/m3ETlE4x29zBjK1bUyNX5+RE6URU+pwonbbZ1yxo71WzTxOVR1tgGxVoCGZcFH5omGD2xZkbPkzM/fwQcRNNfl5HUfw2tpJ5zAGUvTLB+CIVdBxnemzjtxnXBbP4tiG2uY9iA5zCg9nwoOyVCUYWpZzjONOkaPKtOh6VR1uagtmQbBLM/DZjGkXxd/s2o+M4uwfae9Xs00Tl0ZZdDWZF8dvYSuYxB1D2ygTji1TQcZzp4T+aTqcovgezBFD2ygQji1LOcZxpUjT5Vh2PymMu+G3GNIri+21Gx3HygvZeNfs0UXnMhaL4bWwl85gDKHtlgvFFKug4zvQY4zbjrlIU34NZAih7ZYKRRSnnOM40KZp8q45H5TEX/DZjGkXx/Taj4zh5QXuvmn2aqDyG5Oqrry6XRx11lFx/6lOfukw7NEXx29hK5jEHUPbKBOOLVNBxnOnhtxnTKYrvwSwBlL0ywciilHMcZ5oUTb5Vx6PymAt+mzGNovh+m9FxnLygvVfNPk1UHnOhKH4bW8k85gDKXplgXKEiANHV133d16e93lZ4LmSO66nC87rUya6vjy8qyjqOM01Cs08VmcdcQPkrMzSKPH8OoOyVCcYVqZzjONMktPtUkXnMBZS/MkOjyPPnAMpemWBckco5jjNNQrtPErztqPKYC4UJkm+bqfPnQJsXYwYVpZzjONMkNPtUkXnMBZS/MkOjyPPnAMpemWBckco5jjNNQrtPFZnHXED5KzM0ijx/DqDslQnGFamc4zjTJLT7JFG3FvHVDXLw4MHF/v37Fz/xEz+xOHDgwOLWW28t0zztaU9bpsc603PfrlCYYKNbi2eccUa55FdKLrzwwvJWHOxFu9n0AHZk+l3Aby06jpOd0OxTZc/56IxtYELwYrCygQzbd999d7mNdXTczGNXQPkrMzSKPB8BydoKy7pAZtPawcA2g7JXJhhXpHKO40yT0O5TZc/56GgRzAC2EbzQKWMmcemll5b70Alfc801y3MY0HYNlL8yQ6PI8+NABpsxyOMbkrAbgz9mt7TpLoGyVyYYV6RyjuNMk9Duk6TtW4sIZD/6oz+6nE3s4izMUphg8LcWdz2QTeLW4p0PfmlUlE4x+Dt0dW5OlF7A/lW7/et2u57j2DpUWXKidCIqfU6UTrCnSpuLpvoEodmnisxjLqD8lRkaRZ4/B1D2ygTjilQuFdWYcqJ0ihm7cwFKL7DNugGVPidKJ6LS50Tp5IFsWqD8lRkaRZ4/B1D2ygTjilQuFdWYcqJ0itnmYKHS5qSp41Pn5ETpRFT6nCidphbI/AfR/oPoJvzWYg8onWK2OZBte8enzsmJ0omo9DlROk0tkBUi85gLKH9lhkaR588BlL0ywbgilUtFNaYmnvOcZ5fL173hlXuOtUXpFOOBrB6lF1Hpc6J0Iir9bfcdWvz3Wz8j98f7NkXplFKf8P8bb/+sPLYp2xrIoNe/fN2fjUKKTdaB8ldmaBR5/hxA2SsTjCtSuVRUY6rjxBNPXPzbc15dLhHInv+C55Xr4HcvOFeeU4fSKaZrsGDAxfLTX/jonuNtUHoBlTY3Si+i0udE6URUevgRg9app51SLlF3H778wsUHL7tgJe2tf3dd6XOHbr669MnzPvDWxSt+6WXlMSzhm1z/23u/uHIuUDo1+Rr9H4EM63a/XV7xlx8u/Y5liY+vo+9A1tetxR0OZH5rsYHGW4snnHDCu8PqPzjuuOO+N6zWSnHO9WE1WZRyqajGVIcdGXNGhk4CnQn3t0HpFNM1kKEDRGeIDhCd2SajeqUXUGlz0tTI1Tk5UToRlR4+ZesJ9faRj1+83MfggIAAn/vM9ZeX6wCBDGmwD0vuZ3CLUTo1+Rr1QL5cMqhBHyyhL9oE/Y+DPZvPOlI67dDsU0Xm0RbopYJMDlJssg6UvzJDo8jz5wDKXplgjRRB6WNYPv3pT//fsNy3b98PYcn9xXLf/v37X17wDWxDOgQyqVwqqjHVYRsyOh0s2Ui3bUYG7C2g1M5EofQCm+jWB02NXJ3TBGc+6IQx64mPt0HpRFR6FcigzzXXfnQZqAi2EbQQMJCOxzmTQ30joAwRyJpmZJwB0v9SfS+l0w7tPlVkHm2BXirI5CDFJutA+SszNIo8fw6g7JUJ1sixxx57NBy4mI19T9glhQEOsu2BrG+UTjFNncs6UjuPFJReoKtuALeoTn7WyeX6us42BaUXUembsIEMy03sqHQiKn1OlE6b1GcfpHTaod0nid9a9FuLTczyrUU7C8MtFN5ePPVFp5TbcfomlE4xXTqXWE+ud5k1AqUXUGlTsYGMz/Pa0tTI1TlN2EDG+lXPmFJQOhGV3sJbcrATbttBH9Yj4K08APtBV/tcqgmlUxtfw7VoK2B14zaPpZLSaYdmnyoyj7ZALxVkLHd862G5f1NSbLIOlL8yQ6PI8+cAyl6ZYFyRyqWiGlMbbMBgp9wGpVNMm85lHbjtRD27dMpKL9BVNzvbAfHxVJoauTonJ0onotJb6Fu4PcdnsHz+FYOBFANZqk2VTm3qEwEWgYy3NHFNDub4clHbuk3ptEO7TxWZR1uglwoyBEEMXHbt7YtT33dwuf/Rx59crj9y5ImVbaZ71+U3Lk468Onl/pgUm6wD5a/M0Cjy/DmAslcmGFekcqmoxtQEGutLf+HF5To6D9wWQ0fy4jNO25O2CaVTTJvOxWL1RGfD5z3bEMj6ROlFVPqcKJ2ISh/DW64MZBYGLMK6TkXp1KY+GciwxDZ0gM9RV6ubPa+OlE47tPskyXVrkYEMYgMZOOui68oAd/M3H1zO2u48/Pezt31v+mQJt2NSbLKOwgR+a7GBWd5ajF+339ZAFuvJDhHbXZ5HKb2ASpsbpRdR6XOidCIqvQV1Fb+BaI/F61j+/MvSg5nSqYuvAczAAAIZghtnZPDDNrez+w5khcg82tIUyIZkw0CWai95fls+e/oPjIbSJwWUvTLBuCKVS0U1ppwonWK6di59ovQCKm1Omhq5OicnSiei0udE6TS2r6V02qHdp4rMoy3QSwUZyycO3bVcP/+qm8olZmLc15UUm6wD5a/M0Cjy/LaoAJMLpU8KKHtlgnFFKpeKakw5UTrFjN25AKUX2PaOT52TE6UTUelzonTa9voEod0nSa5biwxcX77t/nJ5wy2Hy+deNpAdfuix8tYj1nkr0T4zW0eKTdZRmCDrrUUVYGJu+5N3lnbAOuSBr31+uX73NZcsbnzPS5ZpIVxvQumTgn9rsQeUTjFjdy5A6QW2WTeg0udE6URU+pwoncauz5ROOzT7VJF5tAV6qSBjsS9sIJBR+FwMgYzHAV7ysNvrSLHJOlD+ygyNIs9viwowMQhkn/v5Hy7XbzzvRcslwDEEMga3Jx97eHleE0qfFFD2ygTjilQuFdWYcqJ0itnmYKHS5qSpkatzcqJ0Iip9TpROY/taSqcd2n2qyDzaAr1UkCEQLPFmIpYIZFium5ExqMUvhihSbLIOlL8yQ6PI89uiAkwMghWWDF7cvwxqRSD7q194yuKRe271QObkAY3Mdn52O9cxpZfTDdp3TJReltDuk8R/EL19txaHQumTwiRuLTqOs1uEZp8qMo+27HAgS7WXPL8tKsDkQumTAspemWBckco5jjNNQrtPFZlHWzyQpaECDLCC7W9//fo9aQhuKz555NHqeZm59RjD52hE6ZMCyl6ZYFyRyjmOM01Cu08Sv7U47q1FvoHINxW/cObR5TYCGeBLHzGUWy45Z3muPY59fQUyv7XoOE52QrNPFZlHW3xGloYNLIp7P/eRlW3MvLhOsesQdRz4jMxxnJ0ltPtUkXnMBZS/MkOjyPPbYgPLOhjMvvvE4+Xyzo//7uLRv7u9/A2ZTdeEBzLHcXaW0O6TpK9bi7tKYQJ/a7GBrbm16OLi4rJGZOc1F1D+ygyNIs9viwowKbSdjSmUPimg7JUJXFxcXLZTZOc1F1D+ygyNIs9viwowuVD6pICyVyZwcXFx2ULp863FMVE6pVCYYKduLcbPvdqg9EnBby26uLhsu8jOqy0IJuqNwhxsGMhSO2l5fltUgMmF0icFlL0ygYuLi8t2iuy82uKBLA0VYHKh9EkBZa9M4OLi4rKF4j+IzntrEbqOhdInBb+16OLisu0iO6+2oKNUQaYL/C8yYP+Mcx2bdNIof2WGRpHnzwGUvTKBi4uLy3aK7LzawkDGwINgxL9sIRC7tH/Vwr91geBcgD/hZH4QLvE/ZTZvD2TDgrJXJnBxcXHZQhni1uIzzrlyuU7Bn2pC4v8Xw59qUhic4kCG/RCeY/MHGwayrLcWdxG/teji4rLtIjuvtthA9ujjT5ZLG3zsNpcAgexVF1+//JfoJ578bhnEIGpGBs666LqVbZ+RDQvKXpnAxcXFZTtFdl5tYSA7/6qblgEmFx7IhgVlr0zg4uLisoWS861F++KGnVEBBkDMwnAbErM0e7yODQOZ31pswG8turi4bLvIzqstTYHMCl7WgNjZG28t4rahPYfrdfiMbFhQ9soEI4tSznGcaRKafarIPNrSFMju+86Rcpa1LjjFgcyKTafYpUCmfqicC6VPCih7ZYKRRSnnOM40Cc0+SXLeWqTwVXvuw9K+vXjZtbeXtxfxhiOEadexYSDzv3FpYGtuLSrlHMeZJqHZp4rMoy0pgWwofEaWhtInBZS9MsHIopRzHGeahGafKjKPtnggS0MFmFwofVJA2SsTjCxKOcdxpklo9kni31r0W4tN+K1Fx3GyE5p9qsg82uIzsjRUgEnhC2ceLfe3QemTAspemWBkUco5jjNNQrNPFZlHWzyQpaECzDq++8Tjy3UEshvf85LFk489XG7feN6LlvuOPHDvMl0dSp8UUPbKBCOLUi4VOMmYKJ1i1Hm5UXoBlTY3Si+i0udE6URU+pxso05A6WUJzT5J+ry1OCZKpxQKE2zVrcVH7/lGuUSQuuWSc5b7H7nn1vINTgSueN9dV/z+StBbh9InhUncWvzQl94zKkqnGDiyOjcXdQ1pm3UD6pycKJ2ISp8TpdO21ycIzT5VZB5zAeWvzNAo8vy2qADTlba3G5U+KaDslQlGFqVcKqox5UTpFLPNncu2d3zqnJwonYhKnxOl07bXJwjNPlVkHnMB5a/M0Cjy/LaoAEPaBCbcTrz7mkvKdTtLq0PpkwLKXplgZFHKpaIaU06UTjHb3Llse8enzsmJ0omo9DlROm17fYLQ7JOkr1uLu0phgq25tfiVt79g8cDXPl+uQ+y+v/qFp5SBCwHMyl//5k+t5FGH0icFv7XYA0qnmG3uXLa941Pn5ETpRFT6nCid+qjPX3zli+X+dVxw9duW6031CUKzTxWZx1xA+SszNIo8vy0qwJD4hQ48I+M+BCy84PHY4W+GELYot+M86lD6pICyVyYYWZRyqdgG1ZbXvPVMub8NSqeYus7ltJf97J59rz/3V5edwyVfPHe5X3UwPF7X+dR1Ln10fOuwuq+jqeNT5+RE6URU+pwonVifNrh88NC7l+txncBvYt95wSnPXe5D+t+5/E2LE088scyHeWEfQLpdCGTQayyUPqmg/JUZGkWe3xYVYMjNv/9vli94QOy+ez/3kTJwYf26s36sPIbt2/7kncvzm1D6pICyVyYYWZRyqbABtYGNlIHs4s++I6nTVSidYuDM6lxw0sk/s7INPeJABpAOesedCfVG58M8Yuoak9KNeWKJa9JO7LhsWgRiBmPobcuD9G+54NXLc+KygqaGHqdPhWUAmwxYlE5EpW/C2gA6Wlsr+9ShdLL1CR969vOetbj0uvPkwAjY+iU4h/6E9Ggf2IdtGxSxH+cOGcj6urWoXovPhdInlcIEW/2D6LYvdNSh9ElhtrcW2bGyAdsOpS1KpxgVLAg7L9vR1M3IbCCzx9nRKOo6F6Ub82QHZu1UF8gQtOwxBDKci3NsZ2dp6vjUOSlYu8UddRuUTkSlbwK2snVr9WyL0qnO1xR1A6AuNNUnCM0+VWQebVEBJhdKn1RQ/soMjSLPb4sKMLlQ+qSAslcmGFmUcqmoxpQTpVNM286lb+o6lz51Wxes6mjq+NQ5OVE6EZU+J0qnbfY1Epp9qsg82qICTC6UPqmg/JUZGkWe3xYVYHKh9EkBZa9MkCgnnHDCu8Nqr6KUS0U1ppwonWK2uXPZ9o5PnZMTpRNR6XOidOpan5h929uM8SwWz8gIj8czcNBUnyA0+yTxW4v+rcUmWt1aPO64477n2GOPPRrr+/bt+yEsjz/++KcXwe2ygsPY3r9/f2n0YvtjWKaKUi6VuCGtAw2PDfFZzz65XPI22Ste/ZLFL/3GGcu09naPvY2nUDrFpHQu0AG34rgN3aAndMGtRj5v4nE892A67ltHXeeidEOnhmu+/eLXLvfx9iGva2HnZp/xoDycofH2FfbxOGnq+OL0MbE+rGMAfbrWK1E6EZU+5v0ffWO55AsU9lYefJJ2xTp0os2tL6xD6RTXJ+oSS9iJ5cc14VtMg+vCt2g37FN+ZesvDnSkqT5BaPapIvNoiwowuVD6pILyV2ZoFHl+W1B/Y6H0SQFlr0ywRopAdRqWRWD6ZrnDSBG0Xm47jbC7kyjlUlGNibATAWh4eN4DXdEgsWRjZWeyDptPjNIpBpWkzrXEnTz0Q2dmOzQ1AgZN+tc5yTrdWK/cttdg5wj7wa4Ieti26VXQAvEzoSYHtmkV7FBtYIp1X0ddvRKlE1HpLdCp7hrQHXZFcGMg4bEU/ZVOqj4Z7G0gwzL2LdQZ7anqz+5juue98NnLfaCpPkFo9qki82iLCjAp4E82v3zb/SXqeApKn1RQ/soMjSLPnwMoe2WCRCkC2kNhuQxsxfplYXUpCHJhNUmUcqnYRhSDhstghYZnAxkaLjvi+DywLmjEKJ1i1gULi+o40NFAR3Y8VieVfh11nUuKbqAuWLKzpq2B0k/ZtKnji9PHoP4YuBBQrQ5x0ASp9UqUTkSltzCQUb9TXvyC5THoDWhX6spZrZ0Nr0PplFqfQ9FUnyA0+yQZ+9biuy6/cfGJQ3eNGciy3lrcRfwH0T2gdIrZ5s5l2zs+dU5OlE5Epc+J0mnb6xOEZp8qMo+2qACTC6VPKih/ZYZGkefPAZS9MsHIopRLRTWmnCidYra5c9n2jk+dkxOlE1Hpc6J02vb6BKHZp4rMoy0qwORC6ZMKyl+ZoVHk+XMAZa9MMLIo5VJRjSknSqeYbe5ctr3jU+fkROlEVPqcKJ22vT5BaPZJkuvW4jFnX7E4/6qbyluJ2Kbc8a2Hy1uLVnD8smtvL4/ZPNah9EmlMIHfWmzAby32gNIpZps7l23v+NQ5OVE6EZU+J0qnba9PEJp9qsg82qICjIXPwF518fXlksJAxnQIdthGIOM2j61D6ZMKyl+ZoVHk+XMAZa9MMLIo5VJBwxkTpVOMOi83Si+g0uZG6UVU+pwonYhKn5Nt1AkovSyh2aeKzKMtKsAQ+1YiAtlDjzy+OOui68pg9Zsf/NKe9ICBDOniYzFKn1RQ/soMjSLPnwMoe2WCkUUp5zjONAnNPkn8B9F5by2qgUkulD4pTOLWouM4u0Vo9qki82iLCjC5UPqkgvJXZmgUeX5b1Bc3cqH0SQFlr0wwsijlHMeZJqHZp4rMoy0qwORC6ZMKyl+ZoVHk+W1RASYXSp8UUPbKBCOLUs5xnGkSmn2S+K1F/9ZiE5O4tajuteZE6RRzTTFiGBulF1Blyo3Si6j0OVE6EZU+J0qnXSA0+1SRebRFBZhcKH1SQfkrMzSKPL8tKsDkQumTAspemWBkUcqlol4BzonSKQaB5JJrzx2NpkCmypWLpg5ZnZMTpRNR6XOidNoFQrNPFZnHXED5KzM0ijy/LSrAxPAfoGPuvuaSxbe/fr08loLSJwWUvTLByKKUS0U18JwonWI2DWT/7qKz5P5UPJB1R+lEVPqcKJ12gdDsk6SvW4u7SmGCrby1iKD15GMPL+793EdW9iGQ3fielyz++jd/qtyHoIf9TFOH0icF/0F0DyidYtoGstd/4BVl8CpMs/jDz7+z3Pe//K/fVy7f+9GzF9/zP/9P5TqO85w6ugYy+4FdfNwWH7TFh3D5pXl+8Db++DLW+fFefil/HR7IuqN02gXKRp8uMo+5gPJXZmgUeX5bVIBRIDghiDGQfeHMo5eB7MgD966kfeSeW1e216H0SQFlr0wwsijlUlENPCdKp5g2gQyBCssL//JAGbzAD/7IP15J86zTn1li99XRNZDZvyBB0OJ/WPFvQbAPX2nH35DkDGTqq/ZDoXQiKn1OlE67QGj2qSLzmAsof2WGRpHnt0UFmFwofVJA2SsTjCxKuVRUA8fftaj9Q6B0imkTyDDbuujg28v186/87RLMzs78rVPKfYW5VpYpdA1kTaT81UgTbQMZ/qoFAdXWMfZh2wbTOA3+VoZ/GIp1/KWK+q+wl/7aaSvbSidi042B0mkXKBt9ovitRX9rsYnJ3Fq0f6qIWQI6MO6zf05pb4sp4nMw00Bnh9kFZxhcEqVTTJtANgRDBbI+aBPI+AeemJHZIIT9CGIMZKi7OA33c523RZGG/2QN4tme0onYdApcw/5rtvovNM5y4Vc2EFtf5L4YpdMuEJp9qsg82gI/GxOlUwoof2WGRpHnt0UFmHXEotK0QemTAspemWBkUcqlggZtg1McyAA6J+zDLbGUQAbYoWH03ncgw21DzrAAZlw/8k//yfK2IsBMrDDNcjvej1uOWGIb++0tSSyfduz/sTxnKoEstn2MDQRxQOqK0omo9JY4kKkZINKo27N1fkqUTrsA2nwLkXm0BX6mXo3PwVQD2QNf+/zKG4yx2LQpKH1SQNkrE4wsSrlUVAPPidIpRs3Ifv1tp5dLvsTxj77vH5ZLvtzxxj/4tbKCsK74Z//8KWXww7MypHvhmSeW5zKgITjyFmVfgQydLmYQfEZm9xMEfsyQ7CynjjaBbAyUTkSlj4FN1P4+UDrtAmWjT5S+bi3ucCDb6luLN77njMXnfv6Hl9t4+ePBv/nCSppUlD4p+FuLPaB0iokDmX3mhZlTYYJlMEJAwz6kATwHgQ3LH/zhf7ychXH2BZAfjh1z3L9Y7kOww7LPQKY6Zu7njAN/6z9WIMOsDdcn0AuzHaV3CkonotLnROm0C5SNPl1kHm3Z4UCWai95fltUgEnlu088vlzHK/j2WApKnxRQ9soEI4tSLhXVwJtQzyrQCaPjw20e2xHG6WKUTjFxILNvHBbFX8J99raj2sfZF9Y5s7PY24qgr0A2BJsGMltXAIGMwetnT3v+SiDrEsyUTkSl7wpuhUJ/6KyOK5RObXjqU5+6uPrqq5frX/3qV/fsHwK0+RYi82iLB7I0VIDJhdInBZS9MsHIopRLxTZsPjgH7LTQOaAj437AbQY0vqmGt9r4cN0+r7DEr5MrnWLiQJabXIEsfq7T9Oo92DSQkbPe+PJyuS6QQRfc9ozPa0LpRFR6RRxE4ZNcwt/oa0gDndWzNIXSaRcIzT5J/Naiv7XYxCRvLTIQoVNAx4XO4rc+cNbKQ3fCDgRp/vUZ/2e5zs5XBTJ1u0zpFLNpIOOsCzOx+FgKmwQy2+mqpYWBDMcscTpLX4EMoM4xmMGSszCVrg1KJ6LSK6AH7BAHKPjTOe//N+UxpAHwWQ9kKyLzaEtqIMO/Px9z9hWLd11+Y/nnmY8ceWJx6vsO7kmHNPG+dWwYyFLtJc9viwowuVD6pICyVyYYWZRyqagGnhOlU0yXQMZnZ3bfGIEMAwB0rAzwCBS8DYbAhSV+k8XZLfZhVsSBg50lK/oMZEOgdCIq/Tr6CKoxSqddoGr1ySLzaEubQMb1O7718PKfoAmDWso/QxMPZGkofVJA2SsTjCxKuVRUA8+J0immSyBr8+WOJjYNZJg58DdcCFwMZHFawFkZOu74VqNiLoFsCJROu0Bo9knitxbz3lqErmOh9EnB31rsAaVTTJdAxjcW+Tq9eqkjlU0C2dA0ObA6JydKJ6LS50TptAuEZp8qMo+2wM9UkMnBJp00yl+ZoVHk+XMAZa9MMLIo5VJRDTwnSqeYLoGsTzyQdUfpRFT6nCiddoHQ7FNF5tGWpkCGW4j73vTJcv3l//Gv9txSBPa2I3jGOVeubK/DA9mwoOyVCUYWpVwqcJIxUTrFIJCMjdILqDLlRulFVPqcKJ2ISp8TpdMuEJp9kuS6tXjDLYfD9ygWi5MOfLoxkDHopbBJXRUmyHprcReZxK1Fx3F2i9DsU0Xm0ZamQIbAREEgw2zrD//ib1fSxDMykDIr2zCQpdpLnj8HUPbKBCOLUs5xnGkSmn2qyDza0hTIUlCBLAUPZMOCslcmGFmUco7jTJPQ7JPE31r0W4tN+K1Fx3GyE5p9qsg82rLDgSzVXvL8OYCyVyYYWZRyjuNMk9DsU0Xm0RYPZNMFZa9MMLIo5RzHmSah2SeJ31r0W4tN+K1Fx3GyE5p9qsg85gLKX5mhUeT5cwBlr0wwsijlHMeZJqHZp4rMYy6g/JUZGkWePwdQ9soEI4tSznGcaRKafZL0dWtxVylMsJW3Fo866qhyeemll8r1gwcPLtMOjd9adBwnO6HZp4rMYy6g/JUZGkWePwdQ9soE4wujaomv+7qvT3q9jcjOay6g/JUZGkWePwdQ9soELi4uLlsofb61OCZKpxQKE/hbiw2EAZKLi4vL1orsvNqCYKJejc/BhoEstZOW588BlL0ygYuLi8t2iuy82uKBbLqg7JUJXFxcXLZQ/AfRfmuxCb+16OLisu0iO6+2+IxsuqDslQlcXFxctlNk59WWTQMZ/qNM7U/BA9mwoOyVCVxcXFy2UMa8tXjHtx5eHHP2Fctt/It0l4C2YSDzW4sN+K1FFxeXbRfZebWlj0AGzrroupXtFHxGNiwoe2UCFxcXl+0U2Xm1pUsg6wsPZMOCslcmcHFxcdlC8bcW/dZiE9tya7FUBktf93Vfn/56QRspz92UukCG24dWcEvxvu8cKZeXXXv7Mt3hhx5bWadw3zp8RjYsKHtlgnFFKuc4zjQJ7T5VZB5tSZ2R4YUOu4wDGWTfmz5ZbkMQ7Hh8HR7IhgVlr0wwsijlHMeZJqHZJ0nOW4sQrq8LZL/xn25YbjOgNbFhIPNbiw1s1a1Fx3HmQWj3qSLzaEvqjGwdjxx5YnlrMWUWZvEZ2bCg7JUJxhWpnOM40yS0+1SRebRl00C2CR7IhgVlr0wwsijlHMeZJqHZJ4m/tei3FpvwW4uO42QntPtUkXm0xWdk0wVlr0wwrkjlHMeZJqHdp4rMoy0eyKYLyl6ZYGRRyjmOM01Cs0+Svm4t7iqFCfzWYgN+a9FxnOyEdp8qMo+5gPJXZmgUef4cQNkrE4wrUrkmMF3/ubf8q9FIvV2gzs1JnZ4qfU6UTmSb63dbdVNpc1JnM0to96ki85gLKH9lhkaR588BlL0ywciilGtimzs6izo3J3V6qvQ5UTqRba7fbdVNpc1Jnc0sodknid9a9FuLTez0rcVt7ugs6tyc1Omp0udE6USa6vcbd3998foLzli8+B3PLMG+cz/02uXxl557/OLmO7+yOPiVK8vtG287tPj9//qOxacO/Wm5znTrqLPbtvqeSpuTOptZQrtPFZnHXED5KzM0ijx/DqDslQnGFalcE9vamcSoc3NSp6dKnxOlE2mqXwSqR488stzGOrff+cev2RPI2lJnt231PZU2J3U2s4R2nyoyj7ZAtzFROqWA8ldmaBR5/hxA2SsTjCxKuSbgHKoxgdTO6+777iyXpx34yT3HAEbvaj9IdU51rgK6gFh3dMjA7mtDnZ4qfU6UTqSufnNQZ7cuuv3K+58r93dhnW5xui5BPPa1dW1DUWczS2j2SeI/iPZbi01M9tYiRuJYctT+wHcOL29DMQ2CFAT748Zqb0PZ/ZZU51TnKhjIqDthIDvyePXl7bgcTdTpqdI3gdt30EEda4vSidTVbw7q7Fan2+Fv37uyTV9CILv4qveuHLPgVukTTz5R2tbWsRrErNMtThcHMvgz/AhtYt01sM7brxCbB/yT7UkFyTqbWUK7TxWZR1ugmwoyOUi1iwLlr8zQKPL8OYCyVyZYI8cdd9z3hNVSiu3vPfHEExcA2yeccMK+448//rTyYCFm/2PljjSRyjVR15nYYMDOg7ed2Amj00DDxDoCmeqcxwpkVhcGMnSE6DxYjlTq9FTpm0AnhqWyV1uUTqSufnNQZ7c63VCHKkCc++HXLdcB7BfXM85joLFpY9bpFqdjsGFw4joGI+uuYXVG27FtA2Vje/JAlk6qXRQof2WGRpHnzwGUvTJBjRRB6bJjjjnm+8Mmtt+9b9++Hwrr+/bv3/9b3F+sl9NgBrRUUco1UdeZtKXN7ROS6pzq3JzU6anS50TpRJrqN54pYGmfibFDxjHMLhAkWM94hgawvo46u/Xpe11Yp5tKS+xdivhYKk0vydTZzBKafZL4rUW/tdhE463FIjDdhCVnXQhoCFIIWFhHIMOxYnk9jmM7LD+GZaJI5ZrY1s4kRp2bkzo9VfqcKJ1IU/3GgQwzBXvLKw5kmFXYAUtTh15nt231PZU2J3U2s4R2nyoyj7ZANxVkUvjybffL/amk2kWB8ldmaBR5/hxA2SsTjCtSuSbadCYQu334wXvKJUflvF3SNOK0pDqnOncduOXDjpiCmQT2dZk1gjo9VXoFggACwoMP318usQ3bcZTP5Yeu+YOV85pQOpE29ZuCvY2XQp3dUnSLA6XyMd6m5TqF+9axTjeV1sJbl6inuhlp3A7YXpqos5kltPtUkXm0BbqpILMO+6eZ+B+yTxy6a7nt/0e2XaDslQlGFqVcEymdCcHzAduRWcE2Oxl00k23nEiqc6pzFXHnQbGBDB1QXJYm6vRU6dcB22AJgT6wEwQdIwIZ9EcgfvjRh/acuw6lE2lTv0NQZ7cU3RDIGOCB8jEGLwY9CO1cxzrdVNoYCvUBuCYHUMD6IvfDD7lvHXU2s4RmnyRj3Vq0gQx/qjliIPNbiw3M5gfR8YNtNk6ONP/8ho+WS9vxNJHqnOrcJtDJIHChg+GoHdt8hTs12II6PVV6RTzTQkeHzpf7abe2s0alE1H1ywAel9/OfmAv6gU9EfiRnmnsLAiCpe3ESZ3dUnzvFe85uVwyb+Vj0OW8/3L2ctuWo451uqm0MVbUccBABt2pv7XbOupsZgntPlVkHm2BbirI5CDVLgqUvzJDo8jz5wDKXplgXJHKNZHSmawDHQYbMkfA7IRTg0Sqc6pzm0AgA+y4qStAx5zSqZA6PVV6hb0+ZmC//L7n7NlP8DZovG8dSiei6tcK9zFoIcizLhks0CFT6gIZ8rCzEFBnt66+Z30MgyvqkjILs6zTTaXtQmyLVOpsZgntPlVkHm2BbirI5CDVLgqUvzJDo8jz5wDKXplgZFHKNdG1M+mLVOdU5+akTk+VPidKJ6LqFx0+gpSd+SEIMRDEAYGByg5OEDy4n6iZZJ3dttX3VNqc1NnMEpp9kuS6tXjM2VeUS8gNt1Q+ctKBT5f7sHzGOVcu3nX5jYvzr7qp3H7VxdeXz86w3+ajSLWLojCB31pswL+1uAGpzqnOzUmdnip9TpROZJvrd1t1U2lzUmczS2j3qSLzaAt0U0GGIJDddd/Dy+D1375xXxnMIHgmFgeyU993sEx31kXXreSjSLWLAuWvzNAo8vw5gLJXJhhXpHJNbGtnEqPOzUmdnip9TpROZJvrd1t1U2lzUmczS2j3qSLzaAt0U0GGXHbt7eULHnixA9uYlfEFD87IGOS4RGBDILMvhihS7aJA+SszNIo8fw6g7JUJRhalXBPb2pnEqHNzUqenSp8TpRPZ5vrdVt1U2pzU2cwSmn2S+A+i/dZiEzt9a9FxnN0ktPtUkXm0ZYcDWaq95PlzAGWvTDCuSOUcx5kmod2nisyjLR7IpgvKXplgZFHKOY4zTUKzTxK/tei3FpvwW4uO42QntPtUkXm0xWdk0wVlr0wwrkjlmoBzjI3SK0adlxulF1Bpc6J0Iip9bpReQKXNzS7pFRPafarIPOYCyl+ZoVHk+XMAZa9MMLIo5ZpAo1FvTuUitdGqc3NSp6dKnxOlE9nm+h1bN6D0UulyktomQrNPkr5uLe4qhQn81mID/oPoDUhttOrcnNTpqdLnROlEtrl+x9YNKL1UupyktonQ7lNF5jEXUP7KDI0iz58DKHtlgnFFKtfENnd0FnVuTur0VOlzonQi21y/Y+sGlF4qXU5S20Ro96ki85gLKH9lhkaR588BlL0ywciilGtimzs6izo3J3V6qvQ5UTqRba7fsXUDSi97nP+UkJPUNhGafZL4rUW/tdiE31rcgNRGq86tg19zB/jYLf9GA+uHvv755bFU6vRU6WPa/jULiP82Zx1KJ9J3/aq/aqmjzm5j+x5QetnjCGT4BwX8WwLqw5Yf+yD4/zj+wwL/EQL7bDq7jq/iww8h+H+y+H/xUttEaPepIvOYCyh/ZYZGkefPAZS9MsG4IpVroktngi+n2waNr6W3/QsNktpo1bl1IJBBsM6vtrPzsOlSqdMzTougxcCFTgugw+I+2gudHf8qxf6/FtOg4+Q50J3liFE6kab6Rcf6zW/dtux4bcCFDtSdnS3rHR02iPWOqbNbqu+h3LhO7HecLUFP/O2N1Z1/N9OE0sseP/fDryuXsBOubcuPJXSK/w6IgYs2U3/Jwz9OxX/5xQOW1DYR2n2qyDzaol6Lz4XSJxWUvzJDo8jz5wDKXplgZFHKNZHamVjiDoUds02TSmqjVefWYf9fKw4Abf7ri9TpGae1HSoDGTo1/jswAwTWGQi4JEhjAxlY1zkrnUhT/fK6vJ79B2PqyQ4ZS9uRw7ZxJxxTZ7dU38N1cF3rd7QfgJ74fzesU9e+AlkTcb31QWqbCM0+Sfq6tagCTC6UPqkUJvBbiw34rcUNSG206tyc1OkZp7XBQGH/Hr8PlE6kj/plcOhCnd3G9j2g9FLpcpLaJkK7TxWZR1tUgMmF0icVlL8yQ6PI8+cAyl6ZYFyRyjUxdmeS2mjVuTmp01Olz4nSiWxz/Y6tG1B6qXQpcFYI7Cy27na2ul2c2iZCu08VmUdbVIDJhdInFZS/MkOjyPPnAMpemWBkUco1kdKZWMFtHoidVVix56WQ2mjVuRY847Hy4MP3L49hhoRbUrgFhW2s45Ydy7Du2ZOlTk+VPgUr7AShN56x/PL7nlNu4xZa0+0rpRNJqV/YhYJrW2Ea+xyI+3mbr446u6XopqBg/RXvOXlxyZ//zp40qSi97HE7G627zUvBOs6Bz8Fm8Evc5ra2wjb281la/IwttU2EZp8kfmvRby02Mflbi7ZzwzaeMf3nT/2Hcp0Nel2nxgfy60httOpcC19WgNiRsQ1eWEegsC+C8Byur6NOzzituj7Edljo6JAOQZT6UBjIYDsEMgjPs+tE6URS65d6AivcpwIZ9LbPqhR1dkvRrQkEF9iQOrVF6RWnQWDi80MGtrpncExDUbeSYTcGsvh4apsI7T5VZB5tUQEmF0qfVFD+ygyNIs+fAyh7ZYJxRSrXRGpHR8E2GiEaH7eBCmR2NLuO1EarzrWgo0WQQmdjOxkGUgYyrPM4X/pQHU1MnZ4qPWd5uCaD0Z9d+6HymhDsp30QENipIbgxkDE42/wUSieSWr/QBW/QYdsK08C+dhvYGco66uyWoltMPDCyklKPMUovla4JSOzvFNZtKqltIrT7VJF5tEUFGIB/fsY/PONfn/nv0Nhn0zz6+JPLdaSx26e+72C5xL9F85+jY5Q+qaD8lRkaRZ4/B1D2ygQji1KuiS6dSZ+kNlp1bk7q9FTpc6J0Ittcv2PrBpReKl1OUttEaPZJMuStRQasOJAhOL3q4utX0p510XWLy669fXHzNx9c3PGth8t9dx6ulgB5AG5blD6pFCbwW4sN+FuLG5DaaNW5OanTU6XPidKJbHP9jq0bUHqpdDlJbROh3aeKzKMtKsDkQumTCspfmaFR5PlzAGWvTDCuSOWa2OaOzqLOzUmdnip9TpROZJvrd2zdgNJLpctJapsI7T5VZB5tUQGmicMPPbay/YlDd61s3/edIyvb61D6pILyV2ZoFHn+HEDZKxOMLEq5Jra5o7Ooc3NSp6dKnxOlE9nm+h1bN6D0UulyktomQrNPklxvLeIZF28n4hYhtuM0cSADx5x9xZ59MUqfVAoT+K3FBnb+1uLYKL1i1Hm5UXoBlTYnSiei0udG6QVU2tzskl4xod2nisyjLSrAWPAMrC6QWbH7AZ6dxfssSp9UUP7KDI0iz58DKHtlgnFFKuc4zjQJ7T5VZB5tUQEmJn7BI0bNyM6/6qY9+2KUPqmg/JUZGkWePwdQ9soEI4tSznGcaRKafZL4D6L91mITO31r0XGc3SS0+1SRebRFBZhcKH1SQfkrMzSKPH8OoOyVCcYVqZzjONMktPtUkXm0RQWYXCh9UkH5KzM0ijx/DqDslQlGFqWc4zjTJDT7JPFbi35rsQn/QfQGpL6hpc7NSZ2eKn1OlE5km+t3W3VTaXNSZzNLaPepIvNoC3QbC6VPKih/ZYZGkefPAZS9MsG4IpVrAg6iGlMuUh1UnZuTOj1V+pwoncg21++26qbS5qTOZpbQ7lNF5jEXUP7KDI0iz58DKHtlgpFFKdfENnd0FnVuTur0VOlzonQi21y/26qbSpuTOptZQrNPkr5uLe4qhQn81mIDfmtxA1IbrTo3J3V6qvQ5UTqRba7fbdVNpc1Jnc0sod2nisxjLqD8lRkaRZ4/B1D2ygTjilSuib46E/wVidrfRGqjVeeug/8HFv/NiP2fsLbU6anS50TpRPqq367U2W1bdVNpU1H/UwaJ99VRZzNLaPepIvOYCyh/ZYZGkefPAZS9MsHIopRroktnwoZpl9sQyPCfYxAELAgDGf8UEvv5v2kQu2yiTk+V3oI/ZcQS/5XG61G4zj+ptMEWwvU6lE4ktX55LS5f9Xv/evk/avg/LZaBtqWtef466uzWxffwv2zQhf6Gf8/m/7bV/WebYp1ucToIbADBNq73F1/6+PK4tQUCGdchSAuJ6552hDAfUmczS2j2SeK3Fv3WYhOzu7WIRo0Gyj85xJ9FomOp+9fcdaQ2WnXuOhgM7IwMf2TJTgMdIddTqdNTpY+BxH/8yODA4+gQYVcEXmvfJpROJKV+qQeX0BPXhj7xvx3bQJtCnd26+B6CFfRiIMMStorTpbBOtzidtQH8CPaBbwEI9MFx7GcgQzpbv3Hdw47MN243dTazhHafKjKPtkC3sVD6pILyV2ZoFHn+HEDZKxOMK1K5JuAgthGlAEEj5D/fMpBhvW0wS3VQda4Csi6QYT/1hPBYCnV6qvQWXgs2479SA9sBo9Njh4ggYu3bhNKJpNYvdeSSgQzrnI2gbm0gg3B9HXV26+p7CAqoRwj2DR3IAG0AP8K1//On/sPyGOwEwboNZFavuO53NZCp33flQumTCspfmaFR5PlzAGWvTDCyKOWa6NKZ9Elqo1Xn5qROT5W+KxC1vw6lE9nm+t1W3VRaCwIXbrvabXt8U+psZgnNPkn8B9F+a7GJ2dxa5GwGzyUwYo9Hwrx9Yht5E6mNVp2riOUbd3+9HB1TXztLY3lSqNNTpVfEAl2gEwTHYVcsoVcbGyqdSJv6BXGnbG3Ud/2m6Bb7GGwGO1ldKKhjK9hGmj+79kMreZB1uqm0MZx5QbANwXMzCNPEdkqdYdfZzBLafarIPNqiAkwulD6poPyVGRpFnj8HUPbKBOOKVK6JNh0dAgKW9qG6bbjoXCBMl0Jqo1XnKhiooAs6Dtyyg6DjYSBD55zaqZA6PVV6Ba8JPWwHDMGtJnTQkLjzbkLpRNrUL2zEYArwrA5wX9/1q3RTL2xAuP75r/75yjHYEQGLS9gO9cvnU7A56tzmQdbpFqdTxLcDeZvQYgMZBwgpg6c6m1lCu08VmUdbVIDJhdInFZS/MkOjyPPnAMpemWBkUco10aajiwOZFWxzlHz4wXvKZQqpjVadq7jh5s+WekJHBg7qFQeyeMRcR52eKr0iDmQIEFhnp4tt7Mcbbva8JpROpE39snPmczAEMQp077t+lW7s8Lm0wm3U7013fLnchr2gt61LGyyscB9Zp1ucLgYzrziQAdjHzmipE+o4nunWUWczS2j2SZLj1iL+SFPtb+IZ51wp98cofVIpTOC3FhuYza1FdCAUdGwYAWMkCrHpXvGek5eddhOpjVadq0CnwUAAHexI2XZw6KRTdQR1eqr0CisMZOgQ4xkOttt0fEon0qZ+2TlDsLSBzKbrq36VblZgh9jHILw2Z2KwFQTb2D90IAOwFfOkfhSmscGVr99zMFBHnc0sod2nisyjLSrA3HDL4cVJBz5dBjL8yzNE/XlmzKOPP1mmPfV9B8ttnIu87n3g0T1pgdInFZS/MkOjyPPnAMpemWBckco10aajG4LURqvOzUmdnip9TpROZJvrd1t1U2lzUmczS2j3qSLzaIsKMOCsi65bzsi+fNv9y0DGfQxWXAIEP6Sz+8Ad33p4ZZsofVJB+SszNIo8fw6g7JUJRhalXBPb3NFZ1Lk5qdNTpc+J0olsc/1uq24qbU7qbGYJzT5Jcr61iECm9m+K0ieVwgR+a7EB/9biBqQ2WnVuTur0VOlzonQi21y/26qbSpuTOptZQrtPFZlHW1SAyYXSJxWUvzJDo8jz5wDKXplgXJHKNbHNHZ1FnZuTOj1V+pwoncg21++26qbS5qTOZpbQ7lNF5tEWFWAsVux+3mrE7US7ny964NmY3a9Q+qSC8ldmaBR5/hxA2SsTjCxKOcdxpklo9kmS69aiFe47/6qbluu87cjjVphmHUqfVAoT+K3FBnb61qLjOLtJaPepIvNoiwowFivcZwMZ3kzE9qsuvn5t+nUofVJB+SszNIo8fw6g7JUJxhWpnOM40yS0+1SRebRFBZhNsYGuDqVPKih/ZYZGkefPAZS9MsHIopRzHGeahGafJP6tRb+12ITfWnQcJzuh3aeKzKMtKsDkQumTCspfmaFR5PlzAGWvTDCuSOUcx5kmod2nisyjLSrA5ELpkwrKX5mhUeT5cwBlr0wwsijlHMeZJqHZJ4nfWvRbi034rUXHcbIT2n2qyDzagt+4jYXSJxWUvzJDo8jz5wDKXplgXJHKOY4zTUK7TxWZx1xA+SszNIo8fw6g7JUJRhalnOM40yQ0+yTp69birlKYwG8tNuC3Fh3HyU5o96ki85gLKH9lhkaR588BlL0ywbgilXMcZ5qEdp8qMo+5gPJXZmgUef4cQNkrE4wsSjnHcaZJaPZJ4rcW/dZiE35r0XGc7IR2nyoyj7mA8ldmaBR5/hxA2SsTjCtSuT44fPhw47rjOHkJ7T5VZB5zAeWvzNAo8vw5gLJXJhhZlHKO40yT0OyTxG8t+q3FJvzWouM42QntPlVkHnMB5a/M0Cjy/DmAslcmGFekco7jTJPQ7lNF5jEkRx111OLqq68u15/61Kcu1+3+XKD8lRkaRZ4/B1D2ygQji1LOcZxpEpp9kvitRb+12ITfWnQcJzuh3aeKzGMuoPyVGRpFnj8HUPbKBOOKVM5xnGkS2n2qyDzmAspfmaFR5PlzAGWvTDCyKOUcx5kmodknid9a9FuLTfitRcdxshPafarIPOYCyl+ZoVHk+XMAZa9MMK5I5RzHmSah3aeKzGMuoPyVGRpFnj8HUPbKBOMLFbFK+Xolvl6Jr1cyhfU2wltrdflNfT1VeA5sNrd1l0KsUUoQ6cO9V9/v+32/7/f9vt/37/b+QeT5z3/+NRnL4Pu3aL/Z7lPerK6HfdE1ff/E9hdLlyClUWAox3Ecx3GmQ4jxQ4m8pjN9UPeBPqXMU13PmS6sdziAizcCx3Ecx5kk+FVqFeoHEXlNZx4EH+hTfDw6Q1jvcACX8LhYGcpxHMdxnN2liPGDDXbw+qK6pjN9iuofwrd8PDpTQv27FFI2LGUkx3Ecx3F2lxDjhxJ5TWf6oO4DfUqZp7qeM11Y73AAF28EjuM4jjNJtuH1xQsvvHBlu+lpyIEDB+T+Ovbv3y/3O8MRfKBPaTUehV8dPHhwuf3Upz515Xhbnva0py2OOuqoPf539dVXr2w7/cJ6hwO4+ONix3Ecx5kkRYwfbLCT+voiBs8Y7Fp47J577lnceuut5fpP/MRPlEsMir/61a+W+zk+waQLg+bDhw+X5x999NHl/tNPP31x9913L370R3+03MYAmsec4SiqfwjfSh6Pwj9inyKsf94MQJ72OCfwnIQpeI14ggZ/s9tOP4T6dymkbFjKSI7jOI7j7C4hxg8l8poWNeAlL3rRixbvfe97y8nXGWecsRwsYyCMydqll166Z1LGQXE8OMZkDentPmc4UPeBPqXMU11PgQl47FPWB+ykDEtO+uln2FZ52KdvzvCw3uEALi0bgeM4juM4u8E2fX0xfo0RYFBcNynDRAz7OCnDOgbOfLoGsN9u4wmHD6yHJ/hAn9JqPArfwVNSu89OxOInppyUAU7i6X/cD7+j7yh/VfuczWC9wwFcRnx98cd//Mdnj7JLF1Tec0TZxhkGZXNbF3M7lkqcxxxRdlGoc+eGsksbihg/2GDHv744X4rqH8K3/Oc0MyXUv0shZcNSRhoaBJw7H/zSbOkj4JK52xJ0safb7UvSLim47brZbu52a9NO3VbbPSkrRF7TmT6o+0CfUuaprudMF9Y7HMBlxEbgAdcnZX3SxZ4qn7mh7JKCymtOdG2/3u/5pCyVrj5m8T+PdoYi+ECfMtp41BkP1jscwGXk1xdVIJoLfQRcMndbgi72VPnMiU180NtvN9u53dLt5rbaPEYUMX6wwY6/vjhfiuofwrf89cWZEurfpZCyYSkjDY0H3M0DLpm7LUEXe7oPdvdB9zl/fbELbXzObbXdk7JC5DXHAvaaK8oeQ4K6D/QpZZ7qes50Yb3DAVxGbAToSFQg6pPb7ju0+LfnvHrP/te94ZWLv733i3v2H7r56sXvXnDunv1D0GdHmsOW204Xe7rd/PXFTVB2aaKNz6GfUvvXgf7uFb/0MnlsW2jTTjdtn7b//+BlFyxuvP2ze9JsM136tJg5vb4Ie/3L1/3Z7OjDT7oQfKBPGW086owH6x0OsLGccMIJ14fVPbJ///6yMyzSXFbuEFKk+UZYXQr2nXjiiYuYumttIJN+fdEGZTvAOfW0U1YmZSc/6+Ry6ZOyNGA/LD/9hY8uPnP95ctt2Pg5z3l2uc5lLrrYU+UzJzbxQZXfnOhquzZtlX2WnWyxr+I+28fd+nfXLdM9/wXPK/uzj3z84nLbgmNct3mzPZ/3gbeWS+yzbR2TGntDi7pwmUIbu7WxlcLahpMyxNI4HRjTJuvYpH2SIsb3M9gRsm2vL8JeatIydfrwk7YU1T+Eb/nrizMl1H83iSdLxEzCvomlnZQdd9xx33v88cefFvbfxMmYWb583759P8R9Kv+BJmVlw1JGGppNA24KNigzkAIEYATReBLmk7J0MGihbWHn9//Hd5aDFtjwT6+6RD6JHJIu9hzDbtvEJj6Y03bxUw62ZfSL3IcBcq62C7raro3d1KTM3uzAPkzE2A7R9pgOfRzsxomEAmlsH0kwAbHtF8eZhjpZeM0U2thtUx+zZWualJExbLKOrj5mCTF+KJHXHAvYS01apk4fftIW1H2gTynzVNdzpgvrHQ7QSTDJOvbYY482k6ibiknX9xTL5WsCWOc20oPyQCHF+m1Mj3yKydrTo+OH7WSMFPt9UjYh+uxIx7Dlz53yQrl/LLrYcwy72QGfvZuONs71nCi7pJDTdusmZQAD4gPveuPK8VwouzQxhs9tE23aqdtq8xjhry9Onz78pAvBB/qU0cajzniw3uEAncROoCDF9rsxoMIkjevrKI6f9PSnP/1/U8dAMVF7eci2FEzEsA/H+KStZ/GvL45Enx3p3G0JuthT5TM06yZlajsHyi4pqLyGom5SBpvhCVH8ZGNourbf3G3V2mobaGO3ufdrXX3MUsT47oOdBpnC64ufOHTX4qQDn14cc/YVizu+9XC5j8tdoQ8/aUtR/UP4lr++OFNC/bsUUjYsZaShGTvg4nUUTHbt60CnvijfAKbPjnRsWxL+xgLrda/2DEEXe6p8hgavm/E1OzsJa3rVbAg28cFt8bmx6Gq7vuzGfovtDK/LYXJqJ6/rfAo3BuzNQMI82WbRH8av4W36Wl4buw3hY+qVRnscbRP92N/c+bmV3+PZ/gy24n4w1M2Urj5mCTF+KJHXHAvYS01a6vjybfeXSzUpe+TIE+Xy8EOPlUvLM865cnHDLYfLdUzqTn3fwcVl196+sv/eBx5d7HvTJxevuvj6xVkXXVfuY55x3pgc3vzNB8v1tvThJ21B3Qf6lDJPdT1nurDe4QAuIzaCIQLuOtbdLUaARRDmQIOTshefcdpKuiHosyPNaUuwzp6Y6HKdEw8MfHL8vqyLPXPbbdvYxAfnbjug7NJEn3azEyQ1KbOTr5TJlL0pNdTNlDY+N4SPxZMy/P7VTr7spOz3/q/zVm4y8UYe+zZCG9t9fbBJ+yT++mI96yZlmGS96/IbV9IqMLnChIuTLIt94obJFyZnnMDFeWNShgmc3ZdKH37SheADfcpo41FnPFjvcACXGby+aAcjCMh2mwMPBlWS4zWyPjvSXLYEdfYEfJXMDursZG0outgzp922FWWXFFRec0PZpYk+fU61PTspw/Z/vOg98iZT/BTNttGX/sKLl+2XS1yrj3bcpp0O0T7VkzJMwrgvflKG9djO2Gdttw0T2HUUMX6wwY5/fXE76MNP2lJU/xC+tTWvL8Kmc0XZY2hC/bsUUjYsZaShQeWrQDQX+nT+udsSdLGnymdObOKDKr850dV2c2+rbezmtto8RoQYP5TIa44F7KUmLVOnDz9pC+o+0KeUearr5QY2/ezpPzA7JuRLOyujNQJUvgpEc6FP55+7LUEXe7oPdvdBt10327nd0u3mtto8Rvjri83g1cU64WuI933nSLnkNn5Dxjzw+iGP2d+gnX/VTct17I/F5tGVPvykC8EH+pTRxqMxsKmatEydMXyJ9Q4HcPGvL45Gn84/d1uCLvZ0u3V/fdFtN/7ri7tIm3bqtto8RhQxfrDBzhRfX+RHOuJ1TLawfejWv99XNymzYn8rZoWTu03pw0/aUlT/EL61Va8vqklLF277k3cubjzvReX6kQfu3bMPQLC88T0vWe5nGuy77799evGFM49epv/2169fPPnYw8vtvhjDl0Cof5dCyoaljDQ0qHwViOZCn84/d1uCLvZU+cwNZZcUVF5zomv79X4v3W5uq81jRIjxQ4m85ljAXmrS0haInZCReF/dpAxfYfyN/3TDnidh+NiHnaSlfEykiT78pC2o+0CfUuaprpcb2FRNWrpgJ2CQeB/gZAxLCo/zGCZiPBfLqUzKWO9wAJcRGwEqf+4ou3RB5T1HlG3qUAOhOdHFZiS2fZzvHI4puzRh85wryi4KpLV2nxttbLUOf30xD5h84QuMmLhhUsYJHCZnfT0RW0cfftKF4AN9ymjj0RjYVE1autA0KcNkK56AYZ3YfZiIXXfWjy3Xbbo+GMOXWO9wABf/sz7HcRzHmSRFjB9ssONfX9wOJjSQnuTri7vEGL4EQv27FFI2LGUkx3Ecx3F2lxDjhxJ5zbHwSVk+UPeBPqXMU10vN+smZXdfc0m5fOBrn99z7N7PfWTld18xfP0QIK09xlcS1xG/7vjdJx5fOd4XE/KlnZWtaQSO4ziO4/SHv744fcYYSIPgA33K1oxH40nZI/fcWi7jSRn2f+7nf7hc/vVv/tRyP4SvGWJCZeW2P3nH4pZLzlnJh5OyWJ488miZ7zrBcXs+JntWqLd9BZLXxOuP8STSJ2Xji7++6DiO4zgTpIjxgw12/PXF7WBCA+mtfX3xr37hKeVEyk7Knnj4wZU0wD4Ns2BixYkYwFcYMVHipAiCSRMnUfGTM6SNxeZnJ2VYPnb4m+US+cWTwliYBxjDl0Cof5dCyoaljOQ4juM4zu4SYvxQIq85FhhQzhVljyFB3Qf6lDJPdb3cwKZ2skLWvb6ISRufWpF40gaxH+mwrzti4oSJGyZmvEaZLuRpJ3DETsTia3NSpoh1t0zIl3ZWtqYROI7jOI7TH3N6fdHJS/CBPmVrxqPrJmVTxydl4ws67NIg6LzxOgK3fb/v9/2+3/f7ft+/8/sHEVxHDbKc6VNU/xC+NeuvL+JJ2V1X/L48losxJmUg1L+Li4uLi4uLi0sHkQMsZ/qg7gN9Spmnul5uck7K8GoiX1nER0OsxGmHxp+Uubi4uLi4uLjsnshBljMPgg/0KbOclAEldb/9GgqflLm4uLi4uLi47Jhs2+uLGFCqrxNOnQkNpGf7+qKSuUzKQKh/FxcXFxcXFxeXDiIHWGPhk7J8oO4DfUqZp7pebnJPyraFCfmSi4uLi4uLi8tsRA6yxsInZXkJPtCn+KRsZHxS5uLi4uLi4uKyY+KvL24HExpIb83ri05eQv27uLi4uLi4uLh0EDnAGouUSdkd33pY7k/l0ceflPvX8eXb7l/se9Mn5bFPHLpr7bE2TGhSVuaprudMF9Y7HMDFxcXFxcXFxaW9yEHWWMSTsmecc+XismtvL9efePK7K0ugJliPHHliuX7M2VfsmcTxfB6zaV518fWLsy66rpyIMf3hhx4rJ152csbjnJTZY0pP6HTq+w4u3nX5jct9ljEmZSD4QJ/ik7IZwnqHA7i4uLi4uLi4uLSUXXh98fyrblr8xVfvXm7byU7dUzNMhNSkzE7kOCm74ZbDK2kwEeM68sGECxOwkw58erkPSzspY3pir4v0KAcmfDYNmdCTMn99caaE+ndxcXFxcXFxcekgcoA1FmpShidM6yYzU2FCk7IyT3U9Z7qw3uEALi4uLi4uLi4u7UUOssZCTcrmwBiTMhB8oE/xSdkMYb3DAVxcXFxcXFxcXFrKlL6+qF4hBPidGF47vO87R8ptvJqI1wmt8FVD+2ojfs9mn9DhNUeI/V0YXl/s4ynehJ6U+euLMyXUv0uQZQNDJ/vAAw+82e7z/b7f9/t+3+/7ff/O7h9K5ABrLDZ9UoZJEpaciNljdlKGJT8gwiUmZgDHY8F+CtIS/E4MEv8mrS0TmpSVearr5QY2nSvKHkPCeocDuBSCzlsZynEcx3Gc3aUI8UMOduQ1xwIDSjVpSQFPsr7xd98pJ2NqUmafjtn9nJQB+3GO+EkZsR8awTXXfVGxDWMMpEHwgT6l9Fd1rdzApurPlaeOT8q2Q6ShHMdxHMfZXcITs0EET+TUNcdik0nZLjOhgfTWvL7ok7K8hPp3CSKN5DiO4zjO7oL4XoX5QURecyx8UpYP1H2gTynzVNfLjU/K8sF6hwO4FOKvLzqO4zjO9ChC/JCDHXnNsfBJWV6CD/Qppb+qa+XGJ2X5YL3DAVwqkYZyHMdxHGd38dcXp8+EBtKTfX3xkXtulfvJvZ/7yOILZx4tj+VkDF8Cof5dgkgjOY7jOI6zuyC+V2F+EJHXHAuflOUDdR/oU8o81fVys8mk7Mb3vGRxyyXnlOtHHri3XEKuO+vHFn/9mz+1eOBrn19JDzApe/LIo+X6k489XC6Rz93XXFKuQ9al4zVuvfS3y+UmTMiXdlf89UXHcRzHmR5FiB9ysCOvORY+KctL8IE+pfRXda3cbDIpA5goYVKFiRi27ZOy7z7x+HKd2CdlOO/G8160nHTZfSod1jHZU/m2xSdl2yHSUEODyv/Ql94zW/p0frdlN1u63br7oNvOfa4Lbezmtto8Rszp9UUnH0X1DzGQnszri5/7+R9ePuXqk6Ffc+yjz+lCqH+XINJIQ+MBtz/nd1v6ALkLm/ig2859rgtt7Oa22jxGIL5XYX4Qkdd0pg/qPtCnlHmq6+UGbU9NWqZOH31OW1jvcACXQsZ6fdEDbn/O77b0AXIXNvFBt537XBfa2M1ttXmMKEL8kIMdeU1nHgQf6FNKf1XXyg3anpq0NNHnk6zHDn9T7rf81S88ZflEDq8zxsfb0kef0xbWOxzApRJpqKHxgNuf87stfYDchU180G3nPteFNnYb2la/+MoXLy754rnymCU1Xd909TGLv77oDEFR/UMMpHf+9UVMyvg7r9v+5J3lb8q+/fXrV45jn0pnf0MG6iZl+A2ZFeYF+OGPLvTR53Qh1L9LEGmkoRk64NbxmreeuSfI5g68fTp/V1ue9rKflftTUDYkHzz07sWJJ564uOgz71h7jT7roKstx/TBrmyD3cAu2q5P5uRzfdLGbspWLzjluWXfwm2s2+23XPDqcvsVr35JuX3pdeeV268/91eXaQjbjW0/WOdx5m2Px/vQHn/nY28s97394teW+7HOPC64+m3lNvVB+v/rmgMr+7AOYh27+pgF8b0K84OIvKYzfVD3gT6lzFNdLzdoe2rS0oSdbPGpWdOkjOmYhpMzfBzEfiwE4MmYncxxP1H72tBHn9MW1jscwKWQuby+yGDJQPp7V7x5JTDawJuDPp2/qy0xYXr2855V2oH74kEN1gEGDHbdTg5sHu//aDVAAZiccVKmBifrBjrY14autky1m/UdqyPWsURZ3v3hN5Rltes4Ftv3Wc8+ec/AkpNYnn/xZ99R7rc2Iti3znd5LaAGoTGb+GBXn9sEWw/Yph0xGI7TDs3QPtcF+AbrH9vwJ9orbtcgtmfsq0PQxm7KVtDxpJN/plxnX4P2wvaGbbQxth32O79z+ZuW7YznsN1wifOxzutgyX04rvbZ9mqPQx9em8BPbXqro2qvXX3MUoT4IQc78ppjAFupLxNOnT58pCvBB/qU0l/VtXIDu6pJS1/EE7EYHMfSJ2XzFGmooUHlx0FoKGywBAyGWEdg5x1O7stBn87f1ZYcyAAMGriMBzUcMNh1Hodt7cADxziw4aRs3eCE5yMtz+tSB11tmWK32Hesjiyn9Se7rmwD22IJaJt4UoFBJ+7wY388kLT5K99tY8NNfLCrz3Ulrge7TTvY40MzpM9tgrVL3L5tu1b2pJ8Be6xP2thN2Qq6cVLGfgV9EsvKcrCcWGIbkzKbD7BtBWkA2zT34Vrr0jH/dZMyLDlx5LZNTx2xjjTxxKyrj1nm8voibKUmLVOnDx/pQlH9QwykJ/vn0bvCiP7kYkQaaWhQ+TYADQ2DNQMpnmZgm4O5NoPZPujT+bvaEgMF2ABwXzyowT5sc8DA9fg44DYHNvZJmRqc2PPjwU8butoy1W7Wd7DN8rKctix23ablvnhShiUHl9yG3Ww6C/Jf57u8FrBPRNaxiQ929blNiOuB22rAPTRD+1xX2M6wTn8Cql2v82tuD0Ebuw1lK97o6OI3tJE61jddfcyC+F6F+UFEXnMMYCs1aZk6ffhIF1D3gT6lzFNdLzewq5q0TJ0x/In1DgdwKcS/vjgOfTq/27KbLbfRbnjNzA6mh2QTH3Sfm47P5aSN3XLZihNZ8Btv/+XlOsDNItw0wUSVE9pTXvyC5bmqrTbdEImfiK2jq49ZihA/5GBHXnMMYCs1aZk6ffhIV4IP9Cmlv6pr5QZ2VZOWqTOGP7He4QAbyf79+8vXAk444YTLyh1BjjvuuO+1nToJh1ckPpeCPEz++8qdw4k01NCg8lUgSkUFPgRNLJX9sR8DXizxZMEeQ2C1r4nFxE8tcId507vJfTr/prYktB+fAMXY/bDlhZ95e2kLHlO2A3xdB2CA81sfOGu53QddbZliN9Q9PxZg4cCKv2uKiQdrTK/8FunjfWBon9zEB/vwOdooLhtsxN9ArSN3e40Z0ueaeO07fnlZHvhm/MSHbZF2gK2s36Gd4zjsH/sv8x3qldA2dquzFfTGkjqyfbE/gv5Yor/BMdiJNrD9EbF9G9fZH/JJNoHdeIw+bCda1tZcf94Ln708h8DHlS6kq49Z/PXFadOHj3ShqP5+BtKr4q8vjsyI/tRdiknSx7C0kzJMnAr5IWxDimMvt534Mccc8/3hUCk4jmU4t8wPcuyxxx5tzzv++OOfHg7hnG+E1b5FGmloUPkqEKUQDzIAgjCCnhpAAww27KTMnmvh7xWQPwM6jyEfrttJiE2TSp/Ov4ktCeyHMv/sac8vtznosdBuWJ593q+VNoW9ObBAHhgg0s4cIPEY7RQPqJmmK11t2cZuVl9A/2ualGEwhiXLjvNgMwwmOXAE9Cc1EB7KJzfxwT58DsAG1NmCcsKv4v2wK30U5GqvMTl8ronYdpyEsazY5gSMwKbcx0lZnC9927bTOE1X2tityVaob9Q/2hPrFGVDv2TLxbYI0CfFk1icgzTot3Au/Qv7bTqbJ48xb+tTtB/XUU+0O/cT9pWKrj5mQXyvwvwgIq85BrCVmrT0zaOPP7l45MgT5WfIjzn7inJ5wy2Hl8e/fNv95b59b/rkynlD0YePdAF1H+hTyjzV9ZzpwnqHA2wkdlJW7oik2H99WMX6u8PqiqhzOWGzovb1Jbv4+iIGugjIKrhiicDLwQRgkLSTMgw4EEgZiJkHsYGVIK3Nl8TpUuizM93ElhZb5niwxm0MgGj3dWVfN9CI7QaUndvS1ZYpdoOvYLlO79jXiB0Iws84aMN5tszqXMDjFmWrTXxyEx/sw+fYXjFoZRukvdvSt22aGNLnmkDfxUm97btoO7xeF9vR+iPsDjtgH9o12yvb+Dq72YlHV9rYrQ9bpUL7qIkXsDeYLNauRPkiiG8YNj2J7OpjliLEbz7YWS/ymmMAW6lJS99gUoblqe87uHjX5TeW6584dFc5CcNkzabNQR8+0pXgA31K6a/qWs50Yb3DAUaXbZiUFSINNTRdAi4CWbwPgw9OEhhE4wkFgiTvKmMb5/AOO1ABd+hBXp+daRdbKmyZYxty207KAMofT445yIuJ7QbWDWDa0NWWTXaDz7z1gtesHYzG5cQAjT6CARcHv+vABzvsq3ac4K27Xt8+uYkPbupz0Bs2il81tKCdqrKNcRMlZiifSwE3pWAbZQc+3UKbxOSMA39OHmAn2pyTMvgp8qJtsOTTb9z8Gstufdhql+nqYxZ/fbFf6iZlWOdTNH9S1km25vVFJy+h/l2CSCMNjQfc/jpTt+V4A+RdZhMfdNu5z3Whjd3cVpvHCMT3KswPIvKaYwBbqUnL1OnDR7qAug/0KWWe6nrOdGG9wwFcCvGvL45Dn52p29IHyF3YxAfddu5zXWhjN7fV5jGiCPFDDnbkNccAtlKTlhTwOzAsr/t/vlUuz7/qpnKJp2F84qXkjm89XB6z4KlZvM/SdLwtffhIV4IP9Cmlv6prOdOF9Q4HcKlEGmpoPOD215m6LX2A3IVNfNBt5z7XhTZ2c1ttHiP89cVm+Eoi4aTMooSTMjvRsut2cnfWRdctLrv29uUxEF+3C334SBeK6h9iIO2vL86UUP8uQaSRhsYDbn+dqdvSB8hd2MQH3Xbuc11oYze31eYxAvG9CvODiLzmGMBWatKSAidNfGJGXnXx9YuTDnx6Zd9d99U/HVOTMk6+4kkZsF9u7EIfPtIF1H2gTynzVNdzpgvrHQ7gUshYry86juM4jjMcRYgfcrAjrzkGm0zKOGmykzIKt+0+iHp1EdS9nnj4ocfC2ZWoNG0Za1IGgg/0KaW/qms504X1DgdwqUQaynEcx3Gc3cVfX5w2E3tS5n8ePTIj+pOLEWkkx3Ecx3F2F8T3KswPIvKaY+CTsryg7gN9Spmnul5ufFKWD9Y7HMClEH990XEcx3GmRxHihxzsyGuOgU/K8hN8oE8p/VVdKzc+KcsH6x0O4FKJNJTjOI7jOLuLv744bcaalBXVP8RA2l9fHJkR/cnFiDTS0KDy1Ren5kKfzn9NUYeXXHvubEH5lV2acB/s7oNuu262c7uNE/TnCuJ7FeYHEXnNMYBfzRVlj6FB3Qf6lDJPdb3cwK5q0jJ1xvAn1jscwKWQsV5fROWroD0X+nR+n5Tlm5Q969kny/27yCY+6O23m+3cbuMMIudKEeKHHOzIazrzIPhAn1L6q7pWbtBPqUlLW7799evl/nX89W/+1OLuay6Rx3IwRv/MeocDuFQiDTU0PjjxSVlfjDEpe81bz1y8/txfLddPPPHEEpvmBac8d2Xf+z/6xnL7de/85cVpL/vZct9bLnh1ue8Vr35JuY083/3hNyyPM4+3X/zaZT5qX1c28UFvvz4p68ImPue0Zy6vLzp5Kap/iIH05F5fjCdlf/ULTyn/DuELZx69uPdzH1lcd9aPlfuxjn12UoZzsY/nHnng3sUj99xarj955NHlfu7rg7H651D/LkGkkYbGBye7MSmDf2B50cG3L/7ZP39Kuf6s05+5OP/K316c+VunlMs3/sGvLX79baevHOMS+3D831101uIHf+Qfl9t9k3NShgkRJ02Ak62LP/uO5X77NA37Lrj6bctJ1AcPvXuZDuchLSZjl3zx3OUSx579vGct88A1cL7a94uvfPEyHx5LZRMf9Pbrk7IubOJzTnvQf5dRfhiR13SmD+o+0KeUearr5Qb9lJq0tIWTMkzGHvja58v1ukmZTcdJGSZjTDPFSRnrHQ7gUsg2vL5oB6q7CAbGHEyn0qfzDzUpe9qx/8fiwr88UK5/z//8P5XLP/z8OxfHHPcvlkvs42SN+zCBe+GZJ5b77HFgJ3B9McaTMjzl4oQLkyI8NVs3KWN6pHvbhb+x3IdJFvapSZk9/juXv6l2X1c28cFU28VlmgpdbdfF59rQZXKek018zmlPEeKHHOzIazrzIPhAn1L6q7pWbtBPqUnL1Bmjf2a9wwFcKpGGGho7OLGTMgwq7KtfGNRhndscBK975cumBcgb2zge52W59Lrzyv18Ja3uOhz4UG87KeOTC25zEI11S5/OP+STsl0g56SsK/Q9+tM2sIkPrrMdyskJpt3GOp7urZtMsv3x3Picpnxwvp2Q2KeKXFeTZdQH2rpt93gCievh6SfTx3S13SY+B/vYvgRliPsXlhH6s0wWdU7da7RN/WJbNvE5pz3++qIzBEX1DzGQns3XF298z0uWT8lAn0+7NmGs/jnUv0sQaaShsYOTeFLG/dzHQRUHBISDJztYw36+SsYBFvOzeXGyxvTMG4O9lOsgHSaP2OakjHkTDn6IPdan8/ukbPsnZTHWz4FtA7nYxAfrbPe8Fz572e7QbliuuA0ADPo5wMdxtCN1TlM+aLNYsm1iyYnES3/ttHJp7YvjL/qFv99mnsiHOrC9K7rarqvPxX0b9tnyUH8s7f749dZ15+A4y2zL3tQvMq9UNvE5pz2I71WYH0TkNccCvqU+Gz91xmhTqPtAn1Lmqa6XG9hUTVr64ptXXbD42//0hnJi9ujf3V5Oym655Jw96dp+KGRTJuRLuyvb9vqimpRxQGLXeUwNIDAY43HuU3lZkA/28w583XUAJmS8k26flHEixm2s223Sp/M3Tcr46uEP/nD1m65/9H3/cOU44SuHeG2R+3gO99nXEtdhfzuGVxnxezKs43dmWOIVRr4WiX3lb84u/DflPh77kX/6T8rjhYtKbBm2YVIGf8ES/sbJwCkvfsGKX/A4lvAJ+A/OQ3q2AWzTB3kOl7wJ0Beb+GCd7TZ9Ghi3tXX7xqSr7br6nOrbsGT/wnTsP/l6LfcTdQ77LNrY2hrrOLauX2zLJj7ntCf0l0OJvOZYwLfUpGXqjNWmgg/0KaW/qmvlBjZVk5a+wAc9rKgJGXj07+5YeaI2NGP4EusdDuBSiTTU0KDyVdCeC306f8qTsv/9X/6/Fv+fp//vK/ve+9Gzlx/jsBMxgg95wD8A0nGiZH8jFsPfmQHm+f/b9/+2Da+Ekzv7+zP8Jg3ruK49P17n5I5sw6TMTpjsoBlLO1Ej8c0He2MCeWHwyye4XZ5IpLCJD+Zov7jZYbdhF0wS7L424Hw7wdiErrbr025dJkZdzumTTXzOac+cXl+Eb6lJy9QZo00V1U/6lFm8vvi5n//hldcVsY1JGZfYZz8CAp587OHl+pCM1T+H+ncJIo00NKh8FbT7hq/vKHA3mL+nABg443WqdYO2pgFhmwFjn86vJmWY4PAJGSY+/LgGnmLxKRUnUPbJFiZEPI5JHLf5xCyeEFnsMVwf10TemPzxaRnzAXY/4Xl2n0pn2YZJ2S6yiQ/msJ2alNltttv41Tw18YgnxZvS1Xa5fc5O/gEm/3ySyadvhE/H7M0BHuP5m7KJz/XFRz7ykV7WdwHE9yrMDyLymmMB31KTlqkzRptC3Qf6lDJPdb3cwKZq0jJ1JuRLuyvb8Pqixf7GhK93Yd0+beAyfq1r3ROFeHCHPDkAsYOSk07+mfI6mJRBD/6WjOfZdUzmsGT6uichij6dP+VJWQ749UV1bEh8UtaNTXywT9uptoLJAycDto2ynWK/nTxgyTaoXp+c2qRM9YuwDZ+u0ga0LY5hiX4Lx//oC/++7LeQDvajTWl35POzpz2/3Ncnm/ic054ixA852JHXHAv4lpq0TJ2x2lTwgT6l9Fd1rdzApmrSMnXG8CXWOxzApRJpqKFB5augTTDhwqDB3h3HIAyTJQ5CMEni5AoDDQ4sYjiYs/AY8uNABktO4LCN6zdNyjjoUYM+NTgkfTr/WJOypxz9w3J/bqYwKeMEAz6MgTFvCJz/Z29eaQMWvuKojqWwiQ/2YTu0IbQxu8+WlW0xnnxhsgDb2HbMNLCdaotTm5TF/aJdAvaF6J948wrYSRl8LO7j0GfF9rY3sTZlE59z2uOvL06fMdpUUf1DDKRn8/XFbWWs/jnUv0sQaaShQeWroN038WTMEj9Z4wSLP3y3x4AdvMRgAGPzVmksfTp/zkkZXiWMP/YR/x6t7jdnQ5B7UoZBrXoqiwmBHRgDTCwwoLUD4xjkB5+JJ1icnGEd+SANBs3ww00mY2QTH8zVfreVrrYb0m6x7ymYBr7FCXHcryGN3eeTst0F8b0K84OIvOZYwLfUpKUrnzh01+KkA58u1x858sRy/x3fenjxjHOuXFx27e3LfTGHH3pseS6xefTJGG0KdR/oU8o81fVyA5uqScvUmZAv7a5s2+uLc6FP5x/rSZnCfjwkF2M9KcNkCk9gOOHCU1cMaO2kDZN1O6BVkzNMsNSAmpMyO9mP2eQJ0CY+6O23m+3cbvmD/pwpQvyQgx15zbGAb6lJS1fqJmVYQrA89X0Hl8fIpQdvLZdPPPndxTFnX7E8ZwjGalPBB/qU0l/VtXIDm6pJy9QZw5dY73AAl0qkoYYGla+C9lzo0/lzTcrUEzC7D5+zzz0hA2NNyvqkblJm9/G12T7YxAe9/XazndttnAHkXPHXF6fPGG2qqP4hBtJb8/qik5dQ/y5BpJGGxgcnuzcp21amMCkbg0180G3nk7IubOJzTnsQ36swP4jIa44FfEtNWvoET73qXlsEeMKm9pP7vnNE7u/KGG0KdR/oU8o81fWc6cJ6hwO4FOKvL45Dnx2pT8p8UtaFTXzQbeeTsi5s4nNOe4oQP+RgR15zLOBbatLSFkyazr/qpj371WSMryXaiZhdj/NhHvc88GjSBC+FsdpU8IE+pfRXdS1nurDe4QAulUhDOY7jOI6zu/jri2ngwx3vuvzGxZdvu7/8rZgV/q6saVK2TnAcH/7AMs6j6YMhKYwxKSuqf4iBtL++OFNC/bsEkUZyHMdxHGd3QXyvwvwgIq85FptMyjhpwqTM7n/VxdcvnvPv/2Jxwy2HlxM3HuM5N3/zweU+UPf6IvLhOp6ixV9o7MKEJmVlnup6znRhvcMBXAoZ6/VFx3Ecx3GGowjxQw525DXHYpNJ2S4zxqQMBB/oU0p/VddypgvrHQ7gUok0lOM4juM4u4u/vjh9JvSkzF9fnCmh/l2CSCM5juM4jrO7IL5XYX4QkdccC5+U5QN1H+hTyjzV9ZzpwnqHA7gU4q8vOo7jOM70KEL8kIMdec2x8ElZXoIP9Cmlv6prOdOF9Q4HcKlEGspxHMdxnN1lbq8vzhVljyEpqn+IgbS/vjhTQv27BJFGchzHcRxnd0F8r8L8ICKv6Uwf1H2gTynzVNdzpgvrHQ7gUoi/vug4juM406MI8UMOduQ1nXkQfKBPKf1VXcuZLqx3OIBLJdJQjuM4juPsLnN6fdHJR1H9QwykJ/364uHDh3tZnyKh/l2CSCM5juM4jrO7IL5XYX4Qkdd0pg/qPtCnlHmq6znThfUOB3CpBHfSaBTeVbOG8v2+3/dX4vsr8f2V+P5KfH8l27p/KJGDLGceBB/oU0p/VddypgvrHQ7g4uLi4uLi4uLSUvzPo7cD//qis+uE+ndxcXFxcXFxcekgcoA1Fj4pywfqPtCnlHmq6znThfUOB3BxcXFxcXFxcWkvcpA1Fj4py0vwgT7FJ2UzhPUOB3BxcXFxcXFxcWkp/vridjChJ2X++uJMCfXv4uLi4uLi4uLSQeQAayx8UpYP1H2gTynzVNdzpgvrHQ7g4uLi4uLi4uLSXuQgayzGnJR9+bb75f4cjDEpA8EH+hSflM0Q1jscwMXFxcXFxcXFpaXM8fXFY86+YnHHtx5ert9wy+FynZOyZ5xz5eLRx59cps/BhJ6U+euLMyXUv4uLi4uLi4uLSweRA6yxyPWkDIIlJmLxpOzU9x0sl6+6+PrFWRddV64PzYQmZWWe6nrOdGG9wwFcXFxcXFxcXFzaixxkjUWuSdm2McakDAQf6FN8UjZDWO9wAJfKEPG//xPf7/t9v+/3/b7f9+/ufjCITPX1xU8cumtx0oFP79l//lU3Lfa96ZPL7cuuvX3leAp89bFPJvSkzF9fnCmh/l0KKRuWMpLjOI7jOLsLJk5VqB9E5DXHYtNJGSZddtt+vAOvJeJVRSw5YbOTMkzksMSk6/BDj5W/N4Pw92XICxO6R448UW7j9ca+fns2oUmZj0dnCOsdDuDijcBxHMdxJkmI8UOJvOZY9PGkDBMzTLo4ebJgUob9sWAiFk/KOKGzEzuAydq7Lr9xZd+mjDEpA8EH+hQfj84Q1jscwMUfFzuO4zjOJCli/GCDnam9vgixry1iAsYPeQC7DuyTMkzEsOSkDOtxfthvt/HUrY+PgUzoSZmPR2dKqH+XQsqGpYzkOI7jOM7u4q8vTp8JTcp8PDpDWO9wABdvBI7jOI4zSUKMH0rkNcfCJ2V5CT7Qp/h4dIaw3uEALv642HEcx3EmSRHjBxvszPHPo7eRCT0p8/HoTAn171JI2bCUkRzHcRzH2V389cXpM6FJmY9HZwjrHQ7g4o3AcRzHcSZJiPFDibzmWGByMleUPYYm+ECf4uPRGcJ6hwO4+ONix3Ecx5kkRYwfbLCzba8vOvkoqn8I3/Lx6EwJ9e9SSNmwlJGGQN3hmRvKLl1Qec8RZZs6VB5zQ9klBZXX3FB2aULlMzeUXRTq3DmibNOFOb2+6OQDdR/oU7KOR53tgPUOB3DJ3AgQbH7uLf9qtvQZbOduS9DFnu6D3X3QbdfNdm63dLvN3Vagq58pQowfSuQ1nXkQfKBPyToedbYD1jscwCXz42IfnPQXbH3w0s2e7oPdfdBt1812brd0u83dVqCrnymKGD/YYMdfX5wvRfUP4Vv++uJMCfXvUkjZsJSRhsAHJ/0FWx+8dLOn+2B3H9zEdge/cuXiV97/3HL90SOPLPdj/cXveObiyOOPrezj+rkfeu3inX/8msXNd35l8dJzjy/3YR1Lm+cD3zm8PAfE17DHutLVdu5z6Xabu61AVz9T+OuLzhCg7gN9StbxqLMdsN7hAC6ZG4EPTvoLtj546WZP98HuPriJ7TCB4qQKE61PHfrTcv0bd3998foLzljuxwTMHofYc0478JPLfXGeN952qFz//f/6jj3XwHJTutrOfS7dbnO3FejqZ4oQ44cSec2xgN3UJ+OnTp/+0obgA31K1vGosx2w3uEALjvy+iLvjPfF3ffdKfengAEkB3tt6bPz7GrLOmK71NndDojHoos9h7DbJmzii13YxAe3zXa56Wq7Nnbr+lTvQ9f8wfKp4bbRxm4ptrJPSIcipX/DDYIh2m9XP1MUMX6wwc62vb4Iu6lJy9Tp019SKap/CN/y1xdnSqj/bnLcccd97wknnHB9wb4TTzxxYTnmmGO+v9j/sZC0lP37978cy2L/ZVgybbH/B+25yBPHIdgOq0NL2bCUkYYgJeAq7OSArznZyRHWL77qvXteWYonUE88+US5tIEU+xhcVZ7xa1Fxnm3os/Psass6YAM70KDdlV04aEEaLO1AiceGeIXM0sWeQ9itCfgQbIrX9GLfsb6Yg018cAzbbRNdbdfGbrad2Fc6AfwHgrYV90uYlF14xbvLtmn3E6Rn+1zXnuP2iyW2VTuOdaujjd1SbLVOV6szt7HOJ7BtysHz43Os7VTcqIslyDNlMtnVzxRzen0RdlOTlqnTp7+kgroP9ClZx6POdsB6hwO0FkzEMPEqJlRvDtvlRAtSrN8WluWkzEy2ynOwD8L9mJQdf/zxp4XdpSBtWC3zQbo4Tc+StRGkBFyFnZTZQSwESwQ9BFD1yhLT4BgHLBCmxz47EYFgafO0r0VhYMTttvTZeXa1ZR2wgZqUgdguHLTUTcpUffRJF3sOYbd1cOAMeyj/wtL6cw428cFNbQc7nPvh15U2QLuD70B4HBMLCNsX0r/q9/71yj5A4Tb8DPIXX/r40p6wL8Tmdf7H3rqRvbvaro3d7GSLuto+B6L6JT4ps/stf3bth8olb0xBsIzbM9MjHftL1Y7b2LGN3VJsBV3jvgbrDz/60FJn7KeOLGubcjBfdQ7zg//G11D71tl4HV39TBFi/FAirzkWsJuatEydPv2lDcEH+pSs41FnO2C9wwE6C56WFZOlpxcTp8s46SqWK5OycOzd4cnaddgHiSdlSHfssccevW/fvh+yx2PKk/sX//piAQIv7qSqY33SZ+e5rbbMSRd7zt1um/jgprazg2n7BMIOYvHkgoNXm94OkiHYj/Mw4OVA3D6lsILjqQPiOrrazn0u3W6b2MpORvuo7zZw4oZJ9Vh+pihi/FBjB399MfDl2+5f7HvTJ+WxHPTpL6kU1T+Eb/nrizMl1H93wUQKS06W+Eoj1q2YVx0/VvDugmLute+HsDSTsuuL9ZeH9X0FD4XTcZ3DuAafzA0gZcNSRhqCTQJuWzjQI/HrPgQDOQ7qCIJ7fH4f9Nl5Dm1LDGpiu4AHH76/XMKeVrAvpy1BF3v2bTeUmRN6TAY4ibDHlR0t9okkwFMPMMSgchMf3NR2dpKlJmXYB+GA2qbnPk64MAjmeXzC9p8/9R+W+zh54zbPx3pXutqub59T9NX22qZPoY3d+rIVfMLeaOMTwi6oJ49EtflN6epnCn99sT8w+YJwAkbhpOwTh+5avOoPry/3vevyG5fp43z6pk9/SQV1H+hTso5Hne2A9Q4HcMncCPoKuJab7vhyucTAloMzCgYY//0bNyyDJgIoAzXSYkmxgbUuCG9Cn53nELYEaoJgB7OclB1+8J7ytSrYEwNe7KPksCXoYs8h7IYJAMsMe114xbv3+BltZYVPhbiOdPacIdjEB4fyuU2hDYf0NdDVdn3YDT7xivecvDKZxY0R9GlYp6xre2yj6BNxHiZxEPod2j3aOfOHT6/7vVVb2titD1tx4q7EtjkI+zPCm3d88gWsHZVN2bbjvrMrXf1MEWL8UCKvORawm5q09MEjR55Yu20nZScd+PSe43d86+Hl+hD06S9tCD7Qp2QdjzrbAesdDuAykdcXMWDhXWIGVXvHF8ET2wyigIMP3mFGHhAEYwRq/D6Bafuiz85zKFsqsXfgeccZkzJORmjXnLYEXew5hN1Q3vgpjB2gofy8IWDFDoixpCAtfnvFiV2fbOKDKbaD7vSXWOArH/job5d+ET9phaCNxgNqmw7HKRgcx4I64ICbkw8rrCP4rfXpVLrarg+fsz6GvgvltGVoantso7QLfS6eSKgnbpvSxm592ArwSakVlos+YtcpnHStExzHJAx50aYWxp9N6OpniiLGDzbYmdvri5hoQeyTsiee/O4sJ2VF9Q/hW/764kwJ9e9SSNmwlJGGoK+Aa2EQjAcTGHxwHSCA8m6mTWuDMPYh4EIwALJ3Rfugz85zCFuC2G7WVhyEwEYf+/wl5X5OLGCrnLYEXew5lN0AB3j2CQMHcBhIcxLLATYmtrQpz8U6fBr1gHTMpy828cEU26EcdvKAdUy0WP9of7ABym7LR9vETy4I8sBxrDMvTDxgX7RrnI9r0Y6cfNg87Lnwa0qcZh1dbdeHz9lJmaKp7dEW1i4Q2hRgv92Gzfu4MdDGbn3YCtAf7D7rb3HbWud3gLaNYdslYzxZbMJfX5w+ffpLKqj7QJ+SdTzqbAesdziAS+ZG0FfA3VX67DznbkvQxZ7ug919MNV2nNhz0Gon9mryFd8IiLdj7CCZkzJux5MyDr55PWwrwQSPeayjq+3c59LtNndbga5+pggxfiiR1xwL2E1NWlK454FHF8ecfcXyt2Bct2luuOXw4lUXV78Zs4KnY+dfddNyHfLo40+W55z6voPlvsMPPVbuv+za28v9eJKG/Gz+XenTX9oQfKBPyToedbYD1jscwMW/vpiVPjvPudsSdLGn+2B3H0y1nX1Kg20IJz2YHGHihN9HcTLFSZZ92hNL/LQCT9xiwUSMTys4KcO1oAeEefNpkH1VkvnW0dV27nPpdpu7rUBXP1MUMX6wwc7UXl+86r99s+wLsM4lXknkcU7K+IoitjnpwqTsGedcWa5jMnfXfQ+X+3gck777vnOknJxxggZBHpu+3tinv6RSVP8QvuWvL86UUP8uhZQNSxlpCOYecPvsPOduS9DFnu6D3X3QbdfNdm63dLvN3Vagq58p/PXFNKxwkvTfvnHf8skWJk+clPE3Zdjm+Zi8NU3KcJxP37B+1kXXLc/fhD79JRXUfaBPyToedbYD1jscwCVzI5h7wO2z85y7LUEXe7oPdvdBt10327nd0u02d1uBrn6mCDF+KJHXHAvYTU1aUsDkCYLJEiZiEOzHq4yYVGGdEzNMwKxwIgb51Ff+R3ncpsO5mJTxWnzVkZO7TenTX9oQfKBPyToedbYD1jscwGWE1xfnjrJLF1Tec0TZpg6Vx9xQdklB5TU3lF2aUPnMDWUXhTp3jijbdKGI8YMNdub29cVtpU9/SaWo/iF8y19fnCmh/l0KKRuWMpLjOI7jOLuLv744fSY0KfPx6AxhvcMBXLwROI7jOM4kCTF+KJHXHAuflOUl+ECf4uPRGcJ6hwO4+ONix3Ecx5kkRYwfbLDjry9uBxN6Uubj0ZkS6t+lkLJhKSM5juM4jrO7zO31xbmi7DEkqPtAn+Lj0RnCeocDuGRuBOg81Nem5kKfnefcbQm62NN9sLsPuu262W7udgOptnNb9RsnQowfSuQ1nXkQfKBPyToedbYD1jscwGWEry+qIDQX+gy2PnjpZk/3we4+6LbrZru52w2k2s5t1W+cKGL8YIOdbXt90clHUf1D+Ja/vjhTQv27FFI2LGWkIZh7wO0z2PrgpZs93Qe7+6Dbrpvt5m43kGo7t1W/cWJOry86+UDdB/qUrONRZztgvcMBXDI3grkH3D6DrQ9eutnTfbC7D7rtutlu7nYDqbZzW/UbJ0KMH0rkNZ15EHygT8k6HnW2A9Y7HMBloq8v3nznVxYvPfd4eWxM+gy2PnjpZs8Uu5124CcXd993pzxmSU23TWzig9vucwe/cuXiV97/XHmsD7rabmi7bWt/Z0m13TpbfeiaPxi0breJrn6mKGL8YIMdf31xvhTVP4Rv+euLMyXUv0shZcNSRhqCoQcnhIMUDNLO/fDrFpCLr3pvuR/CdBhUQ3INrPsMtjlsiYHQO//4NeX6o0ce2bMP0NYPfOfwcl8uutgzxW6cbNlJF9ZvvO1QuX7uh15b+s1//tR/WB7nvr/40seX+15/wRnlPp4H6IMcRMOuEB4/8vhjpS25Dz5MwXacJ46f/7G3JvvwJj64ic/ZCRMES2tTCtPHdgDKxrGtXvV7/7rcZr52woJ1LLvS1Xab2C2mrozWF2A/HLM+TGFeysZo3xDrs32Qart1toJeF17x7rIft/tf/I5nlvqy/PQxrGMf+y1gfQGg7LQN7YX29alDf7pM88STT8h9XCf2Olinb0O/9/3fv1X2mSgDro/r2nNjuvqZYi6vL8Jmc0XZY2hQ94E+Jet41NkOWO9wAJfMjQAdiApCfWMHKQzSNmgiECPQxgF+aPrsQHPY0k7AaMt4UoZtewcb6TjQGZou9kyxGweydkDLQZb1Gx5ft88KjlsfBNi2gn0cHAJem+epPDn45DlNbOKDm/ocyoaJ1Svec3I5yOUkiZMt+BHLHNtB2RjrsA0Hyba90y52IM7rdaWr7Ta1m6WujNYXYFO0U04AUmyMJQT7bV59kGq7dbZiP4NycLLDiSOE5Y9tg/PgN/AZpqNNkIbl5pL5YYlr0efUPgv2c+L2jbu/Xi5x7Qcfvr9cxzWpL8uA9d//r+8ol5aufqYIMX4okdccA9hM/YfX1OnTV9oSfKBPyToedbYD1jscwGXiry/aIB1PyrDkINcG5CHpswPNYUsMKigciNh9HFgA3rGGcN/QdLFnit3soJ/lxVMxlpf7zvsvZ8t03IfBF8T6FydiHPBSuK0GyszHrvNY28HzJj64qc/ZwSj0pk+xHWJQy3IpOygbQ+omZUwDmdOkDGAiwLSpNqZ/xnltSqrt+rQVQDmwRP/EMm47Xf1MUcT4wQY72/T6ImymJi1Tp09faUNR/UP4lr++OFNC/bsUUjYsZaQh6Dvg7hp9dqBztyXoYs8mu2GAq15PagKDP4idqG4jm/jg2D43to272m5su20DqbbbNlvde/83ywkdJ7frJnac/K2DT8xS6Opnijm9vqgmLVOnT19pA+o+0KdkHY862wHrHQ7gkrkR9BVwcbeXAzQrfH0Egza+rmIlvvPbFEibjrelzw60L1sS3FW3Eh/HUwr72iJgHWCgEp9PW+PpiHrdpw+62LNvu8VgAAc7YXIHH0TZ4yc0sCWWsfDJBeWX3/ecsFaJHRBCuN6GTXywL9tZe3zs85es+BWfBCrB8TF9rqvthvY58IGP/nbpP7GvsQ+zr77C3phsYD9ftRuaVNs12Yp1zm0Kt/k0lRN3PsFnbLCgffIGDM+jYBIG28GnDn3986W9brrjy+Xkiu3Uxge7zvZNeO3DD95TXlPpYunqZ4oQ44cSec0xgM3UpGXq9OkrbQk+0KdkHY862wHrHQ7gsoOvLyLYIqjFAzIIB62clKmBWVMgxeAFg5Y4cNpXfbrSZwfahy0xeOUdYL62BInTcV9sA9gPwgGyPQY4MLIT5DjNJnSxZ5PdMIij3rANbIR1+AV9gku+Esuy/9Gff6Bcory33fP/lOngV/F59DXak9u8m07BpCz2YeoDMACHtJmAbOKDffkc7MB2xv20YZ3gvDF9rqvt+rBbE/AF2GfdpAx2xwQYdoHd/+zaD5X7lQ2HINV2TbZCm+NECmWCoJ2y74egXaHcmFBxMooyW59gv4c2B5uxDSIfnIPjdYJ09EUlyIu2Zbsn6GPifZaufqYoYvxggx1/fXF8+vSVNhTVP4Rv+euLMyXUv0shZcNSRhqCpoCbCgd1sfC4nZRxkMKgzUFKvB4PlFXQ5ICvK312oH3YkgM1rMM+9imPTcfJQlx+DkpwLgYg8eQC20rqBiRt6GLPVLth8Adb2EErbUT9OfDDOvwRg8V4oIbj2EebYt0OALHkNqFwUga7c6Boj8di81jHJj7Yh88B2o82gR+ybEAJfW9Mn+tqu77s1oRtn3EbXof1qyFJtV2TrSCclDEGoG7ZluLfxNFf7A0AC/0G4Fz4j/UVJcqXcJ14H7H1gvyb7N3VzxT++qLmsmtvL5ePHHmiXH7i0F2LO7718OKYs68o6/hdl9+4OPV9B8t0zzjnysUNtxwu05104NPLPEB8TJ1z7wOPLva96ZOLV118/eKsi64r9/G6XB5+6LFyCT1u/uaD5XoKffpKG1D3gT4l63jU2Q5Y73AAl8yNoCngpoKgGA8mGBQhGMhiUnbDzZ9dBmOkV5MKu23BgM+KStOWPjvQTW3JSes64cCDg1yeB7vQjpzAcoDMgRDTQ1hHHEBBsN0HXezZlw/WgcEd7Aeb8MkQ7E17wU7WXyk4zgkKlpyUwb6oB6xjP/PhtSBqoKjYxAf7sh10VfJ3D/yPsKYFdhjT57raLofPwRZ2O56U0U+wDl9iGkjcLw5Bqu1y2Grb6epnihDjhxJ5zTGAzdSkRYEJEydlmARhwoQlJ1ycKAFM1LiO/ZxUxfCYPZfYPDD5wuSMEzhM/mxa6mP31dGnr7Ql+ECfknU86mwHrHc4gMtEv764rfTZgc7dlqCLPd0Hu/ug266b7eZuN5BqO7dVv3GiiPGDDXb89cXx6dNX2lBU/xC+5a8vzpRQ/y6FlA1LGWkI5h5w++xA525L0MWe7oPdfdBt1812c7cbSLWd26rfOOGvL06bPn2lDaj7QJ+SdTzqbAesdziAS+ZGMPeA22cHOndbgi72dB/s7oNuu262m7vdQKrt3Fb9xokQ44cSec0xgM3UpCUVvNLIVwnxeiFfITz/qpvKdf7WTInNB+AVxHifBdda9xpkW/r0lbYEH+hTso5Hne2A9Q4HcPHXF7PSZwc6d1uCLvZ0H+zug267brabu91Aqu3cVv3GiSLGDzbYmdLriymTsvj3X+DLt91fLu1EzK7jfCyZJ3/LRviBj6706SttKKp/CN/y1xdnSqh/l0LKhqWM5DiO4zjO7uKvL6bBj29wPZ6U4aMc8ZcX16GelPFLjHZSZieCXZnYpMzHozOE9Q4HcPFG4DiO4ziTJMT4oURecww2nZQ10Wby1PT6Yp+MNSkDwQf6FB+PzhDWOxzAxR8XO47jOM4kKWL8YIMd//ri+EzsSZmPR2dKqH+XQsqGpYzkOI7jOM7u4q8vTpuJTcp8PDpDWO9wABdvBI7jOI4zSUKMH0rkNcfAJ2X5CT7Qp/h4dIaw3uEALiN8fXHuKLt0QeU9R5Rt6lB5zA1llxRUXnND2aUJlc/cUHZRqHPniLJNF4oYP9hgx19fHJ8+faUNRfUP4Vv++uJMCfXvUkjZsJSRhgAdiPoE8FzoswOduy1BF3u6D3b3QbddN9u53dLtNndbga5+ppjL64tOXlD3gT4l63jU2Q5Y73AAl8yNwAcn/QVbH7x0s6f7YHcfdNt1s53bLd1uc7cV6OpnihDjhxJ5TWceBB/oU7KOR53tgPUOB3AZ4fVFFYTmQp/B1gcv3ezpPtjdB9123Wzndku329xtBbr6maKI8YMNdrbp9UUnL0X1D+Fb/vriTAn171JI2bCUkYbAByf9BVsfvHSzp/tgdx9023Wzndst3W5ztxXo6mcKf33RGQLUfaBPyToedbYD1jscwCVzI8gRcF9/wRmLTx36U3ks5kPX/MHiV97/XHlsCPoMtn3b8tEjjyzXjzz+2MqxJtqm74su9szhgzHWtpty9313yv2pbOKDY9jO0qZtkz5t39V2OeyGvuydf/yach0S7zv4lSsXF1/13nL93A+9drm/T/uso43dUmzVxQ+agH1eeu7x8pi10c13fmXl2BB09TNFiPFDibymMw+CD/QpWcejznbAeocDuEzw9UUVsE878JPlYBbHODABnJRxEDM0fQbbvm1pBx5PPPlEuaTduFTHsI5JGWxJ22LgwgEO03PZJ13suandbDlQbtjhxtsOreyL0ynbWmivB75zuNy2g2Zgbc1lVzbxwb58zvoHt7mOwTHaJJa0AdPbtl3nY9Zec5qUUWg3OykD9CvrXxAeH4o2dkuxVV0fb9vji9/xTNlerG8xBsSTsnU+RF+11wGq3XMd9mba2PcVXf1MUcT4wQY7/vrifCmqfwjf8tcXZ0qof5dCyoaljDQEOQYnNmAzmMbBmWl8Uvb32IGHffLFgQ7tFx/jvnjgwTTE2r8vuthzU7vZQRdtowZntrzWttxvbxBgMsaBGo4zP+W/Nt8ubOKDfflcPDC1/mInZVhyH9LHkzKeQ5RvWttvSlfb9WW3OuwEjLaLJ2V2kmD3D00bu6XYqq6Px5LtB+lUe4F9rK3gW1yqNmd9iH6X0u65z7Z1XodpFF39TDGX1xdhM/XJ+KnTp6+0AXUf6FOyjked7YD1DgdwydwIUgLulOmzA527LUEXe25qNzXI65OHH31I7u+LTXxw7j7X1XZut3S79WkrOxmypEyMxqSrnylCjB9K5DXHADZTk5ap06evtCX4QJ+SdTzqbAesdziAi399MSt9dqBztyXoYk/3we4+6LbrZju3W7rd5m4r0NXPFEWMH2yws02vL8JmatIydfr0lTYU1T+Eb/nrizMl1L9LIWXDUkYagqECrn1tCa+d2Fdz8JoJxN4xta+v4DiO4RWyWOLfLWxKnx3oULZ88OH7yyXtgnXagfvw2g73YYnXoXDnOactQRd7DmW3OuBvuGsfC/0Wr0TBb5XEeW3KJj44hO3gO+sExw8/eM+ecwDsiVf0dqH9ptiNvyeEr2CJVw+xRDnRV6GcELZJpo37Oh7H+RS0V8oNN392+VoosHZkXrw2+MbdX1+uw0etTdUrpIo2duvDx2AXii0r4RM02AXlRju0tgPrxL6yaOuqzydvXf1M4a8vTps+faUNqPtAn5J1POpsB6x3OIBL5kbQR8CNwetkQA3KsJ9iz+GAhUEZwZgDEQw6EKQZcPukzw50CFtikIXBhbUbhYMR2MsOzLAeT8py2BJ0secQdkM5YTsrsAds9hdf+vhy8Irfppz1uy8s08Mmb/vPZ5X7eRzpsR/2xGDSDgD7YhMfHMJ29B2sQ1hmO+CHX0GwDt+yg+ddaL+pdrN6ozwoG+1BsemRBoI0KDdtce/931z6kH0d9qY7vrz4xBc/XJ5jJX4ll7ZMJT4/po3d+vAx2AHlPPfDr1uc91/OXrZPlMv6Gu1HQRqkxXEugW2HXMdS+RjqMN7Xlq5+pggxfiiR1xwD2ExNWqZOn77SluADfUrW8aizHbDe4QAuE3l90Q4K4idlxH6ggYMXrCMw83wEWQRV3rVuGmy0pc8OdAhbcoCMctsBhx2gqIEIz8tpS9DFnkPYjYM+btMeHMDh2H/8r28v12EHDnrpkxA7WHzV7/3rMk87YemLTXxwSJ+L91t7xk/L+HQH67vQftvYje2LPhKzrh/jhALn0Z64CWCfFMEfkc62Ydg/fpq07tp2clK3L6aN3fryMfoVfYD+xKW1HSaudjtmXRnjvrCv34N29TNFEeMHG+z464vdOPV9BxeXXXu7PNaWPn2lDUX1D+Fb/vriTAn171JI2bCUkYagr4C7q/TZgc7dlqCLPd0Hu/ug266b7dxu6Xabu61AVz9T+OuLqzzjnCsXjz7+5HL7y7fdv9j3pk8uHjnyxJ59nzh01+KkA58u92Ed+5gGIC87ubKTLay/6/IbZR42nb0u161+TfTpK21A3Qf6lKzjUWc7YL3DAVwyN4K5B9w+O9C52xJ0saf7YHcfdNt1s53bLd1uc7cV6OpnihDjhxJ5zTGAzdSkJQYTIixfdfH1i7Muum45ATv/qpvKSdQxZ19Rvq2QMikDECyZr91elwcmczfccrjcBz04Qbv5mw+Wyzu+9XC5TKFPX2lL8IE+Jet41NkOWO9wABf/+mJW+uxA525L0MWe7oPdfdBt1812brd0u83dVqCrnymKGD/YYGdKry9iwoQlJkxtJkVj06evtKGo/iF8y19fnCmh/l0KKRuWMtIQzD3g9tmBzt2WoIs93Qe7+6Dbrpvt3G7pdpu7rUBXP1P464vtafP6oMW+isjXF+1xgqdy6qlbF/r0lTag7gN9StbxqLMdsN7hAC6ZGwE6kLmj7NIFlfccUbapQ+UxN5RdUlB5zQ1llyZUPnND2UWhzp0jyjZdCDF+KJHXHAPYTE1aUrnngUeX63ZStu6pGV9TJHwF8f1/9jflOQCvQnJiViebPJnr01faEnygT8k6HnW2A9Y7HMDFHxc7juM4ziQpYvxgg50pvb7YZlKmnnSte7pmfz+mhMe6MtakrKj+IXzLx6MzJdS/SyFlw1JGchzHcRxnd/HXF9tz33eOLNcxqYpfQ1z3+iE+2sGPegA74aqTXXxShroP9Ck+Hp0hrHc4gIs3AsdxHMeZJCHGDyXymmPQ56RslxhrUgaCD/QpPh6dIax3OICLPy52HMdxnElSxPjBBjtTen1xV5nYkzIfj86UUP8uhZQNSxnJcRzHcZzdxV9fnDYTm5T5eHSGsN7hAC7eCBzHcRxnkoQYP5TIa46BT8ryE3ygT/Hx6AxhvcMBXPxxseM4juNMkiLGDzbY8dcXx2diT8p8PDpTQv27FFI2LGUkx3Ecx3F2l7m8vujkBXUf6FN8PDpDWO9wABdvBI7jOI4zSUKMH0rkNZ15EHygT/Hx6AxhvcMBXPxxseM4juNMkiLGDzbY2abXF528FNU/hG/5eHSmhPp3KaRsWMpIjuM4juPsLv76ojMEqPtAn+Lj0RnCeocDuHgjcBzHcZxJEmL8UCKv6cyD4AN9io9HZwjrHQ7g4o+LHcdxHGeSFDF+sMGOv744X4rqH8K3fDw6U0L9uxRSNixlpG3mqKOOWlx66aVy/eDBg8lpHMdxHGeq+OuLzhCg7gN9yk6OR53NYL3DAVy8ETiO4zjOJAkxfiiR13TmQfCBPsXHozOE9Q4HcPHHxY7jOI4zSYoYP9hgx19fnC9F9Q/hWz4enSmh/l0KKRuWMpLjOI7jOLuLv77oDAHqPtCn+Hh0hrDe4QAu3ggcx3EcZ5KEGD+UyGtOjbvvvruX9akRfKBP8fHoDGG9wwFc/HGx4ziO40ySIsYPNtjx1xfnS1H9Q/iWj0dnSqh/l0LKhqWM5DiO4zjO7uKvLzpDgLoP9Ck+Hp0hrHc4gIs3AsdxHMeZJCHGDyXyms48CD7Qp/h4dIaw3uEALv642HEcx3EmSRHjBxvs+OuL86Wo/iF8y8ejMyXUv0shZcNSRnIcx3EcZ3fx1xedIUDdB/oUH4/OENY7HMDl741RAgPhToXv9/2+3/f7ft/v+yexfygpr4PrYd3i+6e/v1j2LXuug2uHa/n+ie432y6FWIOANxdAfH8lvr8S31+J76/E91fi+yvx/ZVs6/4hxV4X5C6b7x9v/xCC/ONrQnx/JVPd77J///7PF4ulYTCLjWatvt/3+37f7/t9v+/f3f1DSPnbn2K5woBl8P3bt79XwWu2yL9YXQHX8/3T3f/AAw9gkuYCQ8BIjuM4juNMhyLEkyGkzFtd15k+of77FnktZ9qg3qvqd5EGchzHcRxnd0F8DwwhZd7qus70CfXft8hrOdMG9V5Vv4s0kOM4juM4u0t4PWio14HKgZS6rjN9Qv33LfJazrRBvVfV7yIN5DiO4zjObhPi/BBSDqTUNZ3pM9DvfuS1nGmDeq+q30UayHEcx3Gc3QXxPTCIqGs682CI/7nzbxrMk4H/M3F3xP9133Ecx3GmRxHih5yQlV9ZVNd1pk9R/737lY9H54l/ZTGI35FwHMdxnOlRhPghJ2Rl3uq6zvQJ9d+3yGs50wb1XlW/izSQ4ziO4zi7C+J7YAgp81bXdaZPqP++RV7LmTao96r6XaSBHMdxHMfZXfwri85QhPrvW+S1nGmDeq+q30UayHEcx3Gc3SbE+SGkHEipa8acccYZK9sHDhxY2bZ0+V0azrn77rvlMWcYtuEri0996lOX61dfffXi4MGDK8fbcM899yyOOuqokvhY7L9Ov6Deq+p3kQZyHMdxHGd3QXwPDCLqmhY7yI3hYBoDaUymkBYDak7Inva0p5VLTN6Q5hvf+Mbi0ksvXebNQfK6azCdMwxjf2UR/nHhhRcubr311nIbfmInaIA+gmP0r9jfbHoF/RD4xGwY/CuLQfyrNo7jOI4zPYoQP+SELPkri/FkyT4h27dvX7lMnZCdfvrpZR4YiB8+fHixf//+xVe/+tXlYJnHsO4MR1H/vftVm/Hoj/7oj674lIX1b33CwglZvJ/QP3ENXg/A33xS1j/+lcUg/pVFx3Ecx5keRYgfckJW5q2uG7NuwIsB7tFHH10+6YgHyNiPNHZCZo9jIsb8cb495q8vDk+o/75FXmsdts5JfAwTKPhQ2ydkmIwxD/vkDefRf51+QL1X1e8iDeQ4juM4zu6C+B4YQsq81XVJPFGKednLXrackHGgXPeE7I/+6I/Kp2SYyMWDYjw5s9vOsIT671vktdahfMoe59OsuglZfH782qMzPKj3qvpdpIEcx3Ecx9ldMLkpYvyoX1nERIm//bKvkPF4mwkZ8vmJn/gJOfmyT8xSX6V0uhPqv2+R11pHPJkC9pVCrGPiFaexEzM+iSXwL3u+PbZun7MZqPeq+l2kgRzHcRzH2W1CnB9CyoGUuuY61GC2bkKGwTQmYXZChuN2EI008aD6x37sx1a2nf7Zhq8s2kk4oY9h4mV/S8gnYtzmpN4nZOODeq+q30UayHEcx3Gc3QXxPTCIqGv2BSZkmKjhgx0YXPNJhz2OCZw9x8nH2F9Z3BQ+tfUJ2fj4VxaDjPWVxR//8R93CpRtuqDynhvKLs4wrLO73T+3YynE588VZRuFOnduKLukUoT4ISdkyV9ZdKZHUf+9+5V/9Xue+FcWg4z1lUUEmjsf/NKs2TTYWuZuzy62xDlk3f65HUsF56l6mBPKLk243dq11bnbq2v7JEWIH3JCVuatrutMn1D/fYu8ljNtUO9V9btIAw2ND0x8QtYnXWzpPthtUgHcdj4h60qbtjp3e7WxlQLxPTCElHmr6zrTJ9R/3yKv5Uwb1HtV/S7SQEPjAxOfkPVJF1u6D3afkAGV35xQNmnCfc4nZG3o0q9Z8EphEeNH/cqiM01C/fct8lrOtEG9V9XvIg00ND4w8QlZn3S1pcprTiibpKLymxNdfM77PZ+QtaFrv2YJcX4IKQdS6prO9NmGryw60wD1XlW/izTQ0PjAxCdkfdLVliqvObGJD6r85kQX2829nYI2dpu7vTZpnwDxPTCIqGs682DXv7LobA/+lcUgY35lUQWgObFpsLX4wKWbLVVec6Kr3bz9drOd262d3eZury4+ZilC/JATMv/K4owp6r93v/KvLM4T/8piEP/K4nhsGmwtPnDxwXEXuvqg2859ritt7DZ3e3XxMUsR4oeckJV5q+s60yfUf98ir+VMG9R7Vf0u0kBD4wOTzYOtxQcuPjjuQlcfdNv5Rz260sbn5m6vru2TIL4HhpAyb3XdMYCt5oqyx9CE+u9b5LWcaYN6r6rfRRpoaNCJqADUN7fdd2hx4oknLm68/bMr+17xSy9bSTcGfXakuey5rXSx5dxtBpRdUnDb5ZmQve4Nr1w85znPLpd/e+8XZRpLaroxadNWN/Uz2//DjirNNtPGVoo5fWURtvqXr/uz2bGpj3Ql1H/fIq/lTBvUe1X9LtJAQ7NpoE0FA5R4X92E7PkveJ7cPwR9dqS57LmtdLHl3G0GlF1SUfnNCWWTJtr4HPqpf3vOq+WxdfiEbBXb/89xQgZCnB9CyoGUuuYYwFZqwjJ1+vCRLvhXFp2+QL1X1e8iDTQ0mwbaFD79hY+Wd0eB3f7w5ReWE7JDN1+9PA7O+8Bbl+txXkPQZ0eaw54EduITR6wfeNcbl9u0XZfB5CZ0taXKa04om6Si8psTXXyuTTtlX4R2xIkW2tt/+9trlvvjtEyHdexHH6fa4amnnbJMA3Ajym6jf8S2bdvMm/0m84VOV/zlh5PfOmhjt036tbj/54QM+v7uBeeupAVj2mQdXfs1gvgeGETUNccCtlITlqmzqY90xb+y6PRFL760f//+lx9zzDHfHzZX5IQTTng3lkhT7hBy3HHHfW+R7rKwWQr2oWNXrLvWJjL1ryzyDqmdINz6d9etBMoPXnbB4jPXX16u+xOyZmA/DmhOftbJy23Y+Ff/zZnlYAWDIQ5actDVliqvObGJD6r85kQX27Vpp7bPshMy9lXcxz4OYFLBCQLapOrPcOwjH794uc18sI72bJe2rWNCA53Yd6KNQxerUwpt7NbGXgprG+iPvt6WnYxtk3Vs0j5BEeKHnJBt1VcWYSs1YZk6m/pIV4r6792v/CuL82Tjp63FRGuZQbT+DSzjCdmxxx579PHHH/90TLiwxD4l4fhpWC/y2MdJGPIZYkI29a8sMiDbgGsDqF0HPiFLgxMx2hQDEwxGbv4fXygHK3YglIOutlR5zYmudsvtb9tIF9u1sdu6CRlvdGAd+2yfZScSmJzZJzm4qcenRDiHEwys2xt/2Gf7RNvW+SSIYB/1YPom2thtUz+z/RD0teXaJpuso4uPWYoQP+SErMxbXXcMYCs1YZk6m/pIV0L99y3yWs60Qb1X1d9SMDGyna8FxznxiidknKhhwvXTP/3Tz8SkK5p8PcTjKm8wxISsEGmgodk00KbCgIzgycENAiiDqx3MqO0h6bMjzWVPgjvNeHWH27DzG970G+X6qS86ZWXwkoMutsxts22kqw/mth0HzYBPKHADgG0aoI/keg6G9rnUCRkmXjwH/Rf28QYUJxgKpFl388S2X1wHYN3qZI/vwoSMN41i/S1j2WQdXXzMgvgeGELKvNV1xwC2UhOWqbOpj3Ql1H/fIq/lTBvUe1X9LQUTrGLS9D2YQGGChAlYsX59wcdCknJyVbCckIX05auJYRKGCVs5ASuW19uJmV0vjg3+hKwQaaCh2TTQpmIDKyYRGLRdc+1Hy+DKbYI0CNi5BnZ9dqS57EkwCLGDZDvQwWAEg0Eey0EXW+a22TbS1Qdz205NyLDOV/Tsa8e5UHZpoo3dUidkWEefhckX03Eitm4CwvR2GzA/O/mAveO2jrRM03by0cbnNvWzeEKGJXzFlo+MaZN1dG2fxL+yOH029ZGuhPrvW+S1nGmDeq+qv6XwiVcxWboNSzPBshOydwOsIz3XIZjA7du374eYvlh+Mz7OQBDjE7Jp0WdHmtueuJOcewBcRxdbjuWDHCTaScQYk1ig7JJCbtutm5Bh0oJBsD2eC2WXJsbyuW2iTVudu73a2GodIc4PIeVASl1zDGArNWGZOn34SBf8K4tOX6Deq+pvKWZCdpgTpXhCBuEki+kp3MYSEzOsF2nLp2UQnMeJV7HuT8gmTJ8daU57rrvDPCZdbDmWD6oJGff3cVe9Dcouqaj8hmLdhAygD7bbuVA2acL7PZ+QtaFLv2ZBfA8MIuqaYwFbqQnL1NnUR7riX1l0+qKzL8UTLAgGBJxUcZKmKNLg1cby9UZ1vMj7zcWx5VcXi/VyQsbjYXevMvWvLG4zfXakc7dnV1uqvIZm3YQMrz3twmt3ROU3FOsmZLRhzt9+ki4+l7udxpPXbaCN3bxf2yxGFCF+yAnZJL6y+OjjT5bLL992/2Lfmz65+MShu8plnG5b2dRHulLUf+9+5V9ZnCcDPW3dPZnyVxbxOpOd8Fp43L4mhtfw8PsM+7uDIemzI90Ge2JwrPbnoKstVV5Ds25Chm3+PigXm/igym8o1IQM/sj92Jf7qW0X2/XRTtFPrWtn+KAObBEfJ7RX/BVBAv+z7Zz+2Gef2MZufdgrxv4Oz/oVj6Hc8CX+Lxnh02vcOMn1evEm7RMUIX7ICVmZt7ruGMBWasJSxzFnX7G44ZbDK/t8QpZGqP++RV7LmTao96r6XaSBhmaIQNsWBloGZ07I4nRD0WdHug32BBzgYGCDJQZ3Oe7Qd7Wlymto+FW8eEJW90W8oehqt23xtzHpYru+7IZJAfoqtjP4EiYMmJDZdOt8ChMsO9mwfSFvVKE//NOrLll5jRbX3fS12jZ2G8LP7ORSTciw5IQs3s/Jqp2Q4dhQT7a7+JgF8T0whJR5q+uOAWylJix12AlZ/ITs1PcdXFx27e2LZ5xz5Z5JGzj80GPl8r0f/1q5fOTIEyv7kc/N33ywXH/iye+WS+ap8r73gUc7TQQ39ZGuhPrvW+S1nGmDeq+q30UaaGiGCLRt4cCDX8iy5Hh1rM+OdBvsCWI7ghxPLrrYMrfN+OSCk377RLHuU9xD0tUHt8XfxmQsn7NPsAAmFWpC9nOnvHC5zgkctxW8IWXzx3Z8LXVuG9rYbQg/UxMylA1LTK6wHk/ICNuptVGcpk+6+JjFv7JYT92EjBMsYNcJJl4nHfh0uc4JFtffdfmNZT48zjyxxLbKm69OtmVTH+lKqP++RV7LmTao96r6XaSBhmaIQLsODITVgJdBlXd9OSBBep+QrWedPQGfhvGOMvAJ2fbS1QfdduN/1MM+rVr3hMw+CWt6smXfEODNqjhNH7TxuSH8LJ6Q2UlV/ISM9oR9saQtmZ7HsG+Imypd26clxPkhpBxIqWuOAWylJix1pE7I1oHJF55+cRJmjzEfrONJGI5z0qXyvuNbD+/Zl0IfPtIF/8qi0xeo96r6XaSBhmaIQLsO/uAfEwl7lxj/R8YnZD4hS2edPQEnZBjMcN0nZNuLsksKbrvdmJCBeKKw7nVF8jd3fm7x32/9zMqEzF5rU9q01SH8LJ6Q2Q/CxE/IOBGzE7PYXmCo17Lb2EqB+B4YRNQ1xwK2UhOWOuomZK+6+PrlUy++emi59OCt5ZKvI0KwxOTM5sP0SMdJm8p71yZk/pVFpy+G8KWdlKl/ZZEDFW4jGHObd4Ex2IgDrE/INHX2JBjgwLZ2kDLUgIV0sWUum20zyi6pqPzmhLJJE336nJokxRMybL/6tb8u+7P492Vso7jRwgkZ2zGv1Uc7btNWh2ij8YQMS/T5WMZPyHgstrO13bY8TVQUIX7ICdkkvrK462zqI10p6r93v9qWryzCpnNF2WNo/CuLQab8lUU88bKTLAuO2wkZAq4/IaunyZ5Y2oGL/ZJbPKDpm662VHnNCWWTVFR+c6KLz/XRTnkDyU4K0GdhH56GYVJhj/EJGZ/ucD/BxAP72edhwoLzkZ5Pj9hHYmnP7UIbu+Xo1yycoHFCBlui3LQblnwrwPaHPL9vuvZrpAjxQ07IyrzVdccAtlITlqmzqY90JdR/3yKvlRvY9LOn/8DsmJgv7aRIAw0NKl4FoDnRp/PP3Z5dbanymhOb+KDKb050sd3c2yloY7e522uT9gkQ3wNDSJm3uu4YwFZqwjJ1NvWRroT671vktXIDm6oJy9SZmC/tpEgDDQ0qXgWgOdGn88/dnl1tqfKaE13t5u23m+3cbu3sNnd7dfExi39lsRvrvnhof+fFLya2If5dWR9s6iNdCfXft8hr5QY2VROWqTMxX9pJkQYaGlS8CkBzok/nn7s9u9jSfbC7D7rt3Oe60sZuc7dXFx+LCXF+CCkHUuqaYwBbqQlLCvigR51gEoWPdeAz9vggBz/aYfPARzpw7GcOXL3yxUV+NOT/z96/B9+XleW9aKpiLiblycVkI4cKFf44ZWrnyLHSO5KTaoRwESgU2WhLA4JCRAymtyjCQRoIoi13BEwwyg7dxg4KWzZKb6EbFFBbEOym1XbbCESgQUg38oOGpu/NOvOZaz7z937H951rzcsY8zLG81R9aq0117y+451jjHe8a46FmRY9cb2xxPCRMeQ8yyJs6gUsubOUL6Hc98UvuQZKDQrea4BKIqbzl27PMbaUD473Qdlu+Uk9tsoQnyvdXmPvT4L2vSGJvGMuBWzlBSxDYPAEMAMjZ0IEnKr+C1+5o349FpAxyEMQh30hu4agjsfgd3YfY5jqI2PJeZZF2NQLWMZidWjZoXWvuuCbTqz35Y9dvfv4pReeWDaVnHxpk8p9lsU1E9P5S7fnGFvKB8dP6iHbKSAby5B7tXR7DbGVR9XEpwzIsptl0QZZ9v3r3vmR3S/9zl/UgdUFF1916ntgAzIr+zNH7Mcqxs8Xp/rIWKryj+5Xa5pl0QtYxvLVu+6sX//gyffa3fDeS08sA9e96nvb4Mou53u83nrjJ9rl73vSPXb/493/NZuATLMsNsp5lsW1E9P5S7fnGFvKBzXL4hQ8mxxDPqeAbAhj6jVL1cSnDMjqfXvHXQLYygtYhoLnx7w/ekYwheWeEFjZgOw1b//zevswywaQObOfpzLVR8bSlH9suceaG9jUC1jGwsAKWa0PPPU+J5aF69jld99xW7vsc+97S7sc7//ouQ/MJiBDue+LX3INlBoUvNcAlURM5y/dnmNt6e2rJDyb9MXbX0mM8TnVewrIhjC2XiNo3xtSqN63d9wlgK28gGUoCKqgcDkCMvv52E8Wb7zpNjf4mjoxSMhUHxlLU/6x5R5rbmBTL2AZC4MsZMK8DJn9TNnv8R5ZMW5704ffr4AsU7kGSg0K3muASiKm85duz7G29PZVElN80NtfSYyxXen3KRhit9LtNeX+BJplsT8IjuzsisyG8fOhgAwTdiAIswFZuD+sE87eePOtd574PIapPjKWpvxjyz3W3MCmXsAyljC4Cpch2EKQFS4nXHbHTZ+rgzpk2RSQ5SnXQKlBwYt4zu/tuzQ8uxzD6wSVxFi7hbYH4X5L+M6zzSHs/krGs40H1rV2L40htuqiaedTqO5IecdcAtjKC1jmwP6ckbMp8rszN98efap7SwwfGYNmWewPAyovQ4ZgzAZhhwIyBGH8GaMCsjzlGkiI3EHlExJ2hkr4zrONEGvA+m6peHbpC9r3hiTyjrkUsJUXsOTOVB8Zi2ZZzI+cfGmTWsusNkIIIYSIR9XEpwzIsptlcYss1Ymuyj+6X+U6y+JWWMqXNMtio7WMSAghhBAiHlUTnzIgq/ftHXcJFJDNS1P+seUea24UkM0Lyn1f/JJrICGEEEJsF7TvDSlU79s77hIoIJuXpvxjyz3W3HQFZJx6/vpfe8mp74D9r7AQPCtmn/nis2SEk3p0YZ8tw7No173icSe+j4ECsuXlGkgIIYQQ20WzLOaPArL4jAnIMANiKAZdmIDj6h/7X3af/NUX1UEZPl91wTed2B4BGQItu5zrYd84Jr/DfsPJPxjQ4Tv8ATUCNs7IaNfrCiaBArLl5RpICCGEENumaedTqO5IecdcAgVk81LSLIsIYhDYhAEZPmM5//D57ttvqZcjEOJsiCAUAiy7H8CALBSCMOy3SwzSGJCFYkDGAI7HRLD3hT/+7fo9UUC2vFwDCSGEEGK7oH1vSCLvmEuhgGxeSpplkf8TFgZkNugCVvbni1j/w6/+vjpDduPv/eru1v/x3+vlCOS4TpghY4BFPIXfYZtDGTJ8j3MJfz5JcvKlTUqzLAohhBD5UTXxKQMyzbK4ApbqRFflH92v1jzLIrJaNiBDhil8jqsr0AHMngEETFiPQRsCJ2SwbAA1JCADXN8LyA7JHmcpX9Isi400y6IQQgiRH1UTnzIgq/ftHXcJFJDNS1P+seUea268gAwceoYMhBkpBmdY3z7/hVcEaFwGmL3CMay4jicbTOE9ArFQYdDYde4gM1/apFwDCSGEEGK7oH1vSKF6395xlwCdyVLx7JGapvxjyz3W3MCmXsByKCBDBs0GWGEGDdvwJ474DoGZ/VkjAqq7bvlSewyAAI/79GZwZEAG2WMzQ8bPFgVk65ZrICGEEEJsl5JmWRTz0pR/bLnHmpuugGwsEN8jILLBEgIt6Ppfe3EdVHUFZLFQQLZuuQYSQgghxLZp2vkUqjtS3jFF/pQ0y2IpKCBbXq6BhBBCCLFd0L43JJF3TFEGJc2yWApLBWSaZbHRP/yH//Ca6qU2SDPiYStxLddyLddyLddyLd/w8ooUWtUsi2JeqvKP7lfwX+9Yc7NUQIaJPuykIHOzVEDW1FmSJEmSJEnSQNWdcq+DJfKnKf/Yco81N0sEZPyzaMD/PbPfz8FSARnKfV/8kiRJkiRJ0hApICuYpvxjyz3W3MwdkEF8jz+LpjhF/lwoIJMkSZIkSdqWFJAVTFP+seUea26WyJB5hP9rlhoFZJIkSZIkSduSArKCSfTcj3usuZk7IMNU9J68dVOigEySJEmSJGlj8jpXS4HOZKl49kgNJuBo3CCaEOR5x5ob2NQLWFLh/TfYof8LS0VOviRJkiRJklSCVjXLIjqT933W24tjqU50Vf7RsxqlzrJYeoZMsyxKkiRJkiSN06p+sqiAbF6a8o8t91hzM3dAthYy8yVJkiRJkqTspYBsBSggi48CsnlBue+LX5IkSZIkSRoiBWQrQAFZfBSQzQvKfV/8kiRJkiRJ0hApIFsBS3WiNctifiggkyRJkiRJ2pi8ztVSKCCbl9xnWSwVzx6p0SyLkiRJkiRJ46RZFlfAUp3oqvyjZzXWMsuimBfNsihJkiRJkjROm/vJ4juu+czu3Be8y/2uD9j+YRe9x/3O45znXL779Odvcb8Dh77rS04BWSX3WCJvUO774pckSZIkSZKGSAHZERSQDZZ7LJE3KPd98UuSJEmSJElDtPqA7LY7727fI/hBQPWDv/iB+k93P/TxMyfWJWduvr3+np+vvf6L9WcEctj+0a/43fqz3f7WO+6ql/HzMy65uv78mrf/eX1cG5jhPbflsse++sp6fS7HcV7w5j+pv4e4jnfOCsjE1kG574tfkiRJkiRJGqLVB2QIrvCKAOmCi6+qAx28Ytnr3vmRU9kuBD0vv+y69jOCMZtRs9vzO7vOXXd/9UTAdb8LrzgakNnvvPPEOb31g5+qgz58DlkqIMt5lkUxLyj3ffFLkiRJkiRJg+R1rpbCC8gY4DAwQ6DD4AnfIfhiBozZNAQ+CKz4Hq8E2zOI476YHaNsUMdg61BAxuwYhW3teQKcf9dPJZcKyHKeZVHMi2ZZlCRJkiRJGqdNzLKIoMf+FJCZpzDosTAr5WXIwoAM6/B7gKwYj4f9MBBjwIdlYYaMn4k9NwZ4DBJDlgrIqvKPntXQLItlolkWJUmSJEmSxmn1P1kECJhsEIVns5iJCtcFkA1+mAFDgOQFZNwG4mf8HBJ65n/9UBuQcRmeK7MBGV75zBk/233zXLBOGLiBnAKySu6xRN6g3PfFL0mSJEmSJA3RJgKym2+9012eCwrIxNZBue+LX5IkSZIkSRqi1QdkEDNNuaKATGwdlPu++CVJkiRJkqQhWn1AVgJLBWSaZVHEAuW+L35JkiRJkiRpkLzO1VLEDMjs/5cBOxOiffYMz3rZ9fgMGMBkHZDdF8T3sVgqINMsiyIWmmVRkiRJkiRpnDYxy2IfEDx1TfKBgAoBGSbzwAyKb/nA9XVgZYWfRWLSDTs1/Y033XZiP5xe3y7rmjlxCEsFZFX5R89qaJbFMtEsi5IkSZIkSeOUzU8WOQNil8IMGWc7tBkyyD6vZgMyBGt8z8CsKwAcSk4BWSX3WCJvUO774pdojBpEqk36UMu1XMu1XMu1XMu3vzyF6n17HawlmBKQEfz3GF69nywyQ4ZAioEYXxHQ/dLv/MXu2y56dx1shfqdP7uhfuX+CWWXDUUBWXxg01Lx7JEalPu++KVVVapCCCGEmA7bdzT0CbSqvgM6k17A0hcGXXhvhSAqDMjwE0f8wbTNkCEo68qQgS7ZdcaQWSfaPdbcwKa///h/UBwKyFYgz0BCCCGE2C5V856ys1Pv2zvuEkwNyPBTQmbGxkzqcSwgA/jpIgI5fsYx7fdjWKoTjSzs3g2iyj3W3CggmxeU+774pVU9mCuEEEKI6aBtRxu/b+rjyzvmUkwJyBBwMdA6c/PtTeh1Vt76kA3cGJB5QiBm1731jrvq5eFPGMewVCe6+UlsVCHI8441NwrI5iWFL21VqxrlEkIIIUQc9s18EmUzy+KWWaoTXZV/dN9Cx9w71twoIJuXRNnWTUoBmRBCCJEZbN/R0CfQqvoOCsjmpSn/2HKPNTcKyOYF5b4vfmlVlaoQQgghpsP2HQ19Aq2q76CAbF6a8o8t91hzo4BsXlDu++KXVlWpCiGEEGI6bN/R0CfQqvoOCsjmpSn/2HKPNTcKyOYF5b4vfkmzLAohhBCZUTXvKTs79b694y6BArJ50SyL+aGAbHlplkUhhBAiMzTLYv4s1YnWLIv5kZMvbVWrGuUSQgghRBz2zXwSaZbFFbBUJ7oq/+i+lessi59731t2H3jqfdzvyK03fsJdPidL+ZJmWTwrBWRCCCFEZrB9R0OfQKvqOyggm5em/GPLPdbcKCCbF5T7vvilVVWqQgghhJgO23c09Am0qr6DArJ5aco/ttxjzc3UgAzC6x88+V67G957aR2Q3X3HbfWyu2+/5cS6BLrqgm/a/dFzH7i76cPvb5fh9bpXfW+9H289HIPrYzlex6KAbHmtqlIVQgghxHTYvqOhT6BV9R0UkM1LU/6x5R5rbqYGZMyI4dV+xnsEV9e94nEn1gc2Q/bVu+6sAy4GYVzmrYeAjMHeVBSQrUCegYQQQgixXarmPWVnp963d9wlUEA2L5plsRtmxhgopQzI+B6ZN2+/Q1BAtrwWeTAXBS/iOb+379Lw7HIIbx+l4dmlD96+SsSzzSG8fZSIZxsPb9vS8OzSl9JmWSwVzx6p0SyLh7nrli/tPn7phfV7BGQMpCC7HoEQtCFg43YQXsNldj0EblxnqwGZZlk8q0VGuVDwb/rjVxVNTOcv3Z5jbCmbjfe/0m0H5HPjGGK30u01xsdC9s18EukvcwqmKv/ovpXTLItf/tjV7vKp2AxZbGLUN2PQLItnpYBsIWI6f+n2HGNL2Wy8/5VuOyCfG8cQu5VurzE+ZmH7joY+gRbpO4h10JR/bLnHmhvcd17AMgROtBGbHAMylPu++KVFKtXSG1oQ0/lLt+cYW8pm4/2vdNsB+dw4htitdHuN8TEL23c09Am0SN9BrIOm/GPLPdbc4L7zApbcmVrfjAXlvi9+aZFKtfSGFsR0/tLtOcaWstl4/yvddkA+N44hdivdXmN8zML2HQ19Ai3SdxDroCn/2HKPNTe477yApQ+pMliYKIQKv4uVjZta34wF5b4vfmmRB3NLb2hBTOcv3Z5jbCmbjfe/0m0H5HPjGGK30u01xscsVfOesrNT79s7rsgfzbLoEysgQwDWZ5KOO276XPt+amA2tb4ZC8p9X/zSYrMseg1QScR0/tLtOcaWstl4/yvddkA+N44hdivdXmN8zFLSLItiXjTLog8CMkxBbzNZXnbLWw/BFT/bbUJxOvzwT6bf96R7TArKptY3Y9Esi2e1yChX6Q0tiOn8pdtzjC1ls/H+V7rtgHxuHEPsltJev3LNK3fnf/93ud9Z+q6XgjE+FrJv5pNIsywWTFX+0X0rh1kWT/w32B23nQqS+N9k4XqYvp5T24NjGTIGc5DdF7az/182hBj1zRg0y+JZKSBbiJjOX7o9x9hSNhvvf6XbDsjnxjHEbmuw1xwB2SMf9Qh3+Rgfs7B9R0OfQIv0HcQ6aMo/ttxjzQ3uOy9g6YP9ySIUBlqQtx5eEWQxuGJAFsoGX7GZWt+MBeW+L35pkUp16YY2bGCXGAWN6fxj7PljP/XU3aV/+DL3uz4cste//ZEn7B7xyIfXr13HiFkGY2y5tA+OJZbdpvjfVm0Xk5J8LiZD7Bba641XvWL30Ic+dPfsl/27+vOLXv+j9ecf+NHvbdfBZ8DPjz7vO058Jrxv7P2D99zXa379+fV2P/2GZ7bfc9mzXvK0dhnqOQRUWI7t8WrPh9/xM9a354R6GO/tOmSMj1nYvqOhT6BF+g5iHTTlH1vuseYG950XsPTBBkwIuvpkyGxwhgAOGS780TP+AJrrk9vPfLZ97/08cYs/WUS574tfWqRSDRvauRnTgY1NTOcfY8++AZkdvbXvu2xoOzWHCLe3HaOhjLHl0j44lli+O8X/tmq7mKzR517/7p9ug5W1MsRuob26MknhwA/rEtjjZy758RPrhuvYeod1F1+xDEEg1wuX4f3DHv5t9SuCNX7P87HnxfX4ao/bdV1jfMzC9h0NfQIt0nfwgJ1KxbPHHDTlH1vuseYGdvUClj4guKK4DEEWFAZhFJdBXId/LK2ArDB5BkoNCt5rgFKBxg8jkGwA8WpHLm3jOBcxnX+MPRGQ/fzlL6xtYAMoO1prR2/DkVzaC50eLOM+uA4+2w6Jtbfd3huJHsoYW/a1mfUd6yd4z2vGMqyDa7XvQ9vAhv/lvRedWAZgJ26DEXQu9+yBZZ7v8lgk3C5kiv+N8bep2HLAZ2ZL+lxrClL63FhoDwRl8LVXvvknWnuFtgrtGfpqKobYLbQXz/HnLntB/Rnvcb/gWnHvsC655Pdf3F4X7hUGQbzPsA3vG77ie7zH9eM4DOT4vbcM73m/2u95PrxPiV0f2HPkMssYH7NUzXvKzk69b++4cwM73fdZby+Oqf4xBc2yOA2bFfPgzxwVkJWl7GdZtI0nYQMNbONs10lNTOcfY090GtixwU9/0Inhd9YetrNg3+N7ux46Q9gflrFTd2ikmNtzXTvqPJQxtuxjs9Av7Gd77tafvBFw2sba3LMNwM+Z7DZcTo75LsrS2y5kiv+N8bcpeOVgAwfbyZ2LVD43BQQFzJBZXyO0o2fP0Ff5XWyG2K3LXqiHbACEe4YBED6HdYm1C7HXbIMq+BW2p39hGdbzloXbhgEZ7m18tlhf5T5SBWSlzLIIO3kBS+5M9Y8paJbFaRwLyJZgKX/SLItntcgoFwrea4BSYBtKYhtrjFyGHZQ5iOn8Y+zJTgPeoxMGG+EV9ghHmLlNGJDBtnYEGPuALdlxYbCB7ex6dnuWzZQyGGPLPjYLfceeo71Oe95879kGNmfgS/uHnTF2iBmYwYbYnh05eywsD8/Jfn+IKf43xt+mEJZD+Bl24Pu5SOVzU4BdbEBm72/YiPe1Z098T+x3sRlit9BeuCacHwNG1iu8Vl4HbMD7AJ/tIAax9wqfRUOWnvc0l722sp23HpcdCsjwHusDfvYCMpYPl5MxPhayb+aTaDWzLMJOXsCSOzH8YyxV+Uf3rRxmWdwyS/mTZlk8q+wDMq+TahtofDekIxuLmM4/xp7oNLBjww4EgwM7wmwDBvuedmMHhthlNgtk1wHYvmvUeShjbNnHZp5f2A7YoYDMsw3sHAZktJFdD/sItyWHfDcM7g4xxf/G+NsUwnIIbWs7uXORyuemAJ/0ArLwvj5mz5QMsVtKe8EWYdasLzb4SskYH7OwfUdDn0CL9B08YCcvYMmdqf4xhab8Y8s91tzArl7AkjtL+RPKfV/80iKVKgrea4BSgQYUI5DshOCVI5f4HHZQ5iCm84+xJzpseMYENmDngnayI8x29Na+D7/nZ9u5s8EG1gH8zPW9keihjLFlX5uFvuONptvztu9D23gBGd6jw2xtA7txvRDsC+sCfKbv8rzsd4eY4n9j/G0qYTnws5f9mIOUPjcF2AT3r/Uv774O7Rn6aiqG2C2VvXB/jfEb2BQ2WmPw6sH2HQ19Ai3Sd/CAnbyAJXem+scUmvKPLfdYcwO7egFL7izlTyj3ffFLi1SqKHivASqJmM5fuj3H2HLNNnvUYx7pLo/JFP8r3d9Abj43F0PsVrq9xviYhe07GvoEWqTv4AE7eQFL7kz1jyk05R9b7rHmBnb1ApbcWcqfUO774peKmGVxjcR0/tLtOcaWa7UZRuCZ2UjJFP8r3d9ATj43J0PsNpe9cM8R/kcYwc+6v+/p59frIXuInzoye42sYnivIotmP4cc+94yxscsVfOesrNT79s77tzATl7AkjtT/WMKmmUxP5byJ5T7vvhH6iEPecgr8frgBz/4KfWCQNX3VzdvR6vax1ubtymV/SyLayWm85duzzG2lM3G+1/ptgPyuXEMsduc9uIkOvgJMH/CzWfMuAw/VeQyvDIg408ZPbAu4bZ9fxY6xscsmmUxb6b6xxQ0y2J+LOVPk33pUEBWLftkWClXy05Vil3BHIR9NG9TB2aLjHKh4L0GqC9do4xo8LzGkQ0hGlQ0ruH3aFTxXEG4nNjnefDsxfNee0H7eSwxnX+qPQnsZDskFiynHQFsif8x4zae3UA44QKel4qdARpjyz42Q4cLZR+OmgN8j9HycDmx10h/xXNeXEZwjK4JAlL65BT/i+Fv7MziNbw2fB8us8D35r5fQ1L53DFwr9kO/Xed/52nvg/tAFvZdfj9L73vJe17YPeLz3abWAyxW5e97GRAuEb4EN6jrFlH8ZUTmjDg6qrbuNy+t/uwdoLf4jv6sG2P7Hve7zgvZNq4P3JsMpoxPhayb+aTSLMsLkwM/xhLVf7RfUuzLC7LUv40OtuKIOqcc875O2FAhs/N8rc1r2ea5edW3Iz3VPX5drxy2/vf//73qZb9F7yHuC31gAc84GuqZamCsqwCMjSWL7302ScaT4BGm++f9ZKnnWiUuS80xJx10Hac+XMVEM7MFXZ0hhDT+afaE/Caf/CZT6w7ELZTC8KOHjtv+MztuC47S9iPDUzYKQLYH9ebyhhb9rUZz5llzesF8Af6EjtneA9b4j23DQMydtBo09Af6YcpfXKK/8XwN3DeEx7tLgdhJ9hC2815v4ak9Llj8L6yARTvWdgF/oTPqAvt/UcfZTCBgMz6Hu9H2Al25nIQa/KUIXbrshfK1QtmcL9Zm2A9XAfvxbBOI7he2tP6GaBNYFfrS7QhtrPtkX1Pv+Qyuz2/7zonMMbHLGzf0dAn0CJ9Bw/YyQtYcmeqf0yhKf/Yco81N7BrqXj2SA3KfV/8A8XgqCIMyE4EXbZCr7479fNF7APbYn8PetCDzm8W18GY2a4O3KBqvb9drZ/kN7vAM1JKUPBeA9QXr2OFhhMNHhpea3/ARhrrsMMSbg/QwKKTx4aUo6v8jg0q9mH3z3WGENP5p9oT4DrQgcH1s3Nnv2eHhNfOjq/tVLPTBjtjH7YDYu3EDh8IOyljGGPLITZDh4rnS7CcHT4PdNRgA9iTHTL6FQM129njdvhsSeWTU/wvhr8Re84E1wQbeXZHEMFAbM77NSS1z/XBXhNgQGY/2+8ZxPBzGJAB2I3veZ921ZdjGGK3Y/ZCeaP8eT8B1PU2EIcP4V7Ee9yPXmB5wfOf0gZkrAOx3NZNWG7tgO9gqz4BGe1u90dYB3iM8TEL23c09Am0SN/BA3byApbYvOOaz+ye8UtX76CXX3bd7trrv1i/5/fnPOfy+vOnP3/Lie1SMdU/ptCUf2y5xxJ5g3LfF/8IVYHRJ6tgqQ3IkOGqgqpvqb9sFAZaFBtCDwRpzWpzapFK9VhDeww0qmw0CRpLNHhodEPb4ns0jtgOHRZMWc7GFcvZYBM2pH2xo7J9iVmZTrUnrtdecxiQWZuyQ4OfSjHg4HrkUCcjhJ0a77u+jLFlH5vBV+AnXmCA720nzV6H9Sl0xthJw3Lsk/ax+yJYB8tCG9ry6cMxn5zif1P9jbCDCtvB3572rCed+N6zu+crsW3Th1Q+1wcOSHVdB/3W+w4wmEBA9pxXPL291+FztHkYPND+dtkYhtity16od/CKa7ABGc6dQZW9x+Az/NmqF5Dx3sW2vFeBtYFdTuw9T7z1iN1fV91pGeNjFrbvaOgTaJG+gwfs5AUssUFAdsHFV9XvIbwiCEMAxle7fmqm+scUmvKPLfdYIm9Q7vviHykbkNULAlXfn4ufLjYf/5oXnB3Y9lRgljJY8wyUmq6Gtg9syLypwdHg2eAh7ESgkWZn5VCnpquDF+4XhB3nvsSsTKfYk9hrhg3DgIyf+cwKOh5hp414NmGgERKuN4Yxtuxjs2MBmedrhB01bMtOGmxgO2xdNvHsGtsnp/hfDH8DvE7eg8cCiS5i26YPqXyuD17dRdshGLn49158wo5h4EBbMEMGm9h73NrLwu2nMMRusex1DNrHBnKA/gnbdN2TQwKy8Ncb3jqWMT5mqZr3VB1nqN63d9y5gZ28gCU2CMgedtF76ve33nFXuxyB2GNffWWdNeOyOZjqH1PIeZZFMS8o933xj9ShgAwZtHPPPfcfNx/rZ8TCDBq0koBsc7Ms2uWC3+AAAP/0SURBVM5b2Ejis9dJ5vdobG2nr6tR7OrgeZ25sR28mJXpFHsSe822cxZ+RkCGDgyyjLC31ynxbOLZtMvOQxljyz42swEZPvN8+YrlvHbb6Q1tEm4fYkftu4KSrm3H+uQU/4vhb4D+492vXXYYMoAS834NSeVzfWBAFtoN9rIBGetI+ibrSy5jQIb3oV2xzGZweMypDLFbLHttlTE+ZtEsi3E5FJCVliHLeZZFMS8pfGmwVhKQLTLKNaahRQch7Eyhw2E7s+hohMEEO8PssGAbPDPAzgbWD/fb1cELO0BgbAcvZmU6xp4h9pqPBWRcjjLxfgLk2cTreINwvTGMsWUfm+H87PMpIfY6YQt0eu118b0HOsB4pV1hY37HfVpi++QU/4vhbzhP3JvWzyy4T8PrAkMCMm/7sfdrSCqfOwb85LVOAEUQOOGehE34TB19E68ANscrAzLsC+szOLMTZmAfsBuDuakMsVsMe22ZMT4Wsm/mk6i4WRYPBWR4RZYMmiswi+EfY6nKP7pvrWWWRTEvibKtm9RmArLciFmZlm7PMbaUzcb7X+m2A/K5cQyxW+n2GuNjFrbvaOgTaJG+gwfs5AUsuTPVP6bQlH9succSeYNy3xe/tEilWnpDC2JWpqXbc4wtZbPx/le67YB8bhxD7Fa6vcb4mIXtOxr6BFqk7+ABO3kBS+5M9Y8pNOUfW+6xRN6g3PfFLy1SqZbe0IKYlWnp9hxjS9lsvP+VbjsgnxvHELuVbq8xPmZh+46GPoEW6Tt4wE5ewJI7U/1jCk35x5Z7LJE3KPd98Uubm2UxF2JWpqXbc4wtZbPx/le67YB8bhxD7Fa6vcb4mKVq3lN2dup9e8edG9jJC1j6gMk4MDsiXvl82Ic+fqZ+/ehnv1S/4tkxT+e+4F3tfgi37eKtH/yUu3wMU/1jCpplUcQC5b4vfmlzsyzmQszKtHR7jrGlbDbe/0q3HZDPjWOI3Uq31xgfs2iWxX5gMg78vxj+6BmfEVTxPTgWkHXJBmfYB15f986PuIHcGKb6xxQ0y6KIxSpmWVyJFhnlKr2hBTEr09LtOcaWstl4/yvddkA+N44hdivdXmN8LGTfzCdRFrMs2pkTSZjlOhaQ2ayX3Zbvb771zjYgIwjMwuMOJYZ/jKUq/+i+pVkWy0SzLJ6VArKFiFmZlm7PMbaUzcb7X+m2A/K5cQyxW+n2GuNjFrbvaOgTaJG+gwfs5AUsQ+BPF+2y2+68u36dGpDhNQzIAPc/lqn+MYWm/GPLPZbIG5T7vvilRSrV0htaELMyLd2eY2wpm433v9JtB+Rz4xhit9LtNcbHLGzf0dAn0CJ9Bw/YyQtY+oIM1qGAjNzvwivcrNahgOwZl1xdb+MFZMiShcuGMNU/ptCUf2y5xxJ5g3LfF7+0SKWKikTEq0y9fZeGZ5dDePsoDc8uffD2VSKebQ7h7aNEPNt4eNuWhmeXvrB9R0OfQIv0HTxgJy9g6QMCMQRUXQEZny+78abb6mUMov7kk1848efQxAZkljAgQxBoP49hqn9MoSn/2HKPJfIG5b4vfmk1D+YKIYQQIg5V856ys1Pv2zvu3EwJyJjBsgEZf6JogysEYlZdE3N0BWTIrlmFwd8YlgzINMuiiAXKfV/80moezBVCCCFEHDTLYt4sGZDlPMsi7Foqnj1So1kWz2o1o1xCCCGEiMe+mU+iLGZZ3DJLdaBBVf7RfWstsyzCrr//+H9QHEv5k2ZZPCsFZEIIIURmsH1HQ59Aq+k7KCCbn6b8Y8s91twoIJsXlPu++KXVVKpCCCGEiAPbdzT0CbSavoMCsvlpyj+23GPNjQKyeUG574tfWk2lKoQQQog4sH1HQ59Aq+k7KCCbn6b8Y8s91twoIJsXlPu++CXNsiiEEEJkRtW8p+zs1Pv2jjs3CsjmJ+dZFhWQzQvKfV/8kmZZFEIIITJDsyzmzZIBWe6zLHoBS+4s5U+aZfGsVjPKJYQQQoh47Jv5JNIsiwuzZEBWlX9039Isi8uylD9plsWzWiQgQ8GLOM7/3qr8xHAf9sqjNDy79MHbV4l4tjmEt48S8Wwj4sP2HQ19Ai3Sd/CAT3kBS+4seS815R9b7rHmBnb1ApbcWcqfUO774pcWqVRR8G/641cVTSznRzBy6QdfVjRjAzKvXEphiv/p/h1nP9ktXr0njsP2HQ19Ai3Sd/CAT5WKZ485aMo/ttxjzQ3s6gUsubOUP6Hc98UvLVKpouC9xrokYjm/AjIFZGOY4n+6fxWQjWWK34lhsH1HQ59Ai/QdxDpoyj+23GPNDeooL2AZw9133OYu7+KOmz5Xv77vSffY3XrjJ059n5Kl6maU+774pUUezFXHRAFZTOYKyF70+h/dXfL7L3a/2xpT/E/3rwKysUzxOzGMqnlP2dmp9+0dV+SPZlk8DoKqmz78fve7Lu6+/RZ3+RwsVTej3PfFLy3yYK46JvkEZF/zN/66u3xOFJANZ4r/6f5VQDaWKX4nhlHKLItifjTL4nFsQHbdq763fv2j5z5wd8N7L63fQ1dd8E31d1zGgMxmyMLvPve+t7SZNwivMViqbtYsi2e1yCiXOib5BGRrYImA7KEPfWi7DO9/4Ee/t/78Yz/11N1/ee9FJ5ZxffBvf+QJu0v/8GUnlnGd87//u+rP+P6NV73i1PfesrFM8T/dvwrIxjLF78Rw9s18EukvcwqmKv/ovpXbLItehgw/SWSgZX/O2C5zAjLwB0++Vx18feCp96kDMgRyWI73WMb1prBU3axZFs9KAdlCxHL+1AHZP/1n96p9BJmwi6/8mfr9OQ/45/V3/+L+/3P9+ojHf+vuJb/yY/V3j3lqFVA02/7dr/vaetlPXnxB/Znb//BPP75dJwZzB2ReQMRACwHZz132ghPL8Mr1Hn3ed7QBGfiVa15ZB2J4/7CHf1u7zAZzj3jkw91lfD+GKf6n+1cB2Vim+J0YBurahhSq9+0dV+RPU/6x5R5rblBHeQHLUGxAxmfDwJCADIEYM2QMvnILyFDu++KXFqlU1THZRkD2/F98ehs8ff03/P3dG373ovr93/rav3niFT6EV+87wGDOBmsxmTMgQzBmAyp8RnCEQIwBGbNoXPbIRz2iXZ9B2mt+/fn1tliXARlfX//un979zCU/3m6D9bxlCNLwyv3wuz5M8T/dvwrIxjLF78Qw2L5XpNAifQexDpryjy33WHODOsoLWIbiBWQIoA4FZOGkHgjIuI9cM2Qo933xS4tUquqYbCMgQ4aL75Epw+vP/vpz6iCNrzbQ4jJkzBi82W3ha8yuxWSpDJkNkpj58gIyfMd9IDizQRp+hhgGZDllyHhNuTHGfmN8Ljem+J0YBtv3ihRapO8g1kFT/rHlHmtuUEd5AUvuLFU3o9z3xS+tYpZF+1zN1kBHeUynM5bzpwrIfun9L2kDKWTK+LND/kzR/lyRwReXIZuG1/B7ULlc+z4WcwdkeI+gjIEV3h/KkHF9QF9HMIfPz37ZvzsVkAF+z58xdi0byxT/G2I7BWRnGeNzQ7D+uVam+J0YBurahhSq9+0dV+SPZlnMj6XqZpT7vvil1c+yiE4oOq3ed0OJua+pxHL+VAHZU593XhuE2QAr/EminWWRy/isGOB34eeYzBWQxcD+fHFJpvhfl+3wM0ybMcQrAkgECbj3bIaPYBu82nvT2+bYfng8Hp925nIEx9/39PPr9wxoeUy+IlvJfZ/3hEcfHCQaY7/UPqeATFg0y6JIhWZZzI+l6mbNsnhWdSfZM1JKwo4JswboNIUz1OE9YGeNGQluixF4fMb2fMbHdtiwb36PV+AFZei44Tt+7jrOBc9/Stvpwb5/+QMvbbMAfKaHn9HRw2evAxnL+VMFZFtiCwEZ/MD609JM8b9DtqPv0+f5GRzK7OH+47reNsf2g+15XzLA4nsEaV7mEq/4bINkvj/2k9Ax9pvic2HdhnP/+ctfeGJZmMHltsTbBuCzXR+2xmfY6Fi9OJQpfieGs2/mk0izLBZMVf7RfSu3WRYPYZ8fw7T3sZ4Dm8JSdbNmWTyr1QVk4Qx1tnPFZXjPTpnXOeN6dn1g92Vhp42fDx0Ho+jcB5/tQQcm/Omi/YwsAK+LxHJ+BWTbypCthSn+d8h26MDD3xkY9Amk+J7retsc2w/AfYzvwvsZMAjDe9zD+J5Blw3IiD2exxj7xfA51k22rmQgxteugMnbht/Z+or27VMvDmWK34lhsH1HQ59Ai/QduoBflYpnj9Q05R9b7rHmBjb1ApYYIPiywqQcVnZdOynIHGTmS5vUIpUqCt420raTwU4CO1A2iOLoLMEy23HCMnSyuG3Y0bL7wjG5Pj5jXXYyjh0H67FTx45M2HnBZ7uPsIMYy/kVkG0vILN+Tmxndw6m+N8h28HvH/fkk/ckrsv+nNHCgAw24T3mbXNsP8977QX1K+9hrI9XnA+2Y53A9bEe94N9sl7gzxrt/e4xxn5TfA7XY+s2ez20CbNoXI66CZ8B/M3bBq/8ntdsr/1YvTiUKX4nhsH2HQ19Ai3Sd+gCfnXfZ729OJa6n5ryjy33WHMDm3oBSyxu/L1frTNkALMo/sV//YndX/7mfzy1ngKy8rRIpYqCt41034AM69ntADsPNiBCJw/bhp1cuy8Pfn/oOADnBvCeAZkdYeZy76eKJJbzHwvI/t/f8v9q33OGQzzj9bor/kP9ns+AYVn7zNg9zj4zxm2wjM+G2efGPDAhCJ4nw3No9LHv/qGHte8BvsdkIZjwAxN/YDt7XE4oQrDPrhkacwjI5maK/x2yHfz+0D3WB3sfHVq2JGPsN9bnvLoNPsRsF+vKIRkybsNBK2+2T3KoXhzKFL8TwzD1bQrV+/aOuwTwKy9gyZ2l7qem/GPLPdbcwKZewBIDZMTwymDsulc8rv3J4vW/9pJTGbNQ4f5ikpkvbVOegVKDgreN9KGADO/RwWAnj6Oz/M52HjiCa7flMm9fFiznSDA/2+3scdB5YWbNBmLouGAbfuboc9jBAbGc/1hAxhkSMSU9gjAESQzGLAyKEPjwv8e4DZdxnUMgaOP24Bv+yT9q33N6fBtsIchCcMbAEd8xOLQBXYi9hjUEZPQpdnDhg8y2wC8YnL/8V55Tf0f/gX/glfcAfZCdYL7C5w4F+EOZ4n+HbIdr85YPwbtfvGVLMsZ+U3wurNvw+so3/0S9jMGa/RkilrPuIt42rLPgY7SxtTW+O1QvDmWK34lhmPoyhep9e8ddAviVF7DkzlL3k2ZZnAb+ANrKWwcB2pf/4hr3uxQs5Uso933xS6ufZTFXYjn/sYCMcEp6gmCrKv/2MwK3MFDjNgiM8Ir1iQ26LDaLxQyYfW8zcXZ/gN+10+ebjNnf+/qva9/bIA+sJUOGoImdVXR+2Tm2z0kB+x072HZQgq/4ngFe+H4qU/xP9+/8AVkI/cT7rosx28Rmit+JYZQ0yyL8ygtYcmep+0mzLE6j/sliFZTh/Zc/dnX9igDMroM/hsbPFpFFs8tTkZMvbVV1R9gzUkpQ8F5jXRKxnL9PQIbM1v/zn/5PJ/4PDDDg6fo5IP0DGSwGSzbICrEZNO4TwRwCLO6LcD07pT4DMWxnM3V4z+wasO/B0gEZAjFmyGxAxc5vGEjhu66ADPtC9sI+22i3jcUU/5vj/kXmmVkcgEwObEY7D4XBss32TGGM/WLabUxwNWab2EzxOzGcqq5NpVXNsgi/8gKW3FnqfqrKP7pvlTLLIgIwO6siAzK+AjsL4x8994G7j196Yfs5FUv5kmZZPKv6xvKMlBIUvNdYl0Qs5z8WkOF5L2a/7E8F7c8Q6QcE33MbrsesVJidstj9/38f9s319gj6bHAVnoMNrvCd/Wkll+N9mGnjd2ANARl/TmgzZOz84qer4U8WuwIyLEPQwGAE2zII4U8gYzDF/+a4fxmQwT78mRzBT+rw8zzYi4Ea7ET7hWAf3vIpjLHfHHZbO1P8TgzD1OkpVO/bO+4SwK+8gCV3lrqfmvKPLfdYcwObegHLHOAZsq6MWNdPG2ORmS9tUotUqih4r7GODTp1YWeO8DkJuwyfv+v87zyxD8uxZ3iGjN7Hcv6ugAzZJv40kFkoZLkYEDHgwTL780N+j8AIgY8NkrA8zE5ZbJYNx+e++XNDux9gf4ZImCWzeOtZlg7ItsgU/5vDdl0ZMn7mjILABmReYFZqQGafKSMI/Pmez6UB1oe0HzOKYGxW0mOK38XgiiuuiPJ+C7B9R0OfQIv0HbqAX3kBS+4sdT815R9b7rHmBjb1ApbcycyXNqlFKlUUvNdYp6LvZAjsgBBvGbH7ZIePo/ZcfohYzn8sQwa8IArljuVhhgwBk/3pIWDAZjNVHjb7xeDs737d17bLbLCFY/G9JfzpZJhF81BANpwp/hfDdt49RRAcMCC78DX/vr6nGJAhUMBMgV0ZMu8eVEC2/wxbMevIZazHmHVkGeAP+jkjY0ym+F0MvvEbv3F35ZVX1u/vec97uu/7rLMFTL2eQvW+veMuAfzKC1hyZ6n7qSn/2HKPNTewqRew5E5mvrRNeQZKDQrea6wBJ0Dg6DhHZ/ksDTpeeEXnAt/Zn4uFo8EgHGkHdjTYdgTRAXnUYx5Zf8fzsKPDNgjje6wfdvjCjpBHLOfvE5DNhZfdmgMFZMOZ4n8xbdd1ryCTg/s2vEd5nzLwYkBmB0XCfeUYkIX1Iq4xfO6QtsV3tj7FT19/8JlPrJczE8bgC3bHfhj4YllMpvidGEbVvKfs7NT79o67BPArL2DJnaXuJ82ymB9L+RLKfV/80upmWUQgFHbQ2GmwI99YD4EVvmNHxIMdNrvMBlb43u6X++JPF48FZHj1OnyHzgnEcv41BWRLsfWAjNkdfrY/Kws55ld9meJ/sWyHwRLeR2/4vZ85cW0cSKFteB8zUAgDMg6glBKQAVsv4hrpQ7AZbfTSS599YkCKQS2eU4TtsJ6t457w1PN2P3/5C3ev/j8vbAMyDmDFYIrfiWFolsX8Wep+0iyL+ZGTL21Vi4xyoeC9xpqgo4AOAzoc7Cyww8GOF7AdBYwKeyO66JSwE0JsYHXeEx5dv2K/6ATyeMyUHQrI0PHhCDSXE69jaInl/EsFZHg+zD4PtiS5BGTsSDMg44BDmOElU4KzKf4Xy3bhjIe4Vt5jxwIy3Me8Nxmc4b0XzOYWkHn1YldA9nNvOzuhDMB2zJCFdRzWD+2N5QrItsu+mU8izbK4Apa6n6ryj+5bpcyyuFaW8iXNsnhWqwvInvfaC+pXBmTsTKADho4CAzJ0QNBRQMcBn9kJwftjsAOCbbFfdvye+LTHtut4nV3bsbGEHT52dA4Ry/mXCMjwLBmDsfB5syV+tjh3QAa/DAOCMNDHZ8DP8Fv72WIDCmCDCvgl9+XB9YYyxf+m2O4YDAhwbQgIbICA4ALLra2WYoz9YtnNqxdZH3IZXuFXtCHXR13HgAzrWbAf2tvWaQrItgnbdzT0CbRI36EL+JUXsEwBOvcF79pde/0X6/dYdusdd9Wvj331lbsPffxM/f5Fb7m23Qbc78Ir2u8edtF72uXYD/bHzzFY6n5qyj+23GPNDWzqBSy5k5kvbVKLVKooeK+xjs2QzizWRefFBmn2e9AVkLGDTroyGpZYzj93QGYn6QDhpBvHJv5IwdwBGZ/RCUEgZYMFZHk4aHDIJ7A/bwCAgRn2Q9/C5xg/W5zif3Pdv2tmjP1S2s1myLpgsIX3CMi4nAMLdh1b1ykg2yZs39HQJ9AifYcu4FdewDKF2+68u35F8PXyy66r37/jms/UQdWZm28/sa4FARm3JdjHWz/4qRPLYrDU/dSUf2y5x5ob2NQLWHInM1/apBapVFHwXmNdErGcf66ADIEX/QXY2RBtlizMmM3B3AEZg3ZmZPEeQRI7xRwIQIDPziyCLv5ED4EWt0Ewj+d8sF0YtGE9G4zZDDD3b9cfwhT/0/27zYBsDUzxOzEMU1+nUL1v77hLAL/yApYpHArImCk7BNa54OKr6vd33f3VU9/HYKn7qSn/2HKPNTewqRew5E5mvrRNeQZKDQrea6xLIpbzz50hOwb+CNpbnpK5AzKCIMtmv/CzRHSKmUFDsGWzC1jXZiPAs1/6QycyFxYEZAzuugi36csU/9P9u76AbCtM8TsxjKp5T9nZqfftHXcJ4FdewDKFQwHZMy65uvMni1gfr1gHAVmKnyqSpe4nzbKYH0v5Esp9X/zS6mZZLIVYzj9nQOb9H5hdhok++GfUczJ3QIZsBIIhZqwQgOEzsxTMoCH4YkCGz+EkFuRQQIZXZsmwDn5KhuVhYDeUKf6n+1cB2Vim+J0YhmZZzJ+l7qfcZ1ksFc8eqdEsi2e1yCgXCt5rrEsilvPPFZA9/xeffurZsHDZ3/rav3ni+7mYOyCLzbGAzNL1HONQpvif7l8FZGOZ4ndiOPtmPok0y+IKWOp+qso/um+tZZZFMS+aZfGsFJAtRKyKdK6A7O99/dcdXPb13zD/TxXJ1gOyJZjif7p/FZCNZYrfiWGwfUdDn0CL9B26gF95AUvuLHU/NeUfW+6xRN6g3PfFLy1Sqapjsr2AbM0oIBvOFP/T/auAbCxT/E4Mg+07GvoEWqTv0AX8ygtYYoPnwbzlFj5b5oHny+xU+FNZ6n5qyj+23GOJvEG574tfWqRSVcdEAVlMFJANZ4r/6f5VQDaWKX4nhsH2HQ19Ai3Sd+gCfuUFLH045zmX1/8zhtdPf/6WehmCKgRPH/joX9WfMZmH3QZg0g5vso5DARm48abb3OVjWOp+aso/ttxjibxBue+LX9IsiwsRqyJVQKaAbAxT/E/3rwKysUzxOzGMqnlP2dmp9+0ddwngV17AMhRmsMKg6lhAZv9jzG5r33Mf+J8yzr7I78ay1P2U8yyLYl5Q7vvilxabZVHEC8jEuICsdDy79MHbV4l4tjmEt48S8Wwj4qNZFvuDP3pmpsyKU99PDciQeQv3gcBs6p9FL3U/5TzLopgXzbJ4Vqsa5RJCCCFEHPbNfBJlNcvi1ICsSwjIEHjhf8y8feC44bIhLBWQVeUf3bc0y2KZaJbFs1JAJoQQQmQG23c09Am0qr7D1IAMGaxDARkCKzz79Z0v/512GeAfRltshgwwEAsDsqnBGMgpIKvkHkvkDcp9X/zSqipVIYQQQkyH7Tsa+gRaVd9hSkDGDBYCsjDAQvDFZ71sAMVt8MxZOLFHGJCRMCCzgd1YFJCJrYNy3xe/tKpKVQghhBDTYfuOhj6BVtV3mJohi0lXQJYCBWRi66Dc98UvrerBXCGEEEJMp2reU3Z26n17x12CNQVkc7JUQKZZFkUsUO774pdW9WCuEEIIIaajWRbzZ6mATLMsilholsWzWtUolxBCCCHisG/mkyirWRa3ylIBWVX+0X1LsyyWiWZZPCsFZEIIIURmsH1HQ59Aq+o7KCCbl6b8Y8s9lsgblPu++KVVVapCCCGEmA7bdzT0CbSqvoMCsnlpyj+23GOJvEG574tfWlWlKoQQQojpsH1HQ59Aq+o7KCCbl6b8Y8s9lsgblPu++CXNsiiEEEJkRtW8p+zs1Pv2jrsECsjmRbMsilig3PfFL2mWRSGEECIzNMti/iwVkGmWRRELzbJ4Vqsa5RJCCCFEHPbNfBKtbpbFUvHskZqq/KP7lmZZLBPNsnhWCsiEEEKIzGD7joY+gdR3KJim/GPLPZbIG5T7vvglVapCCCFEZrB9R0OfQOo7FExT/rHlHkvkDcp9X/ySKlUhhBAiM9i+o6FPIPUdCqYp/9hyjyXyBuW+L35JsywKIYQQmVE17yk7O/W+veOK/NEsiyIWKPd98UuaZVEIIYTIjJJmWRTzolkWh/Hud797d8973tN9f+9737v3OjmiWRbPSqNcQgghRIbsm/kk0mBuwVTlH923cp9l8YYbbojyPjc0y+JZKSATQgghMoPtOxr6BFLfoWCa8o8t91gib1Du++KXVKkKIYQQmcH2HQ19AqnvUDBN+ceWeyyRNyj3ffFLNEYNjNP87lzLtVzLtVzLtVzLt788hdpjifJoyj+23GOJvEG574tfgmgQGgW/57TLtFzLtVzLtVzLtXyby1Oo3rfXwRL5o1kWRSxQ7vvilyRJkiRJkgbJ61wtxTd/8zcXi2eP1GiWRRELzbIoSZIkSZI0TquaZRGByX2f9fbiWCogq8o/elYj91kWhY9mWZQkSZIkSRqnVf1kUQHZvDTlH1vusUTeoNz3xS9JkiRJkiQNkQKyFaCATGwdlPu++CVJkiRJkqQhUkC2AhSQia2Dct8XvyRJkiRJkjRECshWwFIBmWZZFLFAue+LX5IkSZIkSRokr3O1FArI5kWzLIpYaJZFSZIkSZKkcdIsiytgqYCsKv/oWQ3NslgmmmVRkiRJkiRpnPSTxRWQU0BWyT2WyBuU+774JUmSJEmSpCFSQLYCFJCJrYNy3xe/JEmSJEmSNEQKyAy33Xm3uzw1CsjE1kG574tfkiRJkiRJGiIFZA3nPOfy3Yc+fsb9LjVLBWSaZVHEAuW+L35JkiRJkiRpkLzO1VLMFZBde/0Xd+e+4F3te7zagOzMzbfXrz/7mx+uX1OzVECmWRZFLDTLoiRJkiRJ0jgVOctin4DsYRe9p10/NUsFZFX5R89qaJbFMtEsi5IkSZIkSeNU5E8WjwVk4LGvvnJ3191fbT+nJKeArJJ7LJE3KPd98UuSJEmSJElDVGRA9oxLrt699YOfqoMwCMtsQPbGKz9RvyogGyX3WCJvUO774pckSZIkSZKGqMiAbG0oIBNbB+W+L35JkiRJkiRpiBSQrYClAjLNsihigXLfF78kSZIkSZI0SF7naikUkM2LZlkUsdAsi2fFyBSjHYxUbcSq5Xtp+V5avpeW76Xle2n5Xlq+15qW87vYynaWxa4/ef70529p37/jms+c+K4P2IYTgsRiqYCsKv/ofqVZFstEsyyeVW0QVKx4b9FyLddyLddyLdfybS6/733vi9dUao+7BqYEZJgt8ZAQRGHmRExnj0k98DkMyDDRB777tovevXv5Zde1yznZx/0uvKLZ20lxvbHkFJBVco8l8gblvi9+yTWQEEIIIbZLE6ClGn2uO1LecZcgRobMTl2PmRMRZPHzrXfcVb9+4St31K/HAjIGeQjisC9k1xDU8Rj8zu5jDArIxNZBue+LX3INJIQQQojtgva9IYXqfXvHXYIYAZkNsuz7173zI7tf+p2/qAOrCy6+6tT3wAZkVvZnjtiPVYyfLyogE1sH5b4vfsk1kBBCCCG2C9r3hhSq9+0ddwliBGQAz48hk2V/dggQTGG5JwRWNiB7zdv/vN4+zLIB/pl0LJYKyDTLoogFyn1f/IVLs9oIIYQQ+VE18Uk7O94xlyJWQIagCgqXIyCzn4/9ZPHGm25zg6+pE4OELBWQaZZFEQvNsthIs9oIIYQQ+VE18SkDsqxmWURwZGdXZDaMnw8FZJiwA0GYDcjC/WGdcPbGm2+988TnMSwVkFXlH92v1B8tE82yeFaugYQQQgixbZp2PoXqTrl3zCWIlSEbg/05I2dT5Hdnbr49+lT3lpwCskrusUTeoNz3xS+5BhJCCCHEdtEsi/mjgExsHZT7vvgl10BCCCGE2C5o3xtSqN63d9wlUEA2L035x5Z7LJE3KPd98UuugYQQQgixXdC+N6RQvW/vuEuggGxeNMuiiAXKfV/8hUuz2gghhBD5UTXxSTs73jGXQgHZvGiWRRELzbLYSLPaCCGEEPlRNfEpA7KsZlncKksFZFX5R/cr9UfLRLMsnpVrICGEEEJsm6adT6G6U+4dcwkUkM1LU/6x5R5L5A3KfV/8kmsgIYQQQmwXzbKYPwrIxNZBue+LX3INJIQQQojtgva9IYXqfXvHXQIFZPPSlH9succSeYNy3xe/5BpICCGEENsF7XtDCtX79o67BAhMSsWzR2o0y6KIBcp9X/yFS7PaCCGEEPlRNfFJOzveMUUZaJZFEQvNsthIs9oIIYQQ+VE18SkDslXNsijmpSr/6H6l/miZaJbFs3INJIQQQoht07TzKVR3yr1jivxpyj+23GOJvEG574tfcg2UAu+3zyXi2WYM3r5Lw7PLIbx9lIZnlz54+yoRzzbH8PZTGp5dPLxtS8OzyxhKmmVRzEtT/rHlHkvkDcp9X/ySa6AUoKH57hf9y6KJ2diWbs8xtpTNxvtf6bYDY+0nv+tvN9kqXhuB9r0hhep9e8cV+dOUf2y5xxJ5g3LfF7/kGigFpTe0IGZjq47LcFvKZuP9r3TbgbH2k9/1t5tsFa+NQPvekEL1vr3jivzRLIsiFij3ffEXrjlntSm9oQUxG1t1XIbbUjYb73+l2w6MtZ/8rr/dZKt4bUTVxCft7HjHFGWgWRZFLDTLYqM5Z7UpvaEFMRtbdVyG21I2G+9/pdsOjLWf/K6/3WSreG1E1cSnDMg0y2LBVOUf3a80y2KZaJbFs3INlILSG1oQs7FVx2W4LWWz8f431XZnvvy53fe97EH1+9vuuLV+vekrZ068/vJvvbZ+hfD6sjf9+O63r/mN3fkX/evdDV/4y3oZ3l93/TX1e2+fz379E0985r5jMNZ+8rv+dpOt4rURoGnnU6julHvHFPnTlH9succSeYNy3xe/5BooBaU3tCBmY6uOy3Bbymbj/W+q7e648/b6FQETgiy+v+SdP1sHTT/0mu849T246+67OgMy7vMJL/7WE9t4x+B3UxhrP/ldf7vJVvHaCM2yKFLRlH9succSeYNy3xe/5BooBaU3tCBmY6uOy3Bbymbj/W+q7RhQdQVIWI7ga0hAZvcZBmSxgjDLWPvJ7/rbTbaK10agfW9IoXrf3nGXAHYrFc8eqWnKP7bcY4m8Qbnvi19yDZQCVBxeA1QSMSvP0u05xpay2Xj/m2o7Bk+AP0lE4ISfHL79g2+qPyP4st/jJ4sMrLjso3/5p6cCMvs99hl+5s8apzLWfvK7/naTreK1EWjfG1Ko3rd33CWA3e77rLcXR0x/GYJmWRSxQLnvi79wbWWWRf40KQZX/ukVpzpo6OT17bRNeSYlZuU5xZ4etIu1xSG7ozNsMxdzM8aWsW02Fc8XUzLF/9ZmuyUYa7++tgt/ejmEmHVkbIbYrY+t5rjWPvXakHajL2N9zKNq4pN2drxjLgXs5gUsuRPTX4agWRZFLDTLYqMtzLJof6IUg6mdYE4WMIaYledYe3YR2uWY3ZcKxMgYW8a22VQUkG2Lsfbra7vwp5dDUEAWFwVkR7WqWRZhNy9gyZ2Y/jKEqvyj+5VmWSwTzbJ4Vq6BUtCnofWwgQE6sJ+84WP1e3ZeMKrM78OZ1ThLG97zJ0zYBxt0rs+G9dA++VOo3AMy2sLa3bNLmCGDMDGDtXlYHjEZY8vYNjtGaAfYkfb7hf/rxQrINsZY+/W1He8zvLd1He6p8PuwXmKdBuHVYu9b3KPe/cwZK3Gsl/zqj9XLeIzwPrbn1ochdutjK8jWNXjlT1t5jlzH3nNDroP1WriNrd8g2ixcdsjGeN/FWB/romnnU6julHvHXALYzQtYcie2v/SlKf/Yco8l8gblvi/+EXrwgx/8yXPOOefvPPShD91ZHvKQh1z9gAc84Gse9KAHnd+sWqta/tZqm6c071/JdbEfuz322axzbriPhHINlII+Da1HGJBxNjY2lHxvOyt4jwbarsOOhu0EcxmDkHCfaEy5T7vcfh5CzMpzrD27oF28gCy0C17DgMyOWmOZVx78PgZjbBnbZn2AD7GTFgam1hfnYIr/LWG7tTHWfn1tZ+8ZW9cR+A/uLa9ewv0H2WUE69v707ufw/sXr7j/vfvYO7dDDLFbH1t552rP2X4G4WQxfa4D23vbWNt57UZXW4JXe95djPUxj5JmWYTdvIAld2L6yxCa8o8t91gib1Du++IfqCrg+tvnnnvuP66Cprc1n08EYPwcBlugWvZCBGRYjwFZvVElLsf2WNfuE99Vn7+l+RhbroFS0Keh9QgDMnZgbYMH2GDaZXadoQEZsA0yCdcZQszKc6w9u6BdjgVkBB2WYwFZ7CDMMsaWsW12CNtppm1DO1pfnIMp/jen7dbKWPv1tZ2tb6xv2EA+DBQI7r9jdRO+R33XdT/zPY6HupEZpvA+Huq3Q+zWx1ZeQGbP2S4HDMiGXEdXHWZt1zcgI/acuhjrYx5o3xtSqN63d9wlgN28gCV3YvrLEJryjy33WCJvUO774h+oJpCqs118he5///vfB4GaCcieYoKwq5vV6uAKy5v9tAEZVS1/K14ZmIH6i3RyDZSCPg2tR1dAhsaXnRL+7IQjxGhIsZ5dh99hH2wYuYyN6LF94jXMcgwhZuU51p5d0LZeQObZBTY8FJDh1dqO5RaLMbaMbbNDICCj/SD6F5eV+JNFBg0QfAeiPQBl18f9Zpe96b2/WH/2tqPvYhmPw3Xgk9AUe4+1X1/bWZ+xvsE6x6u7WC/x/uNyC9eB/yEg67qfuT6+v/ELn2k/c5+8j4f67RC79bGVV9fg3MJzxjniWhhUQVz32HV01WHwP+yP/tu17JiNuxjrYx5o3xtSqN63d9wlgN28gCV3YvrLEDTLoogFyn1f/BPEgAzBlReQNesgILsZgViz7okMWfV6PT5zfS8Iw3dNEFcHazG1lVkWU4OOnLc8NjErzzXbcw7G2FI2G+9/MWzHae3RWWXgYYMoYIN8rm+XEW5n710ELlzGfXIffJ3CWPvJ7/rbbayt4CMMgECf4CcFU9uSsT7mUTXxcTo7HfKOuRSwmxew5E5MfxmCZlkUsZjsS1WQ9BEGUQiuDgVkWJfBVPV6IkNm9tEGZgzKLNgPvo+tLcyyOAcxOmt9iFl5rtmeczDGlrLZeP+LYTtmNpBtYNaCWQoEaRB+csbOtJcJgbCc23X9XMzKbj+FsfaT3/W321hbwR/s5zkDMh4bGc6pxx3rYx5VE58yINMsixXnPOfy3ac/f4v73RzE9JchVOUf3a80y2KZjM62ImCqgq6/zWe68B4BU/1lJXyPYAvvEXxV3Fwtq3+aiOVYxvdcju05oQdVfX978/bUc2qR5RooBWMb2pyIWXmWbs8xtpTNxvtfDNsdCsgYWNlObRiQ2e2YDbM/IcY+sMzLUiggW44hdpOt4rURoGnnU6julHvHXALYzQtYUqOALKrcY4m8Qbnvi3+ETFB1bkWd+UJwFQZVEJZ/y7d8y/+jekWmrP75IpZXr/zJ4is5YyOW4xWZNrxH1g2fbcCXQK6BUjBnQ4vRdnTM+Nk+mxESdt7wPACw28ciZuWZ2p7MLFjQIUYGA/a04k+F1m7LFDb78Kf+uH3/pVu+eOI7cOwnTPipFYMMAl9NMcI/xf9i2O5QQIZl9KWugAyvzH5xOyyjmCGzy/g594Asxr1nbRqTIXaLZSv7qwe0B3h2zn7fF2a/uvDu+SmM9TEPzbIYDwReEIOvZ1xydf35NW//83bZbXfevbv1jrvq5Vz/Qx8/c2I/sYnpL0Noyj+23GOJvEG574tfcg2UglgNrYU/c4JswGUDMgQPtjEOf57odWTs55jErDxT2JPQRtamsAv1q+/9hdqmZ750Y/3doYDMfo7JGFumshk6ZfQ5Bq22c3vLbTe3tgqfdekKyOznWEzxv5T+Fgv788UUjLVfDNsdCyiP3XvwOfjo01797Sf8jb4WDrJQXG8KQ+wWw1bImuL6OeMirj2s9+09hnvW3pOWYwFZ2L5MZayPeaB9b0ihet/ecZcAdvMClhiEWTB8ZqB1vwuvaL+76+6v1q8I1vj9tdd/cXfuC95Vv09BTH8ZQlP+seUeS+QNyn1f/JJroBTEaGhD0Bii08tObairPvJ7J0Yw0THmezTIaGwhOxJfckAGO4bBgO0I2gxZGJBtwZYpbAbsNeO97fzRnrAV7GEFW1LsPNptYjPF/1LZLgaU911Mxtovhu1wH7721/9D6xu4Bz/y6Wvr933uvTAgQwAHwe9w32P/uL+5f35n9zGWIXaLYavwGUIre8/91od+/cQ1wqawjQ3C7HvPpnjFvR0OtIxlrI95oH1vSKF6395xlwB28wKWGDz21VfuXn7Zde5nG6whQxZ+/45rPpNlQKZZFkUsUO774i9cOcyyiI4FAwVOL2wzZF2NMzseHFnGZzS+3NYGb7GIWXnGtqfteITgO0Dh/aEM2VptmcIHbQeWPgfQeaNdsE5XQMbBBHb2sA07xzFH3sEU/0thu60x1n4xbMeBEfgLRL8jx+49+BUDMis74BL6p/XnKQyxWyw/82S/p/2QTfvp/3ZBuw1eYT+uZ9/zHqVtwwDMPs84lrE+5lE18Uk7O94xlwJ28wKWGIQZMmTFmAFD8FViQKZZFkUsUvjSJpXLLItsSDnCyQbTfo/PbITR2cV6eM+ODIXvXvbmZ0XvDIOYlWcKe4YdMorfw66wCzNkHJEPAzJqbbZM5YO2UwsYZOE9Ayt0jI8FZBBsiazu2gYE+tqOPxtER9YKvoJrxffwH0+4R+0Ayn//zHXNu72Q8abC/bMMqEOBB8T3Qxhrvxh+x/OHP6EeC6/h2L1nA7L/9tv/qfY5lEcYVHA/MRlitxi2Ap7sd2wLQmFZ6FtW+J6BV2g7+HW4bChjfcyjauJTBmRFzbKIIAti8PW6d36k/vzM//qhIgOyqvyj+5VmWSyTRNnWTco1UApiNbQh6HjgpyfsAAMvIEPnF8vR2NoAAR0Q+7NGdFLC5w1iEbPyTGFPBAXWbsB20PCe66Dz8dnPX3/iJz9rt2UqH2RnmaPpDLLwHvbiOlgO38N7dgixLPzpFOy4liCWDLEdgipeD8of96i9PxnQ470NlGg/3KdYhzay69CeXJdZWq5jAw97TO4LtoW4HPT10bH2i+F3uD6cu70mex3H7r3QLrAbtuH3xCuPqQyxWwxbAU/0AWDfwz/t/WfxbMBtbfAFf7VlM5axPtZF086nUN0p9465BLCbF7DkTmx/6UtT/rHlHkvkDcp9X/ySa6AUxGpoLbbTZjsXXmCBzgk7ylyXjS1eIbzH6Cc6Jez4xSRm5ZnCnp7drF3ZAcGzKxA6eOjIYLst2DKFzSyU7dzBBgxImFGETRiU0H8hrIPlEMrBdhpjMMX/+tqOHXpcM98za/aCX3pabYPw2gGWH+oYM9igL9HfwoCMCgMyAH/le/g1NKQTPdZ+MfyO1+dx7N5jsGADMqxLfwRYx34GsbK0Q+wWw1bAs5f1N/t+aEBG7D5g5659DGGsj3lolsX8iekvQ2jKP7bcY4m8Qbnvi19yDZSCWA3tENCYhh01focOWVfwgc5JisxOzMozhT3Rqeiyie2YsIONABcKO3JgjbZMYTPYwrs+2AsdNPgfgwYAdQUBsCeDXnSoY2fJpvhfX9vBhzzZdboCMrwiaLA+yEEUfrYBmRXvc5sJsplHHIvb2MwGoOwyj7H2S+F3hwjvPdgMQQeEZRDXhZ+F93xshthtblsdw9Z7czDWxzzQvjekUL1v77hLALt5AUvuxPSXITTlH1vusUTeoNz3xS+5BkrB2hraJYhZeZZuzzG2lM3G+19f29mgnoEPAwQQZsLCQYAwIAthQEZssAsoZoIQiNnjdcnuo4ux9pPf9bebbBWvjUD73pBC9b694y4B7OYFLH3AJB0XXHxVPUU9JvDA8194b9fBM2N4DcXnxvgez4xBD7voPfXyL3zljnr/FJbxeTS8n0pMfxmCZlkUsUC574u/cOUwy+KWiFl5lm7PMbaUzcb7X1/bMcCymS0bkCFIY9YBwRLW/4FXPbwN3ryAzAZheA/xcxiQ2QwZjo/34c/XsMxmH+35HWKs/eR3/e0mW8VrI6omPmlnxzvmUsBuXsAyBBuEWXECD4gBGEHAhde3fvBTu8984ZY6IEMAhoAMMzEyIEPAh8k/8J6TgJy5+fYT+xpDTH8ZgmZZFLHQLIuNcpllcSvErDxLt+cYW8pm4/1viO34/BLe2wCKmSp89+FP/XH7PV4RJPHVE74j/KlsqNe97afq/duADMfCMRic2Z/XckbH8CeMXYy1n/yuv91kq3htRNXEpwzIspplEZmxj/2PL9eBFQIwvGI5X5khY0DGz30Dslf/5od3j37F7+7+7099sa5zKOxnyiyMMf1lCFX5R/crzbJYJppl8axcA6Wg9IYWxKw8S7fnGFvKZuP9r3TbgbH2k9/1t5tsFa+NAE07n0J1p9w75hLAbl7A0gcEUXhFhozBFAIv/LQQmS18h8Dpmk+cacKok0JA1SdDdvOtd7bHvPGm29r3U4jtL31pyj+23GOJvEG574tfcg2UgtIbWhCz8izdnmNsKZuN97/SbQfG2k9+199uslW8NkKzLPaDz31RCLCwjD9hxHtmxOz/kHF7gOfOjgVk9ieKCshcuccSeYNy3xe/5BooBaU3tCBm5Vm6PcfYUjYb73+l2w6MtZ/8rr/dZKt4bQTa94YUqvftHXcJYDcvYOkDfq4I4T0DLmTH7PNiCMCwHjJh/BkjwDoMuBCQAQZk+N4GZPh86x131a8IyLCcxxtLTH8ZQlP+seUeS+QNyn1f/JJroBSU3tCCmJVn6fYcY0vZbLz/lW47MNZ+8rv+dpOt4rURaN8bUqjet3fcJYDdvIClLwiUEGghi/WMS66u3yMAY1CGzBfAeyt8zwwagisEXhDXQ5bMBmRcPjUQIzH9ZQiaZVHEAuW+L/7CpVkW5yVm5Vm6PcfYUjYb73+l2w6MtZ/8rr/dZKt4bUTVxCft7HjHXArYzQtYciemvwxBsyyKWGiWxUZzz7Io4lWe3r5Lw7PLIbx9lIZnlz54+yoRzzbH8PZTGp5dPLxtS8OzyxiqJj5lQJbVLItbJaa/DKEq/+h+pVkWy0SzLJ6VayAhhBBCbJumnU+hulPuHXMJFJDNS1P+seUeS+QNyn1f/JJrICGEEEJsF82ymD8KyMTWQbnvi19yDSSEEEKI7YL2vSGF6n17x10CBWTz0pR/bLnHEnmDct8Xv+QaSAghhBDbBe17QwrV+/aOuwQKyOZFsyyKWKDc98VfuDSrjRBCCJEfVROftLPjHXMpFJDNi2ZZFLHQLIuNNKuNEEIIkR9VE58yINMsiytgqYCsKv/ofqX+aJlolsWzcg0khBBCiG3TtPMpVHfKvWMugQKyeWnKP7bcY4m8Qbnvi19yDSSEEEKI7VLaLIul4tkjNU35x5Z7LJE3KPd98UuugVLgVSQl4tlmDN6+S8OzyyG8fZSGZ5c+ePsqEc82x/D2UxqeXTy8bUvDs8sY0L43pFC9b++4In+a8o8t91gib1Du++KXXAOlAA3Nd7/oXxZNzMa2dHuOsaVsNt7/SrcdGGs/+V1/u8lW8doItO8NKVTv2zuuyB/NsihigXLfF3/hmnNWm9IbWhCzsVXHZbgtZbPx/le67cBY+8nv+ttNtorXRlRNfNLOjndMUQaaZVHEQrMsNppzVpvSG1oQs7FVx2W4LWWz8f5Xuu3AWPvJ7/rbTbaK10ZUTXzKgGxVsyyKeanKP7pfaZbFMtEsi2flGigFpTe0IGZjq47LcFvKZuP9r3TbgbH2k9/1t5tsFa+NAE07n0J1p9w7psifpvxjyz2WyBuU+774JddAKSi9oQUxG1t1XIbbUjYb73+l2w6MtZ/8rr/dZKt4bURJsyyKeWnKP7bcY4m8Qbnvi19yDZSC0htaELOxVcdluC1ls/H+V7rtwFj7ye/62022itdGoH1vSKF6395xRf405R9b7rFE3qDc98UvuQZKQekNLYjZ2KrjMtyWstl4/yvddmCs/eR3/e0mW8VrI9C+N6RQvW/vuCJ/NMuiiAXKfV/8hUuzLM5LzMZWHZfhtpTNxvtf6bYDY+0nv+tvty5b3XHn7e7y3BjrYx5VE5+0s+MdU5SBZlkUsdAsi41ynGXx/Iv+9e6GL/yl+93SxGxs57LnWhljy742++hf/unu+172IPc7S9/11sIU/9uCv6XutI+1X0rbrbm+I0Ps1mUrBWTDqZr4lAGZZlksmKr8o/uVZlksE82yeFaugVKQslOyFWI2tnPY866776pf3/TeX9xd8s6fPbEMQHzP5c9+/RPbZSkZY8vYNpsjIIM9f/ua33C/G8oU/5vD36ZSYkC2BYbYrctWLFvWOS9704/Xr/b+gH7oNd9Rf2eX4fXKP72iDVz53W133Np+98kbPla/97b1loVwXzd95Uz9auvO666/5sR3XNerK8f6WBdNO59CdafcO6bIn6b8Y8s9lsgblPu++CXXQCmYq1NiR4zRiKPxg7AcYuMI0KGG5spyxGxs57CnDbK8gIy2fsKLv/WEXedgjC372oyBlg248J7fU/Z7yi6j73E7+iD9E3aFaDt0DJ/x899zYhllO5EQ3gPsC+rjw1P8b6q/sUNtO7e0KTqt0CE7AIo2ht9B3B+OgU4vhM+2LsD7qT461n5TbWc5dI30has+8nt1YIJltNVQG/NzDIbYrctWuG7vvGALXj99DGCZDdasnQB9B7aBLWgvBksAvvqSX/0xdxk/A3sc1pX07TNfurEG73F8HJfreoz1MY+SZlmE3UrFs0dqmvKPLfdYIm9Q7vvil1wDpQAVh9cAxcY2vAwe0Iiy08EOCl+53RzErDznsCdlgzD73n62HaM5GGPLvjbzfIQdLL4CXDPX85ZxW9go7BDaz+zkoWPIzh63t529cJ/2tQ9T/G+qv8EueMU1sONsO9D8Dtfn2QGvXI82th1lQFvQttbGeJ9DQHboGvmd7fQPsTHXsfuMwRC7ddkK12HLm/4EeK5eQMaBJF6TtQ1sQFvw+scGZDyOXYb1cCwEw0979bfXn+397DHWxzzQvjekUL1v77hLALvd91lvL46Y/jKEpvxjyz2WyBuU+774JddAKehqaGNjOxNsoG2DycY37MzNQczKcw572s4+bRkGAGGHD7Kdu1SMsWVfm9kggNfCgMD6Db/vWmYVdtrw2QrfwTc5Uk8/tR24cJ9YNqTjPMX/pvobOqW4NpwvbIT7lNcFwY9sBzm0g2dj2pAd5LBDbusCvM8lQ8b34TXyFeA+RfBBn4OO2RjBBsRy4r6mMsRuXbbidUN4ZUCGc+e5hrbBK9eHz2AZbEI/gGgLvGIZbGD9smtZCJfDJ7mvM1/+XG1LHPOzn7/eXZfLyFgf80D73pBC9b694y4B7OYFLLkT01+GoFkWRSxQ7vviL1w5zrLYNyBjp47bzUHMynMOex4LyNDJDkeLvRHkFIyxZV+b0Tdsp5UBgR2ZxzKs5y3DPrgMWL/k5zBAsMejn9qALNwnsPs8xhT/m+pvuN7f+ePfbLMEb7j8le318d5k5suzg2dj+xmvXofc1gElBWSwG8D7vjamHRFADPGrYwyxW0xbWbz7bY2M9TGPqolP2tnxjrkUsJsXsOROTH8ZgmZZFLHQLIuNcp9l8VBAhvfogEC2c5eSmJXnHPa0OrQMoKMHMXhIzRhb9rWZDdYpGwxBCEy71guX8TP8EKJ/MiPBz14nmfuxI/QQvxvScZ7ifzH8DfLe8z7kNR+yA0Qb4zuoK0OGVz479d9++z8VFZAhqLLr9rEx/RO+NsSvjjHEbjFtBXjfMBANv18bY33Mo2riUwZkq5plEXbzApbciekvQ6jKP7pfaZbFMtEsi2flGigFsRvaLRKz8izdnmNs2ddmNhszFGYZ1sgU/1uTvy1l47H2W5PtlmCI3WSreG0EaNr5FKo75d4xlwB28wKW3IntL31pyj+23GOJvEG574tfcg2UgtIbWhCz8izdnmNsecxmyDZAY35ySXnfrYUp/rcGf6O87+ZgrP3WYLslGWK3NdkKWUZkET/3xc/Wn5Ft7cqyHcq+IvPIbOQxxvqYR2mzLHoBS+7E9JchNOUfW+6xRN6g3PfFL7kGSsGaGtqliFl5lm7PMbaUzcb7X+m2A2PtJ7/rb7e5bcXJZvAeP920391y280nPvNnn1AYmB37OSynvj/GWB/zQPvekEL1vr3jLgHs5gUsuRPTX4bQlH9succSeYNy3xe/5BooBbEaWjaanrAcDSxe8ZyJlfdMxLFGNPbzUDErz1j2BBgJtvLsEs6uCChM6WxlbQ3ZbWIxxpYxbdYFOl7ItOGZRfgg39t1YF8+P2aFjiH8G4IN+VwexU4gtg332Ycp/hfLdrAH76sfed15p/yqS+EzdFvxOZDa72BTBAsX/MfHnPIL2o3BBOzNzA8yN3M8VzXEbodsxXqK18TnA219RfEz7yF+tuD+ZDbcCs/eYd8f+fS1tY1wXPxn24t++YfryWgYwNn2wZ6Dfc/2CvvAsXBMfucx1sc80L43pFC9b++4SwC7eQFL7sT0lyFolkURC5T7vvgL1xZnWUQDhwYzFBtRKmz42Eh2yWtEsb+YHZaYlWcMex7SoZ/ZcLQXHRIEB+gc244gbcmgmMuBF9iNYYwtY/ngMWwQZn0SdqE+9NHfP2Ff2pu+x4CM33M59g1Ze+O7Pj+znOJ/sWwHe6Bj6wnfd4md3635HJjT70LRbp+84WO7D3/qj2vwPtw2JUPsdshWXc8OosxtPQ074P7BPRUGqIR+AsFG8B/4FfbzpVu+WK+DgIxBID6Hr7QtsO0H3+MceN8S7M9uFzLWxzyqJj5pZ8c75lLAbl7Akjsx/WUImmVRxEKzLDba2iyLaDDRwLGRDIXGFB0+rBsGZORYI4qfqYSNKPbZFZwMIWblGcOenIUNHRfK2gQwG4PX0AZU2DkGWJ/v2fnp6hyNYYwt+9iMQdAv/9Zr61f6CzuDvC7YDN/BF2kz2uf9f/Zb9fXiPV+tT2F9a098tgEZFAZkdlu82s53uE4XU/wvhr8Bnq/9ORg7qbDJIXF7aCs+B2LZrgv6Al7D66X/wp/gOwjI4GtYBrvHtE8XQ+x2yFasp2xWC3UY7hnU/fQf3Ee4XqyD+5YBOX3C1nvMKvKeZEBmB1I8Yb0uYV+0bdiWAO++JmN9zKNq4lMGZJplcQXE9JchVOUf3a80y2KZaJbFs3INlIJDDW1f0LixgeNPcCh2VCH+NMQGZWygjwVkePUaUTbiU4hZecawJ68pDHAZKFg7sLPCz4CdaHSOf+tDv34iwMC2kLU3oOyyMYyxZR+bobPE6yC0j71+rAefwnfWN3C97BhjMgDYB/uzAQhG3t/xh2+u92mF/dHmeI9jcLSeAw0U98XvIOvPHlP8L4a/4Tz/9BNXte9pz9DPPPH7rfkciGG7PnQFZAwOEIAgIMNy2Ip1YmqG2K2PrVD341p4rbhP4EscNMH12mvDuqFPcHnoP3jPe+6YL1rCe4/7sr4NDgVjYKyPddG08ylUd8q9Yy4B7OYFLLkT21/60pR/bLnHEnmDct8Xv+QaKAV9Gto+sIHrCsjYcUUwhg4KGmLb+bMNs21E8Z6d57ARBdzvFGJWnjHsiU4L7IHrhn3s809ch50WzyYUsxWwoe3kdCnczxjG2LKvzXANfNaG/oLrh41sh8p2+uCPGAiw4vcIwLgf2Ii+Rp+0fojjcFsci35nAzNP1q+7mOJ/MfwN0I94b+K9DWiPdYKprfgciGW7Q9j7M7yHL3zDv23fh9CvUjLEbodsxXuDGTK2Abw34QcQ/Ir3HtT1k1XrN3iP7SB+PyUgI7ZcwLGBvbE+5qFZFn2eccnV9etjX33l7q0f/FT9Hjr3Be/aXXv9F+v3WHbrHXfVr2duvr1+/dnf/HD9agm/C7d5xzWf2X30s1+q399191frVx6Xr/e78Irdhz5+pv7uczfdVp8H3vchpr8MoSn/2HKPJfIG5b4vfsk1UAoONbRDYAPXJyDj+l2NZd9GNJxtaywxK8+p9rSj5m+4/JVtQOY9X4IOnteRQAcGnRZ2jvHeBikAy+zzTTZrOYUxtuxjs7d/8E31KwMy+ghkAzL4CK4V9sNnXieuD3axgwDwVXb8APaJ9ayfYXsb+DIgw3sem+sC28kMO+BdTPG/qf5G7DXjvoKNrX/ADp74/dZ8DsSy3SHs/Rn6Q5dNKa6XiiF2m8NWgAMbeI/7035HHz3mi5autmQoY33MA+17QwrV+/aOuwSwmxewHAJB06c/f0v9/rY7765fESS9/LLr6vcIphAcYb2HXfSedjuL/c4GeNwP9sHvuT+84jODN/ue59GXmP4yhKb8Y8s9lsgblPu++CXXQCmI1dCysQxHdtEgsgHFZ3TCbKc1bHRBVyOKTqJVn85uH2JWnlPtCfsc6qhxPYjXT7vgPbZFAIFXdo7RMUZHhx1l20lkAI0ONZdNYYwtY/ngIThKD1vZEXfYm0EZ/A7Al63wPW3GgAzrIBiDsBzifngsCJ+PMcX/YtkO19OV5bv+xv/evPP1urf91OZ8DqT2O/oaP4cBGf2E9R3WxToU10vFELulttXaGetjHmjfG1Ko3rd33CWA3byAxYPZK9AnIONyZrhC+J3dlth9IBOG73ksG5ARnk9fYvrLEDTLoogFyn1f/IVri7MsbpmYlWfp9hxjS9lsvP+Vbjsw1n7yu/52k63itRFVE5+0s+MdcylgNy9g8bA/J+wTkL3xyk/Un72ALPwOwiv2w2wYAzKux/3jp5PMqPFnjVsJyDTLooiFZllstLVZFrdOzMqzdHuOsaVsNt7/SrcdGGs/+V1/u8lW8dqIqolPGZBplsUVENNfhlCVf3S/0iyLZaJZFs/KNVAKSm9oQczKs3R7jrGlbDbe/0q3HRhrP/ldf7vJVvHaCNC08ylUd8q9Yy4B7OYFLLkT21/60pR/bLnHEnmDct8Xv+QaKAWlN7QgZuVZuj3H2FI2G+9/pdsOjLWf/K6/3WSreG2EZlnMn5j+MoSm/GPLPZbIG5T7vvgl10ApKL2hBTErz9LtOcaWstl4/yvddmCs/eR3/e0mW8VrI9C+N6RQvW/vuEsAu3kBS2w4MYf3HeEU9h54tqxrxsYxxPSXITTlH1vusUTeoNz3xS+5BkpB6Q0tiFl5lm7PMbaUzcb7X+m2A2PtJ7/rbzfZKl4bgfa9IYXqfXvHXQLYzQtY+uLNvGjf8//JQnFSDsuhgAzceNNt7vIxxPSXIWiWRRELlPu++AuXZlmcl5iVZ+n2HGNL2Wy8/5VuOzDWfvK7/naTreK1EVUTn7Sz4x1zKWA3L2DpS5+AjMvIOc+5vA3IbGBmAzL7HjMu4hVZtgsuvsrd51Bi+ssQNMuiiIVmWWykWRbnJWblWbo9x9hSNhvvf6XbDoy1n/yuv91kq3htRNXEpwzIspplMXVAhv0wICMIzLwM2xBi+ssQqvKP7leaZbFMNMviWbkGSgEqDhGv8vT2XRqeXQ7h7aM0PLv0wdtXiXi2OYa3n9Lw7OLhbVsanl3G0rTzKVR3yr1jLgHs5gUsfbE/I/QCMhuwERuQdQkBGZ87CwMy4O13CLH9pS9N+ceWeyyRNyj3ffFLroGEEEIIsV00y2J/+MfQwAvIvvCVO9plx7AZMsBALAzIpgZjQAGZ2Doo933xS66BhBBCCLFd0L43pFC9b++4SzAlIMPMh3bmRBuQIbiymbA+hAEZCQMyGwSORQGZ2Doo933xS66BhBBCCLFd0L43pFC9b++4SzA1Q3YI76eGh+gKyFKwVECmWRZFLFDu++IvXJrVRgghhMiPqolP2tnxjrkUKQOyNbNUQKZZFkUsNMtiI81qI4QQQuRH1cSnDMiymmVxqywVkFXlH92v1B8tE82yeFaugYQQQgixbZp2PoXqTrl3zCVQQDYvTfnHlnsskTco933xS66BhBBCCLFdNMti/iggE1sH5b4vfsk1kBBCCCG2C9r3hhSq9+0ddwkUkM1LU/6x5R5L5A3KfV/8kmsgIYQQQmwXtO8NKVTv2zvuEiggmxfNsihigXLfF3/h0qw2QgghRH5UTXzSzo53zKVQQDYvmmVRxEKzLDaac1YbVBwiXuXp7bs0PLscwttHaXh26YO3rxLxbHMMbz+l4dnFw9u2NDy7jKFq4lMGZJplcQXE9JchVOUf3a80y2KZaJbFs3INlAJUHN/9on9ZNDErz9LtOcaWstl4/yvddmCs/eR3/e0mW8VrI0DTzqdQ3Sn3jrkEsFupePZITVP+seUeS+QNyn1f/JJroBSg4vAaoJKIWXmWbs8xtpTNxvtf6bYDY+0nv+tvN9kqXhtR0iyLYl6a8o8t91gib1Du++KXXAOloPSGFsRsbNVxGW5L2Wy8/5VuOzDWfvK7/naTreK1EWjfG1Ko3rd3XJE/TfnHlnsskTco933xS66BUlB6QwtiNrbquAy3pWw23v9Ktx0Yaz/5XX+7yVbx2gi07w0pVO/bO67IH82yKGKBct8Xf+Gac1ab0htaELOxVcdluC1ls/H+V7rtwFj7ye/62022itdGVE180s6Od0xRBpplUcRCsyw2mnuWRa8BKomYja06LsNtKZuN97/SbQfG2k9+199uslW8NqJq4lMGZKuaZVHMS1X+0f1KsyyWiWZZPCvXQCkovaEFMRtbdVyG21I2G+9/pdsOjLWf/K6/3WSreG0EaNr5FKo75d4xRf405R9b7rFE3qDc98UvuQZKQekNLYjZ2KrjMtyWstl4/yvddmCs/eR3/e0mW8VrIzTLokhFU/6x5R5L5A3KfV/8kmugFKyxob3jztvd5amI2dimsueVf3rF7ode8x0nln30L/90930ve9CJZeRN7/3FU+vPwRhbrtEHh4Cy6SqHPkzxv63bLgZj7Ve67YbYbSlb3fCFv3SXh6AuTNlujPUxD7TvDSlU79s7rsifpvxjyz2WyBuU+774JddAKZirob3tjlvd5R4KyPY8+/VP3P32Nb9Rv/cCskMoIDuMte1USg/IhtzbIKbtwVj7zWG7u+6+q37F/XjJO3/2xDIA8T2Xwz7XXX9NuzwVQ+zWx1ZD/aAPXQGZ9aHzL/rXye011sc80L43pFC9b++4In80y6KIBcp9X/yFK7dZFtFhpfAZnROIjegTXvyt9Wc2sAzIsF3MjlsXMRvbmPakYAPY4hk//z31Z9qNGTLvOxuQQXhFJwbiOtjudW/7qd6j0H0YY8upNsN1vOiXf/jEtYGbvnKmXsaOsL1eira1dqC4De2I97B36L9cjvdjmOJ/Mf0NHVuIduB9CXEd3Ju0Kz7j2il89nws9E0q1r091n4xbdeFDbK8gAw2p73tcvs+FUPsdsxWoR+E9wigujL7sAOCOsguw2u4Pwo+RPG7Q/c93r/szc9qv8e5QFjvEGN9zKNq4pN2drxjijLQLIsiFpplsVGOsyx6o6dsmMPv0OlDA8wGNTUxG9uY9rSjwOhIvORXf6x+T7vZgCz8jgEZOxu24/eyN/14vb7dLhZjbDnVZvY6eN2wg/0ey+x6XbYltBeCEq4XdpKt/fFqvxvCFP+L5W/WP/jZdqY5SEIb2PV5/x7zMdrL2j4GY+0Xy3aHoA4FW/zMV9gupn26GGK3PrY6VMfb+xEBk3e/WLvQ36xPAs+HrK/a43j3vX0P4TX0fY+xPuZRNfEpAzLNslgwVflH9yvNslgmmmXxrFwDpWCOTgmwjTWEBpcdWTSukG0ojzWQMYnZ2Ma0Zxg0hJkadk687ziijPfclxWCXa6L72MxxpZTbWavA51ZXJv1Ny6z64W2tdtDsCd9EB1FBGYcIICs/0614xT/i+VvsIcdAAk/Q3hlRxnQPrR1l4+FvmltH4Ox9otlu0N4QYZddmh5aobYrY+tDtXx9jsbpHE9LLd1PmSXQXZ/1odsQHbsvrf+aNc91t6M9bEumnY+hepOuXfMJYDdSsWzR2qa8o8t91gib1Du++KXXAOlABWH1wDFxnba2NELR0q5DhpeNKZ2hD4lMSvPmPa0nQ7bkWAH41hAhmUQlttOC+G6dtlUxthyqs1wHXYEnLax38MW9npD23I5fRABGDtpsOVVH/m9drvQf+32Y5jif7H8LcwShP7CTjNfAdenzbp8LPRNa/sYjLVfLNsd4lhABt+i7+YSkHn3CF7tet79Yq+fvoVXb3/Wh6zfHbvvrT/yfIH1fY+xPuZR0iyLsNt9n/X24ojpL0Noyj+23GOJvEG574tfcg2Ugj4NbQyYecB7NIQQG0q8QuyYsOOCzsqxhjIGMSvP2PaE0PGwHQnarU9Axn1gGcuANuW6eB+LMbacajNcB54RgdhxA/SzMFjj9xBty+Xo6HE57YQOnw1EPP+dYscp/hfT33jtvG5+9oIKwPXsve35WOibeA/FCsrG2i+m7bqwOrQMbD0gO1THYxnFestuC+AzlF2G1679wYfCgYBD9731R6zHbXicLsb6mAfa94YUqvftHXcJYDcvYMmdmP4yhKb8Y8s9lsgblPu++CXXQCno09DmTszKs3R7jrHlVJvZDlcKEJiwc5eCKf5Xur+BsfYr3XZD7BbTVjYQshwLipZkrI95oH1vSKF6395xlwB28wKW3InpL0PQLIsiFij3ffEXrtxmWVw7MSvP0u05xpZTbZYyIJsjSzvF/0r3NzDWfqXbbojdYtiK8r4DCsjiyDvmUsBuXsCSOzH9ZQiaZVHEQrMsNspxlsU1E7PyLN2eY2wpm433v9JtB8baT37X326yVbw2omriUwZkq5plEXbzApbciekvQ6jKP7pfaZbFMtEsi2flGigFKRtaO+KJ3/lD9hkUiO9D7MPZAJkKvIaTBsQgZuUZ2558LgNCJsgKz5zg53TIDjFL9LkvfrbdlvZfuy1T+OAh8dkl2sWKmTb4q30eDcBetF1MpvhfCtuFHHvWy97TZAv37xDb0Qbe+UPhMoCJYfBTV9iC/tRll1CwKetMT6HN8TPAoVniIXaL5Wesk0LZ510p2IoK7Y76zn4OOfb9UMb6WBdNO59CdafcO+YSwG5ewJI7sf2lL035x5Z7LJE3KPd98UuugVIQq6ENQSDBRhac+dKNJ75nY2uX2Yfa8b39Y1oru00MYlaeKeyJoIu2ZIfOdjiwDJ/ZueN3NiBbsy1T+eAx0MnmBABWsDU70JjVLdSxAGUoU/wvle26BJsw0PC2+9ItX6xft3D/HrMdzp9BeRiQ3XLbzfUrrjO8pnByDt6zwAr3KxUGWLTjhz/1x+0yHpuDMFxuZzCE3/YNeofYLYafUV4AD3Avot3Ae9gM96G1Heq1LnEdwLKK+RPIsT7moVkW8yemvwyhKf/Yco8l8gblvi9+yTVQCmI0tB6Q7TTYgIyNLmCHJsxGsCGmsM3QEeC+xKw8U9jTdkr4nkEXZ8Kj0AnxAjK8UmuzZQqbwQYMqhiowh58D5vwu1A2IOP36OTF7OBZpvhfCtsBXivtEL5HsILA40W//MN1AIDvIG6/hfu3j+0YeNmAjIFan3oMdrn+xv9ebw9f4n74Sn9kkMLPDMgAAzwcG/c7twUQ3/McILtOF0PsFsPPYAt7D1l/snDSD9jCDuqxXgvf02awDQYKwmvvCgCHMNbHPNC+N6RQvW/vuEsAu3kBS+7E9JchNOUfW+6xRN6g3PfFL7kGSkGMhjYEDeTb3n/p7mmv/vame3BS+E8nKGw4Kbxnhw6dEDS+6Pygce47+juEmJVnbHuyEwOb0m5WXI/2Al0B2VptmcIHcZ0MEijaEd+/4v94Tt0ZRCcOHTbaCO8ROLCzyPXhq/jOdgRjMcX/UtgO0HdwvRDehx1o2IyfuY79Dq9rvn/72I7nzboK589ro2266jH6CtZHEIf9wIcYOOA7+BeyYJ7CAHaI7XDexwLgIXaL4We4Tlw/glzYhP5kfQ3XaPWRT19bv/J77su+5z3KZWF54HvY3i4bylgf80D73pBC9b694y4B7OYFLLkT01+GoFkWRSxQ7vviL1w5zLKIRtB2CMKfLHaJ34cdOnRobvzCZ9rvYxKz8oxtT1w7AwnYk3a0HRJgf7bE77oCsrXZMoUP4jrDoMoGZDa4gJh5YGfOC8hg+yGd4r5M8b8UtgOwFWzIwAE+dMF/fExtEywHodDZhrg+Xtd8//a1nfULXI/1gS7hu9BGuH+xjLbBe+ubeOVnD8/3sL6ncD2PIXaL4WfwJV4nroX3GOwQrksbAd6ndj37njaD/+GVZWXxbDeEsT7mUTXxSTs73jGXAnbzApZDnPOcy3ef/vwt7ncpOXPz7e7yMcT0lyFolkURC82y2CiHWRbRSB4KyABGce2zKLYRhrg99Iyf/566oe0z8juUmJVnCnsykMB1s2MRdmK8Dgc7P9CabZnCZrCPDboA7Yj39jusS9vie/gkXmk/fI/OHoNeLo/FFP9LYTvgXaO1GQIse+8C+zM7aM0+B4bYzgZk4Xdd9RjsBeE97cmMLNeFn2E97J/HAHYd4h2b/nxsmccQu8XyM9iB9xv9ideP72k7ZhFtm2AJ6z+LtaPNRk5hrI95VE18yoBMsyyO5NY77nKXjyGmvwyhKv/ofqVZFstEsyyelWugFMRqaEPQKUCj6wkdGNvh4MQKtiG1oPOHhhyN86GGeCwxK88U9mRnzsuCAT5zEeJ1qtdoyxQ2w7V1Cd+zMwhbwFehQ4ECbP8Dr3r4qY5zDKb4XwrbgdB3eI/SRvCjUF4QwXXX5nPgmO0O+RD0urf91NF6DMvwGf6Deg/v4XvcDsegTayGBGSewvU8htgtlp/Rr7x7jvbzZAdWwCE/gq2tvHWGMtbHumja+RSqO+XeMZcAdvMClhBmp372Nz98IkMG4fUd13zmxLKHXfSe3TMuuXr31g9+ql5meeyrr9x96ONn6vcvesu19Wesd78Lr2iXe/uwARnf87xw/I9+9kvt98eI7S99aco/ttxjibxBue+LX3INlIJYDe2WiVl5lm7PMbaUzcb7X+m2A2PtJ7/rbzfZKl4boVkWT4PABwES3jMgYyBll+H9bXfe3W7n/bQx/OmhF2h5++B39rh4//LLrqsDMp5fH2L6yxCa8o8t91gib1Du++KXXAOloPSGFsSsPEu35xhbymbj/a9024Gx9pPf9bebbBWvjUD73pBC9b694y4B7OYFLB4Ifu66+6snAjIEQ/huSEBmAzDvMzgWkPG4BAHZuS9414llh4jpL0Noyj+23GOJvEG574tfcg2UgtIbWhCz8izdnmNsKZuN97/SbQfG2k9+199uslW8NgLte0MK1fv2jrsEsJsXsIS88cpP1K82IMNnCK/XXv/F3gEZfoZof7Jof5bInx16+7CZNR4XwRkCsa0EZJplUcQC5b4v/sKVwyyLWyJm5Vm6PcfYUjYb73+l2w6MtZ/8rr/dZKt4bUTVxCft7HjHXArYzQtYhoIgjUHWFojpL0PQLIsiFpplsVEOsyxuiZiVZ+n2HGNL2Wy8/5VuOzDWfvK7/naTreK1EVUTnzIgy2qWRWa2kL0akqFampj+MoSq/KP7lWZZLBPNsnhWroFSUHpDC2JWnqXbc4wtZbPx/le67cBY+8nv+ttNtorXRoCmnU+hulPuHXMJYDcvYMmd2P7Sl6b8Y8s9lsgblPu++CXXQCkovaEFMSvP0u05xpay2Xj/K912YKz95Hf97SZbxWsjNMvicPAc2JBZDkk4QYc3wQfxnkcbS0x/GUJT/rHlHkvkDcp9X/ySa6AUlN7QgpiVZ+n2HGNL2Wy8/5VuOzDWfvK7/naTreK1EWjfG1Ko3rd33CWA3byApQ/437AuHfr5IsT3dvKO173zI+17y4033da+71pnKDH9ZQhN+ceWeyyRNyj3ffFLroFSgIpDxKs8vX2XhmeXQ3j7KA3PLn3w9lUinm2O4e2nNDy7eHjbloZnlzGgfW9IoXrf3nGXAHbzApY+ICC74OKr6vc2Q4agyQvIMBOizYbhM16xPmZpfMGb/6TeDu/5/SFNeWYtpr8MQbMsilig3PfFX7g0q40QQgiRH1UTn7Sz4x1zKaYGZF3ygiXvJ4eYnRHiZzsFPkCw5onfj2WpgEyzLIpYaJbFRprVRgghhMiPqolPGZBlM8vi0AxZGJAhA9b13Bn/cyy3gKwq/+h+pf5omWiWxbNyDSSEEEKIbdO08ylUd8q9Yy7B0hkyBFx8z+/tegrIesk9lsgblPu++CXXQEIIIYTYLpplcTiYLdFmu5jhsngBGbATe/C5Mr4/pC0+Q9aUf2y5xxJ5g3LfF7/kGkgIIYQQ2wXte0MK1fv2jrsEsQKyOfjQx8+4y8eggExsHZT7vvgl10BCCCGE2C5o3xtSqN63d9wl2FJAFpOlAjLNsihigXLfF3/h0qw2QgghRH5UTXzSzo53zKVQQDYvmmVRxEKzLDbSrDZCCCFEflRNfMqALJtZFrfMUgFZVf7R/Ur90TLRLItn5RpICCGEENumaedTqO6Ue8dcAgVk89KUf2y5xxJ5g3LfF7/kGkgIIYQQ20WzLOaPAjKxdVDu++KXXAMJIYQQYrugfW9IoXrf3nGXQAHZvDTlH1vusUTeoNz3xS+5BhJCCCHEdkH73pBC9b694y6BArJ50SyLIhYo933xFy7NaiOEEELkR9XEJ+3seMdcCgVk86JZFkUsNMtiI81qI4QQQuRH1cSnDMg0y+IKWCogq8o/ul+pP1ommmXxrFwDCSGEEGLbNO18CtWdcu+YS4DApFQ8e6SmKf/Yco8l8gblvi9+yTWQEEIIIbZLSbMsinlpyj+23GOJvEG574tfcg0khBBCiO2C9r0hhep9e8cV+dOUf2y5xxJ5g3LfF7/kGkgIIYQQ2wXte0MK1fv2jivyR7Msilig3PfFX7g0q40QQgiRH1UTn7Sz4x1TlIFmWRSx0CyLjTSrjRBCCJEfVROfMiBb1SyLYl6q8o/uV+qPlolmWTwr10BCCCGE2DZNO59CdafcO6bIn6b8Y8s9lsgblPu++CXXQEIIIYTYLpplUaSiKf/Yco8l8gblvi9+yTWQEEIIIbYL2veGFKr37R1X5E9T/rHlHkvkDcp9X/ySayAhhBBCbBe07w0pVO/bO67IH82yKGKBct8Xf+HSrDZCCCFEflRNfNLOjndMUQaaZVHEQrMsNtKsNkIIIUR+VE18yoBMsywWTFX+0f1K/dEy0SyLZ+UaSAghhBDbpmnnU6julHvHFPnTlH9succSeYNy3xe/5Bpozbz73e/e3fOe93Tf3/ve9+69jhBCCJErmmVRpKIp/9hyjyXyBuW+L37JNdDaueGGG6K8F0IIIXIE7XtDCtX79o4r8qcp/9hyjyXyBuW+L37JNZAQQgghtgva94YUqvftHVfkj2ZZFLFAue+Lv3BpVhshhBAiP6omPmlnxzumKAPNsihioVkWG2lWGyGEECI/qiY+ZUCmWRYLpir/6H6l/miZaJbFs3INJIQQQoht07TzKVR3yr1jivxpyj+23GOJvEG574tfcg0khBBCiO2iWRZFKpryjy33WCJvUO774pdcAwkhhBBiu6B9b0ihet/ecXMCf5nzxje+0X1/5ZVX9l4nN5ryjy33WCJvUO774pdcAwkhhBBiu6B9b0ihet/ecXPizJkzUd7nhmZZFLFAue+Lv3BpVhshhBAiP6omPmlnxzumKAPNsihioVkWG2lWGyGEECI/qiY+ZUCmWRYLpir/6H6l/miZaJbFs3INJIQQQoht07TzKVR3yr1jivxpyj+23GOJvEG574tfcg0khBBCiO2iWRZFKpryjy33WCJvUO774pdcAwkhhBBiu6B9b0ihet/ecUX+NOUfW+6xRN6g3PfFL7kGEkIIIcR2QfvekEL1vr3jivzRLIsiFij3ffEXLs1qI4QQQuRH1cQn7ex4xxRloFkWRSw0y2IjzWojhBBC5EfVxKcMyDTLYsFU5R/dr9QfLRPNsnhWroGEEEIIsW2adj6F6k65d0yRP035x5Z7LJE3KPd98UuugYQQQgixXTTLokhFU/6x5R5L5A3KfV/8kmsgIYQQQmwXtO8NKVTv2zuuyJ+m/GPLPZbIG5T7vvglGqMeTTPG0XIt13It13It1/LtL0+het84Fo7Jz1pexvJUsyxacFwcX8uLWC5Vwk1Fg/AG42ct13JIy/fS8r20fC8t30vL91rz8lTivnFMezwtL2N5bIXHwWfILtPyPJdLUq3QSU6B2X8wIgSaKTrd9YjW99cjWt9fj2h9fz2i9f31iNb31yNa31+PaH1/PaL1/fWI1vfXI1rfX49ofX89ovX99YjW99cjma+/KX35y19+4EJ2OoXW99cjWt9fj2h9fz1i13/wgx/8fvPdqqU6qhut769HtL6/Hlnj+rjfq/eSdFZwIPycVQghhBBCCCGEEOulCuEtW1J73t51CSHyxN77FWtWe57edQgh8gFTezTJND5RJkl/rc6wct4XIYQQQgghhBBCrJMqhrdsSe15e9clhMgTe+9XrFnteXrXIYTIB3u/V0hSrdYpPKcRQgghhBBCCCHEOrAxfMWW1J63d11CiDyx937FmtWep3cdQoh8sPd7hSTVap3CcxohhBBCCCGEEEKsB/xlQh3Nb0saexCiQDY0rZnqKCEKwd7vFZJUq3UKz2mEEEIIIYQQQgixDjb8Pxr6qwchCmUjiX3VUUIUQnW/WySpVusUntMIIYQQQgghhBBiHdgYvmJTwkC5d01CiHypbv3N1Fmqo4Qoh40+lS+llBoBIYQQQgghhBBi/VQh/GYGnAO15+1dlxAiT+y9X7FmtefpXYcQIh82/FS+lFB6nFgIIYQQQgghhNgAVQxv2ZLa8/auSwiRJ/ber1iz2vP0rkMIkQ/2fq+QpFqtU3hOI4QQQgghhBBCiHVgY/iKLak9b++6hBB5Yu/9ijWrPU/vOoQQ+WDv9wpJqtU6hec0QgghhBBCCCGEWA8b/R8NjT0IUSAbmtZMdZQQhWDv9wpJqtU6hec0QgghhBBCCCGEWAcb/h+N6H/18IY3vGH3xCc+0f0O4FgXXXTRiWXvfve7d/e85z1PcfHFF+/+1b/6V7srr7zy1LZ/9md/tvsX/+Jf7D7xiU+039ltH/zgB+8++clP1uvY5Rasc8MNN7TnAXgub3zjG08sFyI3NpLYT/Z3NKhDvvEbv/FUvQDOO++8zroD9cYznvGMU8tR74X1UIitc2688caD9dO9733vtu4j11577YnPFl7Pq1/96lP1mhBboLrfLZJUq3UKz2mEEEIIIYQQQgixDmwMX7EpYaDcu6axjEmSEWxrv8Mg8pAkGb9DossmybyEF9a353nmzJnd4x//+HaAuitJhu28wWshtkR162+mzopdR4Hw/kedgc9MXNnvUC95CXV+Z9e19VBYf7Feskky+/1YeM5evcp6zZ6jEGtmo0/lSymVohEQQgghhBBCCCFEXKoQfjMDzoHa8/auawxjk2Th02QcsI7xJNmxp8I4QG6XhUkzoKfLRC7Ye79izWrP07uOsYT1Rx+8bZZMkrHODOtTr+4iXt0rxFrA/bPRp/KlhEr2OLEQQgghhBBCCCHiUcXwli2pPW/vusYwJkmGbTCAe5/73KcegO7ah7et9x0Ho5kke8lLXnJwcBvb9h1I5rmSQ9cqxFqx937FmtWep3cdUwkTVyFMOHUlyMO6KqxLQlI8STaEY9crxJLY+71Ckmq1TuE5jRBCCCGEEEIIIdaBjeErtqT2vL3rGgP/F8dLNGEAmYmw8DsM3oZJsnBA1ybCOMUYB6/DwWmbJMM6djC764kQu/0xDiXShFg79t6vWLPa8/SuYypTk0ZhksxyLAlm6yFb/3nrdu1rSL2lhL5YO/Z+r5CkWq1TeE4jhBBCCCGEEEKI9bDR/9GIMvbABBUGm6+66qo6SRYO0BL8n9d73/vedjowDtxikNiuNyZJxu+4XTjdIo9xbFAc63X979ixJ0uE2AK4XzYyrVnS8dGwjumiKxlmk1Th98eSZHafOI+xSTLvvEL6rifEktj7vUKSarVO4TmNEEIIIYQQQggh1sGGBpxDRfurB+yDg8V9OTZoy6TWIZCsCgeYOfBtk2Q4Pw6Gc2A7TJ55g9R8Ms4eU0+RiRzYSGI/6d/R9KljyKH66tD/gIWgHvrN3/zNE8m5PufhJe5tku4YSpKJtVPd7xZJqtU6hec0QgghhBBCCCGEWAc2hq/YlDBQ7l2TECJfqlt/M3WW6ighymGjT+VLKVVaI/DN3/zNQtR4/rEk3jmKMvH8Q4it4/n6X37pj128dS3eNsBb1+JtA7x1Ld42wFvX4m0DvHUt3jbAW9fibQO8dS3eNsBb1+JtA7x1LZ5/xMY7rigTzz+m4B1DlIfnG3NRhfCbGXAO1J63d11CiDyx937FmtWep3cdQoh82PBT+VJCJX2ceI0wsPEGdUQZrCG49ZBvirl8k8exeOcDvHUt3jbAW9fibQO8dS3eNsBb1+JtA7x1Ld42wFvX4m0DvHUt3jbAW9fibQO8dS2ef6SCx/TOU5SD5xspkL8J+oDnH1OQb5VNKr8aQhXDW7ak9ry96xJC5Im99yvWrPY8vesQQuSDvd8rJKlW6xSe0+SIAluxhuDWQ74p5vJN+ZoAnm+kxjsPURaeX6RA9ZygD3j+MQX5Vtmk8qsh2Bi+Yktqz9u7LiFEnth7v2LNas/Tuw4hRD7Y+71Ckmq1TuE5TY4osBVrCG495JtiTt/0ji/KwvOL1HjnIcrC84sUqE0VqdpU+VbZpPKroWz0fzSKG3sQQmxqWjPVUUIUgr3fKySpVusUntPkiAJbsZbgNkS+Keb0Te/4oiw8v0iNdx6iHOas43gs7zxEGaTyN/lW2aTyqyFs+H80ivurByHEno0k9lVHCVEI1f1ukaRarVN4TpMjCmzFGoJbD/mmmNM3veOLcpjT1wiP6Z2PKIM5/U7+JlL5m3yrbFL51RBsDF+xKWGg3LsmIUS+VLf+Zuos1VFClMNGn8qXUqq0RkCBrVhDcOsh3xRz+aZ8Tczlaxb5nZjT7+RvIpW/ybfKJpVfDaEK4Tcz4ByoPW/vuoQQeWLv/Yo1qz1P7zqEEPmw4afypYQq7nFiBbZiDcGth3xTzOWb8jUxl69Z5HdiTr+Tv4lU/ibfKptUfjWEKoa3bEnteXvXJYTIE3vvV6xZ7Xl61yGEyAd7v1dIUq3WKTynyREFtmINwa2HfFPM5ZvyNTGXr1nkdwJ4vpEC+ZugD3j+MQX5Vtmk8qsh2Bi+Yktqz9u7rtKhb4my8HwhN+y9X7FmtefpXYcQIh/s/V4hSbVap/CcJkfYGfGCni3yitf+1O7bv/2Ru+s+9fvu9+T6L1yze9ZP/MjuB37w+3d/8bk/dNcJ+cRfXbV77Pnn7f7j61/mfr9V1tohzc03xXDm8k35mgCeb6TGOw9RFp5fpCBlPRf2vcb0sQ4Re3+lQh/w/GMKKX2rL17//1fe+vpeMYGYRiq/GspG/0ejuLGHIdC37vust4sCWEtdMgcbmtZMdZQQhWDv9wpJqtU6hec0OcLOiBf0bA0Oovz/LvxR93vLmAGXaz767t13PvpRSpLNRE6+KcYxp296xxdl4flFarzzEGXh+UUKUrWpQ/peY1GSLA6p2tRUvtWXLh9UkmweUvnVEDb8PxrF/dXDEOhbXkJF5Mca6pI52UhiX3WUEIVQ3e+WZXX/+9//Pg95yEPOPOhBDzq/WdRb1XavfPCDH9xWsNX7p1TL3tp87K1qm3Mrrj7nnHP+TrOoRLVO4TlNjrAz4gU9W6MrSH7PB35999CHPvREcgu/OMWyrgEXb0BGSbJ5yck3Q+iTb/nNS9pl9klFfP/wRzx893tXX9Z+j8EebGP9m9vY/eTEnL7pHV+UhecXqfHOQ5TDnHUcj+WdxxS8vpfXh2K/yyYtvP5Znz4b92/3hXX6JNHYbtrzRRvK/YR9PW99HOtJ3/+E3Y888+nt8bx2O9zX2H3HIpW/pfKtvnT1/8MkGf2oT5+pZD8ZSiq/GoKN4Ss2JQyUe9cklCQrjTXUJXNR3fqbqbNURwlRDrMn75HQQud8DF2JL+xzSJLsAQ94wN+u1vmkd4xDMIHH7cOEXnVMN8nWnM9mkm+lNQLsjHhBz9bwguQw0AzX9QZUurbpWr511tohzck3PTDAEQ4g0ndDX8YAyROeeP7ut9//f9avHFzBAFCfQcGtMqdvescX5TCnrxEe0zsfUQZz+l0qf/P6Xl4fC22c91SPbQuH9tmwLRIOT33ak08c/xBMOHjncqz/x+RKn2vhZ57X1H3HIJW/pfKtvng+CJgk+413XlrHsn2SY6RkPxlKKr8aQhXCb2bAOVB73t51lQ59y0uoiPxYQ10yF/ber1iz2vP0rkMIkQ+reCqfT5A5Sa6r/82/+Tf/n2bRCYVJp+r9wSQZvrfrN0mujzzoQQ/6lnqFRs25XH/uuef+42aR+4Rb5kmy4h4nZmfEC3q2hhckh0FluG444IKAOvyFJ+kKXLfOWjukOfmmBwdg4E/4ZXE42AF/++7zHlP7IgZD6HdMjP35X77vRMIsR+byzdx9TRxnLl+zyO/EnH6Xyt+8vpfXx+qTMBjTZ+OP+cIESR94PPb7uo4fYs/ZLme7ju3Ddn3qvmOQyt9S+VZfPB8ETJL97lVvq20/xkdAaX4ylFR+NYQqhrdsSe15e9dVOvQtL6Ei8mMNdclc2Hu/Ys1qz9O7DiFEPtj7vWI+OUksJJfqz01S6rNMYD3gAQ/4murz26pt2iQYl3Gb6rUzSVa9Yt8328SXTZJhW67rHct+T2WeJGudwnOaHGFnxAt6tsahINn+gpTrYRkDzK4BGAuD2rFB9lpZa4c0J9/sAoMhSIThV/DegAh8F9PpPPZx57UDKPTDf/fvn5qdL4bM5Zsl+Jo4zFy+ZsnZ7zg4HSZEgP2BAJdhwDd80oPrrWUgOAVz+l0qf/P6Xl6fCmV8LEmGz2P6bH36cATt7n+59LXt53D6O3zGsax/Yhs7rd2hBAX357XrU/c9lVT+lsq3+uL5IAjrIdq/T9+pZD8ZSiq/GoKN4Su2pPa8vesqHfqWl1AR+bGGumQu7L1fsWa15+ldhxAiH+z9XjGfmqTRZRVISL2xej2DjrClWnZ79d0bKv6kev+e6rVNXEE2UVV97ybJwoQbZZ8YC9ep3rdJNfu+3rCRTbI1i2o16ytJtjHYGfGCHlEGa+2QluCbHNixAyHiLHP5Zgm+RrzBRA5Kh+SehLXM5WuWnP1uaJIM2ORIrj9K8fB8IwU5+5voB33A848pyLfKJpVfDWX2/9GIo+LGHoZA3/ISKiI/1lKXzMEqpjXrJ9VRQhSCvd8r5hOTWHhvE1b1l5VsEsp7uitU9f2g/ySrvjuRzML2XJ/Jt+rzk/GKJByWWzXbn0qeNcuVJNsY7Ix4QY8og7V2SEvwTfwSuKRExFDm8s0SfI10JcnsL+Qt/EV7+Ev3HPF8IzXeeeRAV+LV4v04AE9LYKoxfF+CzwHPL1JQUj0nfOgDnn9MQb5VNqn8aggbGnAOVdxfPQyBvuUlVER+rKEumZONJPZVRwlRCNX9bplPNonlJcmsYifJuD8v+WWFfXr7aM73xH+UUdXyQ0myzqTdytQ6hec0OcLOiBf0iDJYa4dUvinm9E3v+DkyNEnW5/tc8PwiNd555AB8ZuiTZPbpMfyAoGv73PD8IgVqU0WqNlW+VTap/GoINoav2JQwUO5dk5g3SXbOcy7fXXv9F3fQbXfevfv2l/5O/fnTn79ld+4L3lWv845rPnPis4jLGuqSuahu/c3UWaqjhCiHjT6VP059E2Slq7RGgJ0RL+gpCQ4cd/1yHb9u5/9CYfAup+nx1tohlW/2h0/7WHJ4Qm1O3/SOnyNjkmT87xQlyeLjnUcODE2S8Qkyu6yE5OycdRyP5Z3H2rF9MO97grpqDcnV8P+j1kIqf9uSb7ENRD+JvnKovkrBmv5PLAap/GoIVQi/mQHnQO15e9dVOvQtL6ESEybIPvTxM+73REmytKyhLpkLe+9XrFnteXrXIYTIhw0/lS8lVHGPE7Mz4gU9JREmyRDAhkkHjxyC3LV2SOWbZ4F//sQLnnlisJiDymFit+9g4haY0ze94+fI0CSZt36OzOlrhMf0zmfrDEmSsb31fqSC/eC7nH6YYpnT79bobyjfrn6U/c62a/SfIdNxTkmehW1q2F/k97/xzktP9A89lu4zpvK3NfqWR1d7dqi+IvYHcvAnlOWf/+X7On0R+wyPQ9/1fCNkS3VeKr8aQhXDW7ak9ry96yod+paXUInFMy65un56zArJMibOjj1J9thXX7m79Y67mi332/K7Y9zvwit2Z26+vdlyt3vrBz914vtj++b5vODNf1J/j/e/82c31E/CPeyi97TredcyZt+pk4NrqEvmwt77FWtWe57edQgh8sHe7xWSVKt1Cs9pcoSdES/oKYlw0CMkp8RDyFo7pPLNk3g+av0yx2TGXL5Zkq95g4FYFibJ6E8lPEEG5vI1S0l+J3zm9Ls1+Rvaru8+7zFuncM2ritJ5j053ZeuPt4hwv5feJ5b6h+m8rc1+VYXnt+wv+S1i0ze22T+oSQZ/YL7tvvjd9af8SMn21/j+Y1N5i5JKr8ago3hK7ak9ry96yod+paXUImJ9yTZsSSZ9z1A0u2uu7+6u+Diq9plHkxSvfyy605913ffOJ/wWEy82YQbtmPibMq+U7OGumQu7L1fsWa15+ldhxAiH+z9XiFJtVqn8JwmR9gZ8YKerTBlwIQBqx30ePNlb9j977/8mvY7HCMcBMGvQZ/wxPOzGDxea4c0B98EMfwT+7EDNIewA4ve91tiLt/MxdfEeObyNYv8Tszpd1vxN7Z1XUkyrhcmJQCTDtjHoWTD0HbZS3igr8h+Y7j/tZLK37biWyy78MdENkmG9yjzsFwPJclCfyFdfTEew2OL/bdUfjWUjf6PRnFjD0Ogb3kJlZiMSZKFT2KFQvKL+7CyT3nZfdiEVJ99h+eDz8QmvJg04zZT952StdQlc7Chac1URwlRCPZ+r5CkWq1TeE6TI+yMeEHPlrEBr/e9xQ60MCjuM4CSyxMWa+2Q5uqbYIh/Ei9J5i3DvpUkG0bOvib6MZevWeR3Ani+kYK1+FufKecOJcm85FhXf4x9uaHtLfHaWJz/9z35Cbv/+xO/154H9v/8n3z2iXPyWLptpg94/jGFtfjWMQ4lyY6V0aEkWZgw5XFC37FwnS0lWbtI5VdD2PD/aBT3Vw9DoG95CZWYjEmSedtMgckrPAHWd9+HEln4Dtvzlctj7DsVa6hL5mQjiX3VUUIUQnW/WySpVusUntPkCDsjXtCzRboCYAxmXPTy53cOlITBKgNgBsp6kmx+cvNNMNY/gR2g4X5+/Dn/W/1qB2I4sHjJr/6nU8fZGnP5Zo6+Jobj+UZqvPMQZeH5RQrWWs+F/S3SlSTr8yOmLg4lLTz6JMlskgPnxnac1/UH116++5FnPn3R5BihD3j+MYW1+lZIVx8MvmbLDb4SrnMoSQYfYFzw3g/++ql+mQf30ZWQ21LyLJVfDcHG8BWbEgbKvWsSZ+sWL6ESkzFJMq6Hp7ashiSWsD/Km9rw2L4PJbL4BFn4/2Rkyr5TsYa6ZC6qW38zdZbqKCHKYaNP5UspVVojwM6IF/RsDQS5x57u4i+Yw+BXSTIlyVIzxT8BBk0wcBPuwxvEC/15q8zpm97xRVl4fpEa7zxEWXh+kYK1tqlMSljCNu3YdIvsr6GdRftpvzuUrPjQn/9WvW/8P1RXOxouD5Nk+B7vL//dN5/4oYvtR7JtX7pNTtWmrtW3Qlimh5Jkdhl9688/8/4T5eclybCc/bSuHzzRD7q+B/DH8P/61k4qvxpCFcJvZsA5UHve3nWVDn3LS6iI/FhDXTIX9t6vWLPa8/Suo0Top6IsPF/IjQ0/lS8lVHGPE/Om94KenLGDFwyEuwY38JkDNL971dvqwRQ7KGP3u0XWWvGX6psg9L9SmdM3veOLsvD8IjXeeYhymLOO47G888gFJsm87+aASRD0EcGhBN0SpPK33H0LfoWyZEIVZQs/s+Ud+h2/K6Evl8qvhlDF8JYtqT1v77pKh77lJVREfqyhLpkLe+9XrFnteXrXUSL0099//D8QBaB6SSpdrVN4TpMjvOm9oEeUwVorfvmmmNM3veOLcpjT1wiP6Z2PKIM5/U7+JlL5m3yrbFL51RBsDF+xJbXn7V1X6dC3vITKEuB/w26+9c5T0yKKOKyhLpkLe+9XrFnteXrXUSL0Uy+hIvJD9ZJUulqn8JwmR3jTe0GPKIO1VvzyTTGXb8rXxFy+ZpHfiTn9Tv4mUvmbfKtsUvnVUDb6PxrFjT0Mgb7lJVSWgv/19fLLrnO/t/B/zd76wU/Vn8Nt8b9f/C7E/l8ZhP8H+7aL3l1v3yXvP8T432N9zndp1lKXzMGGpjVTHRVAP/USKiI/SqqX7P1eIUm1WqfwnCZHeNN7QY8og7VW/PJNMZdvytfEXL5mkd+JOf1O/iZS+Zt8q2xS+dUQNvw/GsX91cMQ6FteQmUuDiWyAL73klP87kMfP3Pi8zF5CTQkumySzEt4hcdigo7qSpJhu7vu/uoqno5bQ10yJxtJ7KuOCqCfegkVkR8l1UvV/W6RpFqtU3hOkyO86b2gR5TBWit++aaYyzfla2IuX7PI7wTwfCMF8jdBH/D8YwryrbJJ5VdDsDF8xaaEgXLvmsTZusVLqMzFoSkWu76zCSomrsIkFpeNeZLs2FNhSKqFxwqTZtDani5bQ10yF9Wtv5k6S3XUSeinXkJlaa7/tZfsvnrXnbvrXvG4E8ugj1964cH1wOfe95ZT64LrXvW9p9b/o+c+cHf37bfsbvrw+0+td9uNn9zd8N5L2+UhWO/2L/yPevvwWGujpHoJbPSpfCmlSmsEeNN7QY8og7VW/PJNMZdvytcE8HwjNd55iLLw/CIFqucEfcDzjynIt8omlV8NoQrhNzPgHKg9b++6Soe+5SVU5sRLhiERddudd+8edtF7TqwLLrv60/W6r3vnR04lqyzHkmRdT5K95QPX777wlTtOHNseK0ywHXoSDttZHTrf1KyhLpkLe+9XrFnteXrXUSL0Uy+hsjRe8ovJrD5JMvC+J91j9+WPXb279cZP7D7w1PvUy7wkmbecn//8P/7A7o6bPucmwHA+d37589W6T1SSbGVs+Kl8KaGKe5yYN70X9IgyWGvFL98Uc/qmd3xRFp5fpMY7D1EWnl+kQG2qSNWmyrfKJpVfDaGK4S1bUnve3nWVDn3LS6gsgU0+9XkKa2qSzCp8kszuG0k8L2k2RIcSaXOxhrpkLuy9X7FmtefpXUeJ0E+9hMrS8KkxKy+5dShJBrqSX3Z9LIPsE2N2PSTD7rrlSye2scu85N0aUb0kla7WKTynyRHe9F7QI8pgrRW/fFPM6Zve8UVZeH6RGu88RDnMWcfxWN55iDJI5W/yrbJJ5VdDsDF8xZbUnrd3XaVD3/ISKnOCJNStd9zV/vfY/S68ok5WQYeSZVOTZF1PkvGYWA7xvOz2FqzX9b9jnIZxDVMvrqEumQt771esWe15etdRIvRTL6GyNIemUbz7jtt2V13wTQfXI/jeru8lyTy85Br38wdPvteJp8uUJFsf9n6vkKRarVN4TpMjvOm9oEeUwVorfvmmmNM3veOLcpjT1wiP6Z2PKIM5/U7+JlL5m3yrbFL51VA2+j8axY09DIG+5SVUUmH/u2vI01V88ssmxcYmycKpHL0kGbZlcoxPjYXJM286SCb8rNbwFBlYS10yBxua1kx1VAD91EuoLE2MJJn33dgkGcD+bvurT+++8qnrTjx1piTZ+rD3e4Uk1WqdwnOaHOFNL4TnH0vinaMoE88/YsLjeIM/ogzm8rUQHrcLbxvgrWvxtgHeuhZvG+Cta/G2Ad66Fm8b4K1r8bYB3roWbxvgrWvxtgHeuhZvG9B3vZiExxTl4vnHFLxjiPLwfGMuNvw/GsX91cMQ6FteQkXkxxrqkjnZSGJfdVQA/dRLqCwNElKewkRU13o3ffj9J9YjU5JkAEm6cN9Kkq2P6n63SFKt1ik8pxFCCJEn7AB14W0DvHUt3jbAW9fibQO8dS3eNsBb1+JtA7x1Ld42wFvX4m0DvHUt3jbAW9fibQP6rieEEEKIdWJj+IpNCQPl3jWJs300L6Ei8qOkvnh162+mzlIddRL6qZdQEflRUr0ENvpUvpRSagSEEEIIIYQQQoj1U4XwmxlwDtSet3ddpcPBSS+hIvKjpMFoe+9XrFnteXrXUSL0Uy+hIvKjpHppw0/lSwmlx4mFEEIIIYQQQogNUMXwli2pPW/vukqHg5NeQkXkR0mD0fber1iz2vP0rqNE6KdeQkXkh+olqXS1TuE5jRBCCCGEEEIIIdaBjeErtqT2vL3rKh0OTnoJFZEfGoxepdrz9K6jROinXkLFA//HdcN7L20/4//Auv77y4L/94KG/GfXHzz5Xrvbz3y2/k+w9z3pHrsvf+zqevuu994+gD1Hnsch3X3HbburLvimen3+15inL//FNbs7bvpc8+mkbr3xE7szH7q8+XRWOA/Y8JCw7Qeeep/22obKnn+I6iWpdLVO4TmNEEIIIYQQQggh1sNG/0dDYw8H4OCkl1AR+VHSYPSGpjVTHRVAP/USKkhSIQlkE1DHkmRIKt11y5fqxBY+h4mermQW9vvVu+5stwvpSobh+J5wTt53Z/7oXQeTSDj/O7/8+fp7nJO9NiTY8Jl2sd/hWExucZn9zq5rbWgTgfiMY9j94Lq/9OcfOGWXcJ8A5/6VT/2Zew6kpHrJ3u8VklSrdQrPaYQQQgghhBBCCLEONvw/GvqrhwNwcNJLqIj8KGkwGmwksa86KoB+6iVUQJj0OpQkC5NqTCpxXeA9HXXoKTCAbf7qA7+x+8qnrqvX5/GZBLPnE54f1+N54JzCJJn93ibJ7HuuewxvmzChNSRJRrDcJhHDc8bTbuF1e5RUL1X3u0WSarVO4TmNEEIIIYQQQggh1oGN4Ss2JQyUe9cklCQrDQ1Gr1Oqo05CP/USKsQmlrqSZEx+hckgq0NJHOzHCvuxx7JPkiGxdNtffao+H3tuYULP7vtLH72qfiLrs+98fXOEw7KJqq7EFbHn5n3vJckO6dCxSLjPvpRUL4GNPpUvpZQaASGEEEIIIYQQYv1UIfxmBpwDteftXVfpcHDSS6iI/ChpMNre+xVrVnue3nWUCP3US6hYmLDqSpJhuZe0CZNfx2T3fSiZZBNJWA9JMCSqwu1xTjah5CW8jiWcjiXJjnFo/+GTZH05ds5dlFQvbfipfCmh9DixEEIIIYQQQgixAaoY3rIlteftXVfpcHBSlIXnC7lh7/2KNas9T+86SoR+6iVUPLqSZHadLpBs6vrfMe9pLC6DeEwcL0xYcbrBrv8a4zlyf9hXeB3EPplml015ugvLqfB7JcnSYe/3Ckmq1TqF5zRCCCGEEEIIIYRYBzaGr9iS2vP2rksIkSf23q9Ys9rz9K6jRA4lyQ49yXVMSCp99Bf+ff3eS14xsWXlJa3sevie/3uG90hecTnWZRIsPB6fKOMrl3XJS5L11aHElU36HdOxpJySZMex93uFJNVqncJzGiGEEEIIIYQQQqyHjf6PhsYehCiQDU1rpjoq4FCSTOSHkmRS6WqdwnMaIYQQQgghhBBCrIMN/4+G/upBiELZSGJfdVSAkmRloSSZVLpCx6g73XQavPfWsWh9fz2i9f31iNb31yNa31+PaH1/PaL1/fWI1vfXI1rfX49ofX89ovX99YjW99cjWt9fj2h9fz1S2PqbEgbKeW1CiDKobv3N1Fmqo05SWpIMUyeOmaYwF0pKkoGNPpUvJRacwjZa1knC7zy0/mG0/mG0/mG0/mG0/mG0/mG0/mG0/mG0/mG0/mG0/mG0/mG0/mFKWn9Las/bG6wSQuSJvfcr1qz2PL3rKJFSkmT2v8zs8tKSZiUlyfAjpI0+lS9JkiRJkiRJkiRJkiRtVBqAFqJA7L1fsWa15+ldR4nkniT7o+c+cHf37becSo5Z3veke+y+/LGri0iWlZQks/d7hSRJkiRJkiRJkiRJkiQlVzsg5Q1YCSHyxN77FWtWe57edZRIrkkyJsc8ffWuO3fXveJxp7bpetosJ5QkkyRJkiRJkiRJkiRJkqR0agekvAErIUSebGhaM9VRAbkmyYSPkmSSJEmSJEmSJEmSJEmSlE4vxEA5Bsy9ASshRL7cdNNNW/jfH9VRAbknya7/tZf0mkax73pbR0kySZIkSZIkSZIkSZIkSUooDJR7g1Xi7GC0KAvPF3KjuvU3MxitOuok9FMvoZIDSpKdpKR6CWwkeS9JkiRJkiRJkiRJkiRlonag3BusKh0OTt73WW8XBVDSYLS99yvWrPY8vesoEfqpl1DJASXJTlJSvbShaWAlSZIkSZIkSZIkSZKkTKQB6ANwcNJLqIj8KGkw2t77FWtWe57edZQI/dRLqIj8UL0kSZIkSZIkSZIkSZIkSenUDkh5A1alw8FJL6Ei8kOD0atUe57edZQI/dRLqIj8UL0kSZIkSZIkSZIkSZIkSenUDkh5A1alw8FJL6Ei8qOkwegNTWumOiqAfuolVER+lFQv2fu9QpIkSZIkSZIkSZIkSZKS64UYKMeAuTdgVTocnPQSKiI/ShqMBjfddNMW/vdHdVQA/dRLqIj8KKlequ53JckkSZIkSZIkSZIkSZKkeYWBcm+wSihJVhoajF6nVEedhH4qysLzhRzZSPJekiRJkiRJkiRJkiRJykTtQLk3WFU6HJz0EioiP0oajLb3fsWa1Z6ndx1CiHzY0DSwkiRJkiRJkiRJkiRJUibSAPQBYiXJ3nHNZ3af/vwtu3Nf8C73+9Tg+LfdeffuYRe9x/1+Kuc85/Ldtdd/cdQ1Lm0bi5Jkq1R7nt51CCHywd7vFZIkSZIkSZIkSZIkSZKUXO2AlDdgVTpKkvVDSbLtYe/9ijWrPU/vOoQQ+WDv9wpJkiRJkiRJkiRJkiRJSq52QMobsCqdPkmyZ1xy9Q56+WXXtcvud+EVuzM337576wc/VX9GIgiyiarHvvrK3a133LX70MfPtNt1wf3ZdX/2Nz98cF9Y9qK3XFu/947P8+Y5chvsh8u843rbcf9MdnUlzbjc7i9MkvU5B2zzuZtu2330s19qt+O+7TWG+z5GSUmyDU1rpjpKiEKw93uFJEmSJEmSJEmSJEmSJCXXCzFQjgFzb8CqdPokyUCYjMHnQ4kggoTTXXd/dXfBxVedWB7CRJH3NFiYkPPA8b1t7XmFySnC5UgCdq0TJsXGJsn6nAO38a6H38Gmf3nmlhPH6UNJSTJw0003beF/f1RHCVEI1f2uJJkkSZIkSZIkSZIkSZI0rzBQ7g1Wif5JMpuoQuIrTODYRJDdrm+SzMKEEbfrSixZupJKXoLKPhEX0rVO7CTZoXMAXfYEr3vnR+qn2iAlybqpbv3NDEarjhKiHDaSvJckSZIkSZIkSZIkSZIyUTtQ7g1WlU7fJBlAgufmW++sn2AKkzxI6kA2scNpC48lhAD2/cYrP9F+DpNr3JdNCmEbO93isSQZPnM/NuGG/dhpDZmE4nkz8QUd2pddrytJ5m0HwnPwkmR9E3WHUJJslWrP07sOIUQ+bGgaWEmSJEmSJEmSJEmSJCkTaQD6AEOSZEzKHHqiS6wbJclWqfY8vesQQuSDvd8rJEmSJEmSJEmSJEmSJCm52gEpb8CqdIYkyfB009Dp/cS6UJJslWrP07sOIUQ+2Pu9QpIkSZIkSZIkSZIkSZKSqx2Q8gasSmdIkkxsn5KSZBua1kx1lBCFYO/3CkmSJEmSJEmSJEmSJElKrhdioBwD5t6AVemsLUl2vwuv2N14023tf5HFAk/BdU0Tyf9am3JM7z/E1khJSTJw0003beF/f1RHCVEI1f2uJJkkSZIkSZIkSZIkSZI0rzBQ7g1WieWSZPx/s6G67c67dw+76D11YusLX7mjfo/9Ibl25ubbdy+/7LpTxwJdSTKeB7Z7xiVXN0c5q7vu/urB5BmP20dr+C+3kpJk1a2/mcFo1VFClMNGkveSJEmSJEmSJEmSJElSJmoHyr3BqtJZKkk2lRhJMibIup4AO/RUW7gtzufWO+468Z9tTLoxsWe3XwolyVap9jy96xBC5MOGpoGVZpZtsEKss+C9t45F6x9G6x9G6x9G6x9G6x9G6x9G6x9G6x9G6x9G6x9G6x9G6x9G6x8m9/W3pPa8vQGr0lljkgzJpWOJpUNJMm/6xDBJZp9kG5MkC3ndOz9S78vTmqZhVJJslWrP07uOEqGfirLwfCE37P1eIUmtQudosXPx4r23jkXr++sRre+vR7S+vx7R+v56ROv76xGt769HtL6/HtH6/npE6/vrEa3vr0e0vr8e0fr+ekTr++uRAtbfktrz5jWJs3Bw0kuozIGd7pDLpibJvO/DJNllV3+6Tn4huRUjSQa8a1kbGoxepdrz9K6jROinv//4fyAKQPWSJP01/TmlEEIIIYQQQgixdqr4fasDO+15e9dVOhyc9BIqc4CEWPi/XzGSZCFd/0kWM0mG8+7aF46/huRZSYPRGGvcyLRmqqMC6KdeQkXkR0n1kr3fKyTprPTnlEIIIYQQQgghxLqpwvetDuzox7kH4OCkl1BJjU0qIYkEIZEUO0nGJ7xSJMl43EPn603/uBQlDUYDjDk29cCapToqgH7qJVREfpRUL1X3+1b7UlJitY7hOY4QQgghhBBCCCHWwUYGnE9JP87thoOTXkIlJV1Pds3NoSRZjmgwep1SHXUS+qmXUBH5UVK9BLbal5LSqm2wPKcRQgghhBBCCCHE8mxo6rJQGnc4AAcnvYSKyI+SBqPtvV+xZrXn6V1HidBPvYSKyI+S6qUN96WkxFJDIIQQQgghhBBCrBwbv1dsSe15e9dVOhyc9BIqIj9KGoy2937FmtWep3cdJUI/9RIqIj9UL0mScQzPcYQQQgghhBBCCLE8Nn6v2JLa8/auq3Q4OOklVER+aDB6lWrP07uOEqGfegkVkR+qlyRJf04phBBCCCGEEEKsnip+3+rATnve3nWVDgcnvYSKyI+SBqM3NK2Z6qgA+qmXUBH5UVK9ZO/3Ckk6K/05pRBCCCGEEEIIsW6q8H2rAzv6ce4BODjpJVREfpQ0GA0w5tjUA2uW6qgA+qmXUBH5UVK9VN3vW+1LSYnVOobnOEIIIYQQQgghhFgHGxlwPiX9OLcbDk56CRWRHxqMXqdUR52EfuolVNbA5973lt2tN35i94Gn3sf9vg8x9pELJdVLYKt9KSmt2gbLcxohhBBCCCGEEEIsz4amLgulcYcDcHDSS6iI/ChpMNre+xVrVnue3nWUCP3US6isASXJ4lJSvbThvpSUWGoIhBBCCCGEEEKIlWPj94otqT1v77pKh4OTXkJF5EdJg9H23q9Ys9rz9K6jROinXkIlNUhe3X3HbburLvimU8uZ1OL7P/2ZR+/uvv2WHXXTh99/YptDDNnHHzz5Xrs7bvpcs8ZeH7/0whPr9N1fuK8b3nvpie+XQPWSJBnH8BxHCCGEEEIIIYQQy2Pj94otqT1v77pKh4OTXkJF5IcGo1ep9jy96ygR+qmXUEkNk0g2eXTdq75399W77txd94rH1Z+RkLKfyfW/9hI3webRZx/ve9I9dl/+2NVu4gzb22P12d8fPfeBdQItTLAtjeolSdKfUwohhBBCCCGEEKunit+3OrDTnrd3XaXDwUkvoSLyo6TB6A1Na6Y6KoB+6iVU5sAmxZg0s4klPrUVTpWI7SCsywSXVZjUOraPQ0ktux4+99kfPnOfkJdUW4KS6iV7v1dI0lnpzymFEEIIIYQQ4jAcQBBl4/nGXFTh+1YHdvTj3AN4fibyx/OFHMGYY1MPrFmqowLop15CZS7wBBaSTmc+dPmpJ7m6ntrqSlR59NlHjCfJDp0TE2ZLT7lYUr1U3e9b7UtJidU6huc4ucGbXgjPP5bEO0dRHp5vxMY7rigPzzdS4p2DKBPPP2LjHVeUiecfU+B+3/THrxIFksqvhrKRAedT0o9zhSiP6ta3rFqqo07CNs9LqMwFE1Q2EUWYeProL/z7+oksynviq4sh+7BPf0GHkmHH9of1KD1Jtgxb7UtJadU2WJ7T5AZvei/oEWWw1opfvlk2c/qlfK1s5vQ1i/xOzOl78jeRyt/kW2WTyq+GsKGpy0IVNe4ghNhj7/2KNas9T+86SoRtnpdQmQskpu665UurSCL14dATY2tnDX2cudhwX0pKrKIaAt70XtAjymCtFb98s2zm9Ev5WtnM6WsW+Z2Y0/fkbyKVv8m3yiaVXw3Bxu8VW1J73t51CSHyxN77FWtWe57edZQI2zwvoZIaTLMIbS3hpCTZNrD3e4UktWodw3Oc3OBN7wU9ogzWWvHLN8tmTr+Ur5XNnL5mkd+JOX1P/iZS+Zt8q2xS+dUQbPxesSW15+1dlxAiT+y9X7FmtefpXUeJsM3zEioiP9bQx5kLe79XSFKrov6ckje9F/SIMlhrxS/fLJs5/VK+VjZz+ppFfifm9D35m0jlb/KtsknlV0Oo4vetDuy05+1dlxAiTzY0rZnqqAC2eV5CJRVrfBLrD558r90dN32ufrLNk/efYn/ywoed+Gzhf5t95vJfWNV1rqGPMxf2fq+QpLMq6c8pedN7QY8og7VW/PLNspnTL+VrZTOnr1nkd2JO35O/iVT+Jt8qm1R+NYQqfN/qwE5RP84VQpwFY45NPbBmqY4KYJvnJVRSsdYk2e1nPjv5f9GYbLvhvZee+u59T7rH7ssfu3p304fff+q7uVhDH2cuqvt9q30pKbFax/AcJzd403tBjyiDtVb88s2ymdMv5WtlM6evWeR3Yk7fk7+JVP4m3yqbVH41lI0MOJ9SST/OFULsqW59y6qlOuokbPO8hEoqkCSD7r7jtt1VF3xTvYxPXtkE0nWv+t56PZtw8pb12R+TV3b/n3jjf2jXn5ok884LMDHmyUukpWYtfZy52GpfSkqrtsHynCY3eNN7QY8og7VW/PLNspnTL+VrZTOnr1nkd2JO35O/iVT+tmXf+pVrXrn7tz/yhN353/9du0v/8GXuOkOIvb8leONVr9g9+rzv2D37Zf/O/T4klV8NYUNTl4UqatxBCLHH3vsVa1Z7nt51lAjbPC+hkoquJ8mQaOK0hkxyeYkkux4+99kfk2Q2kWaJ9STZEHB+cz9Rt4Y+zlxsuC8lJVZRDQFvei/oEWWw1opfvlk2c/qlfK1s5vQ1i/xOzOl78jeRyt/kW2fJIUn2+nf/9O6Rj3rEppJkNn6v2JLa8/auSwiRJ/ber1iz2vP0rqNE2OZ5CZVULJEks8u5b/sdlt355c/XCTRs15VMA10Jtet/7SXNM2LHtdSUi2vo48yFvd8rJKlV6xie4+QGb3ov6MmdH/uppx4NYnMIdo+x1op/Tt/s4wt96foFbtfyscfGdo945MN3l/z+i+vPY311rffBnH45p6+Vzhr9bU5fs8jvxJy+t3V/G/p0izhNKn875lssux/40e9tl/3MJT/e9l9e8+vPP1GuXpLm2DrHjtFF2N50tT9cbvePc3roQx964rzQxmGZ3b7veuEyHhPLAK4H63n26WMP7t/2Hb1zU5JsVrXn7V1XqdCnRFl4vpAr9t6vWLPa8/Suo0Tor15CJRWcHtEmtpCYgj5+6YXtelxmE2Xeen32hyTYZy7/hXYbfG+TZEhwMXGF78Ymyfokv/qul4KS6id7v1dIUqui/pySN70X9OROn8HaElhrxT+nb8b0ha7Bha7lY47tDdaMpc/xuwaNUjKnX87pa6Wzxnp3Tl+zyO/EnL63dX8bOnAvTpPK3475FhM2NjnTBde1yaI+6ww5hiXs33T1d8J+V5c/htv3XQ/L0D6G58/tmSAjti3tOka4rbd/Lrfn0bW/LlL51RCq+H2rAzvteXvXVSr0qfs+6+2iANZQh8zNhqY1Ux0VQH/1EipboetJsr4gKeYl2A7Je0JNT5KtC3u/V0jSWZX055S86b2gZ+swyLOJBCx7+a88p36PoDD8RWW4TVewnBNrrfjn9M0+vgD6/NrZW3Zo+bHBCe/XwOFgjV02dF/h8fv+4jk1c/plTF+jza2NsQz1Tld94pUnbH7eEx69+76nn39i3a7lfcs69PNDvyL3roHr2wE7HsvuowvvHMLjHat3j30/lDl9zRLT79bKIV/Ce8//vGW5Mqfvbd3f6EuhX3TVifAjr17zlnX5Z7iNV69uiVT+NsS3aNOHPfzbdj932Qs62w+UK+v4PuvY5eEx7HchYXvSt53mMcLkVbh93/WwDNcTJrG6trfX3rVOiLd/Lrfnwf2F9u4ilV8NoQrftzqwU9SPc/tCn/ISKiI/1lCHLAHGHJt6YM1SHRVAf/USKlthapKsJEqqn6r7fat9KSmxWsfwHCc3eNN7Qc+W6TNo2xVcY2CFgXVXsJwTa6345/TNPr5glwP6GAZz+wwudC33Bjq6tuUASDhYY5cN3Vef4y9xH8zpl7F87Vi902VHrzxRLl2DWV2DaH3K+tgA2Zi6E5/7DhqH25K+9W7XtU5hTl+zxPK7tXLMlw6V5aG6Nyfm9L2t+1uXv3TVaxavvR7rn2G9uiVS+dsx34LNnvfaC9rP9v5mOYTtn1dWh9Y5dAwu8/DaG2xrE/VcB8vsObzo9T9aLwv7Zva8hqzn+XKXv4VtaXjOANva5HHXvRLuy7P3IVL51VA2MuB8SiX9OLcv9CkvoSLyYy11yJxUt75l1VIddRL6q5dQEflRWv201b6UlFZtg+U5TW7wpveCni3DoLJr8AOEQSGxgfWhwdpcWGvFP6dv9vGFrgG1cNsu3+tabrfvGgwJoV/aAYzQV/vuq8/xl7gP5vTLWL7WVcaky45eeXb5pLd8SFkfGyA7dg3A3gu4R44NUFu6rqtPvYuBxj6DnkOZ09cssfxurRzzpUPfW38Iv8uJOX1v6/7W5S9endKnve7rn8fq1S2Ryt+27Fte+zsHSx03Ban8aggbmrosVFHjDn2hT3kJFZEfa6hD5sbe+xVrVnue3nWUCP3VS6iI/CipftpwX0pKrKIaAt70XtCzdTDIhl9V2gAUgx7hdIt2cIXbcFCka7A2J9Za8c/pm318oc8vmbvWO7Q8HODjce3AHfzW/hrYG1zxfLXPvsLj9/3Fc2rm9MuYvnas3gnLxNo39C3P3l3L+5Z1n1+RH7sGfn7UYx65e9yTv2vQIDKOhX17x+uqdz3fjsmcvmaJ6XdrZej9YJcN8autMqfvbd3f+rahXeseqnuG+GdYr26JVP62Zd9CGadOyMP3rA/RP1O1aXOTyq+GYOP3ii2pPW/vukqFPuUlVER+rKEOmRt771esWe15etdRIvRXL6Ei8qOk+sne7xWS1Kp1DM9xcoM3vRf0iDJYa8Uv3yybOf1SvjYcJq7swN9WmdPXLPI7Mafvyd9EKn+Tb5VNKr8ago3fK7ak9ry96yoV+pSXUBH5sYY6ZG7svV+xZrXn6V1HidBfvYSKyI+S6id7v1dIUqui/pySN70X9IgyWGvFL98smzn9Ur42HPwyPnyiY6vM6WsW+Z2Y0/fkbyKVv8m3DuM97RiCJ9r6PFk2pe3FU5B4gq3v9Mh9SeVXQ6ji960O7LTn7V1XqdCnvISKyI811CFzs6FpzVRHBdBfvYSKyI+S6id7v1dI0lmV9OeUvOm9oEeUwVorfvlm2czpl/K1spnT1yzyOzGn78nfRCp/y9W3+MS0nfrVWxZOp8hlTHoxscVtn/WSp+3+9/f89Int5kiSAUz1+F3nf2fU6SVT+dUQqvB9qwM7Rf04ty/0KS+hIvJjDXXIEmDMsakH1izVUQH0Vy+hIvKjpPqput/X0Zd6yEMe8soHP/jBbQVZvX9KteytzcdOVeuci3nyH/SgB53fLDqqBzzgAV9Tbfc2bDeEapubzz333H/c7OaE7n//+9+n+v5MxTPPOeecv9Ms3rJax/AcJzd403tBzxwMCfZsMBnSJ7jEfy2t6ckHnPMazmetFf/SvhkS+hj8qc+ABjg0NR39MsXARRdr8b1DzOmXsXztx1/8tFnKry9hnTmkDsS2ff07JXP46py+Zonld1NA3fSDz3xiNL/lf+3YAeRUTy8cYgt1HJjT99bgbwA+97RnPanTHw719foy5/+GraWu7EMqfxvrW6wvGG+G5c7/SCXePX1snWPHOITXZvZNklnwvXfudruwj9m1z659HWrfw33Z/uah/mlfUvnVUDYy4HxKJf04ty/0KS+hIvJjLXXInFS3vmXVUh11Evqrl1AR+VFa/TR7X+oBD3jA337wgx/8SZvYesiRJFmThPpstc234HOY6OpKkmG/FbdzO6rZ/v8Il3vJuebY7/KSX7wWe+4UzzHc30bUNlie0+QGb3ov6JmDrmDPA+tiYOV5r73g1HdhcOlhA0gvyLUcCjYtfdezMGAPA9KlBvXWWvEv7ZsWO6CAzygr1sFdWH88NAgR+i7WfeWbn3tqvZAcfO8Qc/plTF/rU6dhAPeRj3rEqTqL5RPWS131G3zgUL0XDoz18Rmeg+fTIX0H1dbuq3P6miWm301lSFt8CM+HxybJcq/jwJy+tyZ/C9tElI9Xx5BHPPLhrf+E/Tf610svfba7rYX1pa0bWb/+0vtecsp3ieeLKerK1KTytzG+xXawqx8ewnI/1OaF6ww9hiX0Se4z9D8QtrUhXfWr54e8tq59du0r9FG7v2Pn11Vv9iWVXw1hQ1OXhSpq3KEv9CkvoSLyYw11yNzYe79izWrP07uOEqG/egkVkR8l1U+L9aXCpFf1vjNJFibVquXnhomnMGkGuhJnVs2+2iSaPS6fDvMSYNgOxwi/886DePtZsYpqCHjTe0FPLBC4eX7RBwRsCHLxi+ALnv+U+jP2Fwa8YXDpYQPIMMgNg+GHPfzbTv2yHuuEy8OglAH5Dz/3yafOhd8dCkJ5Xl4AnIq1Vvxz+GYfwjKBH/A9yhQDC8cGf7mPsOy53Pqe5x+5+t4h5vTLlL4Gu/7nd76oHUw9VE95CQbQVb/BB+zy8HM4MBb6DL7n+ix/fqbP2PVZT9oB65At+uqcvmZJ6XdzgfLqUwda4OfhU7Ml1nFgTt9bs7911XEg9DGWI+vJMT5o60Ye2ybJeAy2y16SbmpduQSp/G2sb9F2sFV4/9OG1o62zeq7TtcxwjK2++B+uR/btnrttNfW2v16YHvPD3ne+M7b7hD0wfAcw/PzmJIoS+VXQ7Dxe8WW1J63d12lQp/yEioiP9ZQh8yNvfcr1qz2PL3rKBH6qygLzxdyw97vFfMKiaaKegrD6tVNknlPY2Fd2xk+lHzCfuy6dj+eeNzmY1RV+8X1Xr2R6Rhbx/AcJzd403tBT2oYkNmg0APBJoK2PkHeIbCfp/xvj6+DYvwfQBgch3QNbtiBO74PB20sNkAPCQcFyJRgdShrrfiX9E3Ccn3CU8+ryxmDGLZMuso2LFfuxytP7ANlTV+DT33PE//X3X++4idPrZub7x1iTr+M4Wt2QKtrYMqWn/c5HNgi4eAZwfZ2OX2B+zx0fOzz0AAu1rX+YjlWZwN7LL5fq6/O6WuWGH43Feu3oR0P1Vsex9ro0F89tuQ3MZjT99bgb8CrK7vqOBC2kfSHn37DMzv94hjWV3lsJsmsD1m6zg9+6q0P+tSVc5LK32L4Fu9llAvf27LlfUub9lmHy4k9RvhdiPVJW3d5beehuu9QW+v54TF/wTasI7sI1zl0fl39jiGk8qsh2Pi9Yktqz9u7rlKhT3kJlS3yjms+s4M+/flbdue+4F27c55z+e7a679YL4Neftl19XqPffWVu1vvuGv31g9+qt2Wyz708TMnlr3oLde2n7fOGuqQubH3fsWa1Z6ndx1CiHyw93vF/ELCC0kuvjaL22QVluO1WdwqTH4dw+77kHjc5uNBDTmHvvtckYr6c0p2SrygJzUM4uyg2CFskBcOmoTYfXI7u8wOuoWBaTggd2gA5Bh9rmtp1toxXdI3Cf9jqstHj/mh9z0GJOxTFPS3n3r9j50aqMjd9w4xp1/G8rWw7ggHpkI/Cj+HvkG6Bs+wfbjcDnh1HR9++ajHPNJNIFjC6znEln11Tl+zxPK7GIS+wrI/5L8h4T5CPH/dst/EYE7fW5O/hXUL6jivjC1cF3XceU949O7i33txvQ98hyTEDz37Sae2CaH/WV9l/cokWZh88+6FkCF15ZKk8rexvoVyYNmESW0mtPg97I/1bR3SZ51DxzhE6JPY5yvf/BPuPqw/WbCPvsfsaudDcKyhdd+hbVAHH/rBTB9S+dUQqvh92YGd8WrP27uuUqFPeQmVLYIk2W133r172EXvaZcx+cUEmV2XybT7XXjF7szNt59ImuXIGuqQudnQFLGqo4QoBHu/VywnJMNsImtIsqpa78SUiVZ8Eq3P1IvQ0CRZn3WH7HNNKunPKdkp8YKeVHAwwQZsxwbfgA1CjyUnvP3ZZeGAhg20hwSLfc6b9F13yD5jsNaO6RK+2UVXmYQDNBb4luenYSKE+7B+h8GSY36Yg+8dYk6/jOVrYb0SDpyF9g0/d5V71+AZtj80qHbs+Mc4NGiHffcdEB5y3L7rDr2WQ8zpa5ZYfhcD6yvw4x985hNPDex6dRXXh9979aBHn4FgsHa/icGcvrcmfwvrykN1TbhumCSz9ZCtQ7nPn7/8hfWU3Xbf1t+5np1uke30a6vvcAxbj3rEqitTk8rf1uRbqUDdcaiMQx/BsmN1DfzG1o19/KTPfucmlV8NoQrf1zGwM1xF/Ti3L/QpL6GyRcYmybwny3JkDXXIEmDMsakH1izVUUIUQnW/z9+XekgwXeIQqm2vrnhY876eqrHZbS3+j5jdxibfjmlokswe5xB997kitY7hOU5usFPiBT2x4UBHV5DJJyC6gj8bhHrJB4s3EGaX2UEXDvzhvH75Ay+tl/f95eeQAbe+6w7ZZwzW2jGd0zeP0VUmx/yQvhXWi/Cvpz/3+08MNnNdTgV6bFAuB987xJx+GcvXWIYsu3DgDPbllK/0BQ6KcVtvkKxrAPZYeXnHP1a+rIcPJWlxrn2eRCND/KrvukP2eYw5fc0Sy++mQt+DPdk2Hit/m3QIkxiHOJRMCFm738RgTt9bi7+BsK485BfHkmTYxxt+72fqp3ys39p9sl7DPux7u55NkmE56k/U0V33Qoq6MjWp/G1NviXmJ5VfDWUjA86nVNKPc/tCn/ISKltkbJIMn59xydX1lIyabjEvqlvfsmqpjhKiHLbal5LSqm2wPKfJDXZKvKAnFhhoGDLFCcCgBQYn7GDWsSQZBzTCweeU5DCIt9aO6Ry+2ZeuMvH8cC5y8L1DzOmXMXwN9Y+tc8L66BBrsXkq1u6rc/qaJYbfTQVtrfVbtr19oP2VJBvPnL63Bn8DYV2JMvH8y+NY2TFxxfXtjwQIjoflTNRxv3bb8Dj8rq/vrpVU/rYW3xLLkMqvhrChqctCFTXu0Bf6lJdQEfmxhjpkbuy9X7FmtefpXYcQIh823JeSEquohoCdEi/oEWWw1o6pfLNs5vRL+VrZzOlrFvmdmNP35G8ilb/Jt8omlV8NwcbvFVtSe97edZUKfcpLqIj8WEMdMjf23q9Ys9rz9K5DCJEP9n6vkKRWrWN4jpMb7JR4QY8og7V2TOWbZTOnX8rXymZOX7PI78Scvid/E6n8Tb5VNqn8agg2fq/Yktrz9q6rVOhTXkJF5Mca6pC5sfd+xZrVnqd3HUKIfLD3e4UktSrqzynZKfGCHlEGa+2YyjfLZk6/lK+VzZy+ZpHfiTl9T/4mUvmbfKtsUvnVEKr4fasDO+15e9dVKvQpL6GyNc55zuW7a6//4u6tH/yU+31f8F9l9n/JhoD/MPvCV+448Z9oa2INdcjcbGhaM9VRQhSCvd8rJOmsSvpzSnZKvKBHlMFaO6byzbKZ0y/la2Uzp69Z5HdiTt+Tv4lU/ibfKptUfjWEKnzf6sBOUT/O7Qt9ykuopAQJrZ+7/M93EJJa+HzZ1Z/effrzt+zOfcG76nVe986PtMkqJJ9uveOu3Qc++le7p/znP2j3g4RWn6TYMy65+sS+DzElSQbud+EVuxtvum13wcVXud8vyRrqkCXAmGNTD6xZqqOEKITqft9qX0pKrNYxPMfJDXZKvKBHlMFaO6byzbKZ0y/la2Uzp69Z5HdiTt+Tv4lU/ibfKptUfjWUjQw4n1JJP87tC33KS6gsgX0SyybJupiSJOvatitJduh8wn3ZRFmsJ9xisJY6ZE6qW9+yaqmOEqIcttqXktKqbbA8p8kNdkq8oEeUwVo7pvLNspnTL+VrZTOnr1nkd2JO35O/iVT+Jt8qm1R+NYQNTV0Wqqhxh77Qp7yESmqQSDpz8+114omJpGO67c67T0xluGSSzO7z2HnwWpdOlK2hDpkbe+9XrFnteXrXIYTIhw33paTEKqohYKfEC3pEGay1YyrfLJs5/VK+VjZz+ppFfifm9D35m0jlb/KtsknlV0Ow8XvFltSet3ddpUKf8hIqqWHi6OWXXbdYkmyomCSz5859HTuPNSTK1lCHzI299yvWrPY8vesQQuSDvd8rJKlV6xie4+QGOyVe0CPKYK0dU/lm2czpl/K1spnT1yzyOzGn78nfRCp/k2+VTSq/GoKN3yu2pPa8vesqFfqUl1BJDZ7MYuJqTJKMT3wh+cSpDb/z5b+z+6Xf+YtTyTSuz6TWIbhf7zsSrnMoSRYm1JZkDXXI3Nh7v2LNas/Tuw4hRD7Y+71CkloV9eeU7JQI4fnHknjnKMrD843YeMcV5eH5Rkq8cxBl4vlHbLzjijLx/GMK3jFEeXi+MRdV/L7VgZ32vL3rKhX6lJdQSUmYOGKS7FAiCU+DIfn17S/9nXrdrqe6LOF3+M+zj372SyeeKAvpkyQLObQNkoFe0m4J1lCHzM2GpjVTHSVEIdj7vUKSzkp/TimEEEIIIYQQQqybKnzf6sBOUT/O7ctSSbI1MyZJthVKTJIBjDk29cCapTpKiEKo7vet9qWkxGodw3McIYQQQgghhBBCrIONDDifkn6cexolycqixCRZdetbVi3VUSehv4qy8HwhR7bal5LSqm2wPKcRQgghhBBCCCHE8mxo6rJQGndw4KCkl1AR+VHaIDSw937FmtWep3cdJUJ//f3H/wNRACXVTxvuS0mJpYZACCGEEEIIIYRYOTZ+r9iS2vP2rqtUOCjpJVREfpQ0CE3svV+xZrXn6V1HidBfvYSKyI+S6id7v1dIUqvWMTzHEUIIIYQQQgghxPLY+L1iS2rP27uuUuGgpJdQEflR0iA0sfd+xZrVnqd3HSVCf/USKiI/Sqqf7P1eIUmt9OeUQgghhBBCCCHEyqni960O7LTn7V1XqXBQ0kuoiPwoaRCabGhaM9VRAfRXL6Ei8qOk+sne7xWSdFb6c0ohhBBCCCGEEGLdVOH7Vgd29ONcBw5KegkVkR8lDUJbMObY1ANrluqoAPqrl1AR+VFS/VTd71vtS0mJ1TqG5zhCCCGEEEIIIYRYBxsZcD4l/Tj3NByU9BIqIj9KGoQm1a1vWbVUR52E/uolVER+lFY/bbUvJaVV22B5TiOESM97q/tPCOD5hxBCCCGEEGBDU5eF0riDAwclvYSKyI/SBqGBvfcr1qz2PL3rKBH6q5dQEflRUv204b6UlFhFNQS86YXw/GMpmCC59IMvE4VCH/D8Izbe/SDKw/ONlHjnIMrE84/YeMcVZeL5hxBbxsbvFVtSe97edZWKV2+J/PF8IVfsvV+xZrXn6V1HidBfvYSKyI+S6id7v1dIUqvWMTzHyQ3e9G/641eJQlljxa8kmVgiSebdHyJ/lqoD5XdiTt+Tv4k5/U2IObHxe8WW1J63d11CiDyx937FmtWep3cdJcK+lJdQWYr3Pekeuy9/7OoddPcdt+2uuuCb3PViwmPeeuMndh946n3cdXKgpL6zvd8rJKlVUX9OyZveC6ZFGayx4leSTChJJuZiqTpQfifm9D35m5jT34SYkyp+3+rATnve3nUJIfJkQ9OaqY4KYF/KS6gsAZNVN334/e73Mfij5z5wd/ftt+xueO+l7vc5U1Lf2d7vFZJ0ViX9OSVvei+YFmWwxopfSTKRY5LsRa//0d0jHvnw3SW//2L3e7EMS9WBc/mdWC9z+p78Tczpb0LMSRW+b3Vgp6gf5wohzoIxx6YeWLNURwWwL+UlVObmuld9b/30mJVNll3/ay9plu4VJtI+97631E+eXfOsf7W746bPNWudXA/rhEKyrOtJshjHXBMl9Z2r+32rfSkpsVrH8BwnN3jTe8G0KIM1VvylJskuvvJndl//DX9/90//2b12b/jdi9x1SkFJMjEXS9WBc/mdWC9z+p78Tczpb0LMzUYGnE+ppB/nCiH2VLe+ZdVSHXUS9qW8hMoS9H2SzEtqIWH11bvu3F33iscdXM97kqwrSWaZcsy1UFrfeat9KSmt2gbLc5rc4E3vBdOiDNZY8ZeaJBNnKSFJ9mM/9dTdQx/60N3PXPLj7Tqv+fXn7579sn/Xfn79u39698hHPeLEMm5n94XtsMyu5y3jtud//3ftLv3Dl7Xr9TnmeU949O77nn5+ux3oe9y+y5ZgqTpwLr8T62VO35O/iTn9TYg52dDUZaGKGncQQuyx937FmtWep3cdJcK+lJdQWQImmMIkmX3KjP9ThgRVmLDy/sMsXK9vkizmMddCSX3nDfelpMQqqiHgTe8F06IM1ljxM0HiJU/WDJ8EQ/1xzgP+eb3sZ3/9Obu/+3VfWy/7W1/7N3evu+I/1Msf8fhvPfGZ6/3wTz/+1L74ZNkvvf8lu39x///5xHbevrz1nvq883Zf8zf++u4nL76g3f/Dzj+33cfaoA94/hGbuepBJsleeumz6+SQTY55vPGqV+wefd531OvapBYSVt4TaVjO9bxEF/iVa165+7c/8oQT+7MMOWbXMQASYA97+Lftfu6yF/ReL/xuLpaqA+fyO7Fe5vQ9+ZuY09+EmBPG7g1bUnve3nUJIfLE3vsVa1Z7nt51lAj7Ul5CZQm8JBmTWh+/9MJ22R88+V719IapkmSxj7kWSuo72/u9QpJatY7hOU5u8Kb3gmlRBmus+LeYJGNiKpwq8fm/+PS6PmHyy67LRFr4GSDxFe4rXM/bN7FJMSbgwuTamsk5SfZzb3t+nTT6gR/93hPfM0EVJpNs8ouf+ybJwkRcmCQbckz7GShJNo0UfueVk1gvc/peCn8T22JOfxNiTmz8XrElteftXZcQIk/svV+xZrXn6V1HibAv5SVUlqDrSTImrSgkuMJE1JCElX1KrOs/yWIfcw2U1He293uFJLUq6s8pedN7wbQogzVW/FtMkoVPagE+DfaYpz701LrhU172M5Jf4b7C9bhvm1gjTIqFx7VPp3mJtTWRc5IsnCKRyTImrGzyDEmPMU+S4TOOZ59YY4LM7m/IMb3kC6/BJsC4LJxGss96S7BUHZjC77rKSayTOX0vhb+JbTGnvwkxJ+jXGrak9ry96xJC5MmGpjVTHRXAvpSXUBH5UVLf2d7vFZJ0ViX9OSVvei+YPjYt1yG6nk5YmrWeV8gU2w9ljRX/1pJkXUkp72mwcFrF8Gmwrn2F23lTKnpPs/2vP/CQg9+vlRyTZGuAdUv4FFvJLFUHDvW7PslRvv/5y19YP72HJCQYWt5MsHZt3/c4Mc6H7Ta3DdtvPqnYtW+ewyvf/BP193h/wfOfcsqWXrs7Zt9D2uw5fW+ov62N8EcGYjhz+psQc4J+tGFLKurHuUKIs2DMsakH1izVUQHsS3kJFZEfJfWdq/t9q30pKbFax/AcJzd403vB9BQOTa+1JGs9ryVZY8W/tSSZiI+SZNPBAL6t65hsGDqQnztL1YFD/c77kQeexrPTVaLMvekrpyQYvORR3+NMPR+22d7Thl0/Juljky5b8pym7HsIc/reUH9bG0qSTWdOfxNibjYy4HxKJf04Vwixp7r1LauW6qiTsC/lJVREfpTWd95qX0pKq7bB8pwmN3jTe8F018AYfi1tByo4ZZYdbOpKRoXLOVBlf52NY5z3hEfvvu/p558anDp2DC6z+8Oyl//Kczq3OYR3fhis47WPvZ5woA3YfR36RXvfa/POxWONFb+SZEJJMjEXS9WBY/zOth2s420CCe1NmNjhdminsS7bF3wmXptul4f77XOcvusdOx+2bVhu20273KPPOXTZcuq++zKn743xt6nAxl4fzS6DDWFTr8xt/8VLwNqyOEbf4/Q957BfF6O/mJo5/U2IOdnQ1GWhihp3GArrLFEWni/khr33K9as9jy96ygR+qmXUNkK+H8x73/B+J3332D8D7KhWuP/jA2hpHppw30pKbGKagh403vBdFeSzA4wECy363mDCt4yu9wOOnnHsHBwAQMePC6Xhfu3dJ1DF9yndz5Trye0GT5zsCS0/bFr63suHmus+Jkg8ZInogzoA55/xOZQPZgzfeparx3IjaXqwLF+h2QBygNTBoYD7ChT78mmsL3pwmsz2P6E7VWf40w9nxDb1tE3jyUZDh0L32F7vnJ5jH33YU7fG+tvsfD6bVjeZUObxMRnJsleeumzByXHSN/jWA6dc1h3xugvpmZOfxNiTmz8XrElteftXVfpsM6677PeLgqgpDbK3vsVa1Z7nt51lAj91EuobAGb7AoTZX/w5Hvt7rjpc/V3N7z30hPbdcH93fTh97vfbx3VS5JkHMNznNzgTe8F06mSZMcGA7yBjK4kkV23axDC0medLrgtB1OmXA/gNWF7DNJYu4a2P3befc/FY40Vf4okGf7T6+vv8ffb/+fq4qnPO+/U/4EB/L+YXc7/9+J/hJHwOF3rcV38zxjqG++YS4P/S7P/eeZx8ZU/s/uGf/KPdj958QXu9wR2PbYvi5Jk6emqz0tjqTpwrN+xfTjUFvM/ssiQtoHtCbdFuxO2Y32PE+N8sA9u5yUz0H7afdvz5PbhMnIosQGm7LsPc/reWH8bS59+m/eZdCXJfu5tz6/981gCM6TPcaaeMxnbX0zNnP4mxJzY+L1iS2rP27uu0mGd5SVURH6U1EbZe79izWrP07uOEqGfegmVNcNkFpJf9kkyvIe+etedu+te8bgTT5J97n1vOZr8svv1vt86qpckqbA/p+RN7wXTU5JkHGgIBzE44GQHIDB4YKes8QYfvP1hvXDQivu362H/nJKw67y6wLbPe+0F7edw0Gbs9RDu73FP/q4Tgyee7Y9dW59z8VhjxT8lScbE07GEFhJA1f1+KnnFdb/9iQ/cff03/P2wsXD5mr/x13fP+4UfOrj+P/1n99o9+7U/UL++4XcvOnHMMSA5heN5yTdcW3iccJmX3LL7tO+xLa4R64bbhclDD5aJd65dKEl2FgwO494mYf3FOoaJCFtvsC7htvY7bIf6/L+896K6XvT2H9ZF3Ma2AV59hbrHJlr61rlLsFQdONbvYNtHPeaRp5JFc3KoXbP0Xa9U5vS9sf42lr79Nm8Z+zO2XxROt+j1iQ7R5zhDzjn0a9yXU/uLqZnT34SYk6DPvSW15+1dV+mwzvISKiI/SmqjNjStmeqoAPqpl1ApkT967gN3d99+i54kywB7v1dI0lmV9OeUvOm9YFqUwRor/ilJMsBEF5M3eIrpnAf88/o9Ej583wcmhb71O/6XNsnU9VQajlNVISfg01NeUmoMh55MA96TcN6xDyW3eAzPTnY7HIs26TqvsCwsh85BSTKfrh8v2MHYrvVC+mwXfuYgsh3oxeAvB6+7jhsOGK+JperAoX7HZOmhMp0LL0ng0Xe9UpnT94b621zM5SPyRSXJRL4Efe8tqagf5w6FdZaXUBH5UVobhTHHph5Ys1RHBdBPvYTKVkBi684vf/7Uf5LxqbCPX3rhieVdcHpGrI8n0HJ8mqykeqm637fal5ISq3UMz3Fygze9F0yLMlhjxT80ScanwsbgJXmQvPHW9ehKnIVJI5sQGpswwzH+3td/nbsd9mmfZLNTG4bJKO9JM4tNftnldrvwXGwi0tJnX3Y5UZJsD58+AExEhYO93uAvn+Q6NL0XtgufCuNy7s9LetmEF5NmPE74BFnIofNZiqXqwDX7nZiHOX1vrf42V/JqruOsmTn9TYi52ciA8ymV9OPcobDO8hIqIj9KaqOqW9+yaqmOOgn91EuobIVwGsXrf+0l9ZSLn/zVF51KknVNuYhtvP80u/3MZ+tpG+26W6akeglstS8lpVXbYHlOkxu86b1gWpTBGiv+oUmyECaofuiF57ev3/LgbzqYlAqTPJwisOtJJ4v3FJXdX7jvQ09QddGVWOOxUWfh+OG5hMmoMLkVJtc8sP1LfuXH2u3CY9BW3rZdcPpGbO+hJJmf6GJSyg72eoO/fZ8kG5Mk4zqYkoyvXM71+06BtgaWqgPX4ncsMy+p2YX1SW7flQCFH8Nn7ZOGdt1wOlEQTqvn+SmBD4bbWw5tuzRz+t5a/E0sx5z+JsScbGjqslBtv9i7rtJhneUlVER+lNRG2Xu/Ys1qz9O7jhKhn3oJlTWDZBd07CkxJswo/j8ZvuP/l9llHnzCLEyibZGS6qUN96WkxCqqIeBN7wXTwgeD1N91/ncOnjYsHEwegh1k9L6fwhorfiZIvORJF0zc2IQQklFMTvF772knJHnwFNhr3vbcOmGEBJbdNlw3TBbZesOCp7m+5+mPOLGfY09QddH1pFb4XfjeHitMboVgffsEGuF2TOwdOhcSbjMU+oDnH7FZcz0YPpmFaQ5tEgvrhJ8PbR9uNzZJxmRdVwLCPgEXHndtLFUHrtnv+gJfseXs+cOx9gtJMusfXD/8rzxLH3/CudlpQdfInL6Xg78dIvzPsi6OJV2Pge2P+Z9NPK+p7pvT34SYk6D/vSW15+1dV+mwzvISKiI/Smqj7L1fsWa15+ldR4nQT72EisgP1UuSZBzDc5zc4E3vBdNbp89AxhiWSJKBscc9xhor/r5JMiScup5I6kpGMXnD7/j5B5//Pbt73ecedYII2x5KFtkkE5Jp9jgve/OP1+t8+xMfeOrJr/ApriEcStrZp7hw3j/5hn9fLwuTYV3JLe6jK3lmYUIxtE1ImKAbipJkYi6WqgNz8bvw6bAwQeph/5+uK0nGJEbYloefvSfRjrGW5NmcvpeLv3XRJ0kW+ma4PvZh+2lePzJclqpvloI5/W2NvPvd797d8573rHnjG9/Ye/m9733v3ZVXXtl7/b77EfGw8XvFltSet3ddpcM6K0ymiDwpqY2y937FmtWep3cdJUI/9RIqIj9UL0lSYX9OyZveC6YPwacIugacwkErLzl0bJ1jxzhG+At3jzG/JsYA3qMe88h2QITnyQHCrl+vdyXJwkEZS7gvOxjDgcmpg31rrPj7Jsm66PufX97TToe27fMEVSq6EncWL4lHvORWHztxn1XdWNMn8TUlGUiUJBNzsVQduFa/Y5vW1S6F2Kdm0B6FSYQw6WXbMXwO+wJh2xy2kYfaTEtXW7wm5vS9tfrbsb4gyhH+9POXv/DEU7HhethP2KfDtlgXfsD3IV3/r8h9esdRkmy7nDlzZnfDDTesZrmIA/uoDVtSe97edZUO6ywvoSLyo6Q2akPTmqmOCqCfegkVkR8l1Uv2fq+QpLMq6c8pedN7wXQXGPAK/yfnEF3TdR1aZ+gxQvoMWni/ECbhL+Mt3oBfzCSZPa+ufREee8pA4Bor/qlJMrF9lCTLjxj1VQqWqgPX6Hde24tyO+8Jj3Z/UPLjL37a7rVVm2XbyzFJsq71vbbYtpldiY8+dLX/czKn763R30K8/iLK2D55SOAHYTKVn/EeZRz24bAc9Q987Puefv7ulz/w0t0PPvOJu6c/9/vd/lkI7w+c3wXPf0q9L9ZroX9Z1uBrYE5/E2JOqvB9qwM7Rf04dyiss7yEisiP0toojDk29cCapToqgH7qJVREfpRUL1X3+1b7UlJitY7hOU5u8Kb3gulDcKAAwX84eIEBMg4McMACgxx2kKDPOl3H4CAKt7f7sOdwbFDCDrSFMDnFY9lB3XA7nKd9smzMoB33x8GWYwk3y9SB5zVW/EqSCSXJlsfWo6jnbKLDS16gvsLnPoPGHmE9PhdL1YFr8zu0bV3tppe8CL+jL9j2vQtvukUkHcJ1Hvfk7zrVtvVpF0Hf9ZZkTt9bm7+BPn3B8HO4Lf0OfsR9dfkx1oFPoD6zSTL4Io7D7UNYryFZ/NJLn93uH/t7ziuefqIPCPr0QZdgTn8TYm42MuB8SiX9OHcorLO8hIrIj5LaqOrWt6xaqqNOQj/1EioiP0qql8BW+1JSWrUNluc0ucGb3gum+8JkFgcevF+hY8CUAwZ91uFyYo8RfjeWrgE0u9wOmmAZBj7CgVycWzhA4oF9HfulcrhO1zkC2szacQxrrPhLSpIN+T8wcOh/2HJCSbLlsPUeYb3HhAYGl5kY6TMgjO28p0HWwFJ14Fr8ju1rWOaHsO2SlySz/oD92wQr2q6hT3pbn+zyNbaJXG+t/maZ0/fW4m+kb18QZe+VJZbb9VDHsJ6C/8AHwj6XV7d17Tvsez37pT/U7tse16v/vGVrYE5/E2JONjR1Waiixh2GwjrLS6ishXdc85ndbXfevXvGL129u/WOu3bUyy+7bnfOcy7fXXv9F5slu92HPn7m1PbhOp/+/C27c1/wrlPrhdzvwit2Z26+vdlqt3vrBz9VL3/sq688cR5WXGetlNRG2Xu/Ys1qz9O7jhKhn3oJFZEfJdVLG+5LSYlVVEPAm94Lpg9hBxrCAYZwwA0DDeFgRp91Dh1jKt5TEMcIz4/YgRm7PATbH0uShRzapu9xj7HGip8JEi95kgP8ny/v/73w3aO+/98c/O+vRzz+Wxf7b7S5oA94/hGbsfXgFDgYbO9v1Ee8nzHIagdpWWfaZcfWOXaMQ4RPDvEz6+QuwjoV59T1IwKcf4w6bCpL1YFL+J1YF3P63hr9rW9fEJ9f+eafOFjXeH0iLMO62B5tK5OzOG74JJndF45p61aLTYB1JXyVJBNiXmz8XrElteftXVfpsM7yEiprAUmyu+7+6u6Ci69qlz3jkqvrpJRNijEZxiRY+Jnr9YGJMCTivO8tr3vnR06d31opqY2y937FmtWep3cdJUI/9RIqIj9UL0mScQzPcXKDN70XTIu4jEmSzcEaK/4ck2RMjP2tr/2bu9dd8R9OfIenw2zdQ7qeGHvq885TkiwiS9SDTGD1SRJxXQ72egOv3jpDjhGCwWVMf4d9YXD62D6O/fCgK8m2hoHkperAJfxOrIs5fW+r/hYmzcaC/bB+svWRt+8+SbKfv/yFdf3q1YtKkgkxL0H/eUtqz9u7rtJhneUlVNYCnyR72EXvaZd1JbGwLpNixxJd4RNmkD2OfWLMS4JNScItRUltlL33K9as9jy96ygR+qmXUBH5oXpJkgr7c0re9F4wLcpgjRV/jkmyMSAZ9vgf+fYTT5Qx2dZ3esatknuSzMKnKfjELJNb4SCtHSzus45dHh7DfheCBBn2Gw70Yt9hkiukK0lGsO+1/VhgqTpwab8TyzOn723V37rqNDGcOf1NiDmp4vetDuy05+1dV+mwzvISKmthbJIsZhKLxwunXFz79IohJbVRG5rWTHVUAP3US6iI/CipXrL3e4UknVVJf07Jm94LpkUZrLHizzFJ1vW0mEfpUy2C3JNkSFo977UXtJ+RkAqTZDaZxARVmCQ7tM6hY3DZIYY8DXHsSTKcC873J171w7vv/+HHHf1PqjlZqg5cwu/EupjT9+RvYk5/E2JOgn70llTUj3OHwjrLS6ishbFJsnBdqm/SDPui7JNkmF6xS95/oq2J0toojDk29cCapToqgH4qysLzhdyo7vet9qWkxGodw3Oc3OBN7wXTogzWWPHnliS7+Mqf2X3DP/lH7tSJlmPrlZIgA7knybaATZLhvX1irAskyZis8xJy3pNk/N8gsMRTZkvVgfI7Mafvyd/EnP4mxNxsZMD5lEr6ce5QWGd5CRWRHyW1UdWtb1m1VEcJUQ5b7UtJadU2WJ7T5AY7I14wLcpgjR3S3JJkSG7ZuuUQj3nqQ09tj+TZ13/D389+ikWLkmRiLpaqA+V3Yk7fk7+JOf1NiDnZ0NRlodr+v3ddpcM6y0uoiPwoqY2y937FmtWep3cdQoh82HBfSkqsohoCdka8YFqUwRo7pEyQeMmTkuAUjSUlxwh9wPOP2KgeLJul6kD5nZjT9+RvYk5/E2JObPxesSW15+1dV+mwzvISKiI/Smqj7L1fsWa15+ldhxAiH+z9XiFJrVrH8BwnN9gZ8YJpUQZr7JAqSSaUJBNzsVQdKL8Tc/qe/E3M6W9CzImN3yu2pPa8vesqHdZZXkIlJec85/Ldtdd/sf1PMXy+6r9//sT/juG/v+x/fOG/xT762S+d+D8x+79hx/T/b+/dYm65qnvPfuiHVj/S6gdekM4TT7lIKG0pcm6YNHkgUusoCpGiKNJRJCK1kKx0iOgmordAFjlcEhMdHJHoBKcT1FzaODEnhA3hdmI1pxG2RSB24pDm+AI05njbBuO7WT1HscdkfHOPqlVrrZpzzcvvL/2091drVq1Zq/7zNsaqWof8Ftkpvy0m+9/+hYfc187NSGOUbfuBmhXr6Z0HAPSDbe8BhKKG+nFKnYx4i2kYgxonpCTJgCQZlOJcfSC+g5Lew29Q0m8AJQnr91YDO7He3nmNjvZZXkKlBJL4evLp53evf98XY+JME1SaJEsTapZTkmSH7KuaS56liTGp+9qkXElGGqMaeqwZfRTAINj2HkDohxrpxyl1MuItpmEMapyQkiQDkmRQinP1gfgOSnoPv0FJvwGUJCzfWw3sDPXl3EPRPstLqOREkkrPPP/ihTvHUtI7yTxOTZJ5d3zJdu99vTvbNME3dyxF9t13viUYbYySmOPVfqBm0UcBDEJo763OpVBmRWN4xukNnYwAeP44F5ogAfD8sTVee4Dx8LyRE68OMCaeP7bGe18YE88fAK3TSMD5Go305dxD0T7LS6iUZOluMeXGW++6JtF0ziSZLbcvSSbUkCgbaYwKTd9SteijAMah1bkUyqs4YHmmAQAAAAAAAIDz09Cjy1IRd1jgnEky71GLhybJUq570+XdNx57alUi6pQkWVqXNUkyIU20lYYkWZWK9fTOAwD6oeG5FMosBgIAAAAAAACAyrHr90BLivX2zmt0zpUk06SYJpYOTZLZBJskxh554pnp/1pWklF6bElg/f0Dj+3+t//zS7unn3th8T2EuSTZEktJMltX7/WSkCSrUrGe3nkAQD/Y9h5AKCoawzMOAAAAAAAAAJwfu34PtKRYb++8RudcSbL0Tqy5JJkkn6zmkleSFJtT+pjFfRyTJJNE3ZUnn736jtdqX2KuFCTJqlSsp3ceANAPtr0HEIrixykBAAAAAAAAKies31sN7MR6e+c1OudKksF5GClJ1tBjzeijAAbBtvcAQj8UP04JAAAAAAAAUDdh+d5qYIcv5y5AkmwsRkqSCRJzvNoP1Cz6KIBBCO291bkUyqxoDM84AAAAAAAAAFAHjQScrxFfzp2HJNlYjJQkC03fUrXoowDGodW5FMqrOGB5pgEAAAAAAACA89PQo8tSEXdYgCTZWJAkq1Kxnt55AEA/NDyXQpnFQAAAAAAAAABQOXb9HmhJsd7eeY0OSbKxIElWpWI9vfMAgH6w7T2AUFQ0hmccAAAAAAAAADg/dv0eaEmx3t55jQ5JsrEgSValYj298wCAfrDtPYBQFD9OCQAAAAAAAFA5Yf3eamAn1ts7r9EhSTYWIyXJGnqsGX0UwCDY9h5A6IfixykBAAAAAAAA6iYs31sN7PDl3AVIko3FSEkyQWKOV/uBmkUfBTAIob23OpdCmRWN4RkHAAAAAAAAAOqgkYDzNeLLufOQJBuLkZJkoelbqhZ9FMA4tDqXQnkVByzPNAAAAAAAAABwfhp6dFkq4g4LaNIExsLzQm/Yth+oWbGe3nkAQD80PJdCmcVAAAAAAAAAAFA5dv0eaEmx3t55AUCf2LYfqFmxnt55AEA/2PYeQCgqGsMzDgAAAAAAAACcH7t+D7SkWG/vvACgT2zbD9SsWE/vPACgH2x7DyAUxY9TAgAAAAAAAFROWL+3GtiJ9fbOCwD6pKHHmtFHAQyCbe8BhH4ofpwSAAAAAAAAoG7C8r3VwA5fzgUYFIk5Xu0HahZ9VMNcvnx5d9ttt1WzHeomtPdW51Ios6IxPOMAAAAAAAAAQB00EnC+Rnw5F2A8QtO3VC36qDa59957dy9/+ct3L3vZy3Z33nln3P7pT39699KXvnT19q2OA23Q6lwK5VUcsDzTAAAAAAAAAMD5aejRZamIOwAMiG37gZoV6+mdBwD0Q8NzKZRZDAQAAAAAAAAAlWPX74GWFOvtnRcA9Ilt+4GaFevpnQcA9INt7wGEoqIxPOMAAAAAAAAAwPmx6/dAS4r19s4LAPrEtv1AzYr19M4DAPrBtvcAQlGXXvKSl9wT/k1NMt16KM/oFK7ehnhNGQvl/XIK5f1yCuX9cgrl/XIK5f1yCuX9cgrl/XIK5f1yCuX9cgrl/XIK5f1yCuX9cgrl/XLKAOVbUqy3F7ACgD5p6LFm9FEAg2DbewAhhBBCCCGEEEIIoeyaEn0SMPcCVgDQL5Lov9oP1Cz6KIBBCO2dJBlCCCGEEEIIIYQQKisJlHvBKvjO7sd//MdhQDwv9EZo+s0Eo+mjAMahkeQ9QgghhBBCCCGEEOpEMVDuBatGR5MmP/qGj8EAkCSrUrGe3nkAQD809BhYhBBCCCGEEEIIIdSJCEAvQJJsLEiSValYT+88AKAfbHsPIIQQQgghhBBCCCGUXTEg5QWsRock2ViQJKtSsZ7eeQBAP9j2HkAIIYQQQgghhBBCKLtiQMoLWI0OSbKxGClJ1tBjzeijAAbBtvcAQgghhBBCCCGEEELZdUkC5RIw9wJWo0OSbCxGSpIJTzzxRAu/+0MfBTAIob2TJEMIIYQQQgghhBBCZSWBci9YBSTJRmOkJFlo+s0Eo+mjAMahkeQ9QgghhBBCCCGEEOpEMVDuBatGhyTZWJAkq1Kxnt55AEA/NPQYWIQQQgghhBBCCCHUiQhAL0CSbCxIklWpWE/vPACgH2x7DyCEEEIIIYQQQgghlF0xIOUFrEZn5CTZK9748d2XH3x8J3rm+Rd3r77pM265niBJVqViPb3zAIB+sO09gBBCCCGEEEIIIYRQdsWAlBewGp1Rk2SaILv7a1fc13tlpCRZQ481o48CGATb3gMIIYQQQgghhBBCCGXXJQmUS8DcC1iNTk9JMk18PfzoU7vr3/zJa7ZrQuzGW++a7h6z0teue9Pl3ZUnn726dbe7/QsPxeP0wEhJMuGJJ55o4Xd/6KMABiG0d5JkCCGEEEIIIYQQQqisJFDuBatgzCTZ3LbX3nzn7unnXti946P3xW29MVKSLDT9ZoLR9FEA49BI8h4hhBBCCCGEEEIIdaIYKPeCVaNDkuyH2wRNlIleePH7u9e/74sXXm8dkmRVKtbTOw8A6IeGHgOLEEIIIYQQQgghhDoRAegFekqSCX9zzzd2zzz/4u7VN30mbtPE15okmUX36+mRiyTJqlSsp3ceANAPtr0HEEIIIYQQQgghhBDKrhiQ8gJWo9Nbkky45RP3T3eCqd79sX9afSeZJNlU3EnWNrbtB2pWrKd3HgDQD7a9BxBCCCGEEEIIIYQQyq4YkPICVqPTY5IM5hkpSdbQY83oowAGwbb3AEIIIYQQQgghhBBC2XVJAuUSMPcCVqNDkmwsRkqSCU888UQLv/tDHwUwCKG9kyRDCCGEEEIIIYQQQmUlgXIvWAX1Jcnkd8CefPr57h5zWAsjJclC028mGE0fBTAOjSTvUUFNA9UNN9zweTGHcPU26HQgu4CUofw8lPfLKZT3yymU98splPfLKZT3yymU98splPfLKZT3yymU98splPfLKZT3yymU98spI5WXtfuP/diP3Rr+31pwJ56DF6wandqSZMJ1b7q8u/Lks7t3fPQ+93WL/rbY7V94aPo73Vd+Y0xfS7G/PyZ6+NGndv/jTZ+e9p+TlLn+zZ+8cJwbb71rem1Nfc8NSbIqFevpnQcA9ENDj4FFBcUgAAAAAAAAANAIkkybVvNtidjDAjUkyZYSWYK87iWn9LW7v3blwt/75CXQJNFlk2Rewit9L03QqeaSZLLfCy9+v4q740iSValYT+88AKAfbHsPIDQpmsIzDQAAAAAAAADUgV3DB1pSrLd3XqNTQ5Js6RGLc6/ZBJUmrtIklm475k6yfXeFSVItfa80aSaq7e4ykmRVKtbTOw8A6Afb3gMITYqm8EwDAAAAAAAAAHVg1/CBlhTr7Z3X6NSQJBO8ZJgkop55/sXdq2/6zIWywkfvengqe8sn7r8mWWXZlySbu5Pstv/nwd1j33vuwnvb90oTbEt3wsl+Vkv1zc1ISbKGHmtGHwUwCLa9BxCaND3zXAYtzzQAAAAAAAAAUAdhDd9qYIfYwwK1JMkUm3xacxfWqUkyq/ROMntsSeJ5SbNDtJRIK8VISTKhkUfE0kcBDEJo763OpVBOyWDlGQYAAAAAAAAA6iEs4ZsN7BB7mKeWJJkkoZ5+7oX422PXvenylKwSLSXLTk2Szd1Jpu8p20VaL7u/RcrN/e6YPoaxhkcvjpQkC02/mT6LPgpgHBr9fVeUUXGw8gwDAAAAAAAAAHXQ0KPLUhF7WOAcSTL7212H3F2ld37ZpNixSbL0UY5ekkz21eSY3jWWJs+8x0Fqws+qhrvIBJJkVSrW0zsPAOiHhudSKKMYBAAAAAAAAAAaodFvPxN7WOAcSTI4HyTJqlSsp3ceANAPtr0HEJoUTeGZBgAAAAAAAADqwK7hAy0p1ts7r9EhSTYWJMmqVKyndx4A0A+2vQcQmhRN4ZkGAAAAAAAAAOrAruEDLSnW2zuv0SFJNhYjJckaeqwZfRTAINj2HkBo0iUZrGTQ8kwDAAAAAAAAAHUQ1vCtBnaIPSxAkmwsRkqSCY08IpY+CmAQQntvdS6FckoGK88wAAAAAAAAAFAPYQnfbGCH2MM8JMnGYqQkWWj6zfRZ9FEA49Do77uijIqDlWcYAAAAAAAAAKiDhh5dlorYwwIkycaCJFmVivX0zgMA+qHhuRTKKAYBAAAAAAAAgEZo9NvPxB4WIEk2FiTJqlSsp3ceANAPtr0HEJoUTeGZBgAAAAAAAADqwK7hAy0p1ts7r9EhSTYWJMmqVKyndx4A0A+2vQcQmhRN4ZkGAAAAAAAAAOrAruEDLSnW2zuv0SFJNhYjJckaeqwZfRTAINj2HkBo0iUZrGTQ8kwDAAAAAAAAAHUQ1vCtBnaIPSygSRMYC88LPdLII2LpowAGIbT3VudSKKdksPIMAwAAAAAAAAD1EJbwzQZ2iD0AjEdo+s30WfRRAOPQ6O+7ooyKg5VnGAAAAAAAAACog4YeXZaK2APAgNi2H6hZsZ7eeQBAPzQ8l0IZ1e0g4N3KDmPi+eOceHWEMfH8sSXee8J4eN7IiVcHGBPPHznw3hvGw/PGKXjvAWPi+ePcNPrtZwLQAANi236gZsV6eucBAP1g23sAoUnRFJ5pWkYXNb/0lp+AQal1YYs3oZQ38drYlPJZCr6D0t7Dc2OTy2/4CnJ561TsGj7QkmK9vfMCgD6xbT9Qs2I9vfMAgH6w7T2A0KRoCs80LcPCFmpd2OJNKOVNvDY2pXyWgu+gtPfw3Njk8hu+glzeOhW7hg+0pFhv77wAoE8aeqwZfRTAINj2HkBo0iUZrGTQ8kzTMixsodaFLd6EUt7Ea2NTymcp+A5Kew/PjU0uv+EryOWtUwlr+FYDO93GHgBgmUYeEUsfBTAIob23OpdCOSWDlWeY1mFhC7UubPEmlPImXhubUj5LwXdQ2nt4bmxy+Q1fQS5vnUpYwjcb2Ok19gAA84Sm30yfRR8FMA6N/r4ryqg4WHmGaRkWtlDrwhZvQilv4rWxKeWzlHP67s6vXN5967Gv72654607kfz/19/+yum13/mTX9s989zT03bRfQ/ec2HfX33bT++e+N6Vq6/udp+6568WXxfd+ok/iK//yk0/ufvnr3/lwnva7fb9luqp5VXp8fadRw2U9t45PQfnJ5ff8BXk8tapNPToslTdxh4AYB7b9gM1K9bTOw8A6IeG51Ioo7odBFjYQq0LW7wJpbyJ18amlM9Szuk7ST698OILu9/7wG/FbXPJq7d/8LdjWU082aSX4iW5FHm/555/dveb7/7Fg5Nka+u573V7Hrb8OSntvXN6Ds5PLr/hK8jlrS1o9NvPBKABBsS2/UDNivX0zgMA+sG29wBCk6IpPNO0DAtbqHVhizehlDfx2tiU8lnKOX2nd2gt3XmVShNjtpxNOi0l0CRBJZLXDk2SzdXTex/7+pxsHaw0iecdMxelvXdOz8H5yeU3fAW5vHUqdg0faEmx3t55jY76DcbC80Jv2LYfqFmxnt55AEA/2PYeQGhSNIVnmpbRSYe34IExqHXiiTehlDfx2tiU8lnKOX3nJZ+8JNU+NCElj1xc2t/eSeb9Leix9iXJ5pJs6euHnMe5KO29c3oOzk8uv+EryOWtU7Fr+EBLivX2zmt01G8/+oaPwQDU2r/koKHHmtFHAQyCbe8BhCZdksFKBi3PNC2jkw5vwZML+w3uc3xzewkvIJeyL0DXGrVOPM/hzUOxfpnzxbF+X3Ps3inlzRa8dk7W9IstU8pnKef03dI11bu+VGk52VflPb4wvZNr7hGHH/zsH18t8QO9/1Pvmfq5fUkyJX2ftNy+86iB0t47p+e2RLxT2/yxBXL5bStfSXvv4bpuNWa2NPfL5a1TCWv4VgM73cYetkD95iVUoD9q7V9y0cgjYumjAAYhtPdW51Iop2Sw8gzTOjrp8BY8OdAFX63f8N5qYXsM9hv53uu5qHXiWdqbx7DPL6f4/ZxerIVS3mzBa+ekdy+W8lkKvoPS3svhuXPMXUiSHUcuv23lKxlrSJL9EJJkpxOW8M0GdnqNPWyB+s1LqEB/1Nq/5CA0/Wb6LPoogHFo9PddUUbFwcozTMvopMNb8GxN+q1ukSYPdEF5yx1vnbbbBWH6bXEv4bCmzK++7ad3T3zvytUSP1D6myZaj7f8+f88e7y5ReuaOui+Kj2GvG+qUgGnWieeJb15LDYQkvpiye/CPr8sHVtfl2DSjX/0yxd87flujTdrpJQ3W/DaKaR37BzSN8lr1ovpfj1QymcpvfsO9lPae1t7bmnuov2GN687tU/ykmRalzVzp3Q+mO6zdny25/bF+//umjp5Y/cxx96q783lt618Jee+b16jZdJEmn5u8lnp/5fm8kqO62HrotvWzMPSeaPeXZseKy33uS/9tVuupNdyeetUGnp0WapuYw9boH7zEirQH7X2LzmwbT9Qs2I9vfMAgH5odi71Mz/zM//1q171qjte+cpX/srVTdfohhtu+DehzO1X/73rFa94xX979aVNFY79rpzHP4O6HQR00uEteHKgAQNvoZY+kskLLgiyONSyh5TxFqTyvnax7dVDsAGZ9D1PqadFF7Mlv40t1DrxLO3NY7CBEO8ae95b4xf5e9+x17SZte9VK6W82YLXtmKtRyzWi97rrVPKZykj+Q58Snsvh+fm5i5z86mUY/okOyfThFv6pac5tL5e+bVjpndumnizn4PsNzd3tGX2HXsrcvltK1+tmdfMfc5rPsOlubyW2eJ6yD563DXvo2XSdYqea3qsteVynNscuby1BY1++5kA9ALqNy+hAv1Rc/+yNbbtB2pWrKd3HgDQD7a9B8pKkleBS1eTTLdf3RylSa6rf17QIUmyq39ekLynvPfV/18fuCv8/d8FHvCO6R0r1OG/kfI///M/v9uHvlcjiqbwTNMyOunwFjw5mFvg2QWlbku/AZlKAhyHlPECIrJg1HLyt1ePtFy6+Dy1DoqWIUn2A0p78xj2BUI8v6/xy5pjy+s2wavY/da+V62U8mYLXjsW7btE6hfPI0tesOW911unlM9SevYdrKO093J4bm7uMtdvbNEnaWJM5L2HjplWdry0Y6NNEqwdM5fOTY+niQvd59Rjb0Euv23lKzn3ffMa+Xvpc/bKK3Yuf8r12Ocvu8+a99Ey9hzs+6THWltuTkvndiy5vHUqdg0faEmx3t55jY76zUuoQH/U2r/kwLb9QM2K9fTOAwD6wbb3QDlJkirwbwP/cP311//3knCS/99www3/q5dkEsLrT0pZ2dfbfvXQUV5iSyXH0MRV+P81STJNwnnvoa/JPnL32E/91E/9q/D/K4H4XuH/1y/VrXJFU3imaRmddHgLnhzoQm5NkmyurOXUMvK+6cLW+1alrV+6GD2kDkuLUV3UkiT7AaW9eQxLvpDXPW+s8Yuw79ipd5f22/detVLKmy147Ri8gNrab5xbrKe811unlM9SevUdrKe093J4bm7u4vUbW/VJ9o4gTXwcO87Z+h8zPnuvyf76r27f4tinkstvW/lKzn1NkkwQD8g2ecxl+plK+bVz+RzX49D30TaQllFv6rHWljuH13J561TsGj7QkmK9vfMaHfWbl1CB/qi1f8lBQ481o48CGATb3gNl9KpXvepdereWJsc0kWQTW5JoCthE1INpokqPk+w3JcDCv+n+3wzl/wdb5ur/LyTJNDGWoseSfazkvb3ywtw+leuSDFYyaHmmaRmddHgLnhzMLdyWFmr2W8cir9yaMrqIVC0toPX5/Cob0NFzSN/jmDosHaNUsqzWiWdpbx6DFwix13QpULHPL/uOLa+vDSat8WaNlPJmC147lrTPkX7F88hS3+SV74lSPkupwXdybe311r5GpWOf+sOOS9Kv2L+9Mnp821dpf3Tosbz90vp7+3qBZdnvyne/vXvgW189q69Ley+X5+wYo5/7XL+R9jVS3iublrOv2ySZlte7y7z3TFHfiLy5oD0fUXrMuXMT1G/e+CyccuxTyeW3rXwl5752XqN91VL5pbm8kuN6ePvsex/B3iEpvnznh994zdwvLSda+9tl6evHnNscubx1KmENXz6ws426jT1sgfrNS6hAf9Tav+SikUfE0kcBDEJo7+XnUpKU8hJKkrSShFN4/agkWXos3ednf/Znrwv/xgSZKPw9myQL//+1QDy2vpeW95TWp3XJYOUZpnV00uEteMBHAyA2UNcytU488SaU8iZeG5tSPkupwXcSJE2DzJqcSAPKSwFVHRfTQKx3fN1+yLG8pJmQfoFgrlx6TnP1Kk1p79XgOTgfufx2Dl9Jm37qmSevSXAKS/1Lj8z12SXJ5a1TCUv48oGdjdRr7GEL1G9eQgX6o9b+JQeh6TfTZ9FHAYzD2ZP3N5jEmP1/+Df+VtlckiyU/1273UrLBJ61CTJR2LbvcYvye2P3/9zP/dxPyjG07Jz0GN5dY2F7vHOuEcXByjNMy+ikw1vwwA+x3673vnXcMrVOPPEmlPImXhubUj5LqcF3XrJoLuBqA89zXxZJg9NzyahDjzVXp7kk2b5gcVrPc1HaezV4Ds5HLr+V9NWaOwZrad+5kPOz2vdYxRLk8tapNPToslTdxh62QP3mJVR65BVv/Pjuyw8+vnv40ad217/5k26Znqm1f8mBbfuBmhXr6Z0HAPTDWedSkjySu77Cv1MiTGWSW7cH9Le9Ypnw/5g8E8nfegeZuftLklzToxPD61PyKvw9JeD0NS0btl2TJLu6Xevn/q6YHmfudVH6mMdG1O0goJMOb8EDY1DrxHMkb0pg9ztPPX72uxpqo5Q3R/IaXEspn6XU4DsJtp6SJEsfYSiywWnv+Lr90GNpcFzrZb+8YsvpI8Zs0k3OyT5a0b6/ljkHpb1Xg+fgfOTyG76CXN7agkYeXZaKAPQC6jcvodIjJMnq7V+2xrb9QM2K9fTOAwD6wbb3wHkkyajA9IjDpYTT1XIXEmqpNMF2g7nzyySzpjvKwv//jbx+NYF1RZNwSWItTdzpMVr8jbFDFU3hmaZldNLhLXhaRoJkcwEwG1jzNPcIJt1v6RvqEsTTQJ/9f83UOvFs2Zty7eWOw0ce+8aqQGyaJJOg8ZXvPDL7GCEb/O3Vl0Ipb7biNS95ocmEOWl/Jj75w7/836f9xT+amFgj9TB94La04ruaUU+20qellPZeLZ6TvuFQ2bnZqX1R2m9KH/e6m1+z2Cd6Y7kmZJfqURO5/FaLrwQdJz39yzfum73G9vrOjV1rfDeHeO6Ufiqd+9VGLm+dil3DB1pSrLd3XqOjfvMSKrXz2pvv3D393Au7u7925cK2t9z25en/N95619Qn3f6Fh+Lrf3PPN6ZtNkmWbtNEmuodH70vHlvezx6vNWrtX3Jg236gZsV6eucBAP1g23sAoUnRFJ5pWkYnHd6Cp3aWFoxekuyYoIxd0NrF8SEB5poXtUKtE88WvSkem7trYik4spQkSxNmqe979aVQyputeU2DgKnXxBv6OFgvoWZJfSUsfblAoA/cltZ8d27Svk89uOTZ2intvVo8J2OlXje5rnP9VDo2Kqf2RdZL2u9pksyri5T35oOqufrbPtl7vTS5/FaLr9LrJNdW/laP2NesB3WbfU3LLiXdrNQDUodDZetlsT4Vlup8bnJ561TsGj7QkmK9vfMaHfWbl1CpmevedHl35clnZxNWcwkt704ySZI98/yLu1ff9JlYTvfXBJkiZVu+C63W/iUHDT0ilj4KYBBsew8gNOmSDFYyaHmmaRmddHgLntqwi18vwGvxgr1zwRY5rrfotItkwQZl9HUrWcjuCzLXSK0Tz1a8KT6QINiX/uU/XXXCvP7hgbvdxEXqTevv1Otp0KRXXwqlvNmK17y+SgN4drtus/3Xm//sdZNPNLFmfZX2dYr4ZunuDfrA02jFd5CP0t6rxXPSd9h+QpMYtn9KkxqWU/si6UutpNxSkswix03rlSbNRPuOcw5y+a0WX83N85fw9pkbE2W7zr/myqRzNLt97ph2u9TnqWeenMbmuWMpsq/3xaxzkMtbpxLW8K0GdrqNPWyB+s1LqNTMvru65pJcJMnq7F9y0cgjYumjAAYhtPdW51Iop2Sw8gzTOjrp8BY8NaLBX5FdVKaLzzWBWj3W0gLU4gVl9D11IWuDynML4tqodeLZmjdPIfWrTWCkAZw0aNKrL4VS3mzJa3J912opSLtVkow+8Hi28p1cl3986Esxka54wV+P9Loei/hh7q4Z8UVNd9QsIb7dN3/YitLe28pzpyJe8T5jTY7t88qpfZGWkf9LOZsk+9u7/3IxaSL7WtnxOEX2szp3f5jLb7X4StFrOteG9/V59rrNfblJsUkt+dt6y5J6ULHeEmy5uWNZZH87Tp+LXN46lbCEbzaw02vsYQvUb15CpXb0cYpzj1u85RP3T69ross+RpEkme+HnghNv5k+iz4KYBwa/X1XlFFxsPIM0zI66fAWPLWii9d0sSmLYt2WLpBtUEMXujYYI78dJdv12N7iek1QRgPPcry0frVS68SzJW+KF5YCMsJSUEb8c+W7346BOZvAUO/aYJ8NmvTqS6GUN1v32j5PKDZoPJdAWfIyfeC2bO07e03TMdBLtqfXWYO9N3/kd2P/o6/ptbc+U3QslestnkgDtrJN9pM6LSU/rJ8E62vbJ8rf3hivZfW1pTuD0vcS9DzWyPscjqG097b23LHI52+vn1wzUXr9Rd5nfWpfpMdWpX6xx/P6Snn9EG3ll1PJ5bdafKWk/cOheP2DMjd2KrYvSrd7x7TvJfW2/efcsVKW6luKXN46lYYeXZaq29jDFqjfvIQK9Eet/UsObNsP1KxYT+88AKAfGp5LoYzqdhDQSYe34KkNDWDpglEWhXPfnkwXyBqAEdmAmQZa7n/4yzHgMrfYlO2idOGtwRapy41/9MsX6njqQr0EtU48W/KmeGPfdZ5LXHjBa/WP/F989acff9cFr1uP9upLoZQ3W/aa56s5r6Xesh6y/5fj/8bv/8J0DC2vr4l681opn6Vs7Tv5rG0/och1037ES1LZ6y/YhJRec0/6XtKH6R3ehyita1oP9dWcrK+st9VzNumhbUJl31tf0+Pp+di6yDHT/bagtPe29tyxyLWWz/uOz//F3s9Urm3ah6gv0+1r+6J9ftHtovQ9UqTcXPJ3ri8+F7n8VouvFHutvdeVtM/Zt13YlySbQzw3d8w5rE9TpB72DrZzk8tbW9Dot58JQC+gfvMSKtAfNfcvW2PbfqBmxXp65wEA/WDbewChSdEUnmlaRicd3oKnJvYtLtMAmMgLSthgnn09XWymCbl9aHlZlNvg8tICtxZqnXi24k1BA3ZrZH0ngRwvQKjBOS2bBmXW+qplXwqlvNmS1wS9rqI0EGi9aK+x9ZBcf/VE+pi+NDgoXlwT2KMPPJytfOddM1HqDYv6xF4buVZyHLmWhyTJdH99331Kx2bvPaQe1ju2Tvpe9vxsWX1Nkx5zmvt8ls556TM9htLe28pzp7L0Gc9p3yMYlX19kfjDejf1i/hTyuq11rqqb9Xn3tht55gq28bOTS6/1eIrRa/RGtm+0/pSrrcda/dp3zip/av32hz73j/tS89JLm+dil3DB1pSrLd3XqOjfvMSKtAftfYvObBtP1CzYj298wCAfrDtPYDQpGgKzzQto5MOb8EDY1DrxBNvQilv4rWxKeWzlK19JwHefUmcuTtb7BdF7P+XkhlbJckUeS8bRN4qSfb+T73nwjnrZ7CUvCh1B1Bp723tOWiLXH7DV5DLW6di1/CBlhTr7Z3X6KjfvIRKKfS3wtLf/xLkN8Bu/8JD12xX5HfH7G+S5UR+p+yx7z134bfLlpC6pb91dm5q7V9y0NBjzeijAAbBtvcAQpMuyWAlg5ZnmpbRSYe34IExqHXiiTehlDfx2tiU8lnK1r7zkmQ2eSTMJX9sgsoeR8rr3Ya6/ZY73ureEXHs3RuKrcOaOzjsnUVLSTI5V02yvfPDb9ybIBPSJJxF3mur5Flp723tOWiLXH7DV5DLW6cS1vCtBna6jT1sgfrNS6jkRpNOr/m3n5uSZO/+2D9dSJatSUrZJNmNt961mJRKjyf7SgLuujdd3n3jsaem7ZKUk/e32/Q97P7y+iNPPLN7/fu+eOH/clz5+8qTz0776P+9BOA5qLV/yUUjj4iljwIYhNDeW51LoZySwcozTOvopMNb8MAY1DrxxJtQypt4bWxK+Swlt+8kmWPlPR5O0ISUJH70cXHyf0kU2X1s8iy9s0tYSixZbDJM0HrO1U/w3s++pvWXv70kmWzf9z56nKV62LvsvNcPpbT3cnsO6iaX3/AV5PLWqYQlfLOBnV5jD1ugfvMSKjmRxNOS3nP5/muSSzYh5m2TJNk+2STaFkmy/+X/uDsm9uT1p597Yffwo0/trn/zJy/U0ybO7PbS1Nq/5CA0/Wb6LPoogHFo9PddUUbFwcozTMvopMNb8MAY1DrxxJtQypt4bWxK+SxlK9/Z30Fa+7tNkjDSZJBNKnmJKHldtdUdVFsiSTe5M8x+DpKE06SX/m330dfWJPVyUtp7W3kO2iSX3/AV5PLWqTT06LJU3cYetkD95iVUciPJpxde/H5MNOmdZB+96+Hp3wf+y/diUmnukYxpkiy9k8y+ruix1kjq93/f/+29STLvkZBaRu8wq4Fa+5cc2LYfqFmxnt55AEA/NDyXQhnV7SCgkw5vwQNjUOvEE29CKW/itbEp5bMUfAelvYfnxiaX3/AV5PLWFjT67WcC0Auo37yESgn07ivvcYR695W8Jgmw9A4tvXNMElmSiPLKeEky+9oWj1vUpNvf3ffIVJ8laV29+pSg5v5la2zbD9SsWE/vPACgH2x7DyA0KZrCM03L6KTDW/DAGNQ68cSbUMqbeG1sSvksBd9Bae/hubHJ5Td8Bbm8dSp2DR9oSbHe3nmNjvrNS6jkRpJP6Z1fkqSyd2VpEm3ut8ZsEkz/L8eYkz1OmhCT30a75z9fmZJYa5JkksBTaXJOyjz59PPxGJpIS8/rXNTav+TAtv1AzYr19M4DAPrBtvcAQpOiKTzTtIxOOrwFD4xBrRNPvAmlvInXxqaUz1LwHZT2Hp4bm1x+w1eQy1unYtfwgZYU6+2d1+io37yESikkCSVKE2GaIJPkkiSZvN/6sgksTU7NJaTs4xjtXWeaEPvwf3owJtxskkz3T5Nk9lGK6d9aXuuk286dLKu1f8lBQ481o48CGATb3gMITbokg5UMWp5pWkYnHd6CB8ag1okn3oRS3sRrY1PKZyn4Dkp7D8+NTS6/4SvI5a1TCWv4VgM73cYetkD95iVUciLJIpH3mEVJfM09llCTZX/2uf932l/0nsv3X0horUmSpa+NQq39Sy4aeUQsfRTAIIT23upcCuWUDFaeYVpHJx0Anj/OiVdHGBPPH1vivSeMh+eNnHh1gDHx/JED771hPDxvnIL3HjAmnj/OSVjCNxvY6TX2sAXqNy+hAv1Ra/+Sg9D0m+mz6KMAxqHR33dFGRUHK88wAAAAAAAAAFAHDT26LBWxhwVIko0FSbIqFevpnQcA9EPDcymUUQwCAAAAAAAAAI3Q6LefiT0sQJJsLEiSValYT+88AKAfbHsPIDQpmsIzDQAAAAAAAADUgV3DB1pSrLd3XqNDkmwsSJJVqVhP7zwAoB9sew8gNCmawjMNAAAAAAAAANSBXcMHWlKst3deo0OSbCxGSpI19Fgz+iiAQbDtPYDQpEsyWMmg5ZkGAAAAAAAAAOogrOFbDewQe1iAJNlYjJQkExp5RCx9FMAghPbe6lwK5ZQMVp5hAAAAAAAAAKAewhK+2cAOsYd5SJKNxUhJstD0m+mz6KMAxqHR33dFGRUHK88wAAAAAAAAAFAHDT26LBWxhwVIko0FSbIqFevpnQcA9EPDcymUUQwCAAAAAAAAAI3Q6LefiT0sQJJsLEiSValYT+88AKAfbHsPIDQpmsIzDQAAAAAAAADUgV3DB1pSrLd3XqOjSRMYC88LvWHbfqBmxXp65wEA/WDbewChSdEUnmlaxpuAwJh4/jgnXh1hTDx/bIn3njAenjdy4tUBxsTzRw6894Yx8fxxLN7xYUw8f5wTu4YPtKRYb++8AKBPGnqsGX0UwCDY9h5AaNIlGaxk0PJM0zK6qPmlt/wEDEqtC1u8CaW8idfGppTPUvAdlPYenoMcnsNXkMNXWxDW8K0GdrqNPQDAMo08IpY+CmAQQntvdS6FckoGK88wrcPCFmpd2OJNKOVNvDY2pXyWgu+gtPfwHOTwHL6CHL7agrCEbzaw02vsAQDmCU2/mT6LPgpgHBr9fVeUUXGw8gzTMixsodaFLd6EUt7Ea2NTymcp+A5Kew/PQQ7P4SvI4astaOjRZam6jT0AwDy27QdqVqyndx4A0A8Nz6VQRnU7CLCwhVoXtngTSnkTr41NKZ+l4Dso7T08Bzk8h68gh6+2otFvPxOABhgQ2/YDNSvW0zsPAOgH294DCE2KpvBM0zIsbKHWhS3ehFLexGtjU8pnKfgOSnsPz0EOz+EryOGrLbBr+EBLivX2zgsA+sS2/UDNivX0zgMA+sG29wBCk6IpPNO0DAtbqHVhizehlDfx2tiU8lkKvoPS3sNzkMNz+Apy+GoL7Bo+0JJivb3zAoA+aeixZvRRAINg23sAoUmXZLCSQcszTcuwsIVaF7Z4E0p5E6+NTSmfpeA7KO09PAc5PHeorz742T/ePff8s7vffPcvuq9De+Tw1RaENXyrgZ1uYw8AsEwjj4iljwIYhNDeW51LoZySwcozTOscurCF/qh1YYs3oZQ38drYlPJZCr6D0t7Dc5DDc4f6iiRZf+Tw1RaEJXyzgZ1eYw8AME9o+s30WfRRAOPQ6O+7ooyKg5VnmJY5dGFbO79y00/u/vnrX9l967Gv73797a90y8BFal3Y9uJNCQZ5uvUTf7Cq3H0P3nOhnOXtH/ztq6V+oN6CTqW8uaXXtu6DeurTfvVtP7174ntXdp+656/c189FKZ+lbOm7UbnzK5eb7vdKe69lzzG/24YcnjvUV16STNqyyI4P6bwonQ9p+7/xj355GltU3rwpnS997kt/7fppzXvKPrfc8dbpdbu/jnFW6VzvkHJL/M6f/Nrumeeevrr3xXp6/aKev/18tU3ZfXWbam17y+GrLWjo0WWpuo09AMA8tu0Halasp3ceANAPDc+lUEZ1OwgcurCF/qh1YduLNyXg8sKLL+x+7wO/Fbd5yQKvnKLBDQ2i1Jps2JpS3qzZaz0FhjWoR5LsB9Tsu1YgSXYYeA5yeO5QX9kkmSal9iWJvLFQ2n86b0rLeYkgQedRS2Proe/pJedsH7W2XPqaxauTIPNErVc6R9R9vvnogxfeQ/ZJ67b0eSyRw1db0ei3nwlAz6Beg7HwvNAjtu0Halasp3ceANAPtr0HEJoUTeGZpmV04uEteFrEW+TJwlOk27SMShfmXgBXt9kFrWx77394W/y7dWqdfPbizTT5NReIWEqSpa9bDx/67eOWKOXNLb2WXt+5663bbd/ifdM77b8OKZf2aRo4S/uzpT5uzTH0vdPgm8jrT+02b/vce1z57rd3D3zrqxc+xy0o5bOULX13KDagqts0WG0/d70W2s/Ifvuu6Vo/rPGx54U//9s/jMdd816HtMHSlPbeOT23xLHX0esXZL/U26lPpYz13ak+3nesmsjhuUN9pX2NKG2Xin7WIr0Gck3S62+vj2LL6fVI50qen9a+Z1rnufcQ9Jjy2tpyWjcrrY8eY056bPmMdR85ttT5N37/F6bjijf1PdSnS3VbQw5fbYFdwwdaUqy3d14jo1770Td8DAag1r4lF7btB2pWrKd3HgDQD7a9BxCaFE3hmaZldOLhLXhaZC6Iki6i5xaDdvGrwblaAx1bUevksxdveskvDYZYb3nlLLKP97p4VnXOYG8OSnlzS6+lfZDXJ9lyes20T0r7m3T/U8vZvm9fH7fmGPK318fqdnve3vFOfY8tKOWzlC19dyip/8QLV77zyO7mj/zu9K/2M9Ivpd5V1D8iW2aNH+aue+pjfY+5a7/mvdJjapn0MzgHpb13Ts8tcex1XLOf/j13nU/xsd0uzB2rJnJ47lBfpQkckb0+af8v6Gd76DXS/dLrr++h5Q55z/TaLvUlto5ry6WvWdb2W1pOHiv5jw99Kfbpcp7feerx3Z9+/F0XzsNrX4eQw1dbYNfwgZYU6+2d18io17yECvRHrX1LLhp6rBl9FMAg2PYeQGjSJRmsZNDyTNMyOvHwFjwt4i3yvIWntxjWsrqvlpkLIPdCrZPPXrw5l/xKty8lydYGRZaO0SKlvLml19I+aC7wlF7TuT4p3f/UcpZ9fdyaYwhzwT3bn8rf3vsd8h7pZ7gVpXyWsqXvjkE++6eeeXLqL+Tz1esi/Yh81q+7+TUXEmYaME79kl6bNX6Yu+5z7UXQfWwft+a91rbBc1Dae+f23BzHXkf7ut1PvSr+kiSMPfaWPl57rJrI4blDfSV9TPrZyjaRfm7a3lXyGR9zjXSbHl/1/k+95xo/rX3P9NhKuv/cfGxtuSU0uajy6uQlIAU5B5E37qZ1mzvXlBy+2oKwhm81sNNt7OFU1GteQgX6o9a+JSeNPCKWPgpgEEJ7b3UuhXJKBivPMK2jEw9vwdMic0GUdBGti8B0gZgufue+4crjFvPTize9xJX6ygbWvHLq53S7BOa+/fg3L3h6LhDcMqW8uaXXvOuQXm8tI7J9iwbxtF+y5ezx1pbzfCb9V/poMtFcH7fmGF4fq9ttfTSgnAbs1r5HLm+X8lnKlr47FvGSPK5O7izQ66fXSX6/xl4r7/rJdRHZa7PWD2t8LD742Bc+GI8hXrH94dr3Sj021wZLU9p7NXjOY8111GuWes3+bVGvPPLYNy7M9bb08dpj1UQOz9XqqyWkb/HWAXAcOXy1BWEJ32xgp9fYw6mo17yECvRHrX1LLkLTb6bPoo8CGIdGf98VZVQcrDzDtIxOPLwFD4xBrZNPvAmlvLml1zSQWzrwfq737YFSPkvZ0ne9MJqPS3sPz0EOz7XgK01eqhgrtyWHr7agoUeXpeo29nAq6jUvoQL9UWvfkgvb9gM1K9bTOw8A6IeG51Ioo7odBHTi4S14YAxqnXziTSjlzS29lt7pkgMJ9tm7rvRuhlrvXKidUj5L2dJ3LYKPy3tvdM9BHs/hK8jhq61o9NvPBKBnUK95CRXoj5r7lhzYth+oWbGe3nkAQD/Y9h5AaFI0hWealtGJh7fggTGodfKJN6GUN/Ha2JTyWQq+g9Lew3OQw3M9+kofB5vqA59975TMX5Ik+u/4/F9c/Wten/vSX093ztovC6xBvmBwyp1w6RcUtiCHr7bAruEDLSnW2zuvkVGveQkV6I9a+5Zc2LYfqFmxnt55AEA/2PYeQGhSNIVnmpbRiYe34DkHSws3uUNj3zfMZVG79SNUTlmMym8e2N96qZFaJ5+1edMidzxc+c4jR98tpI8UK/1bGOLllu7SKOXNmr12DEv+2hccy9GHHkNJr5byWUqNvpPrn37up/Z3pWmpnyvtvRo9dyjav2k/pn/vk9fvybwy7e/0jkarlsbNfeTwXA++8pD+UHwj/3q/T7fUNy75Uo8lfVX6G4vWp/L3oZobv9Nje339KeTw1RbYNXygJcV6e+c1Muo1L6EC/VFr35KLhh5rRh8FMAi2vQcQmnRJBisZtDzTtIxOPLwFzzmQRdw/PHD3hR/qVw5Nku1LRNiyS0idTgka1x5grHXyWZs3LWuvqf4w/KGaC5poG3jdza+Zgnietz1fe0G/OXmBxHNRyps1e+0QNCn/+n/3r6e+7/2fes+FPnBN0t76R/zmBQaV9HiterWUz1Jq851cz6eeeXK2X1saC9PxWa5t+rfd13ol/Xukfq6092rz3Kn86cfftXvPHW9ZnOsJqd/E6w9866u7W+546+S13/j9X9j940NfmryfekvK6jhei29OIYfnjvWVtln7ef/53/5hHFOkL0ivm1wLu21fmX3vsQ/d3/rL638EeW87JqZ9kuyj3rNrGfGnKPVX6lu73Xt/z7vap88dS5F9l8b7feTw1RaENXyrgZ1uYw+nol7zEirQH7X2LTlp5BGx9FEAgxDae6tzKZRTMlh5hmkdnXh4C56S6KLxi/f/3bSIk8VaGvBIg3AedoGYJslkf6v0d4NOXYxa0mPJQlmTKum3oM9NrZPPWrwpvkkDB2kgxGJ9Z8t5/vWOY70if1sv6TFs8Dj9trKtq76m7yvvJ8Ej61ttF6cER3JRyptbeS0NiKVtXPoMq7l+xSotM/ce6X6p9BFR+wJ9dlvaZ3qyvmnVq6V8lrKV77ZAP/+tx6W5cTVl1H6utPdq8twx6LW28zfdZvu2FOsv+b8nOebNH/ndC/2rVdpXtkoOzx3rKx3P1rRLO/ZpW19T5pD38LDzNPVROk7avmdubmhZW27TspiRAAAqeElEQVSu/5Ttnh/TMd2WmzuWRfY/9nPK4astCEv4ZgM7vcYeTkW95iVUoD9q7VtyEZp+M30WfRTAODT6+64oo+Jg5RmmZXTi4S14SiILM1m8rVnELSHHuf/hL08BE33W/5LsYvDUxahdKO87D120n3KuW1Hr5LMWb8p1FZ985T9/8aprfqC5QMLaay8BPesZr6xgj6flNXg8p7ljimfntK8e56CUN7fwmgbmlwK1ljSwv6bMvveQ6yuB3nd++I3TfnonmfaF33z0wdhnzQWWbb+m3rc+T/s9S6teLeWzlC18twXqBZFeP93m9WVybdMvmcyxrz9URu3nSnuvFs9tgVxn8Yz175KsD7Ufk/H4249/c7r7Vu8k037WJs3m+rwWyeG5LXxlP3e5DnPzZOkrtB2vKWO3p+9hX5tD9pGE1ts/9IZ4V5YdB+3/tewxSSaPuf5TtnuetHVJx++5Y6XYYxxCDl9tQUOPLkvVbezhVNRrXkIF+qPWviUXtu0Halasp3ceANAPDc+lUEZ1OwjoxMNb8JwDu4jbt9i0Czndz26zQWANuumC2QsQyzEOlb6XTXzosfYtRucW96WpdfJZizdT7xyKeE28LJ7wEg77jm29lAaP08fpLQW2Fc/7tVLKm1t5TQNwojQIJ9dOpT6Qa2uv/5oyS+9hX/eur+2nPF/r++txvTJLAbRWvVrKZylb+e5UJIkq19teP0G8lD5+MR3rLJ5fPDwPjdrPlfZeLZ7Lyb5rb8dd7fNEsk0ev6iy80vRkt9aIofnjvWV9DH28epyPdIkme0r9Fro9VtTZuk9dNsSsn+6FtE+TMdbHa+9sjmQc0z70H3YPjZF6r30qN015PDVVjT67WcC0DOo17yEyhbc8on7pz5EdffXrlx4/W/u+cbumedf3N34Z3ftnn7uhauldrt3fPS+3Sve+PHdlx98/OqWa/e97k2Xd1eefPbqq7vd7V946MLrc+zb77U333mhLl6dH370qd2bP/T30+vy/8/d+63pPF5902diOa2/vH79mz85bTvm2LrvFtTct+TAtv1AzYr19M4DAPrBtvcAQpOiKTzTtIxOPLwFzzmwi7h9i00v0Ga3pYESXcyK0mTFEmsWo2mZpcXoUpDxHNQ6+azFm3ptbWDWBoPleurjEaWsbpd9xY/HSv1jvZQGj8VD+v5699Cc7xRb9/Q1ea+agsqlvJnDa9rfyPXQ/9vPVvsBG8jbV0a3K/Y95G/xW9q3pX2R7jPXB9o+VP8vx5iTPU6rXi3ls5QcvjuF1CuCeMBeA6+MsnS9LNZjSqveOZXS3qvNc8eifaNcR+3T9in1nId4c5+3WieH53rxlYf0Jd64KrL9yNx4vaZfXJP4t8j7r/GzRes3p1P7xBy+2gK7hg+0pFhv77xGRr3mJVS2xksaSVLohRe/v3v9+74Yy914611TO7IJpHRfTTZJMk3LrGFpP69+gtTH1tGrsybebMJN9tPE2SnH3pJa+5Zc2LYfqFmxnt55AEA/2PYeQGhSNIVnmpbRiYe34DkHNlAmgY+tkmQaRJGFqvxAu2xf+03SYxajS/tIHQ9J0uWm1slnDd6cu1Y26KHB20O+laxJik/e9ZFpUSXygiM2ECh/e8Fj2a4Bmzlf6XGWfCf1OvWbxFtTyptbeU2vgyjtX9JArlxvKW+DZ2vKLL2HIr4Vpddbj+8d1+4rfZf1g5T1/GmDhy17tZTPUrby3VbMXWfFjq8ea4LBQnqckfu50t6rzXPHIl6Y8+K+O8lSxG8iOZ54Ux9Pe8jdRi2Rw3O9+AqOJ4evtsCu4QMtKdbbO6+RUa95CZVT0WSXSJNFeqeUTZKld2DNJbLSfe1dWTaxpAkpK/sec/vZ7Z60Pmk9FJvw0qSZ7nPqsbei1r4lFw091ow+CmAQbHsPIDTpkgxWMmh5pmkZnXh4C55zYIN0EsxKk2QaJFOtDYKcwlIwpgdqnXzW5s1jsH5dCj5bNMEh3pb/y36a3BCJFzUYrH/b/fW1NcHq2inlzZ685vWJ4qO5gK/sJ1654/N/Me0v+sBn3zv9To/2vVJmX5KsZa+W8llKbb6bu865GbmfK+292jx3DDbRaT2zRuIjeaTiA9/6qusb9WK6Xfi//uO/b35MFXJ4rgdfwWnk8NUWhDV8q4GdbmMPp6Je8xIqp+AlujRxtFWSzKL7rH3komL30+Ra+gjElKV6yGuyv/6r27c49hbU2rfkpJFHxNJHAQxCaO+tzqVQTslg5RmmdXTi4S14YAxqnXziTSjlTbw2NqV8loLvoLT38Bzk8By+ghy+2oKwhG82sNNr7OFU1GteQuVU0runJBGVJoHk72OTZPK36pBHFO7bz94BJ0qTVmk9LJoITM9JOeXYW1Br35KL0PSb6bPoowDGodHfd0UZFQcrzzAtoxMPb8EDY1Dr5BNvQilv4rWxKeWzFHwHpb2H5yCH5/AV5PDVFjT06LJU3cYeTkW95iVUoD9q7VtyYdt+oGbFenrnAQD90PBcCmVUt4OATjy8BQ+MQa2TT7wJpbyJ18amlM9S8B2U9h6egxyew1eQw1db0ei3nwlAz6Be8xIq0B819y05sG0/ULNiPb3zAIB+sO09gNCkaArPNC2jEw9vwQNjUOvkE29CKW/itbEp5bMUfAelvYfnIIfn8BXk8NUW2DV8oCXFenvnNTLqNS+hAv1Ra9+SC9v2AzUr1tM7DwDoB9veAwhNiqbwTNMyOvHwFjwwBrVOPvEmlPImXhubUj5LwXdQ2nt4DnJ4Dl9BDl9tgV3DB1pSrLd3XiOjXvMSKiXQ3/A6RGt+s+uWT9x/0O+Upchvg939tSvua2uQ/eU32LzXzkmtfUsuGnqsGX0UwCDY9h5AaNIlGaxk0PJM0zI68fAWPDAGtU4+8SaU8iZeG5tSPkvBd1Dae3gOcngOX0EOX21BWMO3GtjpNvZwKuo1L6FSAk2SveOj913YfuOtd7nJMEl+2e2veOPHd19+8PFr9vfQsjZ5JcmsQzWXPEsTY2lda6DWviUnjTwilj4KYBBCe291LoVySgYrzzCtoxMPb8EDY1Dr5BNvQilv4rWxKeWzFHwHpb2H5yCH5/AV5PDVFoQlfLOBnV5jD6eiXvMSKiU49U6yLZJk3h1fc3eSSeLLbn/tzXfunnz6+emOtX13j8m+zzz/4u7VN33Gfb0EtfYtuQhNv5k+iz4KYBwa/X1XlFFxsPIM0zI68fAWPDAGtU4+8SaU8iZeG5tSPkvBd1Dae3gOcngOX0EOX21BQ48uS9Vt7OFU1GteQqUEW91Jdoi2TJLZcvuSZMK5E2W19i25sG0/ULNiPb3zAIB+aHguhTKq20FAJx4Anj/OiVdHGBPPH1vivSeMh+eNnHh1gDHx/JED771hTDx/HIt3fBgTzx/nptFvPxOAnkG95iVUSiB3Yj393AtX01frZJNkkmR75IlnTvrtsWOTZJLIswmvNUkyIU20laTmviUHtu0Halasp3ceANAPtr0HEJoUTeGZBgAAAAAAAADqwK7hAy0p1ts7r5E5d5JMEkveHWNr7yRL/96KuSTZEktJMvtYRu/1UpAkq1axnt55AEA/2PYeQGhSNIVnGgAAAAAAAACoA7uGD7SkWG/vvEbmnEmypTuqbJJMylnpoxnTO7m25Jgk2b7fV1vzu2m5GS1J1tBjzeijAAbBtvcAQpMuyWAlg5ZnGgAAAAAAAACog7CGbzWwQ+xhhnMmyaA8oyXJhEYeEUsfBTAIob23OpdCOSWDlWcYAAAAAAAAAKiHsIRvNrBD7MGHJNlYjJYkC02/mT6LPgpgHBr9fVeUUXGw8gwDAAAAAAAAAHXQ0KPLUhF7mIEk2ViQJKtWsZ7eeQBAPzQ8l0IZxSAAAAAAAAAA0AiNfvuZ2MMMJMnGgiRZtYr19M4DAPrBtvcAQpOiKTzTAAAAAAAAAEAd2DV8oCXFenvnNTIkycaCJFm1ivX0zgMA+sG29wBCk6IpPNMAAAAAAAAAQB3YNXygJcV6e+c1MiTJxmK0JFlDjzWjjwIYBNveAwhNuiSDlQxanmkAAAAAAAAAoA7CGr7VwA6xhxlIko3FaEkyoZFHxNJHAQxCaO+tzqVQTslg5RmmdXTiAeD545x4dYQx8fyxJd57wnh43siJVwcYE88fOfDeG8bD8wZAj4QlfLOBnV5jD6ei/ZiXUIH+GG3cCk2/mT6LPgpgHBr9fVeUUXGw8gzTMjrx+KW3/AQMSq2TT7wJpbyJ18amlM9S8B2U9h6eG5tcftPjAnj+OCcNPbosVbexh1NRr3kJFeiPWvuWXNi2H6hZsZ7eeQBAPzQ8l0IZ1e0goBMPbzENY1Dr5BNvQilv4rWxKeWzFHwHpb2H58Yml9/wFeTy1hY0+u1nAtAzqNdgLDwv9Iht+4GaFevpnQcA9INt7wGEJkVTeKZpGZ14eAseGINaJ594E0p5E6+NTSmfpeA7KO09PDc2ufyGryCXt07FruEDLSnW2zsvAOgT2/YDNSvW0zsPAOgH294DCE2KpvBM0zIsbKHWhS3ehFLexGtjU8pnKfgOSnsPz41NLr/hK8jlrVOxa/hAS4r19s4LAPqkocea0UcBDIJt7wGEJl2SwUoGLc80LcPCFmpd2OJNKOVNvDY2pXyWgu+gtPfw3Njk8hu+glzeOpWwhm81sNNt7AEAlmnkEbH0UQCDENp7q3MplFMyWHmGaR0WtlDrwhZvQilv4rWxKeWzFHwHpb2H58Yml9/wFeTy1qmEJXyzgZ1eYw8AME9o+s30WfRRAOPQ6O+7ooyKg5VnmJZhYQu1LmzxJpTyJl4bm1I+S8F3UNp7eG5scvkNX0Eub51KQ48uS9Vt7AEA5rFtP1CzYj298wCAfmh4LoUyqttBgIUt1LqwxZtQypt4bWxK+SwF30Fp7+G5scnlN3wFuby1BY1++5kANMCA2LYfqFmxnt55AEA/2PYeQGhSNIVnmpZhYQu1LmzxJpTyJl4bm1I+S8F3UNp7eG5scvkNX0Eub52KXcMHWlKst3deANAntu0Halasp3ceANAPtr0HEJoUTeGZpmV6Wtj+6tt+evfE967sPnXPX7mvH8sHP/vHu+eef3b3m+/+Rff11ql1YVuzN+e8dudXLu/1yq/c9JO7f/76V3bfeuzru19/+yvdMnP07sWUUt6s2WtbkquPPBVpN8e0h60o5bOUUXy3RAlP1up7obT3evGcjIWebv3EH6wqd9+D91wop7z9g799tcRF1eidY8jlt618VXNbtRwzZi2d25q5Y+3k8tap2DV8oCXFenvnBQB90tBjzeijAAbBtvcAQpMuyWAlg5ZnmpbZamFbA7/zJ7+2e+a5pzdfXJMkOw81e3POa7kDHSTJ8lCz17YkVx95KiTJ/HqNQAlP1up7obT3evGcjIUvvPjC7vc+8Ftxm5eE8MopmhCziTXZ5pVfOk5L5PLbVr6qua1ajhmz5s5Nvzg1l7hthVzeOpWwhm81sNNt7AEAlmnkEbH0UQCDENp7q3MplFMyWHmGaZ2tFrY1MLcAlaCH3ZaW08CKXaD++d/+YUxEpIkJWRyngZWWqXVhW7M357ym3rB+0UCclvXuJFuzn7DGi2v8Lftd+e63dw9866tnS0ysoZQ3z+017/rrdbTXzfOEt23u+i751iu/r+/U97b+SwPV+44hyPuTJKsDz3ey7b3/4W3T/w/xoGhfnzbnyXT7XD8mOvY9aqC092r03DGkSau5O7T3JbfS18U/c0ky67NWyeW3rXw111bluuxr00v90NrxxetT9L3Svscec0395s5tLknmnc/cOXrjd3ru+j4qHbfn6nUoubx1KmEJ32xgp9fYAwDME5p+M30WfRTAODT6+64oo+Jg5RmmZbZa2NbAmoWeBtpEunDUbXMBEA2O/OnH3zXt10tyTKl1YVuzN+e8JkEJz0c2oDKXJNu3n/y9z4tz9dLtWn7u/WqjlDfP7bX0OisSENOA7VL/ZsvJ33PX91DfWry+U7andZe/02CfsvYYpSnls5Rz+y5Fr8/cGLqFB9Nr7R1z7n10+75+bM171EJp79XmuWPxkl9eAsErZ0l9q8ewWtq/NXL5bStfrWmr3jgyt99c8nSOubHI69/mjjk3zu2rY/rFhLnP4ZC+Nt2ux03njkvns5Zc3jqVhh5dlqrb2AMAzGPbfqBmxXp65wEA/dDwXAplVLeDwFYL2xrwFpVzQb+5BaEewy5ANTHx9g+9YXptLgDcKrUubGv25lwAYylYoX7bIkk258W5AEjKnP9ro5Q3z+21uethg2FznkvLyd9zx1vybVp+bd9py0k9rI/XHmOuvqUo5bOUc/suZclj+14/JHBrr7V3TN22ph879j1qobT3avPcscwlv9LtS0kyLzmR+rg3cvltK195bXXNODLXZ5RIkq0d5+b6oS2SZF6dZXvaP859TnPHOIRc3tqCRr/9TAB6BvUajIXnhR6xbT9Qs2I9vfMAgH6w7T2A0KRoCs80LaMTD2/B0xq6ULULTW+bLAbtNzxl0fixL3wwvp4uQDUxoQtNeV2UJihapdbJZ83e9HwleEEJ3a5+2yJJtuRF3WaDK+Jx+yie9Li1Usqb5/aaXA+RvSZ6HW0wy7u2Xrm567vk27T8mr5Tt4u/nnrmyd0jj33jQj3WHmOuvqUo5bOUc/vOw+tT5Pquedxi6sE1fdqcJ7338fqxU96jBkp7r0bPHYOX/PI845XTMTjdLsgxvO29kMtvW/nKa6trxxG51iLth/Q6i9aOL95x5/o3LbO2fnP9kJckEzw/76uLbtPtaf8ofehoSTK7hg+0pFhv77xGRr32o2/4GAxArX1LLmzbD9SsWE/vPACgH2x7DyA0KZrCM03L6MTDW/DAGNQ6+cSbUMqb5/baFgGqc6JBPhvMa4lSPks5t+/g/JT2Hp4bm1x+q9VXcwmoOVofi89JLm+dil3DB1pSrLd3XiOjXvMSKtAftfYtuWjosWb0UQCDYNt7AKFJl2SwkkHLM03L6MTDW/DAGNQ6+cSbUMqb5/Za64E5qf/aIGSNlPJZyrl9B+entPfw3Njk8lsNvpJxyH5RQ+/cOmRsJUl2PLm8dSphDd9qYKfb2MOpqNe8hAr0R619S04aeUQsfRTAIIT23upcCuWUDFaeYVpHJx7eggfGoNbJJ96EUt7Ea2NTymcp+A5Kew/PjU0uv+EryOWtUwlL+GYDO73GHk5FveYlVKA/au1bchGafjN9Fn0UwDg0+vuuKKPiYOUZpmV04uEteGpFf//mlN+MOObbovrYlvRZ/hb5TQS5o0L+beXbqLVOPlv05qms8aX8JoUt06svhVLeHM1rqQ/Ed95vO6XQB25LD75L7944hLnfx/HAe9uQy3OpD/Ra2DJzHDMfU5Z8sc+bh9SxBDK2565PLr/l8tWxpPOkQ1nqmw7ptyzix2Ovr7znd556fO8YfU5yeetUGnp0WapuYw+nol7zEirQH7X2LbmwbT9Qs2I9vfMAgH5oeC6FMqrbQUAnHt6Cp0ZsQER/wNpq3w+u6+NX1igNrhwSpPNeq5VaJ58tedPzhrfNC9rZAKEGUXTfz33pr6fgiN3vlCSZ91rNlPJmS147FRtsk/8/8K2vXggkir/mEmb0gdvSg++8Pi3lkHHXyvoQ721DLs+lPlhzLU6Zj2k/9vp/968nX7z/U++54I81SQVbx6V+T1hzPOEYD+rnkJ6j1GlrP+fyWy5fHUs6TzqEJS+c0sfo/M57bQ3ikyvfeeSkLwjmJJe3tqDRbz8TgJ5BveYlVKA/au5bcmDbfqBmxXp65wEA/WDbewChSdEUnmlaRice3oKnNjRINrfwXVpApvtKwEO+CWoXrLIwFnmLY1ncWuVYQJ+LWiefLXnTu+5eUHdfQHkuiGL3s8Gfnn0plPJmK15TH6i35qT+SK+79nsSUP6HB+7effKuj1x4PfWfDRb27LVSPktpxXfCXNDZ9k1K2velY7MmBWzfqN70khx4bzu28px81tYPqQ/SayGva/lT52Ny7CV94LPvvcZfnjfsNn2/JaV1kX3SL2al76Pnds9XP39N29HXluYE+lmldT+WXH7byldbIddB/aX9zT7JZ+z5WBOwcrxb7njrNT62PhO8PlG3e9fR86aSHsv2pfr+S/4pSS5vnYpdwwdaUqy3d14jo17zEirQH7X2LbmwbT9Qs2I9vfMAgH6w7T2A0KRoCs80LaMTD2/BUxO6GBTpAjUts5QkS5FF6Zzmjp8uiO3CVheyNpAoAZBTHwtZglonn614Mw2uLQVQ5oInylwQxe5nPSZ/9+pLoZQ3W/GaXs+la26vdbr9vzzx/+0efORfrtlPPZx6bxSvlfJZSiu+E1IvCHNB/tQn+rdNMui+9z/85ek1z2fWj3hvG7byXHqN7BglpH3PXGJTkLJzSj1n95EE1Ts//MapHprIkLuv5d9vPvpgfP/UO/YYS3W0ry9hy+n/595TUO97mnsagiZ60rZ2KLn8tpWvtkCupejKd7+9qn/y0DIir5y+h3c90rZgt3t+Sn1m+7G5Yylb+WILcnnrVOwaPtCSYr298xoZ9ZqXUIH+qLVvyUVDjzWjjwIYBNveAwhNuiSDlQxanmlaRice3oKnJiTwIYEDWUzOBU0OSZIJaxbKlrS81MVKFqkS/JBvv7/9Q28gEXEiLXhTAyXqSetPDV5Yf3mBxH2S/e1+NoAif/fqS6GUN1vwmqA+8K65BtmsP+x2QffTgLIGhXW7BhVFXrCWPnBbWvGdkPY7cu3VI+oLfT31iaDbRF6gWBGPi+y+At7bhi09Z8c4b2yT6yzXZM218DyzDzm29FfePrZuqXcFHbvVw16ZtP+024/VkvdLkMtvW/rqFPSapdfT+tB6LfWQ+HgpoeuhXtNrq33YIdJ903lj2q48dJ995XKTy1unEtbwrQZ2uo09nIp6zUuobM0r3vjx3ZcffHz38KNP7a5/8yfdMpCXWvuWnDTyiFj6KIBBCO291bkUyikZrDzDtI5OPLwFT43IAjgNZCiyUDwkSeYFRRRZmKaBF11Y/+3dfxkfA2Vft2Xmvg1cI7VOPlvxpvWR9adsT4MtSwEPr7xi90t926svhVLebMVr6gO9nnOyfrRBWd1PA8e2rPrqi/f/3bSP15/26rVSPktpxXeC+EPvRLSeShGP6t1h6Ri6ZozWRFfqLby3Dbk8l45tad+zj3Rcs8ixUy/J8feNr5oAmRtXbR31/3KMOa1Jnhxy3mvLHnLMfeTyWy5fHYv1U5oIs+Oglk37DPnM07mabLMeXfKsh3hr33VMy6SetqQJtXOTy1unEpbwzQZ2eo09nIp6zUuowPG89uY7d08/98Lu9i885L5+LmrtW3IRmn4zfRZ9FMA4NPr7riij4mDlGaZldOLhLXhqJF2kWtYE4HRRuRTssN841W3ewlWlC1Q9tkjruGVwIxe1Tj5b8aYESqzk2svvVniB2rmAhxekmcMGZnr2pVDKm614bc4/c6TXOQ0OavBQj6mv2/dQj/XstVI+S2nFd8IhAWH1QRq8le3HJMnw3nbk8pxcE9tvrPns9ZodOh+zyPuI0mPYvk3q5nlX62jfIz0PRfxPkmyeXL46Fu2vXnfza67pi7z+ST7j1CNL1zztk9aw9T5S5zWeLEUub51KQ48uS9Vt7OFU1GteQuVYrnvT5d2VJ5+dxhORJorm7iS78da7rpb8gT5618PXlPube76xe+b5F3f/0zv/44Vj3/21K/E4a9A6qNK6aHJLlR5/TT2kTCqbLFvzHlKvN3/o76fXt7zzrta+JRe27QdqVqyndx4A0A8Nz6VQRnU7COjEw1vw1Ii3kD03XmBZF+EtfKO91slna95UljzqBeDWBE4kWGOVBp89WvelUMqbrXptH1sGV5egDzyOXn03h3ji2DvJ5sB7h9GD52TMnBsHpc+bu+6yn4zNd3z+L6b9RR/47Ht33378m9Fv3hgtkCRbpgdf5WbNXK9lcnlrCxr99jMB6BnUa15C5Rg0AfSOj953zWtpkkz/TpNEmmRLk2QvvPj93evf98VY7pDHN+4rO/e6JPDs+66th3cn2SnvsRU19y05sG0/ULNiPb3zAIB+sO09gNCkaArPNC2jEw9vwQNjUOvkE29CKW/itbEp5bMUfAelvYfnxiaX3/AV5PLWqdg1fKAlxXp75zUy6jUvoXIs9k4pm+xJk0RzCTUvmSSJI7mD69U3feZCWb3rSsrpfla6z1LyTrB19qT7ramHPd7SHWSp7HukibStqLVvyYVt+4GaFevpnQcA9INt7wGEJkVTeKZpGZ14eAseGINaJ594E0p5E6+NTSmfpeA7KO09PDc2ufyGryCXt07FruEDLSnW2zuvkVGveQmVLbDJojT5pXeMpXeS6T6HJsns9pS5u7jS19O6pJySJDvkPdac0zHU2rfkoqHHmtFHAQyCbe8BhCZdksFKBi3PNC2jEw9vwQNjUOvkE29CKW/itbEp5bMUfAelvYfnxiaX3/AV5PLWqYQ1fKuBnW5jD6eiXvMSKsciSR7V0p1kWv6WT9x/tfQP9O6P/dM15dYmp/aR3s2V7pv+Plr6+iH1sMeyybI173HIOR1CrX1LThp5RCx9FMAghPbe6lwK5ZQMVp5hWkcnHt6CB8ag1skn3oRS3sRrY1PKZyn4Dkp7D8+NTS6/4SvI5a1TCUv4ZgM7vcYeTkW95iVUzoUmsuYejQjHU2vfkovQ9Jvps+ijAMah0d93RRkVByvPMC2jEw9vwQNjUOvkE29CKW/itbEp5bMUfAelvYfnxiaX3/AV5PLWqTT06LJU3cYeTkW95iVUSiF3TlntexwhHE+tfUsubNsP1KxYT+88AKAfGp5LoYzqdhDQiYe34IExqHXyiTehlDfx2tiU8lkKvoPS3sNzY5PLb/gKcnlrCxr99jMB6BnUa15CBY6j5jvhau5bcmDbfqBmxXp65wEA/WDbewChSdEUnmlaRice3oIHxqDWySfehFLexGtjU8pnKfgOSnsPz41NLr/hK8jlrVOxa/hAS4r19s5rZNRrXkLlXMhvdnm/++Vx3Zsu7648+ezVe9D2y/5GmpLeyab66F0PT7+N5knudjv0vVVeHUpRa9+SC9v2AzUr1tM7DwDoB9veAwhNiqbwTNMyOvHwFjwwBrVOPvEmlPImXhubUj5LwXdQ2nt4bmxy+Q1fQS5vnYpdwwdaUqy3d14jo17zEiq5kSTTI088c03CaC5Jdssn7t89/OhTu+vf/MkL25fQu7q8/ewdX/Ke+pjHV7zx41NyTOugf++7M0zql9ZbE2m13FVWa9+Si4Yea0YfBTAItr0HEJp0SQYrGbQ807SMTjwAPH+cE6+OMCaeP7bEe08YD88bOfHqAGPi+SMH3nvDeHjeOAXvPWBMPH+ck7CGbzWw023s4VTUa15CJTc5k2SnJNTsb6J5ia+WqbVvyUkjj4iljwIYhNDeW51LoZySwcozDAAAAAAAAADUQ1jCNxvYIfbg03KSbO4xiWukx9FjSGJMjj+nv3/gsfjoxdu/8NA19bKJtTnWlsvJaEmy0PSb6bPoowDGodHfd0UZFQcrzzAAAAAAAAAAUAcNPbosFbGHGVpOki1xSNmUuccrSkLNe2wiSbJ6sW0/ULNiPb3zAIB+aHguhTKKQQAAAAAAAACgERr99jOxhxlaSpIpkqxK7+ZKOSRJ5iXF5NGLTz79/FS3tb9JZqkhIeZBkqxaxXp65wEA/WDbewChSdEUnmkAAAAAAAAAoA7sGj7QkmK9vfMamXMmyebQpNScvOSXt8++pJb+Btkx2ndskmR1YNt+oGbFenrnAQD9YNt7AKFJ0RSeaQAAAAAAAACgDuwaPtCSYr298xqZGpNkkI/RkmQNPdaMPgpgEGx7DyA06ZIMVjJoeaYBAAAAAAAAgDoIa/hWAzvEHmYgSTYWoyXJhEYeEUsfBTAIob23OpdCOSWDlWcYAAAAAAAAAKiHsIRvNrBD7MGHJNlYjJYkC02/mT6LPgpgHBr9fVeUUXGw8gwDAAAAAAAAAHXQ0KPLUhF7mIEk2ViQJKtWsZ7eeQBAPzQ8l0IZxSAAAAAAAAAA0AiNfvuZ2MMMJMnGgiRZtYr19M4DAPrBtvcAQpOiKTzTAAAAAAAAAEAd2DV8oCXFenvnNTIkycaCJFm1ivX0zgMA+sG29wBCk6IpPNMAAAAAAAAAQB3YNXygJcV6e+c1MiTJxmK0JFlDjzWjjwIYBNveAwhNuiSDlQxanmkAAAAAAAAAoA7CGr7VwA6xhxlIko3FaEkyoZFHxNJHAQxCaO+tzqVQTslg5RkGAAAAAAAAAOohLOGbDewQe/AhSTYWoyXJQtNvps+ijwIYh0Z/3xVlVBysPMMAAAAAAAAAQB009OiyVMQeZtCkCYyF54UesW0/ULNiPb3zAIB+aHguhTKKQQAAAAAAAACgERr99jOxB4ABsW0/ULNiPb3zAIB+sO09gNCkaArPNAAAAAAAAABQB3YNH2hJsd7eeQFAn9i2H6hZsZ7eeQBAP9j2HkBoUjSFZxoAAAAAAAAAqAO7hg+0pFhv77wAoE8aeqwZfRTAINj2HkBo0iUZrGTQ8kwDAAAAAAAAAHUQ1vCtBnaIPQAMSiOPiKWPAhiE0N5bnUuhnJLByjMMAAAAAAAAANRDWMI3G9gh9gAwHqHpN9Nn0UcBjEOjv++KMioOVp5hAAAAAAAAAKAOGnp0WSpiDwADYtt+oGbFenrnAQD90PBcCmUUgwAAAAAAAABAIzT67WdiDwADYtt+oGbFenrnAQD9YNt7AKFJ0RSeaQAAAAAAAACgDuwaPtCSYr298wKAPrFtP1CzYj298wCAfrDtPYDQpGgKzzQAAAAAAAAAUAd2DR9oSbHe3nkBQJ809Fgz+iiAQbDtPYDQpEsyWMmg5ZkGAAAAAAAAAOogrOFbDewQewAYlEYeEUsfBTAIob23OpdCOSWDlWcYAAAAAAAAAKiHsIRvNrBD7AFgPELTb6bPoo8CGIdGf98VZVQcrDzDAAAAAAAAAEAdNPToslTEHgAGxLb9QM2K9fTOAwD6oeG5FMooBoGCXL58eXfbbbdVsx0AAAAAAADaotFvPxN7ABgQ2/YDNSvW0zsPAOgH294DCE2KpvBMA9tx77337l7+8pfvXvayl+3uvPPOuP3Tn/707qUvfenq7VsdBwAAAAAAANrCruEDLSnW2zsvAOgT2/YDNSvW0zsPAOgH294DCE2KpvBMAwAAAAAAAAB1YNfwgZYU6+2dFwD0SUOPNaOPAhgE294DCE26JIOVDFqeaQAAAAAAAACgDsIavtXADrEHgEFp5BGx9FEAgxDae6tzKZRTMlh5hgEAAAAAAACAeghL+GYDO8QeAMYjNP1m+iz6KIBxaPT3XVFGxcHKMwwAAAAAAAAA1EFDjy5LRewBYEBs2w/UrFhP7zwAoB8ankuhjGIQAAAAAAAAAGiERr/9TOwBYEBs2w/UrFhP7zwAoB9sew8gNCmawjMNAAAAAAAAANSBXcMHWlKst3de0BaXL1/e3XbbbdVsh3qxbT9Qs2I9vfMAgH6w7T2A0KRoCs80AAAAAAAAAFAHdg0faEmx3t55QTvce++9u5e//OW7l73sZbs777wzbv/0pz+9e+lLX7p6+1bHgbpp6LFm9FEAg2DbewChSZdksJJByzMNAAAAAAAAANRBWMO3Gtgh9gAwKI08IpY+CmAQQntvdS6FckoGK88wAAAAAAAAAFAPYQnfbGCH2APAeISm30yfRR8FMA6N/r4ryqg4WHmGAQAAAAAAAIA6aOjRZamIPQAMiG37gZoV6+mdBwD0Q8NzKZRRDAIAAAAAAAAAjdDot5+JPQAMiG37gZoV6+mdBwD0g23vAYQmRVN4pgEAAAAAAACAOrBr+EBLivX2zgsA+sS2/UDNivX0zgMA+sG29wBCk6IpPNMAAAAAAAAAQB3YNXygJcV6e+cFAH3S0GPN6KMABsG29wBCky7JYCWDlmcaAAAAAAAAAKiDsIZvNbBD7AFgUBp5RCx9FMAghPbe6lwK5ZQMVp5hAAAAAAAAAKAewhK+2cAOsQeA8QhNv5k+iz4KYBwa/X1XlFFxsPIMAwAAAAAAAAB10NCjy1IRewAYENv2AzUr1tM7DwDoh4bnUiijGAQAAAAAAAAAGqHRbz8TewAYENv2AzUr1tM7DwDoB9veAwhNiqbwTAMAAAAAAAAAdWDX8IGWFOvtnRcA9Ilt+4GaFevpnQcA9INt7wGEJkVTeKYBAAAAAAAAgDqwa/hAS4r19s4LAPqkocea0UcBDIJt7wGEJl16yUteck/4NzXINIjJYxyEqwPaNWUslPfLKZT3yymU98splPfLKZT3yymU98splPfLKZT3yymU98splPfLKZT3yymU98splPfLKYOUb0kx9pDps4hQ3i+nUN4vp1DeL6ccU/673/3uz4b/167Z+KhS4rOi/DyU98splPfLKbb8j/zIj9z3g+3/1e7/B4QV/klCRUM/AAAAAElFTkSuQmCC;" parent="1" vertex="1">
          <mxGeometry x="40" y="50" width="1327" height="642.49" as="geometry" />
        </mxCell>
        <mxCell id="U7bG7EFXdmdKz-S8Kl_f-2" value="&lt;font style=&quot;font-size: 20px;&quot;&gt;整体架构&lt;/font&gt;" style="text;html=1;strokeColor=none;fillColor=none;align=center;verticalAlign=middle;whiteSpace=wrap;rounded=0;" parent="1" vertex="1">
          <mxGeometry x="30" y="10" width="130" height="30" as="geometry" />
        </mxCell>
        <mxCell id="U7bG7EFXdmdKz-S8Kl_f-3" value="&lt;font style=&quot;font-size: 20px;&quot;&gt;内部架构架构&lt;/font&gt;" style="text;html=1;strokeColor=none;fillColor=none;align=center;verticalAlign=middle;whiteSpace=wrap;rounded=0;" parent="1" vertex="1">
          <mxGeometry x="50" y="760" width="130" height="30" as="geometry" />
        </mxCell>
        <mxCell id="U7bG7EFXdmdKz-S8Kl_f-4" value="" style="rounded=0;whiteSpace=wrap;html=1;fontSize=20;fillColor=#f5f5f5;fontColor=#333333;strokeColor=#666666;dashed=1;strokeWidth=2;" parent="1" vertex="1">
          <mxGeometry x="160" y="1410" width="770" height="140" as="geometry" />
        </mxCell>
        <mxCell id="U7bG7EFXdmdKz-S8Kl_f-5" value="&lt;font style=&quot;font-size: 13px;&quot;&gt;低代码&lt;br&gt;执行引擎&lt;/font&gt;" style="text;html=1;strokeColor=none;fillColor=none;align=center;verticalAlign=middle;whiteSpace=wrap;rounded=0;dashed=1;strokeWidth=2;fontSize=20;" parent="1" vertex="1">
          <mxGeometry x="70" y="1460" width="60" height="30" as="geometry" />
        </mxCell>
        <mxCell id="U7bG7EFXdmdKz-S8Kl_f-6" value="" style="rounded=0;whiteSpace=wrap;html=1;fontSize=20;fillColor=#f5f5f5;fontColor=#333333;strokeColor=#666666;dashed=1;strokeWidth=2;" parent="1" vertex="1">
          <mxGeometry x="960" y="1060" width="290" height="490" as="geometry" />
        </mxCell>
        <mxCell id="U7bG7EFXdmdKz-S8Kl_f-7" value="&lt;font style=&quot;font-size: 13px;&quot;&gt;技战法脚本管理系统&lt;br&gt;&lt;/font&gt;" style="text;html=1;strokeColor=none;fillColor=none;align=center;verticalAlign=middle;whiteSpace=wrap;rounded=0;dashed=1;strokeWidth=2;fontSize=20;" parent="1" vertex="1">
          <mxGeometry x="970" y="1080" width="70" height="30" as="geometry" />
        </mxCell>
        <mxCell id="U7bG7EFXdmdKz-S8Kl_f-8" value="" style="rounded=0;whiteSpace=wrap;html=1;fontSize=20;fillColor=#f5f5f5;fontColor=#333333;strokeColor=#666666;dashed=1;strokeWidth=2;" parent="1" vertex="1">
          <mxGeometry x="160" y="1240" width="770" height="140" as="geometry" />
        </mxCell>
        <mxCell id="U7bG7EFXdmdKz-S8Kl_f-9" value="&lt;font style=&quot;font-size: 13px;&quot;&gt;技战法DSL&lt;br&gt;&lt;/font&gt;" style="text;html=1;strokeColor=none;fillColor=none;align=center;verticalAlign=middle;whiteSpace=wrap;rounded=0;dashed=1;strokeWidth=2;fontSize=20;" parent="1" vertex="1">
          <mxGeometry x="60" y="1290" width="70" height="30" as="geometry" />
        </mxCell>
        <mxCell id="U7bG7EFXdmdKz-S8Kl_f-10" value="" style="rounded=0;whiteSpace=wrap;html=1;fontSize=20;fillColor=#f5f5f5;fontColor=#333333;strokeColor=#666666;dashed=1;strokeWidth=2;" parent="1" vertex="1">
          <mxGeometry x="160" y="1060" width="770" height="140" as="geometry" />
        </mxCell>
        <mxCell id="U7bG7EFXdmdKz-S8Kl_f-11" value="&lt;font style=&quot;font-size: 13px;&quot;&gt;技战法&lt;br&gt;调用接口&lt;br&gt;&lt;/font&gt;" style="text;html=1;strokeColor=none;fillColor=none;align=center;verticalAlign=middle;whiteSpace=wrap;rounded=0;dashed=1;strokeWidth=2;fontSize=20;" parent="1" vertex="1">
          <mxGeometry x="61" y="1115" width="70" height="30" as="geometry" />
        </mxCell>
        <mxCell id="U7bG7EFXdmdKz-S8Kl_f-12" value="脚本" style="rounded=0;whiteSpace=wrap;html=1;strokeWidth=2;fontSize=13;" parent="1" vertex="1">
          <mxGeometry x="990" y="1200" width="100" height="45" as="geometry" />
        </mxCell>
        <mxCell id="U7bG7EFXdmdKz-S8Kl_f-15" value="技战法" style="rounded=0;whiteSpace=wrap;html=1;strokeWidth=2;fontSize=13;" parent="1" vertex="1">
          <mxGeometry x="1120" y="1200" width="100" height="45" as="geometry" />
        </mxCell>
        <mxCell id="U7bG7EFXdmdKz-S8Kl_f-17" value="脚本解释" style="rounded=0;whiteSpace=wrap;html=1;strokeWidth=2;fontSize=13;" parent="1" vertex="1">
          <mxGeometry x="240" y="1630" width="100" height="45" as="geometry" />
        </mxCell>
        <mxCell id="U7bG7EFXdmdKz-S8Kl_f-18" value="脚本缓存" style="rounded=0;whiteSpace=wrap;html=1;strokeWidth=2;fontSize=13;" parent="1" vertex="1">
          <mxGeometry x="800" y="1457.5" width="100" height="45" as="geometry" />
        </mxCell>
        <mxCell id="U7bG7EFXdmdKz-S8Kl_f-19" value="脚本实例化" style="rounded=0;whiteSpace=wrap;html=1;strokeWidth=2;fontSize=13;" parent="1" vertex="1">
          <mxGeometry x="200" y="1460" width="100" height="45" as="geometry" />
        </mxCell>
        <mxCell id="U7bG7EFXdmdKz-S8Kl_f-20" value="脚本执行" style="rounded=0;whiteSpace=wrap;html=1;strokeWidth=2;fontSize=13;" parent="1" vertex="1">
          <mxGeometry x="330" y="1460" width="100" height="45" as="geometry" />
        </mxCell>
        <mxCell id="U7bG7EFXdmdKz-S8Kl_f-21" value="编排解释引擎" style="rounded=0;whiteSpace=wrap;html=1;strokeWidth=2;fontSize=13;" parent="1" vertex="1">
          <mxGeometry x="460" y="1460" width="100" height="45" as="geometry" />
        </mxCell>
        <mxCell id="U7bG7EFXdmdKz-S8Kl_f-22" value="DSL实体" style="rounded=0;whiteSpace=wrap;html=1;strokeWidth=2;fontSize=13;" parent="1" vertex="1">
          <mxGeometry x="200" y="1287.5" width="100" height="45" as="geometry" />
        </mxCell>
        <mxCell id="U7bG7EFXdmdKz-S8Kl_f-23" value="上下文传递" style="rounded=0;whiteSpace=wrap;html=1;strokeWidth=2;fontSize=13;" parent="1" vertex="1">
          <mxGeometry x="330" y="1290" width="100" height="45" as="geometry" />
        </mxCell>
        <mxCell id="U7bG7EFXdmdKz-S8Kl_f-24" value="脚本结果和DSL转化器" style="rounded=0;whiteSpace=wrap;html=1;strokeWidth=2;fontSize=13;" parent="1" vertex="1">
          <mxGeometry x="460" y="1287.5" width="100" height="45" as="geometry" />
        </mxCell>
      </root>
    </mxGraphModel>
  </diagram>
</mxfile>
